<?xml version="1.0" encoding="utf-8" standalone="no"?>
<!DOCTYPE svg PUBLIC "-//W3C//DTD SVG 1.1//EN"
  "http://www.w3.org/Graphics/SVG/1.1/DTD/svg11.dtd">
<svg xmlns:xlink="http://www.w3.org/1999/xlink" width="576pt" height="360pt" viewBox="0 0 576 360" xmlns="http://www.w3.org/2000/svg" version="1.1">
 <metadata>
  <rdf:RDF xmlns:dc="http://purl.org/dc/elements/1.1/" xmlns:cc="http://creativecommons.org/ns#" xmlns:rdf="http://www.w3.org/1999/02/22-rdf-syntax-ns#">
   <cc:Work>
    <dc:type rdf:resource="http://purl.org/dc/dcmitype/StillImage"/>
    <dc:date>2026-07-06T09:40:15.453474</dc:date>
    <dc:format>image/svg+xml</dc:format>
    <dc:creator>
     <cc:Agent>
      <dc:title>Matplotlib v3.10.9, https://matplotlib.org/</dc:title>
     </cc:Agent>
    </dc:creator>
   </cc:Work>
  </rdf:RDF>
 </metadata>
 <defs>
  <style type="text/css">*{stroke-linejoin: round; stroke-linecap: butt}</style>
 </defs>
 <g id="figure_1">
  <g id="patch_1">
   <path d="M 0 360 
L 576 360 
L 576 0 
L 0 0 
z
" style="fill: #ffffff"/>
  </g>
  <g id="axes_1">
   <g id="patch_2">
    <path d="M 44.758036 317.861607 
L 565.2 317.861607 
L 565.2 26.057143 
L 44.758036 26.057143 
z
" style="fill: #ffffff"/>
   </g>
   <g id="matplotlib.axis_1">
    <g id="xtick_1">
     <g id="line2d_1">
      <path d="M 115.727394 317.861607 
L 115.727394 26.057143 
" clip-path="url(#p4defbf7921)" style="fill: none; stroke: #b0b0b0; stroke-opacity: 0.3; stroke-width: 0.8; stroke-linecap: square"/>
     </g>
     <g id="line2d_2">
      <defs>
       <path id="md22fe03a66" d="M 0 0 
L 0 3.5 
" style="stroke: #000000; stroke-width: 0.8"/>
      </defs>
      <g>
       <use xlink:href="#md22fe03a66" x="115.727394" y="317.861607" style="stroke: #000000; stroke-width: 0.8"/>
      </g>
     </g>
     <g id="text_1">
      <!-- −40 -->
      <g transform="translate(105.497707 332.547545) scale(0.1 -0.1)">
       <defs>
        <path id="Meiryo-2212" d="M 4503 1828 
L 641 1828 
L 641 2291 
L 4503 2291 
L 4503 1828 
z
" transform="scale(0.015625)"/>
        <path id="Meiryo-34" d="M 3713 1356 
L 3022 1356 
L 3022 0 
L 2459 0 
L 2459 1356 
L 194 1356 
L 194 2013 
L 2484 4709 
L 3022 4709 
L 3022 1819 
L 3713 1819 
L 3713 1356 
z
M 2459 1819 
L 2459 4022 
L 588 1819 
L 2459 1819 
z
" transform="scale(0.015625)"/>
        <path id="Meiryo-30" d="M 1991 -97 
Q 1159 -97 768 497 
Q 378 1091 378 2350 
Q 378 3609 770 4206 
Q 1163 4803 1991 4803 
Q 2813 4803 3206 4204 
Q 3600 3606 3600 2356 
Q 3600 1094 3209 498 
Q 2819 -97 1991 -97 
z
M 1991 4325 
Q 1456 4325 1215 3901 
Q 975 3478 975 2350 
Q 975 1231 1215 806 
Q 1456 381 1991 381 
Q 2525 381 2764 806 
Q 3003 1231 3003 2356 
Q 3003 3459 2765 3892 
Q 2528 4325 1991 4325 
z
" transform="scale(0.015625)"/>
       </defs>
       <use xlink:href="#Meiryo-2212"/>
       <use xlink:href="#Meiryo-34" transform="translate(80.371094 0)"/>
       <use xlink:href="#Meiryo-30" transform="translate(142.480469 0)"/>
      </g>
     </g>
    </g>
    <g id="xtick_2">
     <g id="line2d_3">
      <path d="M 210.353206 317.861607 
L 210.353206 26.057143 
" clip-path="url(#p4defbf7921)" style="fill: none; stroke: #b0b0b0; stroke-opacity: 0.3; stroke-width: 0.8; stroke-linecap: square"/>
     </g>
     <g id="line2d_4">
      <g>
       <use xlink:href="#md22fe03a66" x="210.353206" y="317.861607" style="stroke: #000000; stroke-width: 0.8"/>
      </g>
     </g>
     <g id="text_2">
      <!-- −20 -->
      <g transform="translate(200.123519 332.547545) scale(0.1 -0.1)">
       <defs>
        <path id="Meiryo-32" d="M 3606 0 
L 456 0 
L 456 609 
Q 956 1041 1579 1612 
Q 2203 2184 2506 2618 
Q 2809 3053 2809 3488 
Q 2809 3872 2554 4087 
Q 2300 4303 1863 4303 
Q 1222 4303 603 3897 
L 572 3897 
L 572 4506 
Q 1203 4806 1878 4806 
Q 2591 4806 3000 4461 
Q 3409 4116 3409 3519 
Q 3409 3200 3304 2909 
Q 3200 2619 2978 2344 
Q 2756 2069 2447 1759 
Q 2138 1450 1025 503 
L 3606 503 
L 3606 0 
z
" transform="scale(0.015625)"/>
       </defs>
       <use xlink:href="#Meiryo-2212"/>
       <use xlink:href="#Meiryo-32" transform="translate(80.371094 0)"/>
       <use xlink:href="#Meiryo-30" transform="translate(142.480469 0)"/>
      </g>
     </g>
    </g>
    <g id="xtick_3">
     <g id="line2d_5">
      <path d="M 304.979018 317.861607 
L 304.979018 26.057143 
" clip-path="url(#p4defbf7921)" style="fill: none; stroke: #b0b0b0; stroke-opacity: 0.3; stroke-width: 0.8; stroke-linecap: square"/>
     </g>
     <g id="line2d_6">
      <g>
       <use xlink:href="#md22fe03a66" x="304.979018" y="317.861607" style="stroke: #000000; stroke-width: 0.8"/>
      </g>
     </g>
     <g id="text_3">
      <!-- 0 -->
      <g transform="translate(301.873549 332.547545) scale(0.1 -0.1)">
       <use xlink:href="#Meiryo-30"/>
      </g>
     </g>
    </g>
    <g id="xtick_4">
     <g id="line2d_7">
      <path d="M 399.60483 317.861607 
L 399.60483 26.057143 
" clip-path="url(#p4defbf7921)" style="fill: none; stroke: #b0b0b0; stroke-opacity: 0.3; stroke-width: 0.8; stroke-linecap: square"/>
     </g>
     <g id="line2d_8">
      <g>
       <use xlink:href="#md22fe03a66" x="399.60483" y="317.861607" style="stroke: #000000; stroke-width: 0.8"/>
      </g>
     </g>
     <g id="text_4">
      <!-- 20 -->
      <g transform="translate(393.393892 332.547545) scale(0.1 -0.1)">
       <use xlink:href="#Meiryo-32"/>
       <use xlink:href="#Meiryo-30" transform="translate(62.109375 0)"/>
      </g>
     </g>
    </g>
    <g id="xtick_5">
     <g id="line2d_9">
      <path d="M 494.230641 317.861607 
L 494.230641 26.057143 
" clip-path="url(#p4defbf7921)" style="fill: none; stroke: #b0b0b0; stroke-opacity: 0.3; stroke-width: 0.8; stroke-linecap: square"/>
     </g>
     <g id="line2d_10">
      <g>
       <use xlink:href="#md22fe03a66" x="494.230641" y="317.861607" style="stroke: #000000; stroke-width: 0.8"/>
      </g>
     </g>
     <g id="text_5">
      <!-- 40 -->
      <g transform="translate(488.019704 332.547545) scale(0.1 -0.1)">
       <use xlink:href="#Meiryo-34"/>
       <use xlink:href="#Meiryo-30" transform="translate(62.109375 0)"/>
      </g>
     </g>
    </g>
    <g id="text_6">
     <!-- デチューン δ [VACTUAL counts] (axis1 = 615+δ) -->
     <g transform="translate(186.087612 347.303795) scale(0.1 -0.1)">
      <defs>
       <path id="Meiryo-30c7" d="M 4788 4288 
L 609 4288 
L 609 4722 
L 4788 4722 
L 4788 4288 
z
M 3603 2369 
Q 3603 1572 3343 1080 
Q 3084 588 2520 244 
Q 1956 -100 1081 -281 
L 916 159 
Q 1897 369 2472 851 
Q 3047 1334 3047 2253 
L 3047 2578 
L 244 2578 
L 244 3034 
L 5997 3034 
L 5997 2578 
L 3603 2578 
L 3603 2369 
z
M 6322 4709 
L 5966 4563 
Q 5759 5044 5516 5428 
L 5844 5581 
Q 6084 5209 6322 4709 
z
M 5466 4519 
L 5106 4359 
Q 4881 4869 4653 5234 
L 4991 5388 
Q 5269 4956 5466 4519 
z
" transform="scale(0.015625)"/>
       <path id="Meiryo-30c1" d="M 3681 2394 
Q 3675 1766 3562 1394 
Q 3450 1022 3120 655 
Q 2791 288 2303 50 
Q 1816 -188 1222 -300 
L 1031 116 
Q 1463 194 1873 372 
Q 2284 550 2609 867 
Q 2934 1184 3039 1512 
Q 3144 1841 3144 2394 
L 294 2394 
L 294 2847 
L 3144 2847 
L 3144 4113 
Q 2313 4016 941 3963 
L 863 4397 
Q 2078 4422 3281 4587 
Q 4484 4753 5197 5009 
L 5509 4600 
Q 4931 4381 3681 4188 
L 3678 2847 
L 6150 2847 
L 6150 2394 
L 3681 2394 
z
" transform="scale(0.015625)"/>
       <path id="Meiryo-30e5" d="M 5606 -103 
L 488 -103 
L 488 306 
L 3584 306 
L 3963 3175 
L 1203 3175 
L 1203 3572 
L 4519 3572 
L 4078 306 
L 5606 306 
L 5606 -103 
z
" transform="scale(0.015625)"/>
       <path id="Meiryo-30fc" d="M 5756 2069 
L 588 2069 
L 588 2531 
L 5756 2531 
L 5756 2069 
z
" transform="scale(0.015625)"/>
       <path id="Meiryo-30f3" d="M 3334 3622 
L 2981 3213 
Q 1866 3900 756 4372 
L 1025 4763 
Q 2194 4325 3334 3622 
z
M 6059 2828 
Q 5534 1913 4696 1245 
Q 3859 578 2954 251 
Q 2050 -75 825 -206 
L 716 275 
Q 1734 378 2540 648 
Q 3347 919 3908 1301 
Q 4469 1684 4853 2061 
Q 5238 2438 5631 3097 
L 6059 2828 
z
" transform="scale(0.015625)"/>
       <path id="Meiryo-20" transform="scale(0.015625)"/>
       <path id="Meiryo-3b4" d="M 1850 3513 
Q 1406 3922 688 4538 
L 688 4919 
L 3250 4919 
L 3250 4469 
L 1559 4469 
L 1559 4438 
Q 2147 3956 2612 3556 
Q 3078 3156 3308 2703 
Q 3538 2250 3538 1744 
Q 3538 891 3095 397 
Q 2653 -97 1906 -97 
Q 1144 -97 708 379 
Q 272 856 272 1688 
Q 272 2428 698 2906 
Q 1125 3384 1850 3513 
z
M 2259 3175 
Q 1578 3081 1209 2703 
Q 841 2325 841 1684 
Q 841 375 1916 375 
Q 2419 375 2694 725 
Q 2969 1075 2969 1722 
Q 2969 2631 2259 3175 
z
" transform="scale(0.015625)"/>
       <path id="Meiryo-5b" d="M 2325 -1241 
L 697 -1241 
L 697 4919 
L 2325 4919 
L 2325 4516 
L 1206 4516 
L 1206 -838 
L 2325 -838 
L 2325 -1241 
z
" transform="scale(0.015625)"/>
       <path id="Meiryo-56" d="M 4313 4709 
L 2453 0 
L 1916 0 
L 56 4709 
L 678 4709 
L 2203 794 
L 3722 4709 
L 4313 4709 
z
" transform="scale(0.015625)"/>
       <path id="Meiryo-41" d="M 3000 1828 
L 2153 4150 
L 1309 1828 
L 3000 1828 
z
M 3659 0 
L 3175 1344 
L 1131 1344 
L 647 0 
L 56 0 
L 1800 4709 
L 2541 4709 
L 4281 0 
L 3659 0 
z
" transform="scale(0.015625)"/>
       <path id="Meiryo-43" d="M 2544 -84 
Q 1488 -84 889 553 
Q 291 1191 291 2350 
Q 291 3488 898 4141 
Q 1506 4794 2547 4794 
Q 3294 4794 4103 4372 
L 4103 3688 
L 4059 3688 
Q 3325 4303 2509 4303 
Q 1766 4303 1331 3786 
Q 897 3269 897 2350 
Q 897 1438 1339 923 
Q 1781 409 2516 409 
Q 2913 409 3272 536 
Q 3631 663 4059 1031 
L 4103 1031 
L 4103 344 
Q 3503 59 3170 -12 
Q 2838 -84 2544 -84 
z
" transform="scale(0.015625)"/>
       <path id="Meiryo-54" d="M 1744 0 
L 1744 4203 
L 72 4203 
L 72 4709 
L 3997 4709 
L 3997 4203 
L 2325 4203 
L 2325 0 
L 1744 0 
z
" transform="scale(0.015625)"/>
       <path id="Meiryo-55" d="M 4141 1869 
Q 4141 847 3675 375 
Q 3209 -97 2331 -97 
Q 525 -97 525 1869 
L 525 4709 
L 1106 4709 
L 1106 1816 
Q 1106 1059 1409 726 
Q 1713 394 2331 394 
Q 2941 394 3250 720 
Q 3559 1047 3559 1800 
L 3559 4709 
L 4141 4709 
L 4141 1869 
z
" transform="scale(0.015625)"/>
       <path id="Meiryo-4c" d="M 3513 0 
L 578 0 
L 578 4709 
L 1159 4709 
L 1159 506 
L 3513 506 
L 3513 0 
z
" transform="scale(0.015625)"/>
       <path id="Meiryo-63" d="M 3097 216 
Q 2463 -81 1991 -81 
Q 1175 -81 723 397 
Q 272 875 272 1759 
Q 272 2625 737 3122 
Q 1203 3619 1994 3619 
Q 2516 3619 3097 3328 
L 3097 2716 
L 3072 2716 
Q 2488 3144 1981 3144 
Q 1441 3144 1141 2784 
Q 841 2425 841 1759 
Q 841 1094 1139 744 
Q 1438 394 1981 394 
Q 2503 394 3072 816 
L 3097 816 
L 3097 216 
z
" transform="scale(0.015625)"/>
       <path id="Meiryo-6f" d="M 1900 -97 
Q 1147 -97 709 401 
Q 272 900 272 1763 
Q 272 2625 712 3128 
Q 1153 3631 1900 3631 
Q 2647 3631 3087 3131 
Q 3528 2631 3528 1763 
Q 3528 894 3089 398 
Q 2650 -97 1900 -97 
z
M 1900 3163 
Q 1391 3163 1116 2803 
Q 841 2444 841 1763 
Q 841 1091 1116 731 
Q 1391 372 1900 372 
Q 2409 372 2684 731 
Q 2959 1091 2959 1763 
Q 2959 3163 1900 3163 
z
" transform="scale(0.015625)"/>
       <path id="Meiryo-75" d="M 3425 0 
L 2875 0 
L 2875 425 
Q 2234 -97 1647 -97 
Q 1094 -97 800 245 
Q 506 588 506 1225 
L 506 3531 
L 1056 3531 
L 1056 1547 
Q 1056 866 1239 644 
Q 1422 422 1834 422 
Q 2322 422 2875 875 
L 2875 3531 
L 3425 3531 
L 3425 0 
z
" transform="scale(0.015625)"/>
       <path id="Meiryo-6e" d="M 3450 0 
L 2900 0 
L 2900 1978 
Q 2900 2666 2719 2889 
Q 2538 3113 2122 3113 
Q 1631 3113 1081 2656 
L 1081 0 
L 531 0 
L 531 3531 
L 1081 3531 
L 1081 3106 
Q 1703 3631 2309 3631 
Q 2856 3631 3153 3289 
Q 3450 2947 3450 2300 
L 3450 0 
z
" transform="scale(0.015625)"/>
       <path id="Meiryo-74" d="M 1647 -69 
Q 553 -69 553 1134 
L 553 3081 
L 150 3081 
L 150 3531 
L 556 3531 
L 556 4547 
L 1103 4547 
L 1103 3531 
L 2341 3531 
L 2341 3081 
L 1103 3081 
L 1103 1447 
Q 1103 891 1179 727 
Q 1256 563 1412 486 
Q 1569 409 1813 409 
Q 2044 409 2322 522 
L 2341 522 
L 2341 22 
Q 1969 -69 1647 -69 
z
" transform="scale(0.015625)"/>
       <path id="Meiryo-73" d="M 1528 -84 
Q 866 -84 284 206 
L 284 844 
L 306 844 
Q 938 375 1559 375 
Q 2431 375 2431 925 
Q 2431 1141 2315 1259 
Q 2200 1378 1834 1463 
Q 1528 1522 1131 1615 
Q 734 1709 517 1945 
Q 300 2181 300 2550 
Q 300 3019 681 3317 
Q 1063 3616 1700 3616 
Q 2356 3616 2853 3359 
L 2853 2753 
L 2831 2753 
Q 2284 3156 1672 3156 
Q 1294 3156 1075 3017 
Q 856 2878 856 2631 
Q 856 2413 973 2297 
Q 1091 2181 1441 2094 
L 2131 1944 
Q 2559 1850 2775 1614 
Q 2991 1378 2991 1003 
Q 2991 519 2594 217 
Q 2197 -84 1528 -84 
z
" transform="scale(0.015625)"/>
       <path id="Meiryo-5d" d="M 2116 -1241 
L 488 -1241 
L 488 -838 
L 1606 -838 
L 1606 4516 
L 488 4516 
L 488 4919 
L 2116 4919 
L 2116 -1241 
z
" transform="scale(0.015625)"/>
       <path id="Meiryo-28" d="M 2397 -1303 
L 1731 -1303 
Q 1094 -563 808 184 
Q 522 931 522 1809 
Q 522 3506 1731 4919 
L 2397 4919 
L 2397 4888 
Q 1775 4341 1401 3523 
Q 1028 2706 1028 1809 
Q 1028 909 1400 95 
Q 1772 -719 2397 -1272 
L 2397 -1303 
z
" transform="scale(0.015625)"/>
       <path id="Meiryo-61" d="M 2663 841 
L 2663 1866 
Q 1497 1813 1164 1608 
Q 831 1403 831 1044 
Q 831 409 1600 409 
Q 2122 409 2663 841 
z
M 2663 0 
L 2663 394 
Q 2222 75 1937 -11 
Q 1653 -97 1359 -97 
Q 888 -97 575 215 
Q 263 528 263 1009 
Q 263 1625 727 1936 
Q 1191 2247 2663 2306 
L 2663 2413 
Q 2663 2781 2444 2957 
Q 2225 3134 1675 3134 
Q 1191 3134 597 2884 
L 572 2884 
L 572 3456 
Q 1156 3616 1697 3616 
Q 2481 3616 2845 3323 
Q 3209 3031 3209 2416 
L 3209 0 
L 2663 0 
z
" transform="scale(0.015625)"/>
       <path id="Meiryo-78" d="M 3428 0 
L 2763 0 
L 1766 1372 
L 744 0 
L 128 0 
L 1472 1753 
L 141 3531 
L 806 3531 
L 1797 2169 
L 2809 3531 
L 3428 3531 
L 2091 1788 
L 3428 0 
z
" transform="scale(0.015625)"/>
       <path id="Meiryo-69" d="M 1122 4238 
L 500 4238 
L 500 4809 
L 1122 4809 
L 1122 4238 
z
M 1088 0 
L 538 0 
L 538 3531 
L 1088 3531 
L 1088 0 
z
" transform="scale(0.015625)"/>
       <path id="Meiryo-31" d="M 3338 0 
L 831 0 
L 831 431 
L 1813 431 
L 1813 3669 
L 831 3669 
L 831 4050 
Q 1406 4053 1653 4214 
Q 1900 4375 1931 4725 
L 2375 4725 
L 2375 431 
L 3338 431 
L 3338 0 
z
" transform="scale(0.015625)"/>
       <path id="Meiryo-3d" d="M 4425 2484 
L 719 2484 
L 719 2947 
L 4425 2947 
L 4425 2484 
z
M 4425 1172 
L 719 1172 
L 719 1634 
L 4425 1634 
L 4425 1172 
z
" transform="scale(0.015625)"/>
       <path id="Meiryo-36" d="M 3222 4722 
L 3222 4169 
L 3184 4169 
Q 2922 4297 2572 4297 
Q 1881 4297 1468 3858 
Q 1056 3419 988 2638 
Q 1578 2991 2138 2991 
Q 2822 2991 3248 2611 
Q 3675 2231 3675 1522 
Q 3675 816 3212 359 
Q 2750 -97 2063 -97 
Q 1266 -97 823 458 
Q 381 1013 381 2066 
Q 381 3363 973 4080 
Q 1566 4797 2666 4797 
Q 2997 4797 3222 4722 
z
M 988 2238 
Q 975 1981 975 1928 
Q 975 1184 1265 779 
Q 1556 375 2069 375 
Q 2541 375 2809 670 
Q 3078 966 3078 1497 
Q 3078 1938 2825 2225 
Q 2572 2513 1984 2513 
Q 1475 2513 988 2238 
z
" transform="scale(0.015625)"/>
       <path id="Meiryo-35" d="M 538 178 
L 538 803 
L 588 803 
Q 1197 406 1856 406 
Q 2363 406 2667 695 
Q 2972 984 2972 1494 
Q 2972 2419 1703 2419 
Q 1341 2419 741 2294 
L 741 4709 
L 3538 4709 
L 3538 4203 
L 1303 4203 
L 1303 2869 
Q 1716 2909 1859 2909 
Q 2700 2909 3134 2546 
Q 3569 2184 3569 1491 
Q 3569 791 3098 347 
Q 2628 -97 1869 -97 
Q 1131 -97 538 178 
z
" transform="scale(0.015625)"/>
       <path id="Meiryo-2b" d="M 4534 1828 
L 2813 1828 
L 2813 106 
L 2331 106 
L 2331 1828 
L 609 1828 
L 609 2291 
L 2331 2291 
L 2331 4013 
L 2813 4013 
L 2813 2291 
L 4534 2291 
L 4534 1828 
z
" transform="scale(0.015625)"/>
       <path id="Meiryo-29" d="M 1081 -1303 
L 416 -1303 
L 416 -1272 
Q 1044 -713 1414 98 
Q 1784 909 1784 1809 
Q 1784 2706 1412 3520 
Q 1041 4334 416 4888 
L 416 4919 
L 1081 4919 
Q 2291 3506 2291 1809 
Q 2291 934 2008 190 
Q 1725 -553 1081 -1303 
z
" transform="scale(0.015625)"/>
      </defs>
      <use xlink:href="#Meiryo-30c7"/>
      <use xlink:href="#Meiryo-30c1" transform="translate(100 0)"/>
      <use xlink:href="#Meiryo-30e5" transform="translate(200 0)"/>
      <use xlink:href="#Meiryo-30fc" transform="translate(300 0)"/>
      <use xlink:href="#Meiryo-30f3" transform="translate(400 0)"/>
      <use xlink:href="#Meiryo-20" transform="translate(500 0)"/>
      <use xlink:href="#Meiryo-3b4" transform="translate(533.984375 0)"/>
      <use xlink:href="#Meiryo-20" transform="translate(593.554688 0)"/>
      <use xlink:href="#Meiryo-5b" transform="translate(627.539062 0)"/>
      <use xlink:href="#Meiryo-56" transform="translate(671.484375 0)"/>
      <use xlink:href="#Meiryo-41" transform="translate(736.871094 0)"/>
      <use xlink:href="#Meiryo-43" transform="translate(804.269531 0)"/>
      <use xlink:href="#Meiryo-54" transform="translate(871.505859 0)"/>
      <use xlink:href="#Meiryo-55" transform="translate(935.080078 0)"/>
      <use xlink:href="#Meiryo-41" transform="translate(1007.605469 0)"/>
      <use xlink:href="#Meiryo-4c" transform="translate(1075.378906 0)"/>
      <use xlink:href="#Meiryo-20" transform="translate(1131.042969 0)"/>
      <use xlink:href="#Meiryo-63" transform="translate(1165.027344 0)"/>
      <use xlink:href="#Meiryo-6f" transform="translate(1215.710938 0)"/>
      <use xlink:href="#Meiryo-75" transform="translate(1275.085938 0)"/>
      <use xlink:href="#Meiryo-6e" transform="translate(1336.902344 0)"/>
      <use xlink:href="#Meiryo-74" transform="translate(1398.71875 0)"/>
      <use xlink:href="#Meiryo-73" transform="translate(1436.609375 0)"/>
      <use xlink:href="#Meiryo-5d" transform="translate(1486.414062 0)"/>
      <use xlink:href="#Meiryo-20" transform="translate(1530.359375 0)"/>
      <use xlink:href="#Meiryo-28" transform="translate(1564.34375 0)"/>
      <use xlink:href="#Meiryo-61" transform="translate(1608.289062 0)"/>
      <use xlink:href="#Meiryo-78" transform="translate(1666.296875 0)"/>
      <use xlink:href="#Meiryo-69" transform="translate(1721.863281 0)"/>
      <use xlink:href="#Meiryo-73" transform="translate(1747.253906 0)"/>
      <use xlink:href="#Meiryo-31" transform="translate(1797.058594 0)"/>
      <use xlink:href="#Meiryo-20" transform="translate(1859.167969 0)"/>
      <use xlink:href="#Meiryo-3d" transform="translate(1893.152344 0)"/>
      <use xlink:href="#Meiryo-20" transform="translate(1973.523438 0)"/>
      <use xlink:href="#Meiryo-36" transform="translate(2007.507812 0)"/>
      <use xlink:href="#Meiryo-31" transform="translate(2069.617188 0)"/>
      <use xlink:href="#Meiryo-35" transform="translate(2131.726562 0)"/>
      <use xlink:href="#Meiryo-2b" transform="translate(2193.835938 0)"/>
      <use xlink:href="#Meiryo-3b4" transform="translate(2274.207031 0)"/>
      <use xlink:href="#Meiryo-29" transform="translate(2333.777344 0)"/>
     </g>
    </g>
   </g>
   <g id="matplotlib.axis_2">
    <g id="ytick_1">
     <g id="line2d_11">
      <path d="M 44.758036 305.705718 
L 565.2 305.705718 
" clip-path="url(#p4defbf7921)" style="fill: none; stroke: #b0b0b0; stroke-opacity: 0.3; stroke-width: 0.8; stroke-linecap: square"/>
     </g>
     <g id="line2d_12">
      <defs>
       <path id="m6044cb734c" d="M 0 0 
L -3.5 0 
" style="stroke: #000000; stroke-width: 0.8"/>
      </defs>
      <g>
       <use xlink:href="#m6044cb734c" x="44.758036" y="305.705718" style="stroke: #000000; stroke-width: 0.8"/>
      </g>
     </g>
     <g id="text_7">
      <!-- 0 -->
      <g transform="translate(31.547098 309.548687) scale(0.1 -0.1)">
       <use xlink:href="#Meiryo-30"/>
      </g>
     </g>
    </g>
    <g id="ytick_2">
     <g id="line2d_13">
      <path d="M 44.758036 271.755157 
L 565.2 271.755157 
" clip-path="url(#p4defbf7921)" style="fill: none; stroke: #b0b0b0; stroke-opacity: 0.3; stroke-width: 0.8; stroke-linecap: square"/>
     </g>
     <g id="line2d_14">
      <g>
       <use xlink:href="#m6044cb734c" x="44.758036" y="271.755157" style="stroke: #000000; stroke-width: 0.8"/>
      </g>
     </g>
     <g id="text_8">
      <!-- 5 -->
      <g transform="translate(31.547098 275.598125) scale(0.1 -0.1)">
       <use xlink:href="#Meiryo-35"/>
      </g>
     </g>
    </g>
    <g id="ytick_3">
     <g id="line2d_15">
      <path d="M 44.758036 237.804595 
L 565.2 237.804595 
" clip-path="url(#p4defbf7921)" style="fill: none; stroke: #b0b0b0; stroke-opacity: 0.3; stroke-width: 0.8; stroke-linecap: square"/>
     </g>
     <g id="line2d_16">
      <g>
       <use xlink:href="#m6044cb734c" x="44.758036" y="237.804595" style="stroke: #000000; stroke-width: 0.8"/>
      </g>
     </g>
     <g id="text_9">
      <!-- 10 -->
      <g transform="translate(25.336161 241.647564) scale(0.1 -0.1)">
       <use xlink:href="#Meiryo-31"/>
       <use xlink:href="#Meiryo-30" transform="translate(62.109375 0)"/>
      </g>
     </g>
    </g>
    <g id="ytick_4">
     <g id="line2d_17">
      <path d="M 44.758036 203.854034 
L 565.2 203.854034 
" clip-path="url(#p4defbf7921)" style="fill: none; stroke: #b0b0b0; stroke-opacity: 0.3; stroke-width: 0.8; stroke-linecap: square"/>
     </g>
     <g id="line2d_18">
      <g>
       <use xlink:href="#m6044cb734c" x="44.758036" y="203.854034" style="stroke: #000000; stroke-width: 0.8"/>
      </g>
     </g>
     <g id="text_10">
      <!-- 15 -->
      <g transform="translate(25.336161 207.697002) scale(0.1 -0.1)">
       <use xlink:href="#Meiryo-31"/>
       <use xlink:href="#Meiryo-35" transform="translate(62.109375 0)"/>
      </g>
     </g>
    </g>
    <g id="ytick_5">
     <g id="line2d_19">
      <path d="M 44.758036 169.903472 
L 565.2 169.903472 
" clip-path="url(#p4defbf7921)" style="fill: none; stroke: #b0b0b0; stroke-opacity: 0.3; stroke-width: 0.8; stroke-linecap: square"/>
     </g>
     <g id="line2d_20">
      <g>
       <use xlink:href="#m6044cb734c" x="44.758036" y="169.903472" style="stroke: #000000; stroke-width: 0.8"/>
      </g>
     </g>
     <g id="text_11">
      <!-- 20 -->
      <g transform="translate(25.336161 173.746441) scale(0.1 -0.1)">
       <use xlink:href="#Meiryo-32"/>
       <use xlink:href="#Meiryo-30" transform="translate(62.109375 0)"/>
      </g>
     </g>
    </g>
    <g id="ytick_6">
     <g id="line2d_21">
      <path d="M 44.758036 135.952911 
L 565.2 135.952911 
" clip-path="url(#p4defbf7921)" style="fill: none; stroke: #b0b0b0; stroke-opacity: 0.3; stroke-width: 0.8; stroke-linecap: square"/>
     </g>
     <g id="line2d_22">
      <g>
       <use xlink:href="#m6044cb734c" x="44.758036" y="135.952911" style="stroke: #000000; stroke-width: 0.8"/>
      </g>
     </g>
     <g id="text_12">
      <!-- 25 -->
      <g transform="translate(25.336161 139.795879) scale(0.1 -0.1)">
       <use xlink:href="#Meiryo-32"/>
       <use xlink:href="#Meiryo-35" transform="translate(62.109375 0)"/>
      </g>
     </g>
    </g>
    <g id="ytick_7">
     <g id="line2d_23">
      <path d="M 44.758036 102.002349 
L 565.2 102.002349 
" clip-path="url(#p4defbf7921)" style="fill: none; stroke: #b0b0b0; stroke-opacity: 0.3; stroke-width: 0.8; stroke-linecap: square"/>
     </g>
     <g id="line2d_24">
      <g>
       <use xlink:href="#m6044cb734c" x="44.758036" y="102.002349" style="stroke: #000000; stroke-width: 0.8"/>
      </g>
     </g>
     <g id="text_13">
      <!-- 30 -->
      <g transform="translate(25.336161 105.845318) scale(0.1 -0.1)">
       <defs>
        <path id="Meiryo-33" d="M 475 197 
L 475 825 
L 525 825 
Q 1159 406 1838 406 
Q 2338 406 2639 678 
Q 2941 950 2941 1434 
Q 2941 1884 2678 2096 
Q 2416 2309 1828 2309 
L 1553 2309 
L 1553 2791 
L 1766 2791 
Q 2272 2791 2559 3006 
Q 2847 3222 2847 3613 
Q 2847 3944 2595 4123 
Q 2344 4303 1903 4303 
Q 1269 4303 644 3894 
L 609 3894 
L 609 4509 
Q 1241 4806 1919 4806 
Q 2647 4806 3045 4501 
Q 3444 4197 3444 3678 
Q 3444 3297 3178 2997 
Q 2913 2697 2513 2616 
L 2513 2566 
Q 3541 2381 3541 1381 
Q 3541 734 3069 318 
Q 2597 -97 1853 -97 
Q 1144 -97 475 197 
z
" transform="scale(0.015625)"/>
       </defs>
       <use xlink:href="#Meiryo-33"/>
       <use xlink:href="#Meiryo-30" transform="translate(62.109375 0)"/>
      </g>
     </g>
    </g>
    <g id="ytick_8">
     <g id="line2d_25">
      <path d="M 44.758036 68.051788 
L 565.2 68.051788 
" clip-path="url(#p4defbf7921)" style="fill: none; stroke: #b0b0b0; stroke-opacity: 0.3; stroke-width: 0.8; stroke-linecap: square"/>
     </g>
     <g id="line2d_26">
      <g>
       <use xlink:href="#m6044cb734c" x="44.758036" y="68.051788" style="stroke: #000000; stroke-width: 0.8"/>
      </g>
     </g>
     <g id="text_14">
      <!-- 35 -->
      <g transform="translate(25.336161 71.894756) scale(0.1 -0.1)">
       <use xlink:href="#Meiryo-33"/>
       <use xlink:href="#Meiryo-35" transform="translate(62.109375 0)"/>
      </g>
     </g>
    </g>
    <g id="ytick_9">
     <g id="line2d_27">
      <path d="M 44.758036 34.101226 
L 565.2 34.101226 
" clip-path="url(#p4defbf7921)" style="fill: none; stroke: #b0b0b0; stroke-opacity: 0.3; stroke-width: 0.8; stroke-linecap: square"/>
     </g>
     <g id="line2d_28">
      <g>
       <use xlink:href="#m6044cb734c" x="44.758036" y="34.101226" style="stroke: #000000; stroke-width: 0.8"/>
      </g>
     </g>
     <g id="text_15">
      <!-- 40 -->
      <g transform="translate(25.336161 37.944195) scale(0.1 -0.1)">
       <use xlink:href="#Meiryo-34"/>
       <use xlink:href="#Meiryo-30" transform="translate(62.109375 0)"/>
      </g>
     </g>
    </g>
    <g id="text_16">
     <!-- うなり周波数 [Hz] -->
     <g transform="translate(19.300223 214.299219) rotate(-90) scale(0.1 -0.1)">
      <defs>
       <path id="Meiryo-3046" d="M 4872 4569 
L 4763 4128 
Q 3534 4369 1222 4416 
L 1244 4838 
Q 1931 4838 2725 4789 
Q 3519 4741 4872 4569 
z
M 1759 -250 
L 1672 159 
Q 3056 256 3812 584 
Q 4569 913 4816 1289 
Q 5063 1666 5063 2181 
Q 5063 2628 4706 2883 
Q 4350 3138 3797 3138 
Q 3500 3138 3150 3105 
Q 2800 3072 2565 3034 
Q 2331 2997 859 2728 
L 775 3175 
L 1997 3375 
Q 2575 3472 3014 3512 
Q 3453 3553 3803 3553 
Q 4603 3553 5079 3189 
Q 5556 2825 5556 2156 
Q 5556 1031 4551 418 
Q 3547 -194 1759 -250 
z
" transform="scale(0.015625)"/>
       <path id="Meiryo-306a" d="M 2119 4972 
Q 2097 4481 2041 4056 
L 3431 4056 
L 3431 3641 
L 1978 3641 
Q 1656 1766 653 453 
L 288 722 
Q 1175 1922 1484 3641 
L 463 3641 
L 463 4056 
L 1550 4056 
Q 1613 4513 1625 4978 
L 2119 4972 
z
M 6131 3231 
L 5747 2925 
Q 5169 3656 4147 4428 
L 4428 4738 
Q 5306 4225 6131 3231 
z
M 6119 525 
L 5869 128 
Q 5213 659 4706 906 
L 4706 609 
Q 4706 -309 3356 -309 
Q 2800 -309 2408 -71 
Q 2016 166 2016 584 
Q 2016 1044 2414 1309 
Q 2813 1575 3388 1575 
Q 3834 1575 4213 1500 
L 4213 3194 
L 4706 3194 
L 4706 1353 
Q 5328 1116 6119 525 
z
M 4225 1088 
Q 3809 1197 3388 1197 
Q 3022 1197 2747 1045 
Q 2472 894 2472 628 
Q 2472 97 3419 97 
Q 4225 97 4225 622 
L 4225 1088 
z
" transform="scale(0.015625)"/>
       <path id="Meiryo-308a" d="M 2247 -359 
L 2131 50 
Q 3475 156 4187 647 
Q 4900 1138 4900 2453 
Q 4897 3375 4614 3864 
Q 4331 4353 3859 4353 
Q 3413 4350 2939 4061 
Q 2466 3772 2134 3087 
Q 1803 2403 1806 1397 
L 1363 1369 
Q 1247 2088 1247 2984 
Q 1247 4131 1428 5075 
L 1922 5031 
Q 1713 3900 1672 2950 
L 1716 2950 
Q 1944 3800 2555 4286 
Q 3166 4772 3844 4775 
Q 4566 4775 4984 4169 
Q 5403 3563 5403 2428 
Q 5403 966 4603 347 
Q 3803 -272 2247 -359 
z
" transform="scale(0.015625)"/>
       <path id="Meiryo-5468" d="M 5197 -322 
L 4353 -322 
L 4281 116 
L 5006 116 
Q 5113 116 5197 178 
Q 5281 241 5281 338 
L 5281 4713 
L 1222 4713 
L 1222 2697 
Q 1222 719 444 -400 
L 113 -172 
Q 256 38 372 330 
Q 488 622 580 1011 
Q 672 1400 714 1742 
Q 756 2084 756 2675 
L 756 5084 
L 5766 5084 
L 5766 188 
Q 5766 -34 5598 -178 
Q 5431 -322 5197 -322 
z
M 1638 2650 
L 1638 3006 
L 2991 3006 
L 2991 3641 
L 1828 3641 
L 1828 4006 
L 2991 4006 
L 2991 4475 
L 3472 4475 
L 3472 4006 
L 4669 4006 
L 4669 3641 
L 3472 3641 
L 3472 3006 
L 4909 3006 
L 4909 2650 
L 1638 2650 
z
M 2338 578 
L 2338 344 
L 1881 344 
L 1881 2113 
L 4563 2113 
L 4563 578 
L 2338 578 
z
M 2338 938 
L 4094 938 
L 4094 1753 
L 2338 1753 
L 2338 938 
z
" transform="scale(0.015625)"/>
       <path id="Meiryo-6ce2" d="M 4331 484 
Q 3556 -103 2469 -369 
L 2306 -31 
Q 3213 213 3984 769 
Q 3494 1225 3273 1620 
Q 3053 2016 2916 2541 
L 2556 2541 
Q 2516 709 1713 -303 
L 1384 -81 
Q 1650 275 1870 933 
Q 2091 1591 2091 2691 
L 2091 4506 
L 3813 4506 
L 3813 5303 
L 4291 5303 
L 4291 4506 
L 6041 4506 
L 6078 4453 
L 5772 3372 
L 5334 3372 
L 5525 4134 
L 4291 4134 
L 4291 2894 
L 5653 2894 
L 5741 2809 
Q 5681 2353 5404 1781 
Q 5128 1209 4688 784 
Q 5447 266 6250 47 
L 5981 -350 
Q 5091 -72 4331 484 
z
M 2559 2894 
L 3813 2894 
L 3813 4134 
L 2559 4134 
L 2559 2894 
z
M 4328 1053 
Q 4994 1709 5159 2541 
L 3369 2541 
Q 3569 1691 4328 1053 
z
M 1366 3966 
Q 1159 4216 472 4813 
L 791 5128 
Q 1363 4663 1713 4303 
L 1366 3966 
z
M 1013 2497 
Q 559 3009 150 3338 
L 466 3638 
Q 944 3281 1353 2834 
L 1013 2497 
z
M 659 -278 
L 244 3 
Q 484 344 771 969 
Q 1059 1594 1209 2072 
L 1613 1916 
Q 1491 1456 1205 792 
Q 919 128 659 -278 
z
" transform="scale(0.015625)"/>
       <path id="Meiryo-6570" d="M 4825 931 
Q 4203 97 3278 -403 
L 3056 -81 
Q 4009 500 4566 1353 
Q 4038 2316 3869 3147 
Q 3744 2897 3625 2713 
L 3266 2934 
Q 3550 3397 3792 4086 
Q 4034 4775 4128 5322 
L 4609 5263 
Q 4516 4763 4325 4231 
L 6144 4231 
L 6144 3866 
L 5803 3866 
Q 5731 2459 5097 1350 
Q 5603 559 6256 22 
L 5934 -331 
Q 5269 284 4825 931 
z
M 4822 1800 
Q 5328 2797 5344 3863 
L 4181 3853 
L 4153 3781 
Q 4303 2741 4822 1800 
z
M 322 2634 
L 156 2928 
Q 456 3053 892 3331 
Q 1328 3609 1619 3881 
L 366 3881 
L 366 4206 
L 1738 4206 
L 1738 5231 
L 2194 5231 
L 2194 4206 
L 3488 4206 
L 3488 3881 
L 2222 3881 
Q 2650 3534 3194 3278 
L 2972 2966 
Q 2656 3125 2194 3481 
L 2194 2606 
L 1738 2606 
L 1738 3491 
Q 1031 2925 322 2634 
z
M 3069 4344 
L 2709 4434 
L 2997 5134 
L 3391 5050 
L 3069 4344 
z
M 888 4356 
L 634 5009 
L 1013 5122 
L 1275 4469 
L 888 4356 
z
M 2094 141 
Q 1378 -300 388 -397 
L 294 -69 
Q 1113 50 1675 347 
Q 984 675 688 753 
Q 616 753 616 866 
Q 616 888 628 909 
Q 784 1188 1000 1653 
L 269 1653 
L 269 2006 
L 1156 2006 
Q 1300 2338 1353 2491 
L 1809 2419 
Q 1753 2278 1628 2006 
L 3566 2006 
L 3566 1653 
L 3178 1653 
Q 3000 919 2450 409 
Q 2809 238 3003 134 
L 2744 -219 
Q 2522 -78 2094 141 
z
M 2053 597 
Q 2572 1038 2713 1653 
L 1466 1653 
Q 1219 1138 1131 1000 
Q 1372 919 2053 597 
z
" transform="scale(0.015625)"/>
       <path id="Meiryo-48" d="M 4178 0 
L 3597 0 
L 3597 2328 
L 1159 2328 
L 1159 0 
L 578 0 
L 578 4709 
L 1159 4709 
L 1159 2831 
L 3597 2831 
L 3597 4709 
L 4178 4709 
L 4178 0 
z
" transform="scale(0.015625)"/>
       <path id="Meiryo-7a" d="M 3047 0 
L 228 0 
L 228 394 
L 2303 3081 
L 272 3081 
L 272 3531 
L 2994 3531 
L 2994 3153 
L 906 456 
L 3047 456 
L 3047 0 
z
" transform="scale(0.015625)"/>
      </defs>
      <use xlink:href="#Meiryo-3046"/>
      <use xlink:href="#Meiryo-306a" transform="translate(100 0)"/>
      <use xlink:href="#Meiryo-308a" transform="translate(200 0)"/>
      <use xlink:href="#Meiryo-5468" transform="translate(300 0)"/>
      <use xlink:href="#Meiryo-6ce2" transform="translate(400 0)"/>
      <use xlink:href="#Meiryo-6570" transform="translate(500 0)"/>
      <use xlink:href="#Meiryo-20" transform="translate(600 0)"/>
      <use xlink:href="#Meiryo-5b" transform="translate(633.984375 0)"/>
      <use xlink:href="#Meiryo-48" transform="translate(677.929688 0)"/>
      <use xlink:href="#Meiryo-7a" transform="translate(752.246094 0)"/>
      <use xlink:href="#Meiryo-5d" transform="translate(802.832031 0)"/>
     </g>
    </g>
   </g>
   <g id="line2d_29">
    <defs>
     <path id="m684ec77748" d="M 0 4 
C 1.060812 4 2.078319 3.578535 2.828427 2.828427 
C 3.578535 2.078319 4 1.060812 4 0 
C 4 -1.060812 3.578535 -2.078319 2.828427 -2.828427 
C 2.078319 -3.578535 1.060812 -4 0 -4 
C -1.060812 -4 -2.078319 -3.578535 -2.828427 -2.828427 
C -3.578535 -2.078319 -4 -1.060812 -4 0 
C -4 1.060812 -3.578535 2.078319 -2.828427 2.828427 
C -2.078319 3.578535 -1.060812 4 0 4 
z
" style="stroke: #2b57a8"/>
    </defs>
    <g clip-path="url(#p4defbf7921)">
     <use xlink:href="#m684ec77748" x="115.727394" y="249.39747" style="fill: #2b57a8; stroke: #2b57a8"/>
     <use xlink:href="#m684ec77748" x="210.353206" y="249.39747" style="fill: #2b57a8; stroke: #2b57a8"/>
     <use xlink:href="#m684ec77748" x="257.666112" y="267.144587" style="fill: #2b57a8; stroke: #2b57a8"/>
     <use xlink:href="#m684ec77748" x="352.291924" y="248.607047" style="fill: #2b57a8; stroke: #2b57a8"/>
     <use xlink:href="#m684ec77748" x="399.60483" y="200.651151" style="fill: #2b57a8; stroke: #2b57a8"/>
    </g>
   </g>
   <g id="line2d_30">
    <path d="M 68.414489 39.320982 
L 329.943114 304.403825 
L 332.320647 304.597768 
L 541.543547 92.531494 
L 541.543547 92.531494 
" clip-path="url(#p4defbf7921)" style="fill: none; stroke: #c2571a; stroke-width: 1.5; stroke-linecap: square"/>
   </g>
   <g id="line2d_31">
    <path d="M 331.227552 317.861607 
L 331.227552 26.057143 
" clip-path="url(#p4defbf7921)" style="fill: none; stroke-dasharray: 1.5,2.475; stroke-dashoffset: 0; stroke: #888888; stroke-width: 1.5"/>
   </g>
   <g id="patch_3">
    <path d="M 44.758036 317.861607 
L 44.758036 26.057143 
" style="fill: none; stroke: #000000; stroke-width: 0.8; stroke-linejoin: miter; stroke-linecap: square"/>
   </g>
   <g id="patch_4">
    <path d="M 565.2 317.861607 
L 565.2 26.057143 
" style="fill: none; stroke: #000000; stroke-width: 0.8; stroke-linejoin: miter; stroke-linecap: square"/>
   </g>
   <g id="patch_5">
    <path d="M 44.758036 317.861607 
L 565.2 317.861607 
" style="fill: none; stroke: #000000; stroke-width: 0.8; stroke-linejoin: miter; stroke-linecap: square"/>
   </g>
   <g id="patch_6">
    <path d="M 44.758036 26.057143 
L 565.2 26.057143 
" style="fill: none; stroke: #000000; stroke-width: 0.8; stroke-linejoin: miter; stroke-linecap: square"/>
   </g>
   <g id="text_17">
    <!-- δ*=5.5 -->
    <g transform="translate(314.974114 281.2009) scale(0.09 -0.09)">
     <defs>
      <path id="Meiryo-2a" d="M 3356 4028 
L 2306 3453 
L 3353 2872 
L 3172 2553 
L 2150 3172 
L 2172 1988 
L 1806 1988 
L 1828 3172 
L 806 2553 
L 625 2872 
L 1672 3453 
L 622 4028 
L 806 4344 
L 1828 3734 
L 1806 4919 
L 2172 4919 
L 2150 3734 
L 3172 4344 
L 3356 4028 
z
" transform="scale(0.015625)"/>
      <path id="Meiryo-2e" d="M 1472 0 
L 763 0 
L 763 853 
L 1472 853 
L 1472 0 
z
" transform="scale(0.015625)"/>
     </defs>
     <use xlink:href="#Meiryo-3b4"/>
     <use xlink:href="#Meiryo-2a" transform="translate(59.570312 0)"/>
     <use xlink:href="#Meiryo-3d" transform="translate(121.679688 0)"/>
     <use xlink:href="#Meiryo-35" transform="translate(202.050781 0)"/>
     <use xlink:href="#Meiryo-2e" transform="translate(264.160156 0)"/>
     <use xlink:href="#Meiryo-35" transform="translate(299.072266 0)"/>
    </g>
    <!-- (うなり消失=クロック一致) -->
    <g transform="translate(274.154896 292.125494) scale(0.09 -0.09)">
     <defs>
      <path id="Meiryo-6d88" d="M 5241 1106 
L 2722 1106 
L 2722 -397 
L 2225 -397 
L 2225 3684 
L 3694 3684 
L 3694 5381 
L 4216 5381 
L 4216 3684 
L 5744 3684 
L 5744 178 
Q 5744 -63 5584 -206 
Q 5425 -350 5181 -350 
L 4450 -350 
L 4384 88 
L 4994 88 
Q 5088 88 5164 153 
Q 5241 219 5241 309 
L 5241 1106 
z
M 5241 2606 
L 5241 3306 
L 2722 3306 
L 2722 2606 
L 5241 2606 
z
M 2722 1484 
L 5241 1484 
L 5241 2228 
L 2722 2228 
L 2722 1484 
z
M 5241 3878 
L 4844 4009 
Q 5056 4409 5366 5203 
L 5841 5088 
Q 5494 4250 5241 3878 
z
M 2603 3853 
Q 2356 4472 2041 5028 
L 2506 5197 
Q 2791 4641 3053 4022 
L 2603 3853 
z
M 1534 3997 
Q 1306 4213 509 4831 
L 828 5159 
Q 1500 4684 1859 4350 
L 1534 3997 
z
M 1175 2497 
Q 847 2834 156 3338 
L 469 3684 
Q 1125 3234 1506 2881 
L 1175 2497 
z
M 678 -247 
L 259 41 
Q 528 359 881 1003 
Q 1234 1647 1403 2097 
L 1828 1941 
Q 1697 1531 1347 872 
Q 997 213 678 -247 
z
" transform="scale(0.015625)"/>
      <path id="Meiryo-5931" d="M 2972 2556 
L 2972 3816 
L 1478 3816 
Q 1184 3272 881 2916 
L 516 3150 
Q 1181 4022 1494 5106 
L 1997 5009 
Q 1856 4597 1678 4213 
L 2972 4213 
L 2972 5278 
L 3472 5278 
L 3472 4213 
L 5738 4213 
L 5738 3816 
L 3472 3816 
L 3472 2556 
L 6031 2556 
L 6031 2150 
L 3603 2150 
Q 3825 1528 4473 964 
Q 5122 400 6150 41 
L 5869 -375 
Q 5028 -88 4304 485 
Q 3581 1059 3269 1763 
Q 2997 972 2262 400 
Q 1528 -172 509 -388 
L 366 -9 
Q 1325 203 2012 781 
Q 2700 1359 2869 2150 
L 406 2150 
L 406 2556 
L 2972 2556 
z
" transform="scale(0.015625)"/>
      <path id="Meiryo-30af" d="M 3200 5044 
Q 3109 4747 2941 4403 
L 5972 4403 
L 5947 3969 
Q 5938 3781 5788 3241 
Q 5691 2894 5548 2544 
Q 5406 2194 5175 1819 
Q 4944 1444 4617 1112 
Q 4291 781 3856 507 
Q 3422 234 2851 21 
Q 2281 -191 1613 -322 
L 1428 128 
Q 3231 478 4173 1418 
Q 5116 2359 5356 3947 
L 2694 3947 
Q 2325 3341 1779 2798 
Q 1234 2256 641 1913 
L 347 2259 
Q 1175 2784 1790 3598 
Q 2406 4413 2625 5119 
L 3200 5044 
z
" transform="scale(0.015625)"/>
      <path id="Meiryo-30ed" d="M 5672 -66 
L 684 -66 
L 684 4484 
L 5672 4484 
L 5672 -66 
z
M 5141 372 
L 5141 4069 
L 1203 4069 
L 1203 372 
L 5141 372 
z
" transform="scale(0.015625)"/>
      <path id="Meiryo-30c3" d="M 3578 2078 
L 3084 1913 
Q 2869 2675 2328 3700 
L 2766 3872 
Q 3119 3219 3206 2992 
Q 3294 2766 3578 2078 
z
M 5344 3672 
Q 5109 1722 4179 797 
Q 3250 -128 1619 -353 
L 1478 63 
Q 3259 319 3990 1291 
Q 4722 2263 4831 3719 
L 5344 3672 
z
M 2059 1778 
L 1569 1619 
Q 1303 2488 813 3403 
L 1247 3566 
Q 1516 3097 1628 2850 
Q 1741 2603 2059 1778 
z
" transform="scale(0.015625)"/>
      <path id="Meiryo-4e00" d="M 381 2606 
L 381 3050 
L 6006 3050 
L 6006 2606 
L 381 2606 
z
" transform="scale(0.015625)"/>
      <path id="Meiryo-81f4" d="M 4669 866 
Q 3966 9 3044 -403 
L 2803 -69 
Q 3759 388 4391 1263 
Q 3747 2263 3588 3234 
Q 3472 3056 3369 2919 
L 3069 3147 
Q 3663 4094 3956 5388 
L 4453 5309 
Q 4328 4788 4116 4250 
L 6131 4250 
L 6131 3859 
L 5756 3859 
Q 5706 2384 4947 1241 
Q 5491 556 6275 28 
L 5934 -350 
Q 5209 169 4669 866 
z
M 4650 1672 
Q 5231 2697 5263 3859 
L 3944 3859 
Q 3938 3844 3897 3769 
Q 4113 2569 4650 1672 
z
M 244 2750 
L 172 3134 
L 600 3169 
Q 900 3913 1128 4631 
L 244 4631 
L 244 5016 
L 3097 5016 
L 3097 4631 
L 1628 4631 
Q 1356 3853 1056 3213 
Q 1938 3297 2366 3356 
Q 2200 3741 2044 4075 
L 2463 4206 
Q 2819 3484 3063 2828 
L 2631 2703 
Q 2575 2859 2506 3028 
Q 1966 2934 244 2750 
z
M 222 -306 
L 131 106 
Q 750 191 1431 303 
L 1431 1497 
L 316 1497 
L 316 1900 
L 1431 1900 
L 1431 2606 
L 1913 2606 
L 1913 1900 
L 2953 1900 
L 2953 1497 
L 1913 1497 
L 1913 388 
Q 2688 525 3038 616 
L 3056 244 
Q 2291 -6 222 -306 
z
" transform="scale(0.015625)"/>
     </defs>
     <use xlink:href="#Meiryo-28"/>
     <use xlink:href="#Meiryo-3046" transform="translate(43.945312 0)"/>
     <use xlink:href="#Meiryo-306a" transform="translate(143.945312 0)"/>
     <use xlink:href="#Meiryo-308a" transform="translate(243.945312 0)"/>
     <use xlink:href="#Meiryo-6d88" transform="translate(343.945312 0)"/>
     <use xlink:href="#Meiryo-5931" transform="translate(443.945312 0)"/>
     <use xlink:href="#Meiryo-3d" transform="translate(543.945312 0)"/>
     <use xlink:href="#Meiryo-30af" transform="translate(624.316406 0)"/>
     <use xlink:href="#Meiryo-30ed" transform="translate(724.316406 0)"/>
     <use xlink:href="#Meiryo-30c3" transform="translate(824.316406 0)"/>
     <use xlink:href="#Meiryo-30af" transform="translate(924.316406 0)"/>
     <use xlink:href="#Meiryo-4e00" transform="translate(1024.316406 0)"/>
     <use xlink:href="#Meiryo-81f4" transform="translate(1124.316406 0)"/>
     <use xlink:href="#Meiryo-29" transform="translate(1224.316406 0)"/>
    </g>
   </g>
   <g id="text_18">
    <!-- 2軸のうなり: 独立クロックのズレを聴いて測る -->
    <g transform="translate(176.635268 20.057143) scale(0.12 -0.12)">
     <defs>
      <path id="Meiryo-8ef8" d="M 5513 -69 
L 3744 -69 
L 3744 -344 
L 3288 -344 
L 3288 3997 
L 4391 3997 
L 4391 5303 
L 4859 5303 
L 4859 3997 
L 5972 3997 
L 5972 -331 
L 5513 -331 
L 5513 -69 
z
M 5513 2247 
L 5513 3638 
L 4859 3638 
L 4859 2247 
L 5513 2247 
z
M 4391 3638 
L 3744 3638 
L 3744 2247 
L 4391 2247 
L 4391 3638 
z
M 3744 291 
L 4391 291 
L 4391 1881 
L 3744 1881 
L 3744 291 
z
M 4859 291 
L 5513 291 
L 5513 1881 
L 4859 1881 
L 4859 291 
z
M 159 609 
L 159 981 
L 1388 981 
L 1388 1503 
L 391 1503 
L 391 3881 
L 1388 3881 
L 1388 4397 
L 272 4397 
L 272 4763 
L 1388 4763 
L 1388 5291 
L 1838 5291 
L 1838 4763 
L 2963 4763 
L 2963 4397 
L 1838 4397 
L 1838 3881 
L 2838 3881 
L 2838 1503 
L 1838 1503 
L 1838 981 
L 2934 981 
L 2934 609 
L 1838 609 
L 1838 -403 
L 1388 -403 
L 1388 609 
L 159 609 
z
M 813 2875 
L 1406 2875 
L 1406 3547 
L 813 3547 
L 813 2875 
z
M 1825 2875 
L 2406 2875 
L 2406 3547 
L 1825 3547 
L 1825 2875 
z
M 2406 2563 
L 1825 2563 
L 1825 1856 
L 2406 1856 
L 2406 2563 
z
M 1406 2563 
L 813 2563 
L 813 1856 
L 1406 1856 
L 1406 2563 
z
" transform="scale(0.015625)"/>
      <path id="Meiryo-306e" d="M 3338 -128 
L 3216 294 
Q 4222 384 4936 878 
Q 5650 1372 5650 2353 
Q 5650 3228 5073 3706 
Q 4497 4184 3466 4213 
Q 3431 2531 2862 1406 
Q 2294 281 1438 281 
Q 906 281 601 732 
Q 297 1184 297 1834 
Q 297 2906 1222 3761 
Q 2147 4616 3413 4616 
Q 4603 4616 5375 4020 
Q 6147 3425 6147 2394 
Q 6147 1219 5369 597 
Q 4591 -25 3338 -128 
z
M 2975 4172 
Q 2069 4034 1416 3351 
Q 763 2669 763 1809 
Q 763 1353 953 1036 
Q 1144 719 1484 719 
Q 2069 719 2503 1811 
Q 2938 2903 2975 4172 
z
" transform="scale(0.015625)"/>
      <path id="Meiryo-3a" d="M 1731 2678 
L 1022 2678 
L 1022 3531 
L 1731 3531 
L 1731 2678 
z
M 1731 0 
L 1022 0 
L 1022 853 
L 1731 853 
L 1731 0 
z
" transform="scale(0.015625)"/>
      <path id="Meiryo-72ec" d="M 2288 -331 
L 2209 75 
Q 2788 103 3950 231 
L 3950 1916 
L 3019 1916 
L 3019 1688 
L 2547 1688 
L 2547 4284 
L 3950 4284 
L 3950 5291 
L 4422 5291 
L 4422 4284 
L 5878 4284 
L 5878 1916 
L 4422 1916 
L 4422 284 
L 5413 409 
Q 5119 1041 4944 1334 
L 5369 1491 
Q 5500 1269 5800 658 
Q 6100 47 6203 -225 
L 5759 -369 
Q 5697 -213 5575 53 
Q 4531 -116 2288 -331 
z
M 3019 2275 
L 3950 2275 
L 3950 3913 
L 3019 3913 
L 3019 2275 
z
M 4422 2275 
L 5413 2275 
L 5413 3913 
L 4422 3913 
L 4422 2275 
z
M 466 1022 
L 209 1269 
Q 984 2072 1488 2978 
Q 1397 3350 1250 3684 
Q 766 3053 388 2738 
L 125 3025 
Q 578 3447 1041 4106 
Q 819 4506 478 4931 
L 825 5159 
Q 1091 4847 1303 4503 
Q 1569 4931 1706 5284 
L 2175 5147 
Q 1994 4728 1541 4081 
Q 2109 2963 2109 1738 
Q 2109 644 1867 134 
Q 1625 -375 1125 -375 
L 484 -375 
L 419 47 
L 941 47 
Q 1138 47 1278 142 
Q 1419 238 1494 433 
Q 1569 628 1597 893 
Q 1625 1159 1634 1653 
L 1634 1741 
Q 1634 2088 1591 2425 
Q 1194 1719 466 1022 
z
" transform="scale(0.015625)"/>
      <path id="Meiryo-7acb" d="M 441 3834 
L 441 4231 
L 2900 4231 
L 2900 5191 
L 3434 5191 
L 3434 4231 
L 5916 4231 
L 5916 3834 
L 441 3834 
z
M 231 -194 
L 231 216 
L 3541 216 
Q 3800 778 4154 1789 
Q 4509 2800 4656 3428 
L 5206 3306 
Q 5047 2778 4665 1751 
Q 4284 725 4047 216 
L 6106 216 
L 6106 -194 
L 231 -194 
z
M 1822 622 
Q 1697 1147 1458 1961 
Q 1219 2775 1084 3097 
L 1563 3253 
Q 1713 2884 1970 2025 
Q 2228 1166 2325 772 
L 1822 622 
z
" transform="scale(0.015625)"/>
      <path id="Meiryo-30ba" d="M 6344 4763 
L 5984 4613 
Q 5772 5109 5538 5478 
L 5863 5631 
Q 6122 5231 6344 4763 
z
M 5491 4569 
L 5131 4409 
Q 4906 4919 4678 5284 
L 5019 5441 
Q 5284 5031 5491 4569 
z
M 6022 63 
L 5581 -281 
Q 4566 763 3291 1838 
Q 1728 331 250 -256 
L 44 153 
Q 1281 653 2550 1812 
Q 3819 2972 4313 4281 
L 750 4281 
L 750 4716 
L 4856 4716 
L 4972 4606 
Q 4838 4038 4466 3386 
Q 4094 2734 3603 2181 
Q 4291 1644 6022 63 
z
" transform="scale(0.015625)"/>
      <path id="Meiryo-30ec" d="M 6156 2675 
Q 5578 1806 4226 956 
Q 2875 106 1428 -206 
L 1088 56 
L 1088 4881 
L 1619 4881 
L 1619 366 
Q 2881 675 4004 1403 
Q 5128 2131 5778 2988 
L 6156 2675 
z
" transform="scale(0.015625)"/>
      <path id="Meiryo-3092" d="M 4059 794 
L 3597 794 
L 3597 1819 
Q 3597 2000 3588 2128 
Q 2150 1406 2150 819 
Q 2150 525 2472 351 
Q 2794 178 3828 178 
Q 5056 178 5788 294 
L 5819 -159 
Q 5075 -247 4100 -247 
Q 2597 -247 2140 15 
Q 1684 278 1684 766 
Q 1681 1200 2086 1625 
Q 2491 2050 3494 2544 
Q 3366 2825 3034 2825 
Q 2659 2825 2226 2689 
Q 1794 2553 1153 2006 
L 634 1569 
L 366 1888 
Q 1509 2775 2072 3938 
L 616 3938 
L 616 4344 
L 2244 4344 
Q 2388 4716 2466 5094 
L 2984 5050 
Q 2906 4691 2772 4344 
L 5094 4344 
L 5094 3938 
L 2606 3938 
Q 2431 3578 1997 2988 
L 2044 2963 
Q 2166 3041 2525 3114 
Q 2884 3188 3078 3188 
Q 3684 3188 3906 2734 
L 5747 3444 
L 5953 3022 
Q 5303 2809 4022 2331 
Q 4059 2097 4059 1741 
L 4059 794 
z
" transform="scale(0.015625)"/>
      <path id="Meiryo-8074" d="M 2631 2181 
L 2631 3822 
L 4009 3822 
L 4009 4409 
L 2534 4409 
L 2534 4781 
L 4009 4781 
L 4009 5334 
L 4478 5334 
L 4478 4781 
L 6138 4781 
L 6138 4409 
L 4478 4409 
L 4478 3822 
L 5934 3822 
L 5934 2181 
L 2631 2181 
z
M 3606 2503 
L 3606 3506 
L 3050 3506 
L 3050 2503 
L 3606 2503 
z
M 3997 3506 
L 3997 2503 
L 4559 2503 
L 4559 3506 
L 3997 3506 
z
M 5525 3506 
L 4944 3506 
L 4944 2503 
L 5525 2503 
L 5525 3506 
z
M 1678 750 
Q 1019 581 178 400 
L 106 813 
L 503 884 
L 503 4753 
L 216 4753 
L 216 5119 
L 2378 5119 
L 2378 4753 
L 2128 4753 
L 2128 -391 
L 1678 -391 
L 1678 750 
z
M 928 4753 
L 928 3744 
L 1678 3744 
L 1678 4753 
L 928 4753 
z
M 928 2425 
L 1678 2425 
L 1678 3391 
L 928 3391 
L 928 2425 
z
M 928 966 
Q 1397 1059 1678 1125 
L 1678 2072 
L 928 2072 
L 928 966 
z
M 4416 1066 
Q 4213 1494 3984 1888 
L 4356 2047 
Q 4653 1556 4806 1228 
L 4416 1066 
z
M 3350 1700 
L 3813 1700 
L 3813 284 
Q 3813 159 3919 111 
Q 4025 63 4331 63 
Q 4628 63 4729 109 
Q 4831 156 4864 264 
Q 4897 372 4897 844 
L 5297 784 
L 5297 166 
Q 5297 -41 5119 -172 
Q 4941 -303 4334 -303 
Q 4031 -303 3800 -281 
Q 3569 -259 3459 -148 
Q 3350 -38 3350 159 
L 3350 1700 
z
M 5875 147 
Q 5497 1100 5288 1438 
L 5694 1609 
Q 6034 1013 6294 309 
L 5875 147 
z
M 2744 -103 
L 2338 -9 
Q 2484 359 2631 1238 
L 3044 1184 
Q 2925 309 2744 -103 
z
" transform="scale(0.015625)"/>
      <path id="Meiryo-3044" d="M 3150 1650 
Q 3044 1353 2814 925 
Q 2584 497 2345 211 
Q 2106 -75 1850 -75 
Q 1694 -75 1572 0 
Q 1450 75 1253 290 
Q 1056 506 892 882 
Q 728 1259 650 1671 
Q 572 2084 572 2475 
Q 572 2825 644 3466 
Q 719 4138 725 4447 
L 1250 4447 
Q 1238 4166 1150 3466 
Q 1072 2841 1072 2478 
Q 1072 1934 1186 1501 
Q 1300 1069 1517 756 
Q 1734 444 1834 444 
Q 1997 444 2272 889 
Q 2547 1334 2766 1850 
L 3150 1650 
z
M 6009 731 
L 5484 716 
L 5484 772 
Q 5484 1697 5184 2572 
Q 4884 3447 4328 4134 
L 4713 4378 
Q 5988 2919 6009 731 
z
" transform="scale(0.015625)"/>
      <path id="Meiryo-3066" d="M 5844 4066 
L 4278 4066 
Q 3706 3822 3165 3173 
Q 2625 2525 2625 1825 
Q 2625 1284 2912 923 
Q 3200 563 3679 395 
Q 4159 228 4956 228 
Q 5138 228 5331 238 
L 5300 -225 
L 5284 -225 
Q 4706 -225 4326 -204 
Q 3947 -184 3523 -51 
Q 3100 81 2778 353 
Q 2456 625 2300 981 
Q 2144 1338 2144 1788 
Q 2144 2416 2528 3033 
Q 2913 3650 3538 4078 
L 403 4078 
L 403 4494 
L 5844 4494 
L 5844 4066 
z
" transform="scale(0.015625)"/>
      <path id="Meiryo-6e2c" d="M 5938 172 
Q 5938 -28 5780 -165 
Q 5622 -303 5463 -303 
L 4719 -303 
L 4647 119 
L 5188 119 
Q 5303 119 5386 187 
Q 5469 256 5469 363 
L 5469 5250 
L 5938 5250 
L 5938 172 
z
M 3797 1125 
L 1859 1125 
L 1859 5100 
L 3797 5100 
L 3797 1125 
z
M 3347 3881 
L 3347 4750 
L 2309 4750 
L 2309 3881 
L 3347 3881 
z
M 3347 2725 
L 3347 3547 
L 2309 3547 
L 2309 2725 
L 3347 2725 
z
M 3347 2391 
L 2309 2391 
L 2309 1484 
L 3347 1484 
L 3347 2391 
z
M 1566 4284 
L 1244 3947 
Q 903 4334 384 4781 
L 691 5100 
Q 1225 4666 1566 4284 
z
M 4856 1138 
L 4384 1138 
L 4384 4769 
L 4856 4769 
L 4856 1138 
z
M 1278 2834 
L 950 2491 
Q 622 2850 109 3300 
L 422 3613 
Q 859 3256 1278 2834 
z
M 1513 1916 
Q 1384 1425 1112 778 
Q 841 131 584 -266 
L 200 9 
Q 434 350 704 972 
Q 975 1594 1116 2066 
L 1513 1916 
z
M 4197 -75 
L 3784 -303 
Q 3309 291 3088 722 
L 3484 897 
Q 3719 453 4197 -75 
z
M 2544 722 
Q 2431 528 2129 167 
Q 1828 -194 1650 -344 
L 1309 -88 
Q 1497 75 1759 392 
Q 2022 709 2125 897 
L 2544 722 
z
" transform="scale(0.015625)"/>
      <path id="Meiryo-308b" d="M 4056 228 
Q 5228 509 5228 1434 
Q 5228 2006 4797 2318 
Q 4366 2631 3647 2631 
Q 3153 2631 2683 2506 
Q 2213 2381 1602 1997 
Q 991 1613 750 1409 
L 519 1794 
Q 2422 3022 4238 4378 
L 1075 4366 
L 1075 4781 
L 4891 4781 
L 5109 4463 
L 2906 2938 
L 2931 2900 
Q 3313 3016 3691 3016 
Q 4588 3016 5164 2603 
Q 5741 2191 5741 1463 
Q 5741 609 5034 160 
Q 4328 -288 3141 -288 
Q 1509 -288 1509 609 
Q 1509 963 1846 1203 
Q 2184 1444 2588 1444 
Q 3153 1444 3556 1128 
Q 3959 813 4056 228 
z
M 3597 147 
Q 3416 1044 2622 1044 
Q 2369 1044 2167 919 
Q 1966 794 1966 588 
Q 1966 109 3072 109 
Q 3313 109 3597 147 
z
" transform="scale(0.015625)"/>
     </defs>
     <use xlink:href="#Meiryo-32"/>
     <use xlink:href="#Meiryo-8ef8" transform="translate(62.109375 0)"/>
     <use xlink:href="#Meiryo-306e" transform="translate(162.109375 0)"/>
     <use xlink:href="#Meiryo-3046" transform="translate(262.109375 0)"/>
     <use xlink:href="#Meiryo-306a" transform="translate(362.109375 0)"/>
     <use xlink:href="#Meiryo-308a" transform="translate(462.109375 0)"/>
     <use xlink:href="#Meiryo-3a" transform="translate(562.109375 0)"/>
     <use xlink:href="#Meiryo-20" transform="translate(605.078125 0)"/>
     <use xlink:href="#Meiryo-72ec" transform="translate(639.0625 0)"/>
     <use xlink:href="#Meiryo-7acb" transform="translate(739.0625 0)"/>
     <use xlink:href="#Meiryo-30af" transform="translate(839.0625 0)"/>
     <use xlink:href="#Meiryo-30ed" transform="translate(939.0625 0)"/>
     <use xlink:href="#Meiryo-30c3" transform="translate(1039.0625 0)"/>
     <use xlink:href="#Meiryo-30af" transform="translate(1139.0625 0)"/>
     <use xlink:href="#Meiryo-306e" transform="translate(1239.0625 0)"/>
     <use xlink:href="#Meiryo-30ba" transform="translate(1339.0625 0)"/>
     <use xlink:href="#Meiryo-30ec" transform="translate(1439.0625 0)"/>
     <use xlink:href="#Meiryo-3092" transform="translate(1539.0625 0)"/>
     <use xlink:href="#Meiryo-8074" transform="translate(1639.0625 0)"/>
     <use xlink:href="#Meiryo-3044" transform="translate(1739.0625 0)"/>
     <use xlink:href="#Meiryo-3066" transform="translate(1839.0625 0)"/>
     <use xlink:href="#Meiryo-6e2c" transform="translate(1939.0625 0)"/>
     <use xlink:href="#Meiryo-308b" transform="translate(2039.0625 0)"/>
    </g>
   </g>
   <g id="legend_1">
    <g id="patch_7">
     <path d="M 469.373437 63.500893 
L 558.2 63.500893 
Q 560.2 63.500893 560.2 61.500893 
L 560.2 33.057143 
Q 560.2 31.057143 558.2 31.057143 
L 469.373437 31.057143 
Q 467.373437 31.057143 467.373437 33.057143 
L 467.373437 61.500893 
Q 467.373437 63.500893 469.373437 63.500893 
z
" style="fill: #ffffff; opacity: 0.8; stroke: #cccccc; stroke-linejoin: miter"/>
    </g>
    <g id="line2d_32">
     <g>
      <use xlink:href="#m684ec77748" x="481.373437" y="39.24308" style="fill: #2b57a8; stroke: #2b57a8"/>
     </g>
    </g>
    <g id="text_19">
     <!-- 実測うなり -->
     <g transform="translate(499.373437 42.74308) scale(0.1 -0.1)">
      <defs>
       <path id="Meiryo-5b9f" d="M 5519 3797 
L 5519 4475 
L 844 4475 
L 844 3797 
L 400 3797 
L 400 4834 
L 2881 4834 
L 2881 5344 
L 3384 5344 
L 3384 4834 
L 5981 4834 
L 5981 3797 
L 5519 3797 
z
M 2881 1738 
L 2881 2366 
L 813 2366 
L 813 2738 
L 2881 2738 
L 2881 3338 
L 916 3338 
L 916 3725 
L 2881 3725 
L 2881 4134 
L 3397 4134 
L 3397 3725 
L 5453 3725 
L 5453 3338 
L 3397 3338 
L 3397 2738 
L 5575 2738 
L 5575 2366 
L 3397 2366 
L 3397 1738 
L 6072 1738 
L 6072 1353 
L 3600 1353 
Q 4394 397 6094 16 
L 5878 -409 
Q 5072 -266 4325 175 
Q 3578 616 3191 1163 
Q 2831 575 2100 150 
Q 1369 -275 431 -434 
L 275 -56 
Q 1331 153 1948 584 
Q 2566 1016 2750 1353 
L 341 1353 
L 341 1738 
L 2881 1738 
z
" transform="scale(0.015625)"/>
      </defs>
      <use xlink:href="#Meiryo-5b9f"/>
      <use xlink:href="#Meiryo-6e2c" transform="translate(100 0)"/>
      <use xlink:href="#Meiryo-3046" transform="translate(200 0)"/>
      <use xlink:href="#Meiryo-306a" transform="translate(300 0)"/>
      <use xlink:href="#Meiryo-308a" transform="translate(400 0)"/>
     </g>
    </g>
    <g id="line2d_33">
     <path d="M 471.373437 53.964955 
L 481.373437 53.964955 
L 491.373437 53.964955 
" style="fill: none; stroke: #c2571a; stroke-width: 1.5; stroke-linecap: square"/>
    </g>
    <g id="text_20">
     <!-- V字フィット -->
     <g transform="translate(499.373437 57.464955) scale(0.1 -0.1)">
      <defs>
       <path id="Meiryo-5b57" d="M 5544 3588 
L 5544 4338 
L 844 4338 
L 844 3528 
L 375 3528 
L 375 4716 
L 2900 4716 
L 2900 5297 
L 3416 5297 
L 3416 4716 
L 6028 4716 
L 6028 3588 
L 5544 3588 
z
M 2881 -363 
L 1894 -363 
L 1838 94 
L 2672 94 
Q 2803 94 2887 164 
Q 2972 234 2972 334 
L 2972 1609 
L 256 1609 
L 256 2000 
L 2972 2000 
L 2972 2569 
L 3219 2569 
Q 3916 2878 4409 3319 
L 1269 3319 
L 1269 3703 
L 4963 3703 
L 5191 3444 
Q 4403 2703 3481 2291 
L 3481 2000 
L 6113 2000 
L 6113 1609 
L 3481 1609 
L 3481 172 
Q 3481 -72 3315 -217 
Q 3150 -363 2881 -363 
z
" transform="scale(0.015625)"/>
       <path id="Meiryo-30d5" d="M 5728 4691 
Q 5728 3556 5340 2437 
Q 4953 1319 3847 606 
Q 2741 -106 1056 -275 
L 928 197 
Q 2588 353 3809 1217 
Q 5031 2081 5166 4231 
L 819 4231 
L 819 4691 
L 5728 4691 
z
" transform="scale(0.015625)"/>
       <path id="Meiryo-30a3" d="M 3653 -384 
L 3144 -384 
L 3144 2141 
Q 2013 1544 788 1253 
L 628 1656 
Q 2094 2013 3125 2675 
Q 4156 3338 4666 4088 
L 5159 3903 
Q 4797 3381 4398 3043 
Q 4000 2706 3653 2475 
L 3653 -384 
z
" transform="scale(0.015625)"/>
       <path id="Meiryo-30c8" d="M 6075 1944 
L 5747 1509 
Q 5097 1944 4194 2362 
Q 3291 2781 2584 2994 
L 2584 -322 
L 2028 -322 
L 2028 5150 
L 2591 5150 
L 2591 3475 
Q 4444 2919 6075 1944 
z
" transform="scale(0.015625)"/>
      </defs>
      <use xlink:href="#Meiryo-56"/>
      <use xlink:href="#Meiryo-5b57" transform="translate(68.261719 0)"/>
      <use xlink:href="#Meiryo-30d5" transform="translate(168.261719 0)"/>
      <use xlink:href="#Meiryo-30a3" transform="translate(268.261719 0)"/>
      <use xlink:href="#Meiryo-30c3" transform="translate(368.261719 0)"/>
      <use xlink:href="#Meiryo-30c8" transform="translate(468.261719 0)"/>
     </g>
    </g>
   </g>
  </g>
 </g>
 <defs>
  <clipPath id="p4defbf7921">
   <rect x="44.758036" y="26.057143" width="520.441964" height="291.804464"/>
  </clipPath>
 </defs>
</svg>
