<?xml version="1.0" encoding="utf-8" standalone="no"?>
<!DOCTYPE svg PUBLIC "-//W3C//DTD SVG 1.1//EN"
  "http://www.w3.org/Graphics/SVG/1.1/DTD/svg11.dtd">
<svg xmlns:xlink="http://www.w3.org/1999/xlink" width="619.2pt" height="360pt" viewBox="0 0 619.2 360" xmlns="http://www.w3.org/2000/svg" version="1.1">
 <metadata>
  <rdf:RDF xmlns:dc="http://purl.org/dc/elements/1.1/" xmlns:cc="http://creativecommons.org/ns#" xmlns:rdf="http://www.w3.org/1999/02/22-rdf-syntax-ns#">
   <cc:Work>
    <dc:type rdf:resource="http://purl.org/dc/dcmitype/StillImage"/>
    <dc:date>2026-07-06T11:43:10.666426</dc:date>
    <dc:format>image/svg+xml</dc:format>
    <dc:creator>
     <cc:Agent>
      <dc:title>Matplotlib v3.10.9, https://matplotlib.org/</dc:title>
     </cc:Agent>
    </dc:creator>
   </cc:Work>
  </rdf:RDF>
 </metadata>
 <defs>
  <style type="text/css">*{stroke-linejoin: round; stroke-linecap: butt}</style>
 </defs>
 <g id="figure_1">
  <g id="patch_1">
   <path d="M 0 360 
L 619.2 360 
L 619.2 0 
L 0 0 
z
" style="fill: #ffffff"/>
  </g>
  <g id="axes_1">
   <g id="patch_2">
    <path d="M 44.042857 318.00625 
L 605.465017 318.00625 
L 605.465017 26.057143 
L 44.042857 26.057143 
z
" style="fill: #ffffff"/>
   </g>
   <g id="patch_3">
    <path d="M 94.336872 318.00625 
L 118.5913 318.00625 
L 118.5913 318.00625 
L 94.336872 318.00625 
z
" clip-path="url(#p86c41b1e1e)" style="fill: #2b57a8; opacity: 0.35"/>
   </g>
   <g id="patch_4">
    <path d="M 118.5913 318.00625 
L 142.845728 318.00625 
L 142.845728 318.00625 
L 118.5913 318.00625 
z
" clip-path="url(#p86c41b1e1e)" style="fill: #2b57a8; opacity: 0.35"/>
   </g>
   <g id="patch_5">
    <path d="M 142.845728 318.00625 
L 167.100155 318.00625 
L 167.100155 39.959481 
L 142.845728 39.959481 
z
" clip-path="url(#p86c41b1e1e)" style="fill: #2b57a8; opacity: 0.35"/>
   </g>
   <g id="patch_6">
    <path d="M 167.100155 318.00625 
L 191.354583 318.00625 
L 191.354583 318.00625 
L 167.100155 318.00625 
z
" clip-path="url(#p86c41b1e1e)" style="fill: #2b57a8; opacity: 0.35"/>
   </g>
   <g id="patch_7">
    <path d="M 191.354583 318.00625 
L 215.609011 318.00625 
L 215.609011 318.00625 
L 191.354583 318.00625 
z
" clip-path="url(#p86c41b1e1e)" style="fill: #2b57a8; opacity: 0.35"/>
   </g>
   <g id="patch_8">
    <path d="M 215.609011 318.00625 
L 239.863439 318.00625 
L 239.863439 318.00625 
L 215.609011 318.00625 
z
" clip-path="url(#p86c41b1e1e)" style="fill: #2b57a8; opacity: 0.35"/>
   </g>
   <g id="patch_9">
    <path d="M 239.863439 318.00625 
L 264.117867 318.00625 
L 264.117867 318.00625 
L 239.863439 318.00625 
z
" clip-path="url(#p86c41b1e1e)" style="fill: #2b57a8; opacity: 0.35"/>
   </g>
   <g id="patch_10">
    <path d="M 264.117867 318.00625 
L 288.372295 318.00625 
L 288.372295 318.00625 
L 264.117867 318.00625 
z
" clip-path="url(#p86c41b1e1e)" style="fill: #2b57a8; opacity: 0.35"/>
   </g>
   <g id="patch_11">
    <path d="M 288.372295 318.00625 
L 312.626723 318.00625 
L 312.626723 318.00625 
L 288.372295 318.00625 
z
" clip-path="url(#p86c41b1e1e)" style="fill: #2b57a8; opacity: 0.35"/>
   </g>
   <g id="patch_12">
    <path d="M 312.626723 318.00625 
L 336.881151 318.00625 
L 336.881151 318.00625 
L 312.626723 318.00625 
z
" clip-path="url(#p86c41b1e1e)" style="fill: #2b57a8; opacity: 0.35"/>
   </g>
   <g id="patch_13">
    <path d="M 336.881151 318.00625 
L 361.135579 318.00625 
L 361.135579 318.00625 
L 336.881151 318.00625 
z
" clip-path="url(#p86c41b1e1e)" style="fill: #2b57a8; opacity: 0.35"/>
   </g>
   <g id="patch_14">
    <path d="M 361.135579 318.00625 
L 385.390007 318.00625 
L 385.390007 318.00625 
L 361.135579 318.00625 
z
" clip-path="url(#p86c41b1e1e)" style="fill: #2b57a8; opacity: 0.35"/>
   </g>
   <g id="patch_15">
    <path d="M 385.390007 318.00625 
L 409.644435 318.00625 
L 409.644435 318.00625 
L 385.390007 318.00625 
z
" clip-path="url(#p86c41b1e1e)" style="fill: #2b57a8; opacity: 0.35"/>
   </g>
   <g id="patch_16">
    <path d="M 409.644435 318.00625 
L 433.898863 318.00625 
L 433.898863 318.00625 
L 409.644435 318.00625 
z
" clip-path="url(#p86c41b1e1e)" style="fill: #2b57a8; opacity: 0.35"/>
   </g>
   <g id="patch_17">
    <path d="M 433.898863 318.00625 
L 458.153291 318.00625 
L 458.153291 318.00625 
L 433.898863 318.00625 
z
" clip-path="url(#p86c41b1e1e)" style="fill: #2b57a8; opacity: 0.35"/>
   </g>
   <g id="patch_18">
    <path d="M 458.153291 318.00625 
L 482.407719 318.00625 
L 482.407719 318.00625 
L 458.153291 318.00625 
z
" clip-path="url(#p86c41b1e1e)" style="fill: #2b57a8; opacity: 0.35"/>
   </g>
   <g id="patch_19">
    <path d="M 482.407719 318.00625 
L 506.662146 318.00625 
L 506.662146 318.00625 
L 482.407719 318.00625 
z
" clip-path="url(#p86c41b1e1e)" style="fill: #2b57a8; opacity: 0.35"/>
   </g>
   <g id="patch_20">
    <path d="M 506.662146 318.00625 
L 530.916574 318.00625 
L 530.916574 318.00625 
L 506.662146 318.00625 
z
" clip-path="url(#p86c41b1e1e)" style="fill: #2b57a8; opacity: 0.35"/>
   </g>
   <g id="patch_21">
    <path d="M 530.916574 318.00625 
L 555.171002 318.00625 
L 555.171002 318.00625 
L 530.916574 318.00625 
z
" clip-path="url(#p86c41b1e1e)" style="fill: #2b57a8; opacity: 0.35"/>
   </g>
   <g id="patch_22">
    <path d="M 94.336872 318.00625 
L 118.5913 318.00625 
L 118.5913 318.00625 
L 94.336872 318.00625 
z
" clip-path="url(#p86c41b1e1e)" style="fill: #c2571a; opacity: 0.35"/>
   </g>
   <g id="patch_23">
    <path d="M 118.5913 318.00625 
L 142.845728 318.00625 
L 142.845728 318.00625 
L 118.5913 318.00625 
z
" clip-path="url(#p86c41b1e1e)" style="fill: #c2571a; opacity: 0.35"/>
   </g>
   <g id="patch_24">
    <path d="M 142.845728 318.00625 
L 167.100155 318.00625 
L 167.100155 318.00625 
L 142.845728 318.00625 
z
" clip-path="url(#p86c41b1e1e)" style="fill: #c2571a; opacity: 0.35"/>
   </g>
   <g id="patch_25">
    <path d="M 167.100155 318.00625 
L 191.354583 318.00625 
L 191.354583 318.00625 
L 167.100155 318.00625 
z
" clip-path="url(#p86c41b1e1e)" style="fill: #c2571a; opacity: 0.35"/>
   </g>
   <g id="patch_26">
    <path d="M 191.354583 318.00625 
L 215.609011 318.00625 
L 215.609011 318.00625 
L 191.354583 318.00625 
z
" clip-path="url(#p86c41b1e1e)" style="fill: #c2571a; opacity: 0.35"/>
   </g>
   <g id="patch_27">
    <path d="M 215.609011 318.00625 
L 239.863439 318.00625 
L 239.863439 318.00625 
L 215.609011 318.00625 
z
" clip-path="url(#p86c41b1e1e)" style="fill: #c2571a; opacity: 0.35"/>
   </g>
   <g id="patch_28">
    <path d="M 239.863439 318.00625 
L 264.117867 318.00625 
L 264.117867 318.00625 
L 239.863439 318.00625 
z
" clip-path="url(#p86c41b1e1e)" style="fill: #c2571a; opacity: 0.35"/>
   </g>
   <g id="patch_29">
    <path d="M 264.117867 318.00625 
L 288.372295 318.00625 
L 288.372295 318.00625 
L 264.117867 318.00625 
z
" clip-path="url(#p86c41b1e1e)" style="fill: #c2571a; opacity: 0.35"/>
   </g>
   <g id="patch_30">
    <path d="M 288.372295 318.00625 
L 312.626723 318.00625 
L 312.626723 318.00625 
L 288.372295 318.00625 
z
" clip-path="url(#p86c41b1e1e)" style="fill: #c2571a; opacity: 0.35"/>
   </g>
   <g id="patch_31">
    <path d="M 312.626723 318.00625 
L 336.881151 318.00625 
L 336.881151 318.00625 
L 312.626723 318.00625 
z
" clip-path="url(#p86c41b1e1e)" style="fill: #c2571a; opacity: 0.35"/>
   </g>
   <g id="patch_32">
    <path d="M 336.881151 318.00625 
L 361.135579 318.00625 
L 361.135579 318.00625 
L 336.881151 318.00625 
z
" clip-path="url(#p86c41b1e1e)" style="fill: #c2571a; opacity: 0.35"/>
   </g>
   <g id="patch_33">
    <path d="M 361.135579 318.00625 
L 385.390007 318.00625 
L 385.390007 318.00625 
L 361.135579 318.00625 
z
" clip-path="url(#p86c41b1e1e)" style="fill: #c2571a; opacity: 0.35"/>
   </g>
   <g id="patch_34">
    <path d="M 385.390007 318.00625 
L 409.644435 318.00625 
L 409.644435 318.00625 
L 385.390007 318.00625 
z
" clip-path="url(#p86c41b1e1e)" style="fill: #c2571a; opacity: 0.35"/>
   </g>
   <g id="patch_35">
    <path d="M 409.644435 318.00625 
L 433.898863 318.00625 
L 433.898863 318.00625 
L 409.644435 318.00625 
z
" clip-path="url(#p86c41b1e1e)" style="fill: #c2571a; opacity: 0.35"/>
   </g>
   <g id="patch_36">
    <path d="M 433.898863 318.00625 
L 458.153291 318.00625 
L 458.153291 318.00625 
L 433.898863 318.00625 
z
" clip-path="url(#p86c41b1e1e)" style="fill: #c2571a; opacity: 0.35"/>
   </g>
   <g id="patch_37">
    <path d="M 458.153291 318.00625 
L 482.407719 318.00625 
L 482.407719 318.00625 
L 458.153291 318.00625 
z
" clip-path="url(#p86c41b1e1e)" style="fill: #c2571a; opacity: 0.35"/>
   </g>
   <g id="patch_38">
    <path d="M 482.407719 318.00625 
L 506.662146 318.00625 
L 506.662146 39.959481 
L 482.407719 39.959481 
z
" clip-path="url(#p86c41b1e1e)" style="fill: #c2571a; opacity: 0.35"/>
   </g>
   <g id="patch_39">
    <path d="M 506.662146 318.00625 
L 530.916574 318.00625 
L 530.916574 318.00625 
L 506.662146 318.00625 
z
" clip-path="url(#p86c41b1e1e)" style="fill: #c2571a; opacity: 0.35"/>
   </g>
   <g id="patch_40">
    <path d="M 530.916574 318.00625 
L 555.171002 318.00625 
L 555.171002 318.00625 
L 530.916574 318.00625 
z
" clip-path="url(#p86c41b1e1e)" style="fill: #c2571a; opacity: 0.35"/>
   </g>
   <g id="matplotlib.axis_1">
    <g id="xtick_1">
     <g id="line2d_1">
      <path d="M 96.780961 318.00625 
L 96.780961 26.057143 
" clip-path="url(#p86c41b1e1e)" style="fill: none; stroke: #b0b0b0; stroke-opacity: 0.25; stroke-width: 0.8; stroke-linecap: square"/>
     </g>
     <g id="line2d_2">
      <defs>
       <path id="m032fdd2c2c" d="M 0 0 
L 0 3.5 
" style="stroke: #000000; stroke-width: 0.8"/>
      </defs>
      <g>
       <use xlink:href="#m032fdd2c2c" x="96.780961" y="318.00625" style="stroke: #000000; stroke-width: 0.8"/>
      </g>
     </g>
     <g id="text_1">
      <!-- 444.0 -->
      <g transform="translate(82.613773 332.692187) scale(0.1 -0.1)">
       <defs>
        <path id="Meiryo-34" d="M 3713 1356 
L 3022 1356 
L 3022 0 
L 2459 0 
L 2459 1356 
L 194 1356 
L 194 2013 
L 2484 4709 
L 3022 4709 
L 3022 1819 
L 3713 1819 
L 3713 1356 
z
M 2459 1819 
L 2459 4022 
L 588 1819 
L 2459 1819 
z
" transform="scale(0.015625)"/>
        <path id="Meiryo-2e" d="M 1472 0 
L 763 0 
L 763 853 
L 1472 853 
L 1472 0 
z
" transform="scale(0.015625)"/>
        <path id="Meiryo-30" d="M 1991 -97 
Q 1159 -97 768 497 
Q 378 1091 378 2350 
Q 378 3609 770 4206 
Q 1163 4803 1991 4803 
Q 2813 4803 3206 4204 
Q 3600 3606 3600 2356 
Q 3600 1094 3209 498 
Q 2819 -97 1991 -97 
z
M 1991 4325 
Q 1456 4325 1215 3901 
Q 975 3478 975 2350 
Q 975 1231 1215 806 
Q 1456 381 1991 381 
Q 2525 381 2764 806 
Q 3003 1231 3003 2356 
Q 3003 3459 2765 3892 
Q 2528 4325 1991 4325 
z
" transform="scale(0.015625)"/>
       </defs>
       <use xlink:href="#Meiryo-34"/>
       <use xlink:href="#Meiryo-34" transform="translate(62.109375 0)"/>
       <use xlink:href="#Meiryo-34" transform="translate(124.21875 0)"/>
       <use xlink:href="#Meiryo-2e" transform="translate(186.328125 0)"/>
       <use xlink:href="#Meiryo-30" transform="translate(221.240234 0)"/>
      </g>
     </g>
    </g>
    <g id="xtick_2">
     <g id="line2d_3">
      <path d="M 220.655088 318.00625 
L 220.655088 26.057143 
" clip-path="url(#p86c41b1e1e)" style="fill: none; stroke: #b0b0b0; stroke-opacity: 0.25; stroke-width: 0.8; stroke-linecap: square"/>
     </g>
     <g id="line2d_4">
      <g>
       <use xlink:href="#m032fdd2c2c" x="220.655088" y="318.00625" style="stroke: #000000; stroke-width: 0.8"/>
      </g>
     </g>
     <g id="text_2">
      <!-- 444.5 -->
      <g transform="translate(206.487901 332.692187) scale(0.1 -0.1)">
       <defs>
        <path id="Meiryo-35" d="M 538 178 
L 538 803 
L 588 803 
Q 1197 406 1856 406 
Q 2363 406 2667 695 
Q 2972 984 2972 1494 
Q 2972 2419 1703 2419 
Q 1341 2419 741 2294 
L 741 4709 
L 3538 4709 
L 3538 4203 
L 1303 4203 
L 1303 2869 
Q 1716 2909 1859 2909 
Q 2700 2909 3134 2546 
Q 3569 2184 3569 1491 
Q 3569 791 3098 347 
Q 2628 -97 1869 -97 
Q 1131 -97 538 178 
z
" transform="scale(0.015625)"/>
       </defs>
       <use xlink:href="#Meiryo-34"/>
       <use xlink:href="#Meiryo-34" transform="translate(62.109375 0)"/>
       <use xlink:href="#Meiryo-34" transform="translate(124.21875 0)"/>
       <use xlink:href="#Meiryo-2e" transform="translate(186.328125 0)"/>
       <use xlink:href="#Meiryo-35" transform="translate(221.240234 0)"/>
      </g>
     </g>
    </g>
    <g id="xtick_3">
     <g id="line2d_5">
      <path d="M 344.529215 318.00625 
L 344.529215 26.057143 
" clip-path="url(#p86c41b1e1e)" style="fill: none; stroke: #b0b0b0; stroke-opacity: 0.25; stroke-width: 0.8; stroke-linecap: square"/>
     </g>
     <g id="line2d_6">
      <g>
       <use xlink:href="#m032fdd2c2c" x="344.529215" y="318.00625" style="stroke: #000000; stroke-width: 0.8"/>
      </g>
     </g>
     <g id="text_3">
      <!-- 445.0 -->
      <g transform="translate(330.362028 332.692187) scale(0.1 -0.1)">
       <use xlink:href="#Meiryo-34"/>
       <use xlink:href="#Meiryo-34" transform="translate(62.109375 0)"/>
       <use xlink:href="#Meiryo-35" transform="translate(124.21875 0)"/>
       <use xlink:href="#Meiryo-2e" transform="translate(186.328125 0)"/>
       <use xlink:href="#Meiryo-30" transform="translate(221.240234 0)"/>
      </g>
     </g>
    </g>
    <g id="xtick_4">
     <g id="line2d_7">
      <path d="M 468.403342 318.00625 
L 468.403342 26.057143 
" clip-path="url(#p86c41b1e1e)" style="fill: none; stroke: #b0b0b0; stroke-opacity: 0.25; stroke-width: 0.8; stroke-linecap: square"/>
     </g>
     <g id="line2d_8">
      <g>
       <use xlink:href="#m032fdd2c2c" x="468.403342" y="318.00625" style="stroke: #000000; stroke-width: 0.8"/>
      </g>
     </g>
     <g id="text_4">
      <!-- 445.5 -->
      <g transform="translate(454.236155 332.692187) scale(0.1 -0.1)">
       <use xlink:href="#Meiryo-34"/>
       <use xlink:href="#Meiryo-34" transform="translate(62.109375 0)"/>
       <use xlink:href="#Meiryo-35" transform="translate(124.21875 0)"/>
       <use xlink:href="#Meiryo-2e" transform="translate(186.328125 0)"/>
       <use xlink:href="#Meiryo-35" transform="translate(221.240234 0)"/>
      </g>
     </g>
    </g>
    <g id="xtick_5">
     <g id="line2d_9">
      <path d="M 592.277469 318.00625 
L 592.277469 26.057143 
" clip-path="url(#p86c41b1e1e)" style="fill: none; stroke: #b0b0b0; stroke-opacity: 0.25; stroke-width: 0.8; stroke-linecap: square"/>
     </g>
     <g id="line2d_10">
      <g>
       <use xlink:href="#m032fdd2c2c" x="592.277469" y="318.00625" style="stroke: #000000; stroke-width: 0.8"/>
      </g>
     </g>
     <g id="text_5">
      <!-- 446.0 -->
      <g transform="translate(578.110282 332.692187) scale(0.1 -0.1)">
       <defs>
        <path id="Meiryo-36" d="M 3222 4722 
L 3222 4169 
L 3184 4169 
Q 2922 4297 2572 4297 
Q 1881 4297 1468 3858 
Q 1056 3419 988 2638 
Q 1578 2991 2138 2991 
Q 2822 2991 3248 2611 
Q 3675 2231 3675 1522 
Q 3675 816 3212 359 
Q 2750 -97 2063 -97 
Q 1266 -97 823 458 
Q 381 1013 381 2066 
Q 381 3363 973 4080 
Q 1566 4797 2666 4797 
Q 2997 4797 3222 4722 
z
M 988 2238 
Q 975 1981 975 1928 
Q 975 1184 1265 779 
Q 1556 375 2069 375 
Q 2541 375 2809 670 
Q 3078 966 3078 1497 
Q 3078 1938 2825 2225 
Q 2572 2513 1984 2513 
Q 1475 2513 988 2238 
z
" transform="scale(0.015625)"/>
       </defs>
       <use xlink:href="#Meiryo-34"/>
       <use xlink:href="#Meiryo-34" transform="translate(62.109375 0)"/>
       <use xlink:href="#Meiryo-36" transform="translate(124.21875 0)"/>
       <use xlink:href="#Meiryo-2e" transform="translate(186.328125 0)"/>
       <use xlink:href="#Meiryo-30" transform="translate(221.240234 0)"/>
      </g>
     </g>
    </g>
    <g id="text_6">
     <!-- 実測周波数 [Hz]（同じ指令 VACTUAL=615 を各軸15回） -->
     <g transform="translate(191.489874 347.059375) scale(0.1 -0.1)">
      <defs>
       <path id="Meiryo-5b9f" d="M 5519 3797 
L 5519 4475 
L 844 4475 
L 844 3797 
L 400 3797 
L 400 4834 
L 2881 4834 
L 2881 5344 
L 3384 5344 
L 3384 4834 
L 5981 4834 
L 5981 3797 
L 5519 3797 
z
M 2881 1738 
L 2881 2366 
L 813 2366 
L 813 2738 
L 2881 2738 
L 2881 3338 
L 916 3338 
L 916 3725 
L 2881 3725 
L 2881 4134 
L 3397 4134 
L 3397 3725 
L 5453 3725 
L 5453 3338 
L 3397 3338 
L 3397 2738 
L 5575 2738 
L 5575 2366 
L 3397 2366 
L 3397 1738 
L 6072 1738 
L 6072 1353 
L 3600 1353 
Q 4394 397 6094 16 
L 5878 -409 
Q 5072 -266 4325 175 
Q 3578 616 3191 1163 
Q 2831 575 2100 150 
Q 1369 -275 431 -434 
L 275 -56 
Q 1331 153 1948 584 
Q 2566 1016 2750 1353 
L 341 1353 
L 341 1738 
L 2881 1738 
z
" transform="scale(0.015625)"/>
       <path id="Meiryo-6e2c" d="M 5938 172 
Q 5938 -28 5780 -165 
Q 5622 -303 5463 -303 
L 4719 -303 
L 4647 119 
L 5188 119 
Q 5303 119 5386 187 
Q 5469 256 5469 363 
L 5469 5250 
L 5938 5250 
L 5938 172 
z
M 3797 1125 
L 1859 1125 
L 1859 5100 
L 3797 5100 
L 3797 1125 
z
M 3347 3881 
L 3347 4750 
L 2309 4750 
L 2309 3881 
L 3347 3881 
z
M 3347 2725 
L 3347 3547 
L 2309 3547 
L 2309 2725 
L 3347 2725 
z
M 3347 2391 
L 2309 2391 
L 2309 1484 
L 3347 1484 
L 3347 2391 
z
M 1566 4284 
L 1244 3947 
Q 903 4334 384 4781 
L 691 5100 
Q 1225 4666 1566 4284 
z
M 4856 1138 
L 4384 1138 
L 4384 4769 
L 4856 4769 
L 4856 1138 
z
M 1278 2834 
L 950 2491 
Q 622 2850 109 3300 
L 422 3613 
Q 859 3256 1278 2834 
z
M 1513 1916 
Q 1384 1425 1112 778 
Q 841 131 584 -266 
L 200 9 
Q 434 350 704 972 
Q 975 1594 1116 2066 
L 1513 1916 
z
M 4197 -75 
L 3784 -303 
Q 3309 291 3088 722 
L 3484 897 
Q 3719 453 4197 -75 
z
M 2544 722 
Q 2431 528 2129 167 
Q 1828 -194 1650 -344 
L 1309 -88 
Q 1497 75 1759 392 
Q 2022 709 2125 897 
L 2544 722 
z
" transform="scale(0.015625)"/>
       <path id="Meiryo-5468" d="M 5197 -322 
L 4353 -322 
L 4281 116 
L 5006 116 
Q 5113 116 5197 178 
Q 5281 241 5281 338 
L 5281 4713 
L 1222 4713 
L 1222 2697 
Q 1222 719 444 -400 
L 113 -172 
Q 256 38 372 330 
Q 488 622 580 1011 
Q 672 1400 714 1742 
Q 756 2084 756 2675 
L 756 5084 
L 5766 5084 
L 5766 188 
Q 5766 -34 5598 -178 
Q 5431 -322 5197 -322 
z
M 1638 2650 
L 1638 3006 
L 2991 3006 
L 2991 3641 
L 1828 3641 
L 1828 4006 
L 2991 4006 
L 2991 4475 
L 3472 4475 
L 3472 4006 
L 4669 4006 
L 4669 3641 
L 3472 3641 
L 3472 3006 
L 4909 3006 
L 4909 2650 
L 1638 2650 
z
M 2338 578 
L 2338 344 
L 1881 344 
L 1881 2113 
L 4563 2113 
L 4563 578 
L 2338 578 
z
M 2338 938 
L 4094 938 
L 4094 1753 
L 2338 1753 
L 2338 938 
z
" transform="scale(0.015625)"/>
       <path id="Meiryo-6ce2" d="M 4331 484 
Q 3556 -103 2469 -369 
L 2306 -31 
Q 3213 213 3984 769 
Q 3494 1225 3273 1620 
Q 3053 2016 2916 2541 
L 2556 2541 
Q 2516 709 1713 -303 
L 1384 -81 
Q 1650 275 1870 933 
Q 2091 1591 2091 2691 
L 2091 4506 
L 3813 4506 
L 3813 5303 
L 4291 5303 
L 4291 4506 
L 6041 4506 
L 6078 4453 
L 5772 3372 
L 5334 3372 
L 5525 4134 
L 4291 4134 
L 4291 2894 
L 5653 2894 
L 5741 2809 
Q 5681 2353 5404 1781 
Q 5128 1209 4688 784 
Q 5447 266 6250 47 
L 5981 -350 
Q 5091 -72 4331 484 
z
M 2559 2894 
L 3813 2894 
L 3813 4134 
L 2559 4134 
L 2559 2894 
z
M 4328 1053 
Q 4994 1709 5159 2541 
L 3369 2541 
Q 3569 1691 4328 1053 
z
M 1366 3966 
Q 1159 4216 472 4813 
L 791 5128 
Q 1363 4663 1713 4303 
L 1366 3966 
z
M 1013 2497 
Q 559 3009 150 3338 
L 466 3638 
Q 944 3281 1353 2834 
L 1013 2497 
z
M 659 -278 
L 244 3 
Q 484 344 771 969 
Q 1059 1594 1209 2072 
L 1613 1916 
Q 1491 1456 1205 792 
Q 919 128 659 -278 
z
" transform="scale(0.015625)"/>
       <path id="Meiryo-6570" d="M 4825 931 
Q 4203 97 3278 -403 
L 3056 -81 
Q 4009 500 4566 1353 
Q 4038 2316 3869 3147 
Q 3744 2897 3625 2713 
L 3266 2934 
Q 3550 3397 3792 4086 
Q 4034 4775 4128 5322 
L 4609 5263 
Q 4516 4763 4325 4231 
L 6144 4231 
L 6144 3866 
L 5803 3866 
Q 5731 2459 5097 1350 
Q 5603 559 6256 22 
L 5934 -331 
Q 5269 284 4825 931 
z
M 4822 1800 
Q 5328 2797 5344 3863 
L 4181 3853 
L 4153 3781 
Q 4303 2741 4822 1800 
z
M 322 2634 
L 156 2928 
Q 456 3053 892 3331 
Q 1328 3609 1619 3881 
L 366 3881 
L 366 4206 
L 1738 4206 
L 1738 5231 
L 2194 5231 
L 2194 4206 
L 3488 4206 
L 3488 3881 
L 2222 3881 
Q 2650 3534 3194 3278 
L 2972 2966 
Q 2656 3125 2194 3481 
L 2194 2606 
L 1738 2606 
L 1738 3491 
Q 1031 2925 322 2634 
z
M 3069 4344 
L 2709 4434 
L 2997 5134 
L 3391 5050 
L 3069 4344 
z
M 888 4356 
L 634 5009 
L 1013 5122 
L 1275 4469 
L 888 4356 
z
M 2094 141 
Q 1378 -300 388 -397 
L 294 -69 
Q 1113 50 1675 347 
Q 984 675 688 753 
Q 616 753 616 866 
Q 616 888 628 909 
Q 784 1188 1000 1653 
L 269 1653 
L 269 2006 
L 1156 2006 
Q 1300 2338 1353 2491 
L 1809 2419 
Q 1753 2278 1628 2006 
L 3566 2006 
L 3566 1653 
L 3178 1653 
Q 3000 919 2450 409 
Q 2809 238 3003 134 
L 2744 -219 
Q 2522 -78 2094 141 
z
M 2053 597 
Q 2572 1038 2713 1653 
L 1466 1653 
Q 1219 1138 1131 1000 
Q 1372 919 2053 597 
z
" transform="scale(0.015625)"/>
       <path id="Meiryo-20" transform="scale(0.015625)"/>
       <path id="Meiryo-5b" d="M 2325 -1241 
L 697 -1241 
L 697 4919 
L 2325 4919 
L 2325 4516 
L 1206 4516 
L 1206 -838 
L 2325 -838 
L 2325 -1241 
z
" transform="scale(0.015625)"/>
       <path id="Meiryo-48" d="M 4178 0 
L 3597 0 
L 3597 2328 
L 1159 2328 
L 1159 0 
L 578 0 
L 578 4709 
L 1159 4709 
L 1159 2831 
L 3597 2831 
L 3597 4709 
L 4178 4709 
L 4178 0 
z
" transform="scale(0.015625)"/>
       <path id="Meiryo-7a" d="M 3047 0 
L 228 0 
L 228 394 
L 2303 3081 
L 272 3081 
L 272 3531 
L 2994 3531 
L 2994 3153 
L 906 456 
L 3047 456 
L 3047 0 
z
" transform="scale(0.015625)"/>
       <path id="Meiryo-5d" d="M 2116 -1241 
L 488 -1241 
L 488 -838 
L 1606 -838 
L 1606 4516 
L 488 4516 
L 488 4919 
L 2116 4919 
L 2116 -1241 
z
" transform="scale(0.015625)"/>
       <path id="Meiryo-ff08" d="M 6003 -453 
L 5388 -453 
Q 4300 853 4300 2459 
Q 4300 4053 5388 5369 
L 6003 5369 
L 6003 5338 
Q 5491 4863 5169 4178 
Q 4788 3366 4788 2459 
Q 4788 1547 5169 731 
Q 5491 47 6003 -428 
L 6003 -453 
z
" transform="scale(0.015625)"/>
       <path id="Meiryo-540c" d="M 5166 -322 
L 4244 -322 
L 4188 116 
L 5016 116 
Q 5141 116 5228 191 
Q 5316 266 5316 356 
L 5316 4666 
L 1019 4666 
L 1019 -381 
L 556 -381 
L 556 5031 
L 5791 5031 
L 5791 181 
Q 5791 -25 5611 -173 
Q 5431 -322 5166 -322 
z
M 1509 3641 
L 1509 4019 
L 4781 4019 
L 4781 3641 
L 1509 3641 
z
M 2275 925 
L 2275 606 
L 1803 606 
L 1803 2859 
L 4553 2859 
L 4553 925 
L 2275 925 
z
M 2275 1297 
L 4081 1297 
L 4081 2500 
L 2275 2500 
L 2275 1297 
z
" transform="scale(0.015625)"/>
       <path id="Meiryo-3058" d="M 5869 2188 
Q 5516 931 4828 346 
Q 4141 -238 3059 -238 
Q 2638 -238 2309 -153 
Q 1981 -69 1748 98 
Q 1516 266 1375 517 
Q 1234 769 1193 1062 
Q 1153 1356 1153 2034 
Q 1153 3188 1294 4866 
L 1806 4866 
Q 1641 3256 1641 2009 
Q 1641 1575 1661 1276 
Q 1681 978 1842 725 
Q 2003 472 2322 340 
Q 2641 209 3113 209 
Q 3959 209 4521 686 
Q 5084 1163 5434 2350 
L 5869 2188 
z
M 4713 4359 
L 4353 4213 
Q 4144 4697 3906 5075 
L 4231 5228 
Q 4481 4838 4713 4359 
z
M 3803 4166 
L 3444 4006 
Q 3219 4513 2991 4884 
L 3328 5038 
Q 3600 4616 3803 4166 
z
" transform="scale(0.015625)"/>
       <path id="Meiryo-6307" d="M 278 1688 
L 178 2106 
Q 572 2181 1219 2350 
L 1219 3719 
L 369 3719 
L 369 4103 
L 1219 4103 
L 1219 5272 
L 1706 5272 
L 1706 4103 
L 2300 4103 
L 2300 3719 
L 1706 3719 
L 1706 2488 
Q 2172 2622 2366 2700 
L 2444 2347 
Q 2238 2250 1706 2084 
L 1706 41 
Q 1706 -156 1542 -272 
Q 1378 -388 1159 -388 
L 434 -388 
L 375 56 
L 969 56 
Q 1219 56 1219 278 
L 1219 1938 
Q 631 1769 278 1688 
z
M 2653 5272 
L 3156 5272 
L 3156 4484 
Q 4913 4809 5578 5081 
L 5831 4697 
Q 5488 4578 4648 4400 
Q 3809 4222 3156 4122 
L 3156 3697 
Q 3156 3484 3342 3431 
Q 3528 3378 4419 3378 
Q 4972 3378 5147 3392 
Q 5322 3406 5415 3448 
Q 5509 3491 5545 3552 
Q 5581 3613 5592 3788 
Q 5603 3963 5603 4181 
L 6028 4116 
L 6028 3547 
Q 6028 3325 5900 3195 
Q 5772 3066 5508 3022 
Q 5244 2978 4438 2978 
Q 3528 2978 3217 3018 
Q 2906 3059 2779 3189 
Q 2653 3319 2653 3547 
L 2653 5272 
z
M 5325 -141 
L 3197 -141 
L 3197 -338 
L 2713 -338 
L 2713 2472 
L 5806 2472 
L 5806 -338 
L 5325 -338 
L 5325 -141 
z
M 5325 1388 
L 5325 2113 
L 3197 2113 
L 3197 1388 
L 5325 1388 
z
M 3197 231 
L 5325 231 
L 5325 1022 
L 3197 1022 
L 3197 231 
z
" transform="scale(0.015625)"/>
       <path id="Meiryo-4ee4" d="M 6097 2803 
Q 5431 3078 4582 3709 
Q 3734 4341 3175 5016 
Q 2697 4359 1894 3746 
Q 1091 3134 269 2778 
L 47 3116 
Q 1009 3581 1729 4182 
Q 2450 4784 2816 5316 
L 3519 5316 
Q 3997 4700 4823 4092 
Q 5650 3484 6372 3200 
L 6097 2803 
z
M 4722 3228 
L 1700 3228 
L 1700 3600 
L 4722 3600 
L 4722 3228 
z
M 2416 -416 
L 2416 1988 
L 603 1988 
L 603 2397 
L 5581 2397 
L 5581 531 
Q 5581 316 5401 159 
Q 5222 3 4963 3 
L 4028 3 
L 3956 447 
L 4788 447 
Q 5088 447 5088 716 
L 5088 1988 
L 2919 1988 
L 2919 -416 
L 2416 -416 
z
" transform="scale(0.015625)"/>
       <path id="Meiryo-56" d="M 4313 4709 
L 2453 0 
L 1916 0 
L 56 4709 
L 678 4709 
L 2203 794 
L 3722 4709 
L 4313 4709 
z
" transform="scale(0.015625)"/>
       <path id="Meiryo-41" d="M 3000 1828 
L 2153 4150 
L 1309 1828 
L 3000 1828 
z
M 3659 0 
L 3175 1344 
L 1131 1344 
L 647 0 
L 56 0 
L 1800 4709 
L 2541 4709 
L 4281 0 
L 3659 0 
z
" transform="scale(0.015625)"/>
       <path id="Meiryo-43" d="M 2544 -84 
Q 1488 -84 889 553 
Q 291 1191 291 2350 
Q 291 3488 898 4141 
Q 1506 4794 2547 4794 
Q 3294 4794 4103 4372 
L 4103 3688 
L 4059 3688 
Q 3325 4303 2509 4303 
Q 1766 4303 1331 3786 
Q 897 3269 897 2350 
Q 897 1438 1339 923 
Q 1781 409 2516 409 
Q 2913 409 3272 536 
Q 3631 663 4059 1031 
L 4103 1031 
L 4103 344 
Q 3503 59 3170 -12 
Q 2838 -84 2544 -84 
z
" transform="scale(0.015625)"/>
       <path id="Meiryo-54" d="M 1744 0 
L 1744 4203 
L 72 4203 
L 72 4709 
L 3997 4709 
L 3997 4203 
L 2325 4203 
L 2325 0 
L 1744 0 
z
" transform="scale(0.015625)"/>
       <path id="Meiryo-55" d="M 4141 1869 
Q 4141 847 3675 375 
Q 3209 -97 2331 -97 
Q 525 -97 525 1869 
L 525 4709 
L 1106 4709 
L 1106 1816 
Q 1106 1059 1409 726 
Q 1713 394 2331 394 
Q 2941 394 3250 720 
Q 3559 1047 3559 1800 
L 3559 4709 
L 4141 4709 
L 4141 1869 
z
" transform="scale(0.015625)"/>
       <path id="Meiryo-4c" d="M 3513 0 
L 578 0 
L 578 4709 
L 1159 4709 
L 1159 506 
L 3513 506 
L 3513 0 
z
" transform="scale(0.015625)"/>
       <path id="Meiryo-3d" d="M 4425 2484 
L 719 2484 
L 719 2947 
L 4425 2947 
L 4425 2484 
z
M 4425 1172 
L 719 1172 
L 719 1634 
L 4425 1634 
L 4425 1172 
z
" transform="scale(0.015625)"/>
       <path id="Meiryo-31" d="M 3338 0 
L 831 0 
L 831 431 
L 1813 431 
L 1813 3669 
L 831 3669 
L 831 4050 
Q 1406 4053 1653 4214 
Q 1900 4375 1931 4725 
L 2375 4725 
L 2375 431 
L 3338 431 
L 3338 0 
z
" transform="scale(0.015625)"/>
       <path id="Meiryo-3092" d="M 4059 794 
L 3597 794 
L 3597 1819 
Q 3597 2000 3588 2128 
Q 2150 1406 2150 819 
Q 2150 525 2472 351 
Q 2794 178 3828 178 
Q 5056 178 5788 294 
L 5819 -159 
Q 5075 -247 4100 -247 
Q 2597 -247 2140 15 
Q 1684 278 1684 766 
Q 1681 1200 2086 1625 
Q 2491 2050 3494 2544 
Q 3366 2825 3034 2825 
Q 2659 2825 2226 2689 
Q 1794 2553 1153 2006 
L 634 1569 
L 366 1888 
Q 1509 2775 2072 3938 
L 616 3938 
L 616 4344 
L 2244 4344 
Q 2388 4716 2466 5094 
L 2984 5050 
Q 2906 4691 2772 4344 
L 5094 4344 
L 5094 3938 
L 2606 3938 
Q 2431 3578 1997 2988 
L 2044 2963 
Q 2166 3041 2525 3114 
Q 2884 3188 3078 3188 
Q 3684 3188 3906 2734 
L 5747 3444 
L 5953 3022 
Q 5303 2809 4022 2331 
Q 4059 2097 4059 1741 
L 4059 794 
z
" transform="scale(0.015625)"/>
       <path id="Meiryo-5404" d="M 4716 -116 
L 1700 -116 
L 1700 -350 
L 1216 -350 
L 1216 1794 
Q 828 1678 353 1563 
L 203 1934 
Q 1678 2238 2881 2963 
Q 2209 3466 1834 4053 
Q 1328 3500 669 3050 
L 419 3344 
Q 1731 4325 2228 5394 
L 2738 5288 
Q 2638 5078 2406 4766 
L 4831 4766 
L 5009 4572 
Q 4634 3772 3653 2978 
L 3663 2972 
Q 4988 2297 6191 2066 
L 5969 1647 
Q 5572 1738 5209 1847 
L 5209 -350 
L 4716 -350 
L 4716 -116 
z
M 3250 3216 
Q 3988 3769 4322 4381 
L 2113 4378 
Q 2431 3775 3250 3216 
z
M 1400 1850 
L 5203 1850 
Q 4094 2188 3272 2697 
Q 2538 2209 1400 1850 
z
M 1700 269 
L 4716 269 
L 4716 1469 
L 1700 1469 
L 1700 269 
z
" transform="scale(0.015625)"/>
       <path id="Meiryo-8ef8" d="M 5513 -69 
L 3744 -69 
L 3744 -344 
L 3288 -344 
L 3288 3997 
L 4391 3997 
L 4391 5303 
L 4859 5303 
L 4859 3997 
L 5972 3997 
L 5972 -331 
L 5513 -331 
L 5513 -69 
z
M 5513 2247 
L 5513 3638 
L 4859 3638 
L 4859 2247 
L 5513 2247 
z
M 4391 3638 
L 3744 3638 
L 3744 2247 
L 4391 2247 
L 4391 3638 
z
M 3744 291 
L 4391 291 
L 4391 1881 
L 3744 1881 
L 3744 291 
z
M 4859 291 
L 5513 291 
L 5513 1881 
L 4859 1881 
L 4859 291 
z
M 159 609 
L 159 981 
L 1388 981 
L 1388 1503 
L 391 1503 
L 391 3881 
L 1388 3881 
L 1388 4397 
L 272 4397 
L 272 4763 
L 1388 4763 
L 1388 5291 
L 1838 5291 
L 1838 4763 
L 2963 4763 
L 2963 4397 
L 1838 4397 
L 1838 3881 
L 2838 3881 
L 2838 1503 
L 1838 1503 
L 1838 981 
L 2934 981 
L 2934 609 
L 1838 609 
L 1838 -403 
L 1388 -403 
L 1388 609 
L 159 609 
z
M 813 2875 
L 1406 2875 
L 1406 3547 
L 813 3547 
L 813 2875 
z
M 1825 2875 
L 2406 2875 
L 2406 3547 
L 1825 3547 
L 1825 2875 
z
M 2406 2563 
L 1825 2563 
L 1825 1856 
L 2406 1856 
L 2406 2563 
z
M 1406 2563 
L 813 2563 
L 813 1856 
L 1406 1856 
L 1406 2563 
z
" transform="scale(0.015625)"/>
       <path id="Meiryo-56de" d="M 5413 6 
L 934 6 
L 934 -334 
L 472 -334 
L 472 4972 
L 5891 4972 
L 5891 -309 
L 5413 -309 
L 5413 6 
z
M 934 384 
L 5413 384 
L 5413 4594 
L 934 4594 
L 934 384 
z
M 1888 1297 
L 1888 3694 
L 4394 3694 
L 4394 1297 
L 1888 1297 
z
M 3913 3328 
L 2366 3328 
L 2366 1684 
L 3913 1684 
L 3913 3328 
z
" transform="scale(0.015625)"/>
       <path id="Meiryo-ff09" d="M 2059 2463 
Q 2059 856 972 -450 
L 359 -450 
L 359 -425 
Q 872 50 1194 734 
Q 1575 1550 1575 2463 
Q 1575 3369 1194 4181 
Q 872 4866 359 5341 
L 359 5375 
L 972 5375 
Q 2059 4059 2059 2463 
z
" transform="scale(0.015625)"/>
      </defs>
      <use xlink:href="#Meiryo-5b9f"/>
      <use xlink:href="#Meiryo-6e2c" transform="translate(100 0)"/>
      <use xlink:href="#Meiryo-5468" transform="translate(200 0)"/>
      <use xlink:href="#Meiryo-6ce2" transform="translate(300 0)"/>
      <use xlink:href="#Meiryo-6570" transform="translate(400 0)"/>
      <use xlink:href="#Meiryo-20" transform="translate(500 0)"/>
      <use xlink:href="#Meiryo-5b" transform="translate(533.984375 0)"/>
      <use xlink:href="#Meiryo-48" transform="translate(577.929688 0)"/>
      <use xlink:href="#Meiryo-7a" transform="translate(652.246094 0)"/>
      <use xlink:href="#Meiryo-5d" transform="translate(702.832031 0)"/>
      <use xlink:href="#Meiryo-ff08" transform="translate(746.777344 0)"/>
      <use xlink:href="#Meiryo-540c" transform="translate(846.777344 0)"/>
      <use xlink:href="#Meiryo-3058" transform="translate(946.777344 0)"/>
      <use xlink:href="#Meiryo-6307" transform="translate(1046.777344 0)"/>
      <use xlink:href="#Meiryo-4ee4" transform="translate(1146.777344 0)"/>
      <use xlink:href="#Meiryo-20" transform="translate(1246.777344 0)"/>
      <use xlink:href="#Meiryo-56" transform="translate(1280.761719 0)"/>
      <use xlink:href="#Meiryo-41" transform="translate(1346.148438 0)"/>
      <use xlink:href="#Meiryo-43" transform="translate(1413.546875 0)"/>
      <use xlink:href="#Meiryo-54" transform="translate(1480.783203 0)"/>
      <use xlink:href="#Meiryo-55" transform="translate(1544.357422 0)"/>
      <use xlink:href="#Meiryo-41" transform="translate(1616.882812 0)"/>
      <use xlink:href="#Meiryo-4c" transform="translate(1684.65625 0)"/>
      <use xlink:href="#Meiryo-3d" transform="translate(1740.320312 0)"/>
      <use xlink:href="#Meiryo-36" transform="translate(1820.691406 0)"/>
      <use xlink:href="#Meiryo-31" transform="translate(1882.800781 0)"/>
      <use xlink:href="#Meiryo-35" transform="translate(1944.910156 0)"/>
      <use xlink:href="#Meiryo-20" transform="translate(2007.019531 0)"/>
      <use xlink:href="#Meiryo-3092" transform="translate(2041.003906 0)"/>
      <use xlink:href="#Meiryo-5404" transform="translate(2141.003906 0)"/>
      <use xlink:href="#Meiryo-8ef8" transform="translate(2241.003906 0)"/>
      <use xlink:href="#Meiryo-31" transform="translate(2341.003906 0)"/>
      <use xlink:href="#Meiryo-35" transform="translate(2403.113281 0)"/>
      <use xlink:href="#Meiryo-56de" transform="translate(2465.222656 0)"/>
      <use xlink:href="#Meiryo-ff09" transform="translate(2565.222656 0)"/>
     </g>
    </g>
   </g>
   <g id="matplotlib.axis_2">
    <g id="ytick_1">
     <g id="line2d_11">
      <path d="M 44.042857 318.00625 
L 605.465017 318.00625 
" clip-path="url(#p86c41b1e1e)" style="fill: none; stroke: #b0b0b0; stroke-opacity: 0.25; stroke-width: 0.8; stroke-linecap: square"/>
     </g>
     <g id="line2d_12">
      <defs>
       <path id="mf02a0d4511" d="M 0 0 
L -3.5 0 
" style="stroke: #000000; stroke-width: 0.8"/>
      </defs>
      <g>
       <use xlink:href="#mf02a0d4511" x="44.042857" y="318.00625" style="stroke: #000000; stroke-width: 0.8"/>
      </g>
     </g>
     <g id="text_7">
      <!-- 0 -->
      <g transform="translate(30.83192 321.849219) scale(0.1 -0.1)">
       <use xlink:href="#Meiryo-30"/>
      </g>
     </g>
    </g>
    <g id="ytick_2">
     <g id="line2d_13">
      <path d="M 44.042857 263.564976 
L 605.465017 263.564976 
" clip-path="url(#p86c41b1e1e)" style="fill: none; stroke: #b0b0b0; stroke-opacity: 0.25; stroke-width: 0.8; stroke-linecap: square"/>
     </g>
     <g id="line2d_14">
      <g>
       <use xlink:href="#mf02a0d4511" x="44.042857" y="263.564976" style="stroke: #000000; stroke-width: 0.8"/>
      </g>
     </g>
     <g id="text_8">
      <!-- 2 -->
      <g transform="translate(30.83192 267.407945) scale(0.1 -0.1)">
       <defs>
        <path id="Meiryo-32" d="M 3606 0 
L 456 0 
L 456 609 
Q 956 1041 1579 1612 
Q 2203 2184 2506 2618 
Q 2809 3053 2809 3488 
Q 2809 3872 2554 4087 
Q 2300 4303 1863 4303 
Q 1222 4303 603 3897 
L 572 3897 
L 572 4506 
Q 1203 4806 1878 4806 
Q 2591 4806 3000 4461 
Q 3409 4116 3409 3519 
Q 3409 3200 3304 2909 
Q 3200 2619 2978 2344 
Q 2756 2069 2447 1759 
Q 2138 1450 1025 503 
L 3606 503 
L 3606 0 
z
" transform="scale(0.015625)"/>
       </defs>
       <use xlink:href="#Meiryo-32"/>
      </g>
     </g>
    </g>
    <g id="ytick_3">
     <g id="line2d_15">
      <path d="M 44.042857 209.123702 
L 605.465017 209.123702 
" clip-path="url(#p86c41b1e1e)" style="fill: none; stroke: #b0b0b0; stroke-opacity: 0.25; stroke-width: 0.8; stroke-linecap: square"/>
     </g>
     <g id="line2d_16">
      <g>
       <use xlink:href="#mf02a0d4511" x="44.042857" y="209.123702" style="stroke: #000000; stroke-width: 0.8"/>
      </g>
     </g>
     <g id="text_9">
      <!-- 4 -->
      <g transform="translate(30.83192 212.96667) scale(0.1 -0.1)">
       <use xlink:href="#Meiryo-34"/>
      </g>
     </g>
    </g>
    <g id="ytick_4">
     <g id="line2d_17">
      <path d="M 44.042857 154.682428 
L 605.465017 154.682428 
" clip-path="url(#p86c41b1e1e)" style="fill: none; stroke: #b0b0b0; stroke-opacity: 0.25; stroke-width: 0.8; stroke-linecap: square"/>
     </g>
     <g id="line2d_18">
      <g>
       <use xlink:href="#mf02a0d4511" x="44.042857" y="154.682428" style="stroke: #000000; stroke-width: 0.8"/>
      </g>
     </g>
     <g id="text_10">
      <!-- 6 -->
      <g transform="translate(30.83192 158.525396) scale(0.1 -0.1)">
       <use xlink:href="#Meiryo-36"/>
      </g>
     </g>
    </g>
    <g id="ytick_5">
     <g id="line2d_19">
      <path d="M 44.042857 100.241153 
L 605.465017 100.241153 
" clip-path="url(#p86c41b1e1e)" style="fill: none; stroke: #b0b0b0; stroke-opacity: 0.25; stroke-width: 0.8; stroke-linecap: square"/>
     </g>
     <g id="line2d_20">
      <g>
       <use xlink:href="#mf02a0d4511" x="44.042857" y="100.241153" style="stroke: #000000; stroke-width: 0.8"/>
      </g>
     </g>
     <g id="text_11">
      <!-- 8 -->
      <g transform="translate(30.83192 104.084122) scale(0.1 -0.1)">
       <defs>
        <path id="Meiryo-38" d="M 1206 2497 
L 1206 2534 
Q 459 2941 459 3588 
Q 459 4122 890 4469 
Q 1322 4816 1988 4816 
Q 2678 4816 3097 4487 
Q 3516 4159 3516 3628 
Q 3516 3284 3308 2982 
Q 3100 2681 2731 2513 
L 2731 2472 
Q 3641 2081 3641 1303 
Q 3641 697 3169 295 
Q 2697 -106 1988 -106 
Q 1234 -106 784 280 
Q 334 666 334 1291 
Q 334 2106 1206 2497 
z
M 2938 3625 
Q 2938 3963 2678 4178 
Q 2419 4394 1984 4394 
Q 1572 4394 1311 4192 
Q 1050 3991 1050 3663 
Q 1050 3300 1375 3065 
Q 1700 2831 2363 2628 
Q 2938 3000 2938 3625 
z
M 1588 2384 
Q 928 2013 928 1334 
Q 928 881 1228 601 
Q 1528 322 1994 322 
Q 2472 322 2753 567 
Q 3034 813 3034 1241 
Q 3034 1531 2906 1707 
Q 2778 1884 2533 2006 
Q 2288 2128 1588 2384 
z
" transform="scale(0.015625)"/>
       </defs>
       <use xlink:href="#Meiryo-38"/>
      </g>
     </g>
    </g>
    <g id="ytick_6">
     <g id="line2d_21">
      <path d="M 44.042857 45.799879 
L 605.465017 45.799879 
" clip-path="url(#p86c41b1e1e)" style="fill: none; stroke: #b0b0b0; stroke-opacity: 0.25; stroke-width: 0.8; stroke-linecap: square"/>
     </g>
     <g id="line2d_22">
      <g>
       <use xlink:href="#mf02a0d4511" x="44.042857" y="45.799879" style="stroke: #000000; stroke-width: 0.8"/>
      </g>
     </g>
     <g id="text_12">
      <!-- 10 -->
      <g transform="translate(24.620982 49.642848) scale(0.1 -0.1)">
       <use xlink:href="#Meiryo-31"/>
       <use xlink:href="#Meiryo-30" transform="translate(62.109375 0)"/>
      </g>
     </g>
    </g>
    <g id="text_13">
     <!-- 確率密度 -->
     <g transform="translate(18.585045 192.031696) rotate(-90) scale(0.1 -0.1)">
      <defs>
       <path id="Meiryo-78ba" d="M 4966 219 
L 6166 219 
L 6166 -163 
L 3569 -163 
L 3569 -391 
L 3078 -391 
L 3078 2522 
Q 2881 2306 2641 2091 
L 2359 2359 
Q 2931 2906 3226 3393 
Q 3522 3881 3681 4397 
L 2988 4397 
L 2988 3822 
L 2569 3822 
L 2569 4747 
L 3775 4747 
Q 3847 5056 3875 5350 
L 4369 5303 
Q 4344 5119 4278 4747 
L 6069 4747 
L 6069 3822 
L 5650 3822 
L 5650 4397 
L 4178 4397 
Q 3975 3791 3650 3272 
L 4538 3272 
Q 4703 3725 4775 3966 
L 5250 3913 
L 4953 3272 
L 6166 3272 
L 6166 2913 
L 4966 2913 
L 4966 2306 
L 5944 2306 
L 5944 1947 
L 4966 1947 
L 4966 1294 
L 5944 1294 
L 5944 934 
L 4966 934 
L 4966 219 
z
M 3569 2913 
L 3569 2306 
L 4481 2306 
L 4481 2913 
L 3569 2913 
z
M 3569 1294 
L 4481 1294 
L 4481 1947 
L 3569 1947 
L 3569 1294 
z
M 3569 219 
L 4481 219 
L 4481 934 
L 3569 934 
L 3569 219 
z
M 1238 453 
L 1238 22 
L 800 22 
L 800 2528 
Q 563 2084 309 1766 
L 41 1981 
Q 916 3425 1069 4722 
L 316 4722 
L 316 5088 
L 2463 5088 
L 2463 4722 
L 1559 4722 
Q 1469 4088 1191 3378 
L 2294 3378 
L 2294 453 
L 1238 453 
z
M 1863 3019 
L 1231 3019 
L 1231 813 
L 1863 813 
L 1863 3019 
z
" transform="scale(0.015625)"/>
       <path id="Meiryo-7387" d="M 1869 1609 
L 1822 1981 
L 2291 2000 
Q 2553 2272 2884 2675 
Q 2491 3122 1928 3644 
L 2241 3913 
Q 2325 3844 2400 3769 
Q 2656 4106 2866 4469 
L 359 4469 
L 359 4847 
L 2913 4847 
L 2913 5328 
L 3416 5328 
L 3416 4847 
L 6000 4847 
L 6000 4469 
L 3375 4469 
Q 3056 3956 2666 3509 
L 3159 3016 
Q 3559 3528 3806 3925 
L 4231 3725 
Q 3756 3047 2813 2028 
Q 3506 2069 3969 2122 
Q 3831 2381 3722 2569 
L 4088 2725 
Q 4284 2453 4703 1616 
L 4291 1478 
Q 4256 1556 4134 1797 
Q 3259 1691 1869 1609 
z
M 4866 3044 
L 4572 3288 
Q 5044 3734 5400 4219 
L 5819 3984 
Q 5272 3353 4866 3044 
z
M 1288 3072 
Q 1056 3316 438 3853 
L 747 4147 
Q 1263 3753 1616 3397 
L 1288 3072 
z
M 525 1556 
L 347 1947 
Q 919 2169 1784 2719 
L 1953 2378 
Q 1794 2247 1294 1958 
Q 794 1669 525 1556 
z
M 5759 1478 
Q 5641 1609 5225 1922 
L 4663 2347 
L 4944 2647 
Q 5097 2556 5501 2257 
Q 5906 1959 6078 1809 
L 5759 1478 
z
M 2900 -416 
L 2900 688 
L 256 688 
L 256 1072 
L 2900 1072 
L 2900 1453 
L 3416 1453 
L 3416 1072 
L 6106 1072 
L 6106 688 
L 3416 688 
L 3416 -416 
L 2900 -416 
z
" transform="scale(0.015625)"/>
       <path id="Meiryo-5bc6" d="M 5575 3822 
L 5575 4459 
L 816 4459 
L 816 3822 
L 372 3822 
L 372 4819 
L 2913 4819 
L 2913 5284 
L 3409 5284 
L 3409 4819 
L 6013 4819 
L 6013 3822 
L 5575 3822 
z
M 3194 3559 
L 2481 4103 
L 2750 4350 
L 3459 3828 
L 3194 3559 
z
M 2506 2281 
Q 2816 2244 3178 2244 
Q 3431 2244 3728 2262 
Q 4025 2281 4136 2301 
Q 4247 2322 4314 2373 
Q 4381 2425 4407 2515 
Q 4434 2606 4453 3000 
L 4831 2947 
L 4831 2425 
Q 4831 2300 4787 2209 
Q 4744 2119 4656 2058 
Q 4569 1997 4450 1970 
Q 4331 1944 3925 1920 
Q 3519 1897 3200 1897 
Q 2878 1897 2514 1925 
Q 2150 1953 2038 2025 
Q 1306 1678 372 1378 
L 234 1694 
Q 1172 1978 1822 2313 
Q 1816 2347 1816 2397 
L 1816 3834 
L 2266 3834 
L 2266 2556 
L 2831 2906 
Q 3100 3075 3328 3233 
Q 3556 3391 3751 3539 
Q 3947 3688 4108 3828 
Q 4269 3969 4400 4103 
L 4759 3888 
Q 4225 3372 3601 2953 
Q 2978 2534 2559 2313 
L 2506 2281 
z
M 5791 2209 
Q 5522 2656 4928 3350 
L 5316 3572 
Q 5859 2953 6216 2456 
L 5791 2209 
z
M 822 2275 
L 444 2444 
Q 819 2997 981 3494 
L 1391 3397 
Q 1178 2747 822 2275 
z
M 694 -344 
L 694 1256 
L 1169 1256 
L 1169 269 
L 2906 269 
L 2906 1575 
L 3397 1575 
L 3397 269 
L 5197 269 
L 5197 1328 
L 5675 1328 
L 5675 -344 
L 5197 -344 
L 5197 -97 
L 1169 -97 
L 1169 -344 
L 694 -344 
z
" transform="scale(0.015625)"/>
       <path id="Meiryo-5ea6" d="M 1128 4441 
L 1128 2947 
Q 1128 1750 917 956 
Q 706 163 353 -325 
L 38 -84 
Q 659 963 659 2666 
L 659 4831 
L 3100 4831 
L 3100 5363 
L 3609 5363 
L 3609 4831 
L 6075 4831 
L 6075 4441 
L 1128 4441 
z
M 2303 2403 
L 2303 3338 
L 1388 3338 
L 1388 3703 
L 2303 3703 
L 2303 4166 
L 2772 4166 
L 2772 3703 
L 4378 3703 
L 4378 4166 
L 4869 4166 
L 4869 3703 
L 5881 3703 
L 5881 3338 
L 4869 3338 
L 4869 2403 
L 2303 2403 
z
M 2772 3338 
L 2772 2744 
L 4378 2744 
L 4378 3338 
L 2772 3338 
z
M 3691 234 
Q 2697 -222 1219 -384 
L 1116 3 
Q 1538 41 1898 106 
Q 2259 172 2498 240 
Q 2738 309 3209 472 
Q 2441 922 2047 1594 
L 1531 1594 
L 1531 1966 
L 5356 1966 
L 5475 1831 
Q 5072 1031 4153 478 
Q 4984 172 6063 66 
L 5872 -344 
Q 4697 -203 3691 234 
z
M 3688 681 
Q 4419 1078 4769 1594 
L 2572 1594 
Q 2966 1047 3688 681 
z
" transform="scale(0.015625)"/>
      </defs>
      <use xlink:href="#Meiryo-78ba"/>
      <use xlink:href="#Meiryo-7387" transform="translate(100 0)"/>
      <use xlink:href="#Meiryo-5bc6" transform="translate(200 0)"/>
      <use xlink:href="#Meiryo-5ea6" transform="translate(300 0)"/>
     </g>
    </g>
   </g>
   <g id="line2d_23">
    <path d="M 69.562046 318.00625 
L 99.223629 317.914354 
L 103.314881 317.686382 
L 106.383321 317.247432 
L 108.428947 316.701749 
L 110.474574 315.823982 
L 111.497387 315.212429 
L 112.5202 314.453797 
L 113.543013 313.519858 
L 114.565827 312.378883 
L 115.58864 310.995695 
L 116.611453 309.331864 
L 117.634266 307.346078 
L 118.657079 304.994706 
L 119.679893 302.232584 
L 120.702706 299.014037 
L 121.725519 295.29413 
L 122.748332 291.030164 
L 123.771145 286.18338 
L 124.793958 280.720841 
L 126.839585 267.858033 
L 128.885211 252.372275 
L 130.930838 234.41544 
L 132.976464 214.409775 
L 140.136156 140.901216 
L 142.181783 123.863072 
L 143.204596 116.806944 
L 144.227409 110.911076 
L 145.250222 106.29076 
L 146.273035 103.03794 
L 147.295849 101.218166 
L 148.318662 100.868404 
L 149.341475 101.995782 
L 150.364288 104.57735 
L 151.387101 108.560859 
L 152.409915 113.866516 
L 153.432728 120.389644 
L 154.455541 128.004115 
L 156.501167 145.920053 
L 158.546794 166.339559 
L 164.683673 229.848105 
L 166.729299 248.338291 
L 168.774926 264.431475 
L 170.820552 277.915495 
L 172.866178 288.812846 
L 173.888992 293.347917 
L 174.911805 297.319996 
L 175.934618 300.770144 
L 176.957431 303.742438 
L 177.980244 306.282375 
L 179.003057 308.4355 
L 180.025871 310.246283 
L 181.048684 311.757215 
L 182.071497 313.008148 
L 183.09431 314.035829 
L 184.117123 314.873635 
L 185.139937 315.551447 
L 187.185563 316.529342 
L 189.231189 317.141587 
L 191.276816 317.513647 
L 194.345255 317.804986 
L 199.459321 317.966744 
L 212.755893 318.005992 
L 579.945828 318.00625 
L 579.945828 318.00625 
" clip-path="url(#p86c41b1e1e)" style="fill: none; stroke: #2b57a8; stroke-width: 2; stroke-linecap: square"/>
   </g>
   <g id="line2d_24">
    <path d="M 148.049109 318.00625 
L 148.049109 26.057143 
" clip-path="url(#p86c41b1e1e)" style="fill: none; stroke-dasharray: 1.5,2.475; stroke-dashoffset: 0; stroke: #2b57a8; stroke-opacity: 0.6; stroke-width: 1.5"/>
   </g>
   <g id="line2d_25">
    <path d="M 69.562046 318.00625 
L 453.116992 317.919345 
L 457.208245 317.702339 
L 460.276685 317.282756 
L 462.322311 316.759567 
L 464.367937 315.915828 
L 465.390751 315.326887 
L 466.413564 314.595354 
L 467.436377 313.693597 
L 468.45919 312.590487 
L 469.482003 311.251427 
L 470.504816 309.638524 
L 471.52763 307.710925 
L 472.550443 305.425346 
L 473.573256 302.736822 
L 474.596069 299.59968 
L 475.618882 295.968761 
L 476.641696 291.800867 
L 477.664509 287.056434 
L 478.687322 281.701389 
L 480.732948 269.062678 
L 482.778575 253.799134 
L 484.824201 236.04147 
L 486.869828 216.18744 
L 494.02952 142.511567 
L 496.075146 125.178524 
L 497.097959 117.936711 
L 498.120773 111.833332 
L 499.143586 106.987319 
L 500.166399 103.494852 
L 501.189212 101.426184 
L 502.212025 100.823291 
L 503.234839 101.698458 
L 504.257652 104.03386 
L 505.280465 107.782168 
L 506.303278 112.868141 
L 507.326091 119.191141 
L 508.348905 126.628442 
L 510.394531 144.268808 
L 512.440157 164.526216 
L 518.577036 228.166819 
L 520.622663 246.84363 
L 522.668289 263.154121 
L 524.713916 276.863657 
L 526.759542 287.976864 
L 527.782355 292.612164 
L 528.805168 296.67787 
L 529.827981 300.214351 
L 530.850795 303.265286 
L 531.873608 305.876031 
L 532.896421 308.092213 
L 533.919234 309.958553 
L 534.942047 311.517937 
L 535.964861 312.810704 
L 536.987674 313.874161 
L 538.010487 314.742271 
L 539.0333 315.445518 
L 541.078927 316.462008 
L 543.124553 317.100052 
L 545.170179 317.488777 
L 548.238619 317.794083 
L 552.329872 317.947508 
L 561.53519 318.004058 
L 579.945828 318.006249 
L 579.945828 318.006249 
" clip-path="url(#p86c41b1e1e)" style="fill: none; stroke: #c2571a; stroke-width: 2; stroke-linecap: square"/>
   </g>
   <g id="line2d_26">
    <path d="M 502.117664 318.00625 
L 502.117664 26.057143 
" clip-path="url(#p86c41b1e1e)" style="fill: none; stroke-dasharray: 1.5,2.475; stroke-dashoffset: 0; stroke: #c2571a; stroke-opacity: 0.6; stroke-width: 1.5"/>
   </g>
   <g id="patch_41">
    <path d="M 44.042857 318.00625 
L 44.042857 26.057143 
" style="fill: none; stroke: #000000; stroke-width: 0.8; stroke-linejoin: miter; stroke-linecap: square"/>
   </g>
   <g id="patch_42">
    <path d="M 605.465017 318.00625 
L 605.465017 26.057143 
" style="fill: none; stroke: #000000; stroke-width: 0.8; stroke-linejoin: miter; stroke-linecap: square"/>
   </g>
   <g id="patch_43">
    <path d="M 44.042857 318.00625 
L 605.465017 318.00625 
" style="fill: none; stroke: #000000; stroke-width: 0.8; stroke-linejoin: miter; stroke-linecap: square"/>
   </g>
   <g id="patch_44">
    <path d="M 44.042857 26.057143 
L 605.465017 26.057143 
" style="fill: none; stroke: #000000; stroke-width: 0.8; stroke-linejoin: miter; stroke-linecap: square"/>
   </g>
   <g id="patch_45">
    <path d="M 151.839648 172.031696 
Q 325.083672 172.031696 498.327697 172.031696 
" style="fill: none; stroke: #1a7f37; stroke-width: 1.6; stroke-linecap: round"/>
    <path d="M 155.839648 174.031696 
L 151.839648 172.031696 
L 155.839648 170.031696 
" style="fill: none; stroke: #1a7f37; stroke-width: 1.6; stroke-linecap: round"/>
    <path d="M 494.327697 170.031696 
L 498.327697 172.031696 
L 494.327697 174.031696 
" style="fill: none; stroke: #1a7f37; stroke-width: 1.6; stroke-linecap: round"/>
   </g>
   <g id="text_14">
    <!-- 分離 1.43 Hz = 0.322% -->
    <g style="fill: #1a7f37" transform="translate(267.632605 146.175179) scale(0.1 -0.1)">
     <defs>
      <path id="Meiryo-5206" d="M 591 -394 
L 400 -69 
Q 1394 253 1898 931 
Q 2403 1609 2434 2738 
L 1203 2738 
L 1203 3116 
L 5181 3116 
Q 4181 4044 3703 5122 
L 4166 5259 
Q 4841 3866 6222 2900 
L 5856 2544 
Q 5503 2822 5203 3097 
L 5203 1647 
Q 5203 1053 5118 656 
Q 5034 259 4903 79 
Q 4772 -100 4587 -194 
Q 4403 -288 4203 -309 
Q 4003 -331 3419 -331 
L 3169 -331 
L 3091 106 
L 3913 106 
Q 4269 106 4486 390 
Q 4703 675 4703 1641 
L 4703 2738 
L 2941 2738 
Q 2878 1366 2245 625 
Q 1613 -116 591 -394 
z
M 400 2581 
L 131 2888 
Q 725 3284 1314 3954 
Q 1903 4625 2138 5200 
L 2631 5075 
Q 1881 3578 400 2581 
z
" transform="scale(0.015625)"/>
      <path id="Meiryo-96e2" d="M 5406 225 
L 6144 225 
L 6144 -147 
L 4309 -147 
L 4309 -356 
L 3853 -356 
L 3853 3313 
L 3619 2934 
L 3403 3144 
Q 3972 4169 4206 5303 
L 4681 5238 
Q 4556 4728 4363 4213 
L 5003 4213 
Q 5178 4594 5375 5225 
L 5838 5134 
Q 5697 4772 5416 4213 
L 6106 4213 
L 6106 3866 
L 5406 3866 
L 5406 2934 
L 6006 2934 
L 6006 2581 
L 5406 2581 
L 5406 1634 
L 6013 1634 
L 6013 1281 
L 5406 1281 
L 5406 225 
z
M 4309 3866 
L 4309 2934 
L 4975 2934 
L 4975 3866 
L 4309 3866 
z
M 4309 2581 
L 4309 1634 
L 4975 1634 
L 4975 2581 
L 4309 2581 
z
M 4309 225 
L 4975 225 
L 4975 1281 
L 4309 1281 
L 4309 225 
z
M 250 4481 
L 250 4828 
L 1691 4828 
L 1691 5272 
L 2169 5272 
L 2169 4828 
L 3506 4828 
L 3506 4481 
L 250 4481 
z
M 1222 3091 
L 1084 3306 
Q 1328 3428 1697 3681 
Q 1363 3900 1184 3991 
L 1353 4206 
Q 1694 4028 1953 3866 
Q 2194 4050 2416 4259 
L 2666 4091 
Q 2478 3903 2209 3700 
Q 2341 3616 2625 3416 
L 2422 3181 
Q 2200 3347 1950 3516 
Q 1528 3228 1222 3091 
z
M 1031 472 
L 981 766 
L 1213 791 
Q 1306 1100 1447 1797 
L 784 1797 
L 784 -397 
L 366 -397 
L 366 2125 
L 1513 2125 
L 1600 2613 
L 459 2613 
L 459 4147 
L 838 4147 
L 838 2922 
L 2919 2922 
L 2919 4147 
L 3278 4147 
L 3278 2613 
L 2025 2613 
L 1913 2125 
L 3363 2125 
L 3363 34 
Q 3363 -122 3242 -230 
Q 3122 -338 2966 -338 
L 2384 -338 
L 2350 3 
L 2763 3 
Q 2978 3 2978 178 
L 2978 1797 
L 1834 1797 
Q 1681 1172 1572 838 
Q 2031 900 2263 947 
L 2138 1431 
L 2438 1491 
L 2697 513 
L 2391 447 
L 2325 700 
Q 2025 634 1031 472 
z
" transform="scale(0.015625)"/>
      <path id="Meiryo-33" d="M 475 197 
L 475 825 
L 525 825 
Q 1159 406 1838 406 
Q 2338 406 2639 678 
Q 2941 950 2941 1434 
Q 2941 1884 2678 2096 
Q 2416 2309 1828 2309 
L 1553 2309 
L 1553 2791 
L 1766 2791 
Q 2272 2791 2559 3006 
Q 2847 3222 2847 3613 
Q 2847 3944 2595 4123 
Q 2344 4303 1903 4303 
Q 1269 4303 644 3894 
L 609 3894 
L 609 4509 
Q 1241 4806 1919 4806 
Q 2647 4806 3045 4501 
Q 3444 4197 3444 3678 
Q 3444 3297 3178 2997 
Q 2913 2697 2513 2616 
L 2513 2566 
Q 3541 2381 3541 1381 
Q 3541 734 3069 318 
Q 2597 -97 1853 -97 
Q 1144 -97 475 197 
z
" transform="scale(0.015625)"/>
      <path id="Meiryo-25" d="M 1569 2006 
Q 419 2006 419 3403 
Q 419 4803 1569 4803 
Q 2716 4803 2716 3406 
Q 2716 2006 1569 2006 
z
M 1569 4425 
Q 1238 4425 1088 4195 
Q 938 3966 938 3403 
Q 938 2838 1086 2611 
Q 1234 2384 1569 2384 
Q 1900 2384 2048 2611 
Q 2197 2838 2197 3406 
Q 2197 3963 2048 4194 
Q 1900 4425 1569 4425 
z
M 4878 4744 
L 2231 0 
L 1750 0 
L 4397 4744 
L 4878 4744 
z
M 5041 -91 
Q 3891 -91 3891 1306 
Q 3891 2706 5041 2706 
Q 6188 2706 6188 1309 
Q 6188 -91 5041 -91 
z
M 5041 2328 
Q 4709 2328 4559 2098 
Q 4409 1869 4409 1306 
Q 4409 741 4557 514 
Q 4706 288 5041 288 
Q 5372 288 5520 514 
Q 5669 741 5669 1309 
Q 5669 1866 5520 2097 
Q 5372 2328 5041 2328 
z
" transform="scale(0.015625)"/>
     </defs>
     <use xlink:href="#Meiryo-5206"/>
     <use xlink:href="#Meiryo-96e2" transform="translate(100 0)"/>
     <use xlink:href="#Meiryo-20" transform="translate(200 0)"/>
     <use xlink:href="#Meiryo-31" transform="translate(233.984375 0)"/>
     <use xlink:href="#Meiryo-2e" transform="translate(296.09375 0)"/>
     <use xlink:href="#Meiryo-34" transform="translate(331.005859 0)"/>
     <use xlink:href="#Meiryo-33" transform="translate(393.115234 0)"/>
     <use xlink:href="#Meiryo-20" transform="translate(455.224609 0)"/>
     <use xlink:href="#Meiryo-48" transform="translate(489.208984 0)"/>
     <use xlink:href="#Meiryo-7a" transform="translate(563.525391 0)"/>
     <use xlink:href="#Meiryo-20" transform="translate(614.111328 0)"/>
     <use xlink:href="#Meiryo-3d" transform="translate(648.095703 0)"/>
     <use xlink:href="#Meiryo-20" transform="translate(728.466797 0)"/>
     <use xlink:href="#Meiryo-30" transform="translate(762.451172 0)"/>
     <use xlink:href="#Meiryo-2e" transform="translate(824.560547 0)"/>
     <use xlink:href="#Meiryo-33" transform="translate(859.472656 0)"/>
     <use xlink:href="#Meiryo-32" transform="translate(921.582031 0)"/>
     <use xlink:href="#Meiryo-32" transform="translate(983.691406 0)"/>
     <use xlink:href="#Meiryo-25" transform="translate(1045.800781 0)"/>
    </g>
    <!-- = 177σ相当 -->
    <g style="fill: #1a7f37" transform="translate(296.897449 157.434241) scale(0.1 -0.1)">
     <defs>
      <path id="Meiryo-37" d="M 3619 4056 
L 1506 0 
L 878 0 
L 3125 4203 
L 434 4203 
L 434 4709 
L 3619 4709 
L 3619 4056 
z
" transform="scale(0.015625)"/>
      <path id="Meiryo-3c3" d="M 3984 3059 
L 3109 3059 
Q 3528 2566 3528 1791 
Q 3528 906 3095 404 
Q 2663 -97 1906 -97 
Q 1144 -97 708 401 
Q 272 900 272 1766 
Q 272 2638 714 3134 
Q 1156 3631 1913 3631 
Q 2181 3631 2513 3531 
L 3984 3531 
L 3984 3059 
z
M 1900 3166 
Q 1391 3166 1116 2805 
Q 841 2444 841 1763 
Q 841 1091 1116 731 
Q 1391 372 1900 372 
Q 2409 372 2684 731 
Q 2959 1091 2959 1763 
Q 2959 3166 1900 3166 
z
" transform="scale(0.015625)"/>
      <path id="Meiryo-76f8" d="M 1347 2588 
Q 950 1681 322 969 
L 53 1216 
Q 447 1734 815 2445 
Q 1184 3156 1309 3684 
L 366 3684 
L 366 4075 
L 1347 4075 
L 1347 5316 
L 1844 5316 
L 1844 4075 
L 2588 4075 
L 2588 3684 
L 1844 3684 
L 1844 3031 
Q 2247 2541 2719 2241 
L 2463 1875 
Q 2081 2209 1844 2478 
L 1844 -403 
L 1347 -403 
L 1347 2588 
z
M 5378 -25 
L 3441 -25 
L 3441 -309 
L 2956 -309 
L 2956 5056 
L 5869 5056 
L 5869 -309 
L 5378 -309 
L 5378 -25 
z
M 5378 3522 
L 5378 4684 
L 3441 4684 
L 3441 3522 
L 5378 3522 
z
M 3441 1994 
L 5378 1994 
L 5378 3150 
L 3441 3150 
L 3441 1994 
z
M 3441 350 
L 5378 350 
L 5378 1628 
L 3441 1628 
L 3441 350 
z
" transform="scale(0.015625)"/>
      <path id="Meiryo-5f53" d="M 538 -116 
L 538 297 
L 5244 297 
L 5244 1366 
L 656 1366 
L 656 1772 
L 5244 1772 
L 5244 2791 
L 597 2791 
L 597 3175 
L 2922 3175 
L 2922 5284 
L 3416 5284 
L 3416 3175 
L 5741 3175 
L 5741 -338 
L 5244 -338 
L 5244 -116 
L 538 -116 
z
M 4806 3444 
L 4375 3619 
Q 4838 4244 5200 5047 
L 5700 4872 
Q 5119 3841 4806 3444 
z
M 1438 3469 
Q 1191 4038 706 4813 
L 1144 5003 
Q 1544 4384 1897 3666 
L 1438 3469 
z
" transform="scale(0.015625)"/>
     </defs>
     <use xlink:href="#Meiryo-3d"/>
     <use xlink:href="#Meiryo-20" transform="translate(80.371094 0)"/>
     <use xlink:href="#Meiryo-31" transform="translate(114.355469 0)"/>
     <use xlink:href="#Meiryo-37" transform="translate(176.464844 0)"/>
     <use xlink:href="#Meiryo-37" transform="translate(238.574219 0)"/>
     <use xlink:href="#Meiryo-3c3" transform="translate(300.683594 0)"/>
     <use xlink:href="#Meiryo-76f8" transform="translate(363.720703 0)"/>
     <use xlink:href="#Meiryo-5f53" transform="translate(463.720703 0)"/>
    </g>
   </g>
   <g id="text_15">
    <!-- 2軸の周波数分布: 同じ指令でも分離した2つのガウス分布 -->
    <g transform="translate(168.683624 20.057143) scale(0.12 -0.12)">
     <defs>
      <path id="Meiryo-306e" d="M 3338 -128 
L 3216 294 
Q 4222 384 4936 878 
Q 5650 1372 5650 2353 
Q 5650 3228 5073 3706 
Q 4497 4184 3466 4213 
Q 3431 2531 2862 1406 
Q 2294 281 1438 281 
Q 906 281 601 732 
Q 297 1184 297 1834 
Q 297 2906 1222 3761 
Q 2147 4616 3413 4616 
Q 4603 4616 5375 4020 
Q 6147 3425 6147 2394 
Q 6147 1219 5369 597 
Q 4591 -25 3338 -128 
z
M 2975 4172 
Q 2069 4034 1416 3351 
Q 763 2669 763 1809 
Q 763 1353 953 1036 
Q 1144 719 1484 719 
Q 2069 719 2503 1811 
Q 2938 2903 2975 4172 
z
" transform="scale(0.015625)"/>
      <path id="Meiryo-5e03" d="M 1375 2684 
Q 881 2138 328 1706 
L 50 2006 
Q 563 2381 1109 3037 
Q 1656 3694 1956 4238 
L 328 4238 
L 328 4638 
L 2153 4638 
Q 2353 5072 2425 5381 
L 2934 5322 
Q 2841 4991 2684 4638 
L 6166 4638 
L 6166 4238 
L 2488 4238 
Q 2213 3722 1800 3194 
L 3294 3194 
L 3294 3925 
L 3791 3925 
L 3791 3194 
L 5722 3194 
L 5722 700 
Q 5722 466 5562 316 
Q 5403 166 5147 166 
L 4428 166 
L 4344 597 
L 4959 597 
Q 5225 597 5225 844 
L 5225 2822 
L 3791 2822 
L 3791 -397 
L 3294 -397 
L 3294 2822 
L 1863 2822 
L 1863 100 
L 1375 100 
L 1375 2684 
z
" transform="scale(0.015625)"/>
      <path id="Meiryo-3a" d="M 1731 2678 
L 1022 2678 
L 1022 3531 
L 1731 3531 
L 1731 2678 
z
M 1731 0 
L 1022 0 
L 1022 853 
L 1731 853 
L 1731 0 
z
" transform="scale(0.015625)"/>
      <path id="Meiryo-3067" d="M 5781 4066 
L 4216 4066 
Q 3644 3822 3101 3173 
Q 2559 2525 2559 1825 
Q 2559 1284 2846 923 
Q 3134 563 3615 395 
Q 4097 228 4891 228 
Q 5075 228 5269 238 
L 5238 -225 
L 5222 -225 
Q 4644 -225 4262 -204 
Q 3881 -184 3459 -51 
Q 3038 81 2716 353 
Q 2394 625 2237 981 
Q 2081 1338 2081 1788 
Q 2081 2416 2464 3033 
Q 2847 3650 3475 4078 
L 341 4078 
L 341 4494 
L 5781 4494 
L 5781 4066 
z
M 5916 2925 
L 5556 2778 
Q 5347 3263 5109 3641 
L 5441 3803 
Q 5656 3466 5916 2925 
z
M 5006 2734 
L 4647 2572 
Q 4422 3078 4194 3450 
L 4531 3603 
Q 4803 3181 5006 2734 
z
" transform="scale(0.015625)"/>
      <path id="Meiryo-3082" d="M 4481 2150 
L 2306 2150 
Q 2156 1266 2156 978 
Q 2156 172 3622 172 
Q 5416 172 5416 1100 
Q 5416 1784 5056 2431 
L 5453 2566 
Q 5897 1794 5897 1044 
Q 5897 -256 3622 -256 
Q 1678 -256 1678 1003 
Q 1678 1363 1800 2150 
L 544 2150 
L 544 2566 
L 1872 2566 
Q 1941 2966 2100 3700 
L 584 3700 
L 584 4122 
L 2194 4122 
Q 2259 4422 2413 5025 
L 2913 4994 
L 2706 4122 
L 5531 4122 
L 5531 3700 
L 2609 3700 
Q 2478 3113 2378 2566 
L 4481 2566 
L 4481 2150 
z
" transform="scale(0.015625)"/>
      <path id="Meiryo-3057" d="M 5934 2188 
Q 5581 938 4893 350 
Q 4206 -238 3125 -238 
Q 2703 -238 2375 -153 
Q 2047 -69 1812 98 
Q 1578 266 1437 517 
Q 1297 769 1258 1062 
Q 1219 1356 1219 2034 
Q 1219 3188 1356 4866 
L 1869 4866 
Q 1703 3256 1703 2009 
Q 1703 1575 1723 1276 
Q 1744 978 1905 725 
Q 2066 472 2384 340 
Q 2703 209 3175 209 
Q 4022 209 4584 686 
Q 5147 1163 5497 2350 
L 5934 2188 
z
" transform="scale(0.015625)"/>
      <path id="Meiryo-305f" d="M 2234 5100 
Q 2234 4750 2203 4263 
L 4475 4263 
L 4475 3847 
L 2169 3847 
Q 2056 2644 1637 1469 
Q 1219 294 788 -231 
L 416 13 
Q 869 656 1230 1739 
Q 1591 2822 1675 3847 
L 538 3847 
L 538 4263 
L 1703 4263 
Q 1722 4666 1722 5100 
L 2234 5100 
z
M 5800 3250 
L 5794 2841 
Q 5641 2847 5513 2847 
Q 4394 2847 3053 2719 
L 3022 3131 
Q 4244 3259 5438 3259 
Q 5647 3259 5800 3250 
z
M 5984 0 
Q 5488 -84 4641 -84 
Q 3925 -84 3517 -25 
Q 3109 34 2875 246 
Q 2641 459 2641 766 
Q 2641 1209 2997 1606 
L 3347 1409 
Q 3119 1103 3119 819 
Q 3116 625 3330 484 
Q 3544 344 4528 344 
Q 5278 344 5959 428 
L 5984 0 
z
" transform="scale(0.015625)"/>
      <path id="Meiryo-3064" d="M 1831 72 
L 1753 513 
Q 3816 569 4687 1055 
Q 5559 1541 5563 2444 
Q 5563 3150 5138 3548 
Q 4713 3947 3981 3950 
Q 3513 3950 2436 3803 
Q 1359 3656 409 3469 
L 341 3931 
Q 3122 4378 3928 4378 
Q 4934 4375 5504 3875 
Q 6075 3375 6075 2456 
Q 6075 1338 5142 736 
Q 4209 134 1831 72 
z
" transform="scale(0.015625)"/>
      <path id="Meiryo-30ac" d="M 2894 5125 
L 2894 3922 
L 5631 3922 
L 5631 3694 
Q 5631 2609 5598 2220 
Q 5566 1831 5503 1403 
Q 5441 975 5327 662 
Q 5213 350 5064 179 
Q 4916 9 4686 -80 
Q 4456 -169 4047 -169 
Q 3600 -169 2925 -47 
L 2938 422 
Q 3500 306 3978 306 
Q 4194 306 4398 373 
Q 4603 441 4756 708 
Q 4909 975 5000 1623 
Q 5091 2272 5091 3084 
L 5088 3481 
L 2853 3481 
Q 2756 2053 2126 1139 
Q 1497 225 475 -316 
L 213 56 
Q 1194 653 1708 1467 
Q 2222 2281 2322 3481 
L 475 3481 
L 475 3922 
L 2344 3922 
L 2344 5125 
L 2894 5125 
z
M 5631 4538 
L 5275 4391 
Q 5075 4863 4825 5253 
L 5153 5406 
Q 5400 5025 5631 4538 
z
M 4722 4344 
L 4366 4184 
Q 4144 4684 3909 5063 
L 4250 5216 
Q 4516 4806 4722 4344 
z
" transform="scale(0.015625)"/>
      <path id="Meiryo-30a6" d="M 5825 3988 
Q 5825 3147 5722 2586 
Q 5619 2025 5423 1617 
Q 5228 1209 4925 892 
Q 4622 575 4155 326 
Q 3688 78 3067 -80 
Q 2447 -238 1678 -306 
L 1550 153 
Q 2309 228 2846 367 
Q 3384 506 3817 732 
Q 4250 959 4475 1194 
Q 4791 1525 4922 1795 
Q 5053 2066 5153 2558 
Q 5253 3050 5253 3659 
L 5250 3878 
L 1153 3878 
L 1153 2125 
L 609 2125 
L 609 4300 
L 2931 4300 
L 2931 5119 
L 3500 5119 
L 3500 4300 
L 5825 4300 
L 5825 3988 
z
" transform="scale(0.015625)"/>
      <path id="Meiryo-30b9" d="M 6228 50 
L 5784 -294 
Q 4928 588 3444 1838 
Q 1891 344 353 -269 
L 116 128 
Q 1403 653 2679 1792 
Q 3956 2931 4469 4281 
L 903 4281 
L 903 4716 
L 5031 4716 
L 5159 4600 
Q 4722 3275 3756 2181 
Q 4713 1434 6228 50 
z
" transform="scale(0.015625)"/>
     </defs>
     <use xlink:href="#Meiryo-32"/>
     <use xlink:href="#Meiryo-8ef8" transform="translate(62.109375 0)"/>
     <use xlink:href="#Meiryo-306e" transform="translate(162.109375 0)"/>
     <use xlink:href="#Meiryo-5468" transform="translate(262.109375 0)"/>
     <use xlink:href="#Meiryo-6ce2" transform="translate(362.109375 0)"/>
     <use xlink:href="#Meiryo-6570" transform="translate(462.109375 0)"/>
     <use xlink:href="#Meiryo-5206" transform="translate(562.109375 0)"/>
     <use xlink:href="#Meiryo-5e03" transform="translate(662.109375 0)"/>
     <use xlink:href="#Meiryo-3a" transform="translate(762.109375 0)"/>
     <use xlink:href="#Meiryo-20" transform="translate(805.078125 0)"/>
     <use xlink:href="#Meiryo-540c" transform="translate(839.0625 0)"/>
     <use xlink:href="#Meiryo-3058" transform="translate(939.0625 0)"/>
     <use xlink:href="#Meiryo-6307" transform="translate(1039.0625 0)"/>
     <use xlink:href="#Meiryo-4ee4" transform="translate(1139.0625 0)"/>
     <use xlink:href="#Meiryo-3067" transform="translate(1239.0625 0)"/>
     <use xlink:href="#Meiryo-3082" transform="translate(1339.0625 0)"/>
     <use xlink:href="#Meiryo-5206" transform="translate(1439.0625 0)"/>
     <use xlink:href="#Meiryo-96e2" transform="translate(1539.0625 0)"/>
     <use xlink:href="#Meiryo-3057" transform="translate(1639.0625 0)"/>
     <use xlink:href="#Meiryo-305f" transform="translate(1739.0625 0)"/>
     <use xlink:href="#Meiryo-32" transform="translate(1839.0625 0)"/>
     <use xlink:href="#Meiryo-3064" transform="translate(1901.171875 0)"/>
     <use xlink:href="#Meiryo-306e" transform="translate(2001.171875 0)"/>
     <use xlink:href="#Meiryo-30ac" transform="translate(2101.171875 0)"/>
     <use xlink:href="#Meiryo-30a6" transform="translate(2201.171875 0)"/>
     <use xlink:href="#Meiryo-30b9" transform="translate(2301.171875 0)"/>
     <use xlink:href="#Meiryo-5206" transform="translate(2401.171875 0)"/>
     <use xlink:href="#Meiryo-5e03" transform="translate(2501.171875 0)"/>
    </g>
   </g>
   <g id="legend_1">
    <g id="patch_46">
     <path d="M 237.022218 313.50625 
L 412.485656 313.50625 
Q 414.285656 313.50625 414.285656 311.70625 
L 414.285656 286.106875 
Q 414.285656 284.306875 412.485656 284.306875 
L 237.022218 284.306875 
Q 235.222218 284.306875 235.222218 286.106875 
L 235.222218 311.70625 
Q 235.222218 313.50625 237.022218 313.50625 
z
" style="fill: #ffffff; opacity: 0.8; stroke: #cccccc; stroke-linejoin: miter"/>
    </g>
    <g id="line2d_27">
     <path d="M 238.822218 291.674219 
L 247.822218 291.674219 
L 256.822218 291.674219 
" style="fill: none; stroke: #2b57a8; stroke-width: 2; stroke-linecap: square"/>
    </g>
    <g id="text_16">
     <!-- axis0: μ=444.21 Hz, σ=0.009 Hz -->
     <g transform="translate(264.022218 294.824219) scale(0.09 -0.09)">
      <defs>
       <path id="Meiryo-61" d="M 2663 841 
L 2663 1866 
Q 1497 1813 1164 1608 
Q 831 1403 831 1044 
Q 831 409 1600 409 
Q 2122 409 2663 841 
z
M 2663 0 
L 2663 394 
Q 2222 75 1937 -11 
Q 1653 -97 1359 -97 
Q 888 -97 575 215 
Q 263 528 263 1009 
Q 263 1625 727 1936 
Q 1191 2247 2663 2306 
L 2663 2413 
Q 2663 2781 2444 2957 
Q 2225 3134 1675 3134 
Q 1191 3134 597 2884 
L 572 2884 
L 572 3456 
Q 1156 3616 1697 3616 
Q 2481 3616 2845 3323 
Q 3209 3031 3209 2416 
L 3209 0 
L 2663 0 
z
" transform="scale(0.015625)"/>
       <path id="Meiryo-78" d="M 3428 0 
L 2763 0 
L 1766 1372 
L 744 0 
L 128 0 
L 1472 1753 
L 141 3531 
L 806 3531 
L 1797 2169 
L 2809 3531 
L 3428 3531 
L 2091 1788 
L 3428 0 
z
" transform="scale(0.015625)"/>
       <path id="Meiryo-69" d="M 1122 4238 
L 500 4238 
L 500 4809 
L 1122 4809 
L 1122 4238 
z
M 1088 0 
L 538 0 
L 538 3531 
L 1088 3531 
L 1088 0 
z
" transform="scale(0.015625)"/>
       <path id="Meiryo-73" d="M 1528 -84 
Q 866 -84 284 206 
L 284 844 
L 306 844 
Q 938 375 1559 375 
Q 2431 375 2431 925 
Q 2431 1141 2315 1259 
Q 2200 1378 1834 1463 
Q 1528 1522 1131 1615 
Q 734 1709 517 1945 
Q 300 2181 300 2550 
Q 300 3019 681 3317 
Q 1063 3616 1700 3616 
Q 2356 3616 2853 3359 
L 2853 2753 
L 2831 2753 
Q 2284 3156 1672 3156 
Q 1294 3156 1075 3017 
Q 856 2878 856 2631 
Q 856 2413 973 2297 
Q 1091 2181 1441 2094 
L 2131 1944 
Q 2559 1850 2775 1614 
Q 2991 1378 2991 1003 
Q 2991 519 2594 217 
Q 2197 -84 1528 -84 
z
" transform="scale(0.015625)"/>
       <path id="Meiryo-3bc" d="M 3469 0 
L 2925 0 
L 2925 406 
Q 2500 -66 1991 -66 
Q 1750 -66 1550 25 
Q 1350 116 1081 391 
L 1081 -1303 
L 531 -1303 
L 531 3531 
L 1081 3531 
L 1081 828 
Q 1216 669 1473 558 
Q 1731 447 1997 447 
Q 2563 447 2919 847 
L 2919 3531 
L 3469 3531 
L 3469 0 
z
" transform="scale(0.015625)"/>
       <path id="Meiryo-2c" d="M 1731 853 
L 850 -1156 
L 431 -1156 
L 981 853 
L 1731 853 
z
" transform="scale(0.015625)"/>
       <path id="Meiryo-39" d="M 759 -19 
L 759 534 
L 797 534 
Q 1059 409 1409 409 
Q 2853 409 2997 2081 
Q 2372 1706 1847 1706 
Q 1134 1706 720 2101 
Q 306 2497 306 3184 
Q 306 3891 768 4347 
Q 1231 4803 1919 4803 
Q 2703 4803 3151 4264 
Q 3600 3725 3600 2641 
Q 3600 1341 3009 625 
Q 2419 -91 1316 -91 
Q 991 -91 759 -19 
z
M 2997 2475 
L 3006 2753 
Q 3006 3516 2725 3923 
Q 2444 4331 1913 4331 
Q 1447 4331 1175 4032 
Q 903 3734 903 3209 
Q 903 2759 1156 2470 
Q 1409 2181 1994 2181 
Q 2472 2181 2997 2475 
z
" transform="scale(0.015625)"/>
      </defs>
      <use xlink:href="#Meiryo-61"/>
      <use xlink:href="#Meiryo-78" transform="translate(58.007812 0)"/>
      <use xlink:href="#Meiryo-69" transform="translate(113.574219 0)"/>
      <use xlink:href="#Meiryo-73" transform="translate(138.964844 0)"/>
      <use xlink:href="#Meiryo-30" transform="translate(188.769531 0)"/>
      <use xlink:href="#Meiryo-3a" transform="translate(250.878906 0)"/>
      <use xlink:href="#Meiryo-20" transform="translate(293.847656 0)"/>
      <use xlink:href="#Meiryo-3bc" transform="translate(327.832031 0)"/>
      <use xlink:href="#Meiryo-3d" transform="translate(390.332031 0)"/>
      <use xlink:href="#Meiryo-34" transform="translate(470.703125 0)"/>
      <use xlink:href="#Meiryo-34" transform="translate(532.8125 0)"/>
      <use xlink:href="#Meiryo-34" transform="translate(594.921875 0)"/>
      <use xlink:href="#Meiryo-2e" transform="translate(657.03125 0)"/>
      <use xlink:href="#Meiryo-32" transform="translate(691.943359 0)"/>
      <use xlink:href="#Meiryo-31" transform="translate(754.052734 0)"/>
      <use xlink:href="#Meiryo-20" transform="translate(816.162109 0)"/>
      <use xlink:href="#Meiryo-48" transform="translate(850.146484 0)"/>
      <use xlink:href="#Meiryo-7a" transform="translate(924.462891 0)"/>
      <use xlink:href="#Meiryo-2c" transform="translate(975.048828 0)"/>
      <use xlink:href="#Meiryo-20" transform="translate(1009.960938 0)"/>
      <use xlink:href="#Meiryo-3c3" transform="translate(1043.945312 0)"/>
      <use xlink:href="#Meiryo-3d" transform="translate(1106.982422 0)"/>
      <use xlink:href="#Meiryo-30" transform="translate(1187.353516 0)"/>
      <use xlink:href="#Meiryo-2e" transform="translate(1249.462891 0)"/>
      <use xlink:href="#Meiryo-30" transform="translate(1284.375 0)"/>
      <use xlink:href="#Meiryo-30" transform="translate(1346.484375 0)"/>
      <use xlink:href="#Meiryo-39" transform="translate(1408.59375 0)"/>
      <use xlink:href="#Meiryo-20" transform="translate(1470.703125 0)"/>
      <use xlink:href="#Meiryo-48" transform="translate(1504.6875 0)"/>
      <use xlink:href="#Meiryo-7a" transform="translate(1579.003906 0)"/>
     </g>
    </g>
    <g id="line2d_28">
     <path d="M 238.822218 304.923906 
L 247.822218 304.923906 
L 256.822218 304.923906 
" style="fill: none; stroke: #c2571a; stroke-width: 2; stroke-linecap: square"/>
    </g>
    <g id="text_17">
     <!-- axis1: μ=445.64 Hz, σ=0.006 Hz -->
     <g transform="translate(264.022218 308.073906) scale(0.09 -0.09)">
      <use xlink:href="#Meiryo-61"/>
      <use xlink:href="#Meiryo-78" transform="translate(58.007812 0)"/>
      <use xlink:href="#Meiryo-69" transform="translate(113.574219 0)"/>
      <use xlink:href="#Meiryo-73" transform="translate(138.964844 0)"/>
      <use xlink:href="#Meiryo-31" transform="translate(188.769531 0)"/>
      <use xlink:href="#Meiryo-3a" transform="translate(250.878906 0)"/>
      <use xlink:href="#Meiryo-20" transform="translate(293.847656 0)"/>
      <use xlink:href="#Meiryo-3bc" transform="translate(327.832031 0)"/>
      <use xlink:href="#Meiryo-3d" transform="translate(390.332031 0)"/>
      <use xlink:href="#Meiryo-34" transform="translate(470.703125 0)"/>
      <use xlink:href="#Meiryo-34" transform="translate(532.8125 0)"/>
      <use xlink:href="#Meiryo-35" transform="translate(594.921875 0)"/>
      <use xlink:href="#Meiryo-2e" transform="translate(657.03125 0)"/>
      <use xlink:href="#Meiryo-36" transform="translate(691.943359 0)"/>
      <use xlink:href="#Meiryo-34" transform="translate(754.052734 0)"/>
      <use xlink:href="#Meiryo-20" transform="translate(816.162109 0)"/>
      <use xlink:href="#Meiryo-48" transform="translate(850.146484 0)"/>
      <use xlink:href="#Meiryo-7a" transform="translate(924.462891 0)"/>
      <use xlink:href="#Meiryo-2c" transform="translate(975.048828 0)"/>
      <use xlink:href="#Meiryo-20" transform="translate(1009.960938 0)"/>
      <use xlink:href="#Meiryo-3c3" transform="translate(1043.945312 0)"/>
      <use xlink:href="#Meiryo-3d" transform="translate(1106.982422 0)"/>
      <use xlink:href="#Meiryo-30" transform="translate(1187.353516 0)"/>
      <use xlink:href="#Meiryo-2e" transform="translate(1249.462891 0)"/>
      <use xlink:href="#Meiryo-30" transform="translate(1284.375 0)"/>
      <use xlink:href="#Meiryo-30" transform="translate(1346.484375 0)"/>
      <use xlink:href="#Meiryo-36" transform="translate(1408.59375 0)"/>
      <use xlink:href="#Meiryo-20" transform="translate(1470.703125 0)"/>
      <use xlink:href="#Meiryo-48" transform="translate(1504.6875 0)"/>
      <use xlink:href="#Meiryo-7a" transform="translate(1579.003906 0)"/>
     </g>
    </g>
   </g>
  </g>
 </g>
 <defs>
  <clipPath id="p86c41b1e1e">
   <rect x="44.042857" y="26.057143" width="561.42216" height="291.949107"/>
  </clipPath>
 </defs>
</svg>
