<?xml version="1.0" encoding="utf-8" standalone="no"?>
<!DOCTYPE svg PUBLIC "-//W3C//DTD SVG 1.1//EN"
  "http://www.w3.org/Graphics/SVG/1.1/DTD/svg11.dtd">
<svg xmlns:xlink="http://www.w3.org/1999/xlink" width="619.2pt" height="345.6pt" viewBox="0 0 619.2 345.6" xmlns="http://www.w3.org/2000/svg" version="1.1">
 <metadata>
  <rdf:RDF xmlns:dc="http://purl.org/dc/elements/1.1/" xmlns:cc="http://creativecommons.org/ns#" xmlns:rdf="http://www.w3.org/1999/02/22-rdf-syntax-ns#">
   <cc:Work>
    <dc:type rdf:resource="http://purl.org/dc/dcmitype/StillImage"/>
    <dc:date>2026-07-06T11:14:49.764248</dc:date>
    <dc:format>image/svg+xml</dc:format>
    <dc:creator>
     <cc:Agent>
      <dc:title>Matplotlib v3.10.9, https://matplotlib.org/</dc:title>
     </cc:Agent>
    </dc:creator>
   </cc:Work>
  </rdf:RDF>
 </metadata>
 <defs>
  <style type="text/css">*{stroke-linejoin: round; stroke-linecap: butt}</style>
 </defs>
 <g id="figure_1">
  <g id="patch_1">
   <path d="M 0 345.6 
L 619.2 345.6 
L 619.2 0 
L 0 0 
z
" style="fill: #ffffff"/>
  </g>
  <g id="axes_1">
   <g id="patch_2">
    <path d="M 25.465003 303.60625 
L 601.881564 303.60625 
L 601.881564 26.057143 
L 25.465003 26.057143 
z
" style="fill: #ffffff"/>
   </g>
   <g id="matplotlib.axis_1">
    <g id="xtick_1">
     <g id="line2d_1">
      <path d="M 70.197995 303.60625 
L 70.197995 26.057143 
" clip-path="url(#p519980a3f1)" style="fill: none; stroke: #b0b0b0; stroke-opacity: 0.25; stroke-width: 0.8; stroke-linecap: square"/>
     </g>
     <g id="line2d_2">
      <defs>
       <path id="m14e1ad4fd1" d="M 0 0 
L 0 3.5 
" style="stroke: #000000; stroke-width: 0.8"/>
      </defs>
      <g>
       <use xlink:href="#m14e1ad4fd1" x="70.197995" y="303.60625" style="stroke: #000000; stroke-width: 0.8"/>
      </g>
     </g>
     <g id="text_1">
      <!-- 444.50 -->
      <g transform="translate(52.925339 318.292187) scale(0.1 -0.1)">
       <defs>
        <path id="Meiryo-34" d="M 3713 1356 
L 3022 1356 
L 3022 0 
L 2459 0 
L 2459 1356 
L 194 1356 
L 194 2013 
L 2484 4709 
L 3022 4709 
L 3022 1819 
L 3713 1819 
L 3713 1356 
z
M 2459 1819 
L 2459 4022 
L 588 1819 
L 2459 1819 
z
" transform="scale(0.015625)"/>
        <path id="Meiryo-2e" d="M 1472 0 
L 763 0 
L 763 853 
L 1472 853 
L 1472 0 
z
" transform="scale(0.015625)"/>
        <path id="Meiryo-35" d="M 538 178 
L 538 803 
L 588 803 
Q 1197 406 1856 406 
Q 2363 406 2667 695 
Q 2972 984 2972 1494 
Q 2972 2419 1703 2419 
Q 1341 2419 741 2294 
L 741 4709 
L 3538 4709 
L 3538 4203 
L 1303 4203 
L 1303 2869 
Q 1716 2909 1859 2909 
Q 2700 2909 3134 2546 
Q 3569 2184 3569 1491 
Q 3569 791 3098 347 
Q 2628 -97 1869 -97 
Q 1131 -97 538 178 
z
" transform="scale(0.015625)"/>
        <path id="Meiryo-30" d="M 1991 -97 
Q 1159 -97 768 497 
Q 378 1091 378 2350 
Q 378 3609 770 4206 
Q 1163 4803 1991 4803 
Q 2813 4803 3206 4204 
Q 3600 3606 3600 2356 
Q 3600 1094 3209 498 
Q 2819 -97 1991 -97 
z
M 1991 4325 
Q 1456 4325 1215 3901 
Q 975 3478 975 2350 
Q 975 1231 1215 806 
Q 1456 381 1991 381 
Q 2525 381 2764 806 
Q 3003 1231 3003 2356 
Q 3003 3459 2765 3892 
Q 2528 4325 1991 4325 
z
" transform="scale(0.015625)"/>
       </defs>
       <use xlink:href="#Meiryo-34"/>
       <use xlink:href="#Meiryo-34" transform="translate(62.109375 0)"/>
       <use xlink:href="#Meiryo-34" transform="translate(124.21875 0)"/>
       <use xlink:href="#Meiryo-2e" transform="translate(186.328125 0)"/>
       <use xlink:href="#Meiryo-35" transform="translate(221.240234 0)"/>
       <use xlink:href="#Meiryo-30" transform="translate(283.349609 0)"/>
      </g>
     </g>
    </g>
    <g id="xtick_2">
     <g id="line2d_3">
      <path d="M 150.078339 303.60625 
L 150.078339 26.057143 
" clip-path="url(#p519980a3f1)" style="fill: none; stroke: #b0b0b0; stroke-opacity: 0.25; stroke-width: 0.8; stroke-linecap: square"/>
     </g>
     <g id="line2d_4">
      <g>
       <use xlink:href="#m14e1ad4fd1" x="150.078339" y="303.60625" style="stroke: #000000; stroke-width: 0.8"/>
      </g>
     </g>
     <g id="text_2">
      <!-- 444.75 -->
      <g transform="translate(132.805683 318.292187) scale(0.1 -0.1)">
       <defs>
        <path id="Meiryo-37" d="M 3619 4056 
L 1506 0 
L 878 0 
L 3125 4203 
L 434 4203 
L 434 4709 
L 3619 4709 
L 3619 4056 
z
" transform="scale(0.015625)"/>
       </defs>
       <use xlink:href="#Meiryo-34"/>
       <use xlink:href="#Meiryo-34" transform="translate(62.109375 0)"/>
       <use xlink:href="#Meiryo-34" transform="translate(124.21875 0)"/>
       <use xlink:href="#Meiryo-2e" transform="translate(186.328125 0)"/>
       <use xlink:href="#Meiryo-37" transform="translate(221.240234 0)"/>
       <use xlink:href="#Meiryo-35" transform="translate(283.349609 0)"/>
      </g>
     </g>
    </g>
    <g id="xtick_3">
     <g id="line2d_5">
      <path d="M 229.958683 303.60625 
L 229.958683 26.057143 
" clip-path="url(#p519980a3f1)" style="fill: none; stroke: #b0b0b0; stroke-opacity: 0.25; stroke-width: 0.8; stroke-linecap: square"/>
     </g>
     <g id="line2d_6">
      <g>
       <use xlink:href="#m14e1ad4fd1" x="229.958683" y="303.60625" style="stroke: #000000; stroke-width: 0.8"/>
      </g>
     </g>
     <g id="text_3">
      <!-- 445.00 -->
      <g transform="translate(212.686027 318.292187) scale(0.1 -0.1)">
       <use xlink:href="#Meiryo-34"/>
       <use xlink:href="#Meiryo-34" transform="translate(62.109375 0)"/>
       <use xlink:href="#Meiryo-35" transform="translate(124.21875 0)"/>
       <use xlink:href="#Meiryo-2e" transform="translate(186.328125 0)"/>
       <use xlink:href="#Meiryo-30" transform="translate(221.240234 0)"/>
       <use xlink:href="#Meiryo-30" transform="translate(283.349609 0)"/>
      </g>
     </g>
    </g>
    <g id="xtick_4">
     <g id="line2d_7">
      <path d="M 309.839027 303.60625 
L 309.839027 26.057143 
" clip-path="url(#p519980a3f1)" style="fill: none; stroke: #b0b0b0; stroke-opacity: 0.25; stroke-width: 0.8; stroke-linecap: square"/>
     </g>
     <g id="line2d_8">
      <g>
       <use xlink:href="#m14e1ad4fd1" x="309.839027" y="303.60625" style="stroke: #000000; stroke-width: 0.8"/>
      </g>
     </g>
     <g id="text_4">
      <!-- 445.25 -->
      <g transform="translate(292.566371 318.292187) scale(0.1 -0.1)">
       <defs>
        <path id="Meiryo-32" d="M 3606 0 
L 456 0 
L 456 609 
Q 956 1041 1579 1612 
Q 2203 2184 2506 2618 
Q 2809 3053 2809 3488 
Q 2809 3872 2554 4087 
Q 2300 4303 1863 4303 
Q 1222 4303 603 3897 
L 572 3897 
L 572 4506 
Q 1203 4806 1878 4806 
Q 2591 4806 3000 4461 
Q 3409 4116 3409 3519 
Q 3409 3200 3304 2909 
Q 3200 2619 2978 2344 
Q 2756 2069 2447 1759 
Q 2138 1450 1025 503 
L 3606 503 
L 3606 0 
z
" transform="scale(0.015625)"/>
       </defs>
       <use xlink:href="#Meiryo-34"/>
       <use xlink:href="#Meiryo-34" transform="translate(62.109375 0)"/>
       <use xlink:href="#Meiryo-35" transform="translate(124.21875 0)"/>
       <use xlink:href="#Meiryo-2e" transform="translate(186.328125 0)"/>
       <use xlink:href="#Meiryo-32" transform="translate(221.240234 0)"/>
       <use xlink:href="#Meiryo-35" transform="translate(283.349609 0)"/>
      </g>
     </g>
    </g>
    <g id="xtick_5">
     <g id="line2d_9">
      <path d="M 389.719371 303.60625 
L 389.719371 26.057143 
" clip-path="url(#p519980a3f1)" style="fill: none; stroke: #b0b0b0; stroke-opacity: 0.25; stroke-width: 0.8; stroke-linecap: square"/>
     </g>
     <g id="line2d_10">
      <g>
       <use xlink:href="#m14e1ad4fd1" x="389.719371" y="303.60625" style="stroke: #000000; stroke-width: 0.8"/>
      </g>
     </g>
     <g id="text_5">
      <!-- 445.50 -->
      <g transform="translate(372.446714 318.292187) scale(0.1 -0.1)">
       <use xlink:href="#Meiryo-34"/>
       <use xlink:href="#Meiryo-34" transform="translate(62.109375 0)"/>
       <use xlink:href="#Meiryo-35" transform="translate(124.21875 0)"/>
       <use xlink:href="#Meiryo-2e" transform="translate(186.328125 0)"/>
       <use xlink:href="#Meiryo-35" transform="translate(221.240234 0)"/>
       <use xlink:href="#Meiryo-30" transform="translate(283.349609 0)"/>
      </g>
     </g>
    </g>
    <g id="xtick_6">
     <g id="line2d_11">
      <path d="M 469.599715 303.60625 
L 469.599715 26.057143 
" clip-path="url(#p519980a3f1)" style="fill: none; stroke: #b0b0b0; stroke-opacity: 0.25; stroke-width: 0.8; stroke-linecap: square"/>
     </g>
     <g id="line2d_12">
      <g>
       <use xlink:href="#m14e1ad4fd1" x="469.599715" y="303.60625" style="stroke: #000000; stroke-width: 0.8"/>
      </g>
     </g>
     <g id="text_6">
      <!-- 445.75 -->
      <g transform="translate(452.327058 318.292187) scale(0.1 -0.1)">
       <use xlink:href="#Meiryo-34"/>
       <use xlink:href="#Meiryo-34" transform="translate(62.109375 0)"/>
       <use xlink:href="#Meiryo-35" transform="translate(124.21875 0)"/>
       <use xlink:href="#Meiryo-2e" transform="translate(186.328125 0)"/>
       <use xlink:href="#Meiryo-37" transform="translate(221.240234 0)"/>
       <use xlink:href="#Meiryo-35" transform="translate(283.349609 0)"/>
      </g>
     </g>
    </g>
    <g id="xtick_7">
     <g id="line2d_13">
      <path d="M 549.480058 303.60625 
L 549.480058 26.057143 
" clip-path="url(#p519980a3f1)" style="fill: none; stroke: #b0b0b0; stroke-opacity: 0.25; stroke-width: 0.8; stroke-linecap: square"/>
     </g>
     <g id="line2d_14">
      <g>
       <use xlink:href="#m14e1ad4fd1" x="549.480058" y="303.60625" style="stroke: #000000; stroke-width: 0.8"/>
      </g>
     </g>
     <g id="text_7">
      <!-- 446.00 -->
      <g transform="translate(532.207402 318.292187) scale(0.1 -0.1)">
       <defs>
        <path id="Meiryo-36" d="M 3222 4722 
L 3222 4169 
L 3184 4169 
Q 2922 4297 2572 4297 
Q 1881 4297 1468 3858 
Q 1056 3419 988 2638 
Q 1578 2991 2138 2991 
Q 2822 2991 3248 2611 
Q 3675 2231 3675 1522 
Q 3675 816 3212 359 
Q 2750 -97 2063 -97 
Q 1266 -97 823 458 
Q 381 1013 381 2066 
Q 381 3363 973 4080 
Q 1566 4797 2666 4797 
Q 2997 4797 3222 4722 
z
M 988 2238 
Q 975 1981 975 1928 
Q 975 1184 1265 779 
Q 1556 375 2069 375 
Q 2541 375 2809 670 
Q 3078 966 3078 1497 
Q 3078 1938 2825 2225 
Q 2572 2513 1984 2513 
Q 1475 2513 988 2238 
z
" transform="scale(0.015625)"/>
       </defs>
       <use xlink:href="#Meiryo-34"/>
       <use xlink:href="#Meiryo-34" transform="translate(62.109375 0)"/>
       <use xlink:href="#Meiryo-36" transform="translate(124.21875 0)"/>
       <use xlink:href="#Meiryo-2e" transform="translate(186.328125 0)"/>
       <use xlink:href="#Meiryo-30" transform="translate(221.240234 0)"/>
       <use xlink:href="#Meiryo-30" transform="translate(283.349609 0)"/>
      </g>
     </g>
    </g>
    <g id="text_8">
     <!-- 実測周波数 [Hz]（同じ指令 VACTUAL=615 に対して） -->
     <g transform="translate(186.620158 332.629687) scale(0.1 -0.1)">
      <defs>
       <path id="Meiryo-5b9f" d="M 5519 3797 
L 5519 4475 
L 844 4475 
L 844 3797 
L 400 3797 
L 400 4834 
L 2881 4834 
L 2881 5344 
L 3384 5344 
L 3384 4834 
L 5981 4834 
L 5981 3797 
L 5519 3797 
z
M 2881 1738 
L 2881 2366 
L 813 2366 
L 813 2738 
L 2881 2738 
L 2881 3338 
L 916 3338 
L 916 3725 
L 2881 3725 
L 2881 4134 
L 3397 4134 
L 3397 3725 
L 5453 3725 
L 5453 3338 
L 3397 3338 
L 3397 2738 
L 5575 2738 
L 5575 2366 
L 3397 2366 
L 3397 1738 
L 6072 1738 
L 6072 1353 
L 3600 1353 
Q 4394 397 6094 16 
L 5878 -409 
Q 5072 -266 4325 175 
Q 3578 616 3191 1163 
Q 2831 575 2100 150 
Q 1369 -275 431 -434 
L 275 -56 
Q 1331 153 1948 584 
Q 2566 1016 2750 1353 
L 341 1353 
L 341 1738 
L 2881 1738 
z
" transform="scale(0.015625)"/>
       <path id="Meiryo-6e2c" d="M 5938 172 
Q 5938 -28 5780 -165 
Q 5622 -303 5463 -303 
L 4719 -303 
L 4647 119 
L 5188 119 
Q 5303 119 5386 187 
Q 5469 256 5469 363 
L 5469 5250 
L 5938 5250 
L 5938 172 
z
M 3797 1125 
L 1859 1125 
L 1859 5100 
L 3797 5100 
L 3797 1125 
z
M 3347 3881 
L 3347 4750 
L 2309 4750 
L 2309 3881 
L 3347 3881 
z
M 3347 2725 
L 3347 3547 
L 2309 3547 
L 2309 2725 
L 3347 2725 
z
M 3347 2391 
L 2309 2391 
L 2309 1484 
L 3347 1484 
L 3347 2391 
z
M 1566 4284 
L 1244 3947 
Q 903 4334 384 4781 
L 691 5100 
Q 1225 4666 1566 4284 
z
M 4856 1138 
L 4384 1138 
L 4384 4769 
L 4856 4769 
L 4856 1138 
z
M 1278 2834 
L 950 2491 
Q 622 2850 109 3300 
L 422 3613 
Q 859 3256 1278 2834 
z
M 1513 1916 
Q 1384 1425 1112 778 
Q 841 131 584 -266 
L 200 9 
Q 434 350 704 972 
Q 975 1594 1116 2066 
L 1513 1916 
z
M 4197 -75 
L 3784 -303 
Q 3309 291 3088 722 
L 3484 897 
Q 3719 453 4197 -75 
z
M 2544 722 
Q 2431 528 2129 167 
Q 1828 -194 1650 -344 
L 1309 -88 
Q 1497 75 1759 392 
Q 2022 709 2125 897 
L 2544 722 
z
" transform="scale(0.015625)"/>
       <path id="Meiryo-5468" d="M 5197 -322 
L 4353 -322 
L 4281 116 
L 5006 116 
Q 5113 116 5197 178 
Q 5281 241 5281 338 
L 5281 4713 
L 1222 4713 
L 1222 2697 
Q 1222 719 444 -400 
L 113 -172 
Q 256 38 372 330 
Q 488 622 580 1011 
Q 672 1400 714 1742 
Q 756 2084 756 2675 
L 756 5084 
L 5766 5084 
L 5766 188 
Q 5766 -34 5598 -178 
Q 5431 -322 5197 -322 
z
M 1638 2650 
L 1638 3006 
L 2991 3006 
L 2991 3641 
L 1828 3641 
L 1828 4006 
L 2991 4006 
L 2991 4475 
L 3472 4475 
L 3472 4006 
L 4669 4006 
L 4669 3641 
L 3472 3641 
L 3472 3006 
L 4909 3006 
L 4909 2650 
L 1638 2650 
z
M 2338 578 
L 2338 344 
L 1881 344 
L 1881 2113 
L 4563 2113 
L 4563 578 
L 2338 578 
z
M 2338 938 
L 4094 938 
L 4094 1753 
L 2338 1753 
L 2338 938 
z
" transform="scale(0.015625)"/>
       <path id="Meiryo-6ce2" d="M 4331 484 
Q 3556 -103 2469 -369 
L 2306 -31 
Q 3213 213 3984 769 
Q 3494 1225 3273 1620 
Q 3053 2016 2916 2541 
L 2556 2541 
Q 2516 709 1713 -303 
L 1384 -81 
Q 1650 275 1870 933 
Q 2091 1591 2091 2691 
L 2091 4506 
L 3813 4506 
L 3813 5303 
L 4291 5303 
L 4291 4506 
L 6041 4506 
L 6078 4453 
L 5772 3372 
L 5334 3372 
L 5525 4134 
L 4291 4134 
L 4291 2894 
L 5653 2894 
L 5741 2809 
Q 5681 2353 5404 1781 
Q 5128 1209 4688 784 
Q 5447 266 6250 47 
L 5981 -350 
Q 5091 -72 4331 484 
z
M 2559 2894 
L 3813 2894 
L 3813 4134 
L 2559 4134 
L 2559 2894 
z
M 4328 1053 
Q 4994 1709 5159 2541 
L 3369 2541 
Q 3569 1691 4328 1053 
z
M 1366 3966 
Q 1159 4216 472 4813 
L 791 5128 
Q 1363 4663 1713 4303 
L 1366 3966 
z
M 1013 2497 
Q 559 3009 150 3338 
L 466 3638 
Q 944 3281 1353 2834 
L 1013 2497 
z
M 659 -278 
L 244 3 
Q 484 344 771 969 
Q 1059 1594 1209 2072 
L 1613 1916 
Q 1491 1456 1205 792 
Q 919 128 659 -278 
z
" transform="scale(0.015625)"/>
       <path id="Meiryo-6570" d="M 4825 931 
Q 4203 97 3278 -403 
L 3056 -81 
Q 4009 500 4566 1353 
Q 4038 2316 3869 3147 
Q 3744 2897 3625 2713 
L 3266 2934 
Q 3550 3397 3792 4086 
Q 4034 4775 4128 5322 
L 4609 5263 
Q 4516 4763 4325 4231 
L 6144 4231 
L 6144 3866 
L 5803 3866 
Q 5731 2459 5097 1350 
Q 5603 559 6256 22 
L 5934 -331 
Q 5269 284 4825 931 
z
M 4822 1800 
Q 5328 2797 5344 3863 
L 4181 3853 
L 4153 3781 
Q 4303 2741 4822 1800 
z
M 322 2634 
L 156 2928 
Q 456 3053 892 3331 
Q 1328 3609 1619 3881 
L 366 3881 
L 366 4206 
L 1738 4206 
L 1738 5231 
L 2194 5231 
L 2194 4206 
L 3488 4206 
L 3488 3881 
L 2222 3881 
Q 2650 3534 3194 3278 
L 2972 2966 
Q 2656 3125 2194 3481 
L 2194 2606 
L 1738 2606 
L 1738 3491 
Q 1031 2925 322 2634 
z
M 3069 4344 
L 2709 4434 
L 2997 5134 
L 3391 5050 
L 3069 4344 
z
M 888 4356 
L 634 5009 
L 1013 5122 
L 1275 4469 
L 888 4356 
z
M 2094 141 
Q 1378 -300 388 -397 
L 294 -69 
Q 1113 50 1675 347 
Q 984 675 688 753 
Q 616 753 616 866 
Q 616 888 628 909 
Q 784 1188 1000 1653 
L 269 1653 
L 269 2006 
L 1156 2006 
Q 1300 2338 1353 2491 
L 1809 2419 
Q 1753 2278 1628 2006 
L 3566 2006 
L 3566 1653 
L 3178 1653 
Q 3000 919 2450 409 
Q 2809 238 3003 134 
L 2744 -219 
Q 2522 -78 2094 141 
z
M 2053 597 
Q 2572 1038 2713 1653 
L 1466 1653 
Q 1219 1138 1131 1000 
Q 1372 919 2053 597 
z
" transform="scale(0.015625)"/>
       <path id="Meiryo-20" transform="scale(0.015625)"/>
       <path id="Meiryo-5b" d="M 2325 -1241 
L 697 -1241 
L 697 4919 
L 2325 4919 
L 2325 4516 
L 1206 4516 
L 1206 -838 
L 2325 -838 
L 2325 -1241 
z
" transform="scale(0.015625)"/>
       <path id="Meiryo-48" d="M 4178 0 
L 3597 0 
L 3597 2328 
L 1159 2328 
L 1159 0 
L 578 0 
L 578 4709 
L 1159 4709 
L 1159 2831 
L 3597 2831 
L 3597 4709 
L 4178 4709 
L 4178 0 
z
" transform="scale(0.015625)"/>
       <path id="Meiryo-7a" d="M 3047 0 
L 228 0 
L 228 394 
L 2303 3081 
L 272 3081 
L 272 3531 
L 2994 3531 
L 2994 3153 
L 906 456 
L 3047 456 
L 3047 0 
z
" transform="scale(0.015625)"/>
       <path id="Meiryo-5d" d="M 2116 -1241 
L 488 -1241 
L 488 -838 
L 1606 -838 
L 1606 4516 
L 488 4516 
L 488 4919 
L 2116 4919 
L 2116 -1241 
z
" transform="scale(0.015625)"/>
       <path id="Meiryo-ff08" d="M 6003 -453 
L 5388 -453 
Q 4300 853 4300 2459 
Q 4300 4053 5388 5369 
L 6003 5369 
L 6003 5338 
Q 5491 4863 5169 4178 
Q 4788 3366 4788 2459 
Q 4788 1547 5169 731 
Q 5491 47 6003 -428 
L 6003 -453 
z
" transform="scale(0.015625)"/>
       <path id="Meiryo-540c" d="M 5166 -322 
L 4244 -322 
L 4188 116 
L 5016 116 
Q 5141 116 5228 191 
Q 5316 266 5316 356 
L 5316 4666 
L 1019 4666 
L 1019 -381 
L 556 -381 
L 556 5031 
L 5791 5031 
L 5791 181 
Q 5791 -25 5611 -173 
Q 5431 -322 5166 -322 
z
M 1509 3641 
L 1509 4019 
L 4781 4019 
L 4781 3641 
L 1509 3641 
z
M 2275 925 
L 2275 606 
L 1803 606 
L 1803 2859 
L 4553 2859 
L 4553 925 
L 2275 925 
z
M 2275 1297 
L 4081 1297 
L 4081 2500 
L 2275 2500 
L 2275 1297 
z
" transform="scale(0.015625)"/>
       <path id="Meiryo-3058" d="M 5869 2188 
Q 5516 931 4828 346 
Q 4141 -238 3059 -238 
Q 2638 -238 2309 -153 
Q 1981 -69 1748 98 
Q 1516 266 1375 517 
Q 1234 769 1193 1062 
Q 1153 1356 1153 2034 
Q 1153 3188 1294 4866 
L 1806 4866 
Q 1641 3256 1641 2009 
Q 1641 1575 1661 1276 
Q 1681 978 1842 725 
Q 2003 472 2322 340 
Q 2641 209 3113 209 
Q 3959 209 4521 686 
Q 5084 1163 5434 2350 
L 5869 2188 
z
M 4713 4359 
L 4353 4213 
Q 4144 4697 3906 5075 
L 4231 5228 
Q 4481 4838 4713 4359 
z
M 3803 4166 
L 3444 4006 
Q 3219 4513 2991 4884 
L 3328 5038 
Q 3600 4616 3803 4166 
z
" transform="scale(0.015625)"/>
       <path id="Meiryo-6307" d="M 278 1688 
L 178 2106 
Q 572 2181 1219 2350 
L 1219 3719 
L 369 3719 
L 369 4103 
L 1219 4103 
L 1219 5272 
L 1706 5272 
L 1706 4103 
L 2300 4103 
L 2300 3719 
L 1706 3719 
L 1706 2488 
Q 2172 2622 2366 2700 
L 2444 2347 
Q 2238 2250 1706 2084 
L 1706 41 
Q 1706 -156 1542 -272 
Q 1378 -388 1159 -388 
L 434 -388 
L 375 56 
L 969 56 
Q 1219 56 1219 278 
L 1219 1938 
Q 631 1769 278 1688 
z
M 2653 5272 
L 3156 5272 
L 3156 4484 
Q 4913 4809 5578 5081 
L 5831 4697 
Q 5488 4578 4648 4400 
Q 3809 4222 3156 4122 
L 3156 3697 
Q 3156 3484 3342 3431 
Q 3528 3378 4419 3378 
Q 4972 3378 5147 3392 
Q 5322 3406 5415 3448 
Q 5509 3491 5545 3552 
Q 5581 3613 5592 3788 
Q 5603 3963 5603 4181 
L 6028 4116 
L 6028 3547 
Q 6028 3325 5900 3195 
Q 5772 3066 5508 3022 
Q 5244 2978 4438 2978 
Q 3528 2978 3217 3018 
Q 2906 3059 2779 3189 
Q 2653 3319 2653 3547 
L 2653 5272 
z
M 5325 -141 
L 3197 -141 
L 3197 -338 
L 2713 -338 
L 2713 2472 
L 5806 2472 
L 5806 -338 
L 5325 -338 
L 5325 -141 
z
M 5325 1388 
L 5325 2113 
L 3197 2113 
L 3197 1388 
L 5325 1388 
z
M 3197 231 
L 5325 231 
L 5325 1022 
L 3197 1022 
L 3197 231 
z
" transform="scale(0.015625)"/>
       <path id="Meiryo-4ee4" d="M 6097 2803 
Q 5431 3078 4582 3709 
Q 3734 4341 3175 5016 
Q 2697 4359 1894 3746 
Q 1091 3134 269 2778 
L 47 3116 
Q 1009 3581 1729 4182 
Q 2450 4784 2816 5316 
L 3519 5316 
Q 3997 4700 4823 4092 
Q 5650 3484 6372 3200 
L 6097 2803 
z
M 4722 3228 
L 1700 3228 
L 1700 3600 
L 4722 3600 
L 4722 3228 
z
M 2416 -416 
L 2416 1988 
L 603 1988 
L 603 2397 
L 5581 2397 
L 5581 531 
Q 5581 316 5401 159 
Q 5222 3 4963 3 
L 4028 3 
L 3956 447 
L 4788 447 
Q 5088 447 5088 716 
L 5088 1988 
L 2919 1988 
L 2919 -416 
L 2416 -416 
z
" transform="scale(0.015625)"/>
       <path id="Meiryo-56" d="M 4313 4709 
L 2453 0 
L 1916 0 
L 56 4709 
L 678 4709 
L 2203 794 
L 3722 4709 
L 4313 4709 
z
" transform="scale(0.015625)"/>
       <path id="Meiryo-41" d="M 3000 1828 
L 2153 4150 
L 1309 1828 
L 3000 1828 
z
M 3659 0 
L 3175 1344 
L 1131 1344 
L 647 0 
L 56 0 
L 1800 4709 
L 2541 4709 
L 4281 0 
L 3659 0 
z
" transform="scale(0.015625)"/>
       <path id="Meiryo-43" d="M 2544 -84 
Q 1488 -84 889 553 
Q 291 1191 291 2350 
Q 291 3488 898 4141 
Q 1506 4794 2547 4794 
Q 3294 4794 4103 4372 
L 4103 3688 
L 4059 3688 
Q 3325 4303 2509 4303 
Q 1766 4303 1331 3786 
Q 897 3269 897 2350 
Q 897 1438 1339 923 
Q 1781 409 2516 409 
Q 2913 409 3272 536 
Q 3631 663 4059 1031 
L 4103 1031 
L 4103 344 
Q 3503 59 3170 -12 
Q 2838 -84 2544 -84 
z
" transform="scale(0.015625)"/>
       <path id="Meiryo-54" d="M 1744 0 
L 1744 4203 
L 72 4203 
L 72 4709 
L 3997 4709 
L 3997 4203 
L 2325 4203 
L 2325 0 
L 1744 0 
z
" transform="scale(0.015625)"/>
       <path id="Meiryo-55" d="M 4141 1869 
Q 4141 847 3675 375 
Q 3209 -97 2331 -97 
Q 525 -97 525 1869 
L 525 4709 
L 1106 4709 
L 1106 1816 
Q 1106 1059 1409 726 
Q 1713 394 2331 394 
Q 2941 394 3250 720 
Q 3559 1047 3559 1800 
L 3559 4709 
L 4141 4709 
L 4141 1869 
z
" transform="scale(0.015625)"/>
       <path id="Meiryo-4c" d="M 3513 0 
L 578 0 
L 578 4709 
L 1159 4709 
L 1159 506 
L 3513 506 
L 3513 0 
z
" transform="scale(0.015625)"/>
       <path id="Meiryo-3d" d="M 4425 2484 
L 719 2484 
L 719 2947 
L 4425 2947 
L 4425 2484 
z
M 4425 1172 
L 719 1172 
L 719 1634 
L 4425 1634 
L 4425 1172 
z
" transform="scale(0.015625)"/>
       <path id="Meiryo-31" d="M 3338 0 
L 831 0 
L 831 431 
L 1813 431 
L 1813 3669 
L 831 3669 
L 831 4050 
Q 1406 4053 1653 4214 
Q 1900 4375 1931 4725 
L 2375 4725 
L 2375 431 
L 3338 431 
L 3338 0 
z
" transform="scale(0.015625)"/>
       <path id="Meiryo-306b" d="M 1550 -63 
L 1103 -166 
Q 781 863 781 2066 
Q 781 3378 1209 4897 
L 1691 4813 
Q 1259 3391 1259 2041 
Q 1259 931 1550 -63 
z
M 5781 4066 
Q 5284 4075 4844 4075 
Q 4197 4075 2503 3988 
Q 2503 4128 2484 4409 
Q 4094 4503 5100 4503 
Q 5600 4503 5766 4494 
L 5766 4466 
Q 5766 4322 5781 4066 
z
M 5819 91 
Q 5166 22 4541 22 
Q 3672 22 3242 123 
Q 2813 225 2591 459 
Q 2369 694 2369 1063 
Q 2369 1600 2838 2197 
L 3200 2003 
Q 2816 1581 2816 1091 
Q 2816 847 3023 697 
Q 3231 547 3579 498 
Q 3928 450 4569 450 
Q 5219 450 5819 525 
L 5819 91 
z
" transform="scale(0.015625)"/>
       <path id="Meiryo-5bfe" d="M 6081 3638 
L 5409 3638 
L 5409 206 
Q 5409 -16 5245 -167 
Q 5081 -319 4866 -319 
L 3875 -319 
L 3822 106 
L 4644 106 
Q 4753 106 4836 173 
Q 4919 241 4919 341 
L 4919 3638 
L 3416 3638 
L 3416 4025 
L 4919 4025 
L 4919 5309 
L 5409 5309 
L 5409 4025 
L 6081 4025 
L 6081 3638 
z
M 3163 759 
L 2766 459 
Q 2550 766 2031 1341 
Q 1369 266 428 -375 
L 172 -69 
Q 1175 691 1719 1684 
Q 1034 2413 538 2834 
L 859 3122 
Q 1209 2838 1928 2125 
Q 2281 2988 2294 3853 
L 394 3853 
L 394 4238 
L 1569 4238 
L 1569 5238 
L 2041 5238 
L 2041 4238 
L 3109 4238 
L 3109 3853 
L 2766 3853 
Q 2722 2713 2272 1775 
Q 2872 1153 3163 759 
z
M 4313 1550 
L 3853 1381 
Q 3616 2097 3294 2809 
L 3716 2972 
Q 4022 2331 4313 1550 
z
" transform="scale(0.015625)"/>
       <path id="Meiryo-3057" d="M 5934 2188 
Q 5581 938 4893 350 
Q 4206 -238 3125 -238 
Q 2703 -238 2375 -153 
Q 2047 -69 1812 98 
Q 1578 266 1437 517 
Q 1297 769 1258 1062 
Q 1219 1356 1219 2034 
Q 1219 3188 1356 4866 
L 1869 4866 
Q 1703 3256 1703 2009 
Q 1703 1575 1723 1276 
Q 1744 978 1905 725 
Q 2066 472 2384 340 
Q 2703 209 3175 209 
Q 4022 209 4584 686 
Q 5147 1163 5497 2350 
L 5934 2188 
z
" transform="scale(0.015625)"/>
       <path id="Meiryo-3066" d="M 5844 4066 
L 4278 4066 
Q 3706 3822 3165 3173 
Q 2625 2525 2625 1825 
Q 2625 1284 2912 923 
Q 3200 563 3679 395 
Q 4159 228 4956 228 
Q 5138 228 5331 238 
L 5300 -225 
L 5284 -225 
Q 4706 -225 4326 -204 
Q 3947 -184 3523 -51 
Q 3100 81 2778 353 
Q 2456 625 2300 981 
Q 2144 1338 2144 1788 
Q 2144 2416 2528 3033 
Q 2913 3650 3538 4078 
L 403 4078 
L 403 4494 
L 5844 4494 
L 5844 4066 
z
" transform="scale(0.015625)"/>
       <path id="Meiryo-ff09" d="M 2059 2463 
Q 2059 856 972 -450 
L 359 -450 
L 359 -425 
Q 872 50 1194 734 
Q 1575 1550 1575 2463 
Q 1575 3369 1194 4181 
Q 872 4866 359 5341 
L 359 5375 
L 972 5375 
Q 2059 4059 2059 2463 
z
" transform="scale(0.015625)"/>
      </defs>
      <use xlink:href="#Meiryo-5b9f"/>
      <use xlink:href="#Meiryo-6e2c" transform="translate(100 0)"/>
      <use xlink:href="#Meiryo-5468" transform="translate(200 0)"/>
      <use xlink:href="#Meiryo-6ce2" transform="translate(300 0)"/>
      <use xlink:href="#Meiryo-6570" transform="translate(400 0)"/>
      <use xlink:href="#Meiryo-20" transform="translate(500 0)"/>
      <use xlink:href="#Meiryo-5b" transform="translate(533.984375 0)"/>
      <use xlink:href="#Meiryo-48" transform="translate(577.929688 0)"/>
      <use xlink:href="#Meiryo-7a" transform="translate(652.246094 0)"/>
      <use xlink:href="#Meiryo-5d" transform="translate(702.832031 0)"/>
      <use xlink:href="#Meiryo-ff08" transform="translate(746.777344 0)"/>
      <use xlink:href="#Meiryo-540c" transform="translate(846.777344 0)"/>
      <use xlink:href="#Meiryo-3058" transform="translate(946.777344 0)"/>
      <use xlink:href="#Meiryo-6307" transform="translate(1046.777344 0)"/>
      <use xlink:href="#Meiryo-4ee4" transform="translate(1146.777344 0)"/>
      <use xlink:href="#Meiryo-20" transform="translate(1246.777344 0)"/>
      <use xlink:href="#Meiryo-56" transform="translate(1280.761719 0)"/>
      <use xlink:href="#Meiryo-41" transform="translate(1346.148438 0)"/>
      <use xlink:href="#Meiryo-43" transform="translate(1413.546875 0)"/>
      <use xlink:href="#Meiryo-54" transform="translate(1480.783203 0)"/>
      <use xlink:href="#Meiryo-55" transform="translate(1544.357422 0)"/>
      <use xlink:href="#Meiryo-41" transform="translate(1616.882812 0)"/>
      <use xlink:href="#Meiryo-4c" transform="translate(1684.65625 0)"/>
      <use xlink:href="#Meiryo-3d" transform="translate(1740.320312 0)"/>
      <use xlink:href="#Meiryo-36" transform="translate(1820.691406 0)"/>
      <use xlink:href="#Meiryo-31" transform="translate(1882.800781 0)"/>
      <use xlink:href="#Meiryo-35" transform="translate(1944.910156 0)"/>
      <use xlink:href="#Meiryo-20" transform="translate(2007.019531 0)"/>
      <use xlink:href="#Meiryo-306b" transform="translate(2041.003906 0)"/>
      <use xlink:href="#Meiryo-5bfe" transform="translate(2141.003906 0)"/>
      <use xlink:href="#Meiryo-3057" transform="translate(2241.003906 0)"/>
      <use xlink:href="#Meiryo-3066" transform="translate(2341.003906 0)"/>
      <use xlink:href="#Meiryo-ff09" transform="translate(2441.003906 0)"/>
     </g>
    </g>
   </g>
   <g id="matplotlib.axis_2"/>
   <g id="line2d_15">
    <path d="M 58.3118 303.60625 
L 58.3118 26.057143 
" clip-path="url(#p519980a3f1)" style="fill: none; stroke-dasharray: 1.5,2.475; stroke-dashoffset: 0; stroke: #2b57a8; stroke-opacity: 0.6; stroke-width: 1.5"/>
   </g>
   <g id="line2d_16">
    <path d="M 573.843563 303.60625 
L 573.843563 26.057143 
" clip-path="url(#p519980a3f1)" style="fill: none; stroke-dasharray: 1.5,2.475; stroke-dashoffset: 0; stroke: #c2571a; stroke-opacity: 0.6; stroke-width: 1.5"/>
   </g>
   <g id="patch_3">
    <path d="M 25.465003 303.60625 
L 25.465003 26.057143 
" style="fill: none; stroke: #000000; stroke-width: 0.8; stroke-linejoin: miter; stroke-linecap: square"/>
   </g>
   <g id="patch_4">
    <path d="M 601.881564 303.60625 
L 601.881564 26.057143 
" style="fill: none; stroke: #000000; stroke-width: 0.8; stroke-linejoin: miter; stroke-linecap: square"/>
   </g>
   <g id="patch_5">
    <path d="M 25.465003 303.60625 
L 601.881564 303.60625 
" style="fill: none; stroke: #000000; stroke-width: 0.8; stroke-linejoin: miter; stroke-linecap: square"/>
   </g>
   <g id="patch_6">
    <path d="M 25.465003 26.057143 
L 601.881564 26.057143 
" style="fill: none; stroke: #000000; stroke-width: 0.8; stroke-linejoin: miter; stroke-linecap: square"/>
   </g>
   <g id="PathCollection_1">
    <defs>
     <path id="mdab8e60023" d="M 0 4.1833 
C 1.109424 4.1833 2.173559 3.742521 2.95804 2.95804 
C 3.742521 2.173559 4.1833 1.109424 4.1833 0 
C 4.1833 -1.109424 3.742521 -2.173559 2.95804 -2.95804 
C 2.173559 -3.742521 1.109424 -4.1833 0 -4.1833 
C -1.109424 -4.1833 -2.173559 -3.742521 -2.95804 -2.95804 
C -3.742521 -2.173559 -4.1833 -1.109424 -4.1833 0 
C -4.1833 1.109424 -3.742521 2.173559 -2.95804 2.95804 
C -2.173559 3.742521 -1.109424 4.1833 0 4.1833 
z
" style="stroke: #2b57a8"/>
    </defs>
    <g clip-path="url(#p519980a3f1)">
     <use xlink:href="#mdab8e60023" x="59.65379" y="99.096382" style="fill: #2b57a8; stroke: #2b57a8"/>
     <use xlink:href="#mdab8e60023" x="59.014747" y="99.096382" style="fill: #2b57a8; stroke: #2b57a8"/>
     <use xlink:href="#mdab8e60023" x="59.973311" y="99.096382" style="fill: #2b57a8; stroke: #2b57a8"/>
     <use xlink:href="#mdab8e60023" x="56.778097" y="99.096382" style="fill: #2b57a8; stroke: #2b57a8"/>
     <use xlink:href="#mdab8e60023" x="54.221926" y="99.096382" style="fill: #2b57a8; stroke: #2b57a8"/>
     <use xlink:href="#mdab8e60023" x="55.819533" y="99.096382" style="fill: #2b57a8; stroke: #2b57a8"/>
     <use xlink:href="#mdab8e60023" x="72.754166" y="99.096382" style="fill: #2b57a8; stroke: #2b57a8"/>
     <use xlink:href="#mdab8e60023" x="51.665755" y="99.096382" style="fill: #2b57a8; stroke: #2b57a8"/>
     <use xlink:href="#mdab8e60023" x="58.056183" y="99.096382" style="fill: #2b57a8; stroke: #2b57a8"/>
     <use xlink:href="#mdab8e60023" x="55.18049" y="99.096382" style="fill: #2b57a8; stroke: #2b57a8"/>
    </g>
   </g>
   <g id="PathCollection_2">
    <defs>
     <path id="m898a65b287" d="M 0 4.1833 
C 1.109424 4.1833 2.173559 3.742521 2.95804 2.95804 
C 3.742521 2.173559 4.1833 1.109424 4.1833 0 
C 4.1833 -1.109424 3.742521 -2.173559 2.95804 -2.95804 
C 2.173559 -3.742521 1.109424 -4.1833 0 -4.1833 
C -1.109424 -4.1833 -2.173559 -3.742521 -2.95804 -2.95804 
C -3.742521 -2.173559 -4.1833 -1.109424 -4.1833 0 
C -4.1833 1.109424 -3.742521 2.173559 -2.95804 2.95804 
C -2.173559 3.742521 -1.109424 4.1833 0 4.1833 
z
" style="stroke: #c2571a"/>
    </defs>
    <g clip-path="url(#p519980a3f1)">
     <use xlink:href="#m898a65b287" x="575.680811" y="245.174859" style="fill: #c2571a; stroke: #c2571a"/>
     <use xlink:href="#m898a65b287" x="572.805119" y="245.174859" style="fill: #c2571a; stroke: #c2571a"/>
     <use xlink:href="#m898a65b287" x="574.083204" y="245.174859" style="fill: #c2571a; stroke: #c2571a"/>
     <use xlink:href="#m898a65b287" x="572.805119" y="245.174859" style="fill: #c2571a; stroke: #c2571a"/>
    </g>
   </g>
   <g id="patch_7">
    <path d="M 62.326257 172.13562 
Q 316.077651 172.13562 569.829044 172.13562 
" style="fill: none; stroke: #1a7f37; stroke-width: 1.8; stroke-linecap: round"/>
    <path d="M 66.326257 174.13562 
L 62.326257 172.13562 
L 66.326257 170.13562 
" style="fill: none; stroke: #1a7f37; stroke-width: 1.8; stroke-linecap: round"/>
    <path d="M 565.829044 170.13562 
L 569.829044 172.13562 
L 565.829044 174.13562 
" style="fill: none; stroke: #1a7f37; stroke-width: 1.8; stroke-linecap: round"/>
   </g>
   <g id="text_9">
    <!-- 差 1.61 Hz = 0.363% -->
    <g style="fill: #1a7f37" transform="translate(263.6269 148.142155) scale(0.1 -0.1)">
     <defs>
      <path id="Meiryo-5dee" d="M 441 -150 
L 184 156 
Q 1256 1038 1625 2291 
L 400 2291 
L 400 2678 
L 2916 2678 
L 2916 3291 
L 794 3291 
L 794 3650 
L 2916 3650 
L 2916 4275 
L 556 4275 
L 556 4634 
L 2028 4634 
L 1725 5250 
L 2197 5353 
L 2538 4634 
L 3850 4634 
L 4213 5359 
L 4716 5238 
L 4322 4634 
L 5872 4634 
L 5872 4275 
L 3409 4275 
L 3409 3650 
L 5597 3650 
L 5597 3291 
L 3409 3291 
L 3409 2678 
L 6022 2678 
L 6022 2291 
L 2116 2291 
Q 1931 1603 1550 1028 
Q 1169 453 441 -150 
z
M 1431 -247 
L 1431 144 
L 3534 144 
L 3534 1275 
L 2059 1275 
L 2059 1653 
L 5716 1653 
L 5716 1275 
L 4031 1275 
L 4031 144 
L 6053 144 
L 6053 -247 
L 1431 -247 
z
" transform="scale(0.015625)"/>
      <path id="Meiryo-33" d="M 475 197 
L 475 825 
L 525 825 
Q 1159 406 1838 406 
Q 2338 406 2639 678 
Q 2941 950 2941 1434 
Q 2941 1884 2678 2096 
Q 2416 2309 1828 2309 
L 1553 2309 
L 1553 2791 
L 1766 2791 
Q 2272 2791 2559 3006 
Q 2847 3222 2847 3613 
Q 2847 3944 2595 4123 
Q 2344 4303 1903 4303 
Q 1269 4303 644 3894 
L 609 3894 
L 609 4509 
Q 1241 4806 1919 4806 
Q 2647 4806 3045 4501 
Q 3444 4197 3444 3678 
Q 3444 3297 3178 2997 
Q 2913 2697 2513 2616 
L 2513 2566 
Q 3541 2381 3541 1381 
Q 3541 734 3069 318 
Q 2597 -97 1853 -97 
Q 1144 -97 475 197 
z
" transform="scale(0.015625)"/>
      <path id="Meiryo-25" d="M 1569 2006 
Q 419 2006 419 3403 
Q 419 4803 1569 4803 
Q 2716 4803 2716 3406 
Q 2716 2006 1569 2006 
z
M 1569 4425 
Q 1238 4425 1088 4195 
Q 938 3966 938 3403 
Q 938 2838 1086 2611 
Q 1234 2384 1569 2384 
Q 1900 2384 2048 2611 
Q 2197 2838 2197 3406 
Q 2197 3963 2048 4194 
Q 1900 4425 1569 4425 
z
M 4878 4744 
L 2231 0 
L 1750 0 
L 4397 4744 
L 4878 4744 
z
M 5041 -91 
Q 3891 -91 3891 1306 
Q 3891 2706 5041 2706 
Q 6188 2706 6188 1309 
Q 6188 -91 5041 -91 
z
M 5041 2328 
Q 4709 2328 4559 2098 
Q 4409 1869 4409 1306 
Q 4409 741 4557 514 
Q 4706 288 5041 288 
Q 5372 288 5520 514 
Q 5669 741 5669 1309 
Q 5669 1866 5520 2097 
Q 5372 2328 5041 2328 
z
" transform="scale(0.015625)"/>
     </defs>
     <use xlink:href="#Meiryo-5dee"/>
     <use xlink:href="#Meiryo-20" transform="translate(100 0)"/>
     <use xlink:href="#Meiryo-31" transform="translate(133.984375 0)"/>
     <use xlink:href="#Meiryo-2e" transform="translate(196.09375 0)"/>
     <use xlink:href="#Meiryo-36" transform="translate(231.005859 0)"/>
     <use xlink:href="#Meiryo-31" transform="translate(293.115234 0)"/>
     <use xlink:href="#Meiryo-20" transform="translate(355.224609 0)"/>
     <use xlink:href="#Meiryo-48" transform="translate(389.208984 0)"/>
     <use xlink:href="#Meiryo-7a" transform="translate(463.525391 0)"/>
     <use xlink:href="#Meiryo-20" transform="translate(514.111328 0)"/>
     <use xlink:href="#Meiryo-3d" transform="translate(548.095703 0)"/>
     <use xlink:href="#Meiryo-20" transform="translate(628.466797 0)"/>
     <use xlink:href="#Meiryo-30" transform="translate(662.451172 0)"/>
     <use xlink:href="#Meiryo-2e" transform="translate(724.560547 0)"/>
     <use xlink:href="#Meiryo-33" transform="translate(759.472656 0)"/>
     <use xlink:href="#Meiryo-36" transform="translate(821.582031 0)"/>
     <use xlink:href="#Meiryo-33" transform="translate(883.691406 0)"/>
     <use xlink:href="#Meiryo-25" transform="translate(945.800781 0)"/>
    </g>
    <!-- (測定ばらつきの75倍) -->
    <g style="fill: #1a7f37" transform="translate(265.471432 160.449342) scale(0.1 -0.1)">
     <defs>
      <path id="Meiryo-28" d="M 2397 -1303 
L 1731 -1303 
Q 1094 -563 808 184 
Q 522 931 522 1809 
Q 522 3506 1731 4919 
L 2397 4919 
L 2397 4888 
Q 1775 4341 1401 3523 
Q 1028 2706 1028 1809 
Q 1028 909 1400 95 
Q 1772 -719 2397 -1272 
L 2397 -1303 
z
" transform="scale(0.015625)"/>
      <path id="Meiryo-5b9a" d="M 5563 3516 
L 5563 4238 
L 850 4238 
L 850 3475 
L 400 3475 
L 400 4625 
L 2978 4625 
L 2978 5322 
L 3481 5322 
L 3481 4625 
L 6028 4625 
L 6028 3516 
L 5563 3516 
z
M 1763 1200 
Q 2163 619 2906 375 
L 2966 356 
L 2966 3266 
L 1256 3266 
L 1256 3644 
L 5125 3644 
L 5125 3266 
L 3463 3266 
L 3463 2103 
L 5497 2103 
L 5497 1731 
L 3463 1731 
L 3463 228 
Q 4028 125 5069 125 
Q 5369 125 6125 141 
L 6019 -266 
L 5494 -266 
Q 4472 -266 4001 -234 
Q 3531 -203 3093 -111 
Q 2656 -19 2250 206 
Q 1844 431 1591 728 
Q 1228 22 509 -384 
L 263 -69 
Q 694 194 945 567 
Q 1197 941 1308 1361 
Q 1419 1781 1419 2516 
L 1419 2625 
L 1894 2625 
Q 1894 1697 1763 1200 
z
" transform="scale(0.015625)"/>
      <path id="Meiryo-3070" d="M 6106 569 
L 5825 184 
Q 5522 459 4744 959 
L 4744 769 
Q 4744 294 4430 58 
Q 4116 -178 3359 -178 
Q 2853 -178 2489 69 
Q 2125 316 2125 731 
Q 2125 1156 2472 1420 
Q 2819 1684 3309 1684 
Q 3800 1684 4256 1569 
L 4256 3400 
L 2050 3400 
L 2050 3822 
L 4256 3822 
L 4256 4984 
L 4738 4984 
L 4738 3822 
L 5903 3822 
L 5903 3400 
L 4738 3400 
L 4738 1397 
Q 5466 1103 6106 569 
z
M 4275 769 
L 4275 1147 
Q 3900 1306 3319 1306 
Q 2994 1303 2786 1159 
Q 2578 1016 2578 756 
Q 2578 503 2818 361 
Q 3059 219 3391 219 
Q 4275 219 4275 769 
z
M 1319 -63 
L 853 -166 
Q 534 863 534 2066 
Q 534 3378 959 4897 
L 1441 4813 
Q 1013 3400 1013 2119 
Q 1013 988 1319 -63 
z
M 6359 4616 
L 6006 4469 
Q 5800 4953 5559 5331 
L 5888 5478 
Q 6125 5106 6359 4616 
z
M 5588 4416 
L 5244 4256 
Q 5019 4759 4788 5134 
L 5116 5288 
Q 5384 4866 5588 4416 
z
" transform="scale(0.015625)"/>
      <path id="Meiryo-3089" d="M 5178 4225 
L 4934 3816 
Q 4706 3922 4248 4064 
Q 3791 4206 3289 4339 
Q 2788 4472 1747 4653 
L 1888 5050 
Q 3025 4859 3931 4609 
Q 4838 4359 5178 4225 
z
M 1909 -244 
L 1844 184 
Q 3850 209 4547 536 
Q 5244 863 5244 1447 
Q 5244 1963 4880 2242 
Q 4516 2522 3900 2522 
Q 3163 2522 2377 2198 
Q 1591 1875 1178 1375 
L 769 1613 
Q 1175 2656 1222 4153 
L 1728 4141 
Q 1706 3297 1391 2119 
Q 1819 2472 2526 2701 
Q 3234 2931 3847 2931 
Q 4753 2931 5256 2550 
Q 5759 2169 5759 1447 
Q 5759 647 4939 201 
Q 4119 -244 2050 -244 
L 1909 -244 
z
" transform="scale(0.015625)"/>
      <path id="Meiryo-3064" d="M 1831 72 
L 1753 513 
Q 3816 569 4687 1055 
Q 5559 1541 5563 2444 
Q 5563 3150 5138 3548 
Q 4713 3947 3981 3950 
Q 3513 3950 2436 3803 
Q 1359 3656 409 3469 
L 341 3931 
Q 3122 4378 3928 4378 
Q 4934 4375 5504 3875 
Q 6075 3375 6075 2456 
Q 6075 1338 5142 736 
Q 4209 134 1831 72 
z
" transform="scale(0.015625)"/>
      <path id="Meiryo-304d" d="M 5184 1538 
L 4841 1191 
Q 4500 1419 4000 1555 
Q 3500 1691 3034 1691 
Q 2022 1691 1676 1480 
Q 1331 1269 1331 897 
Q 1331 572 1731 387 
Q 2131 203 3303 203 
Q 4341 203 5141 334 
L 5153 -116 
Q 4456 -231 3291 -231 
Q 1944 -231 1387 58 
Q 831 347 831 897 
Q 831 1484 1361 1792 
Q 1891 2100 2778 2100 
Q 3734 2100 4450 1831 
Q 4138 2234 3872 2734 
L 634 2734 
L 634 3138 
L 3678 3138 
Q 3506 3525 3394 3884 
L 813 3884 
L 813 4288 
L 3266 4288 
Q 3166 4688 3113 5069 
L 3609 5113 
Q 3700 4553 3769 4288 
L 5575 4288 
L 5575 3884 
L 3881 3884 
Q 3966 3622 4163 3138 
L 5875 3138 
L 5875 2734 
L 4366 2734 
Q 4625 2253 5184 1538 
z
" transform="scale(0.015625)"/>
      <path id="Meiryo-306e" d="M 3338 -128 
L 3216 294 
Q 4222 384 4936 878 
Q 5650 1372 5650 2353 
Q 5650 3228 5073 3706 
Q 4497 4184 3466 4213 
Q 3431 2531 2862 1406 
Q 2294 281 1438 281 
Q 906 281 601 732 
Q 297 1184 297 1834 
Q 297 2906 1222 3761 
Q 2147 4616 3413 4616 
Q 4603 4616 5375 4020 
Q 6147 3425 6147 2394 
Q 6147 1219 5369 597 
Q 4591 -25 3338 -128 
z
M 2975 4172 
Q 2069 4034 1416 3351 
Q 763 2669 763 1809 
Q 763 1353 953 1036 
Q 1144 719 1484 719 
Q 2069 719 2503 1811 
Q 2938 2903 2975 4172 
z
" transform="scale(0.015625)"/>
      <path id="Meiryo-500d" d="M 1084 -391 
L 1084 2925 
Q 750 2366 353 1916 
L 53 2163 
Q 528 2781 997 3720 
Q 1466 4659 1613 5328 
L 2103 5244 
Q 1913 4497 1341 3391 
L 1559 3391 
L 1559 -391 
L 1084 -391 
z
M 3044 3063 
L 2656 4291 
L 2131 4291 
L 2131 4675 
L 3816 4675 
L 3816 5328 
L 4325 5328 
L 4325 4675 
L 6069 4675 
L 6069 4291 
L 5534 4291 
L 5069 3063 
L 6184 3063 
L 6184 2684 
L 1928 2684 
L 1928 3063 
L 3044 3063 
z
M 3141 4291 
L 3513 3063 
L 4606 3063 
L 5016 4291 
L 3141 4291 
z
M 5303 -75 
L 2850 -75 
L 2850 -325 
L 2359 -325 
L 2359 2059 
L 5788 2059 
L 5788 -325 
L 5303 -325 
L 5303 -75 
z
M 2850 297 
L 5303 297 
L 5303 1688 
L 2850 1688 
L 2850 297 
z
" transform="scale(0.015625)"/>
      <path id="Meiryo-29" d="M 1081 -1303 
L 416 -1303 
L 416 -1272 
Q 1044 -713 1414 98 
Q 1784 909 1784 1809 
Q 1784 2706 1412 3520 
Q 1041 4334 416 4888 
L 416 4919 
L 1081 4919 
Q 2291 3506 2291 1809 
Q 2291 934 2008 190 
Q 1725 -553 1081 -1303 
z
" transform="scale(0.015625)"/>
     </defs>
     <use xlink:href="#Meiryo-28"/>
     <use xlink:href="#Meiryo-6e2c" transform="translate(43.945312 0)"/>
     <use xlink:href="#Meiryo-5b9a" transform="translate(143.945312 0)"/>
     <use xlink:href="#Meiryo-3070" transform="translate(243.945312 0)"/>
     <use xlink:href="#Meiryo-3089" transform="translate(343.945312 0)"/>
     <use xlink:href="#Meiryo-3064" transform="translate(443.945312 0)"/>
     <use xlink:href="#Meiryo-304d" transform="translate(543.945312 0)"/>
     <use xlink:href="#Meiryo-306e" transform="translate(643.945312 0)"/>
     <use xlink:href="#Meiryo-37" transform="translate(743.945312 0)"/>
     <use xlink:href="#Meiryo-35" transform="translate(806.054688 0)"/>
     <use xlink:href="#Meiryo-500d" transform="translate(868.164062 0)"/>
     <use xlink:href="#Meiryo-29" transform="translate(968.164062 0)"/>
    </g>
   </g>
   <g id="text_10">
    <!-- axis0 -->
    <g style="fill: #2b57a8" transform="translate(47.648948 60.965773) scale(0.085 -0.085)">
     <defs>
      <path id="Meiryo-61" d="M 2663 841 
L 2663 1866 
Q 1497 1813 1164 1608 
Q 831 1403 831 1044 
Q 831 409 1600 409 
Q 2122 409 2663 841 
z
M 2663 0 
L 2663 394 
Q 2222 75 1937 -11 
Q 1653 -97 1359 -97 
Q 888 -97 575 215 
Q 263 528 263 1009 
Q 263 1625 727 1936 
Q 1191 2247 2663 2306 
L 2663 2413 
Q 2663 2781 2444 2957 
Q 2225 3134 1675 3134 
Q 1191 3134 597 2884 
L 572 2884 
L 572 3456 
Q 1156 3616 1697 3616 
Q 2481 3616 2845 3323 
Q 3209 3031 3209 2416 
L 3209 0 
L 2663 0 
z
" transform="scale(0.015625)"/>
      <path id="Meiryo-78" d="M 3428 0 
L 2763 0 
L 1766 1372 
L 744 0 
L 128 0 
L 1472 1753 
L 141 3531 
L 806 3531 
L 1797 2169 
L 2809 3531 
L 3428 3531 
L 2091 1788 
L 3428 0 
z
" transform="scale(0.015625)"/>
      <path id="Meiryo-69" d="M 1122 4238 
L 500 4238 
L 500 4809 
L 1122 4809 
L 1122 4238 
z
M 1088 0 
L 538 0 
L 538 3531 
L 1088 3531 
L 1088 0 
z
" transform="scale(0.015625)"/>
      <path id="Meiryo-73" d="M 1528 -84 
Q 866 -84 284 206 
L 284 844 
L 306 844 
Q 938 375 1559 375 
Q 2431 375 2431 925 
Q 2431 1141 2315 1259 
Q 2200 1378 1834 1463 
Q 1528 1522 1131 1615 
Q 734 1709 517 1945 
Q 300 2181 300 2550 
Q 300 3019 681 3317 
Q 1063 3616 1700 3616 
Q 2356 3616 2853 3359 
L 2853 2753 
L 2831 2753 
Q 2284 3156 1672 3156 
Q 1294 3156 1075 3017 
Q 856 2878 856 2631 
Q 856 2413 973 2297 
Q 1091 2181 1441 2094 
L 2131 1944 
Q 2559 1850 2775 1614 
Q 2991 1378 2991 1003 
Q 2991 519 2594 217 
Q 2197 -84 1528 -84 
z
" transform="scale(0.015625)"/>
     </defs>
     <use xlink:href="#Meiryo-61"/>
     <use xlink:href="#Meiryo-78" transform="translate(58.007812 0)"/>
     <use xlink:href="#Meiryo-69" transform="translate(113.574219 0)"/>
     <use xlink:href="#Meiryo-73" transform="translate(138.964844 0)"/>
     <use xlink:href="#Meiryo-30" transform="translate(188.769531 0)"/>
    </g>
    <!-- 平均444.46 Hz -->
    <g style="fill: #2b57a8" transform="translate(28.377191 70.535976) scale(0.085 -0.085)">
     <defs>
      <path id="Meiryo-5e73" d="M 275 1638 
L 275 2044 
L 2900 2044 
L 2900 4563 
L 525 4563 
L 525 4959 
L 5778 4959 
L 5778 4563 
L 3409 4563 
L 3409 2044 
L 6066 2044 
L 6066 1638 
L 3409 1638 
L 3409 -400 
L 2900 -400 
L 2900 1638 
L 275 1638 
z
M 4709 2338 
L 4284 2475 
Q 4669 3159 5009 4131 
L 5519 3981 
Q 5056 2900 4709 2338 
z
M 1606 2356 
Q 1256 3297 941 3950 
L 1413 4119 
Q 1669 3609 2084 2519 
L 1606 2356 
z
" transform="scale(0.015625)"/>
      <path id="Meiryo-5747" d="M 4000 -338 
L 3950 94 
L 4438 91 
Q 4684 88 4793 105 
Q 4903 122 5006 208 
Q 5109 294 5170 450 
Q 5231 606 5278 965 
Q 5325 1325 5325 1903 
L 5325 3178 
Q 5325 3666 5319 4200 
L 3053 4200 
Q 2781 3513 2303 2816 
L 1950 3038 
Q 2663 4109 2866 5322 
L 3363 5256 
Q 3309 4966 3188 4584 
L 5797 4584 
L 5797 3250 
Q 5797 2169 5769 1442 
Q 5741 716 5678 439 
Q 5616 163 5506 5 
Q 5397 -153 5258 -233 
Q 5119 -313 5005 -322 
Q 4891 -331 4000 -338 
z
M 222 531 
L 116 963 
Q 484 1047 913 1163 
L 913 3481 
L 253 3481 
L 253 3853 
L 913 3853 
L 913 5256 
L 1409 5256 
L 1409 3853 
L 1959 3853 
L 1959 3481 
L 1409 3481 
L 1409 1306 
Q 1894 1450 2134 1534 
L 2166 1138 
Q 1659 922 222 531 
z
M 2769 2834 
L 2769 3188 
L 4622 3188 
L 4622 2834 
L 2769 2834 
z
M 2603 994 
L 2500 1413 
Q 3766 1606 4825 1881 
L 4856 1497 
Q 3900 1194 2603 994 
z
" transform="scale(0.015625)"/>
     </defs>
     <use xlink:href="#Meiryo-5e73"/>
     <use xlink:href="#Meiryo-5747" transform="translate(100 0)"/>
     <use xlink:href="#Meiryo-34" transform="translate(200 0)"/>
     <use xlink:href="#Meiryo-34" transform="translate(262.109375 0)"/>
     <use xlink:href="#Meiryo-34" transform="translate(324.21875 0)"/>
     <use xlink:href="#Meiryo-2e" transform="translate(386.328125 0)"/>
     <use xlink:href="#Meiryo-34" transform="translate(421.240234 0)"/>
     <use xlink:href="#Meiryo-36" transform="translate(483.349609 0)"/>
     <use xlink:href="#Meiryo-20" transform="translate(545.458984 0)"/>
     <use xlink:href="#Meiryo-48" transform="translate(579.443359 0)"/>
     <use xlink:href="#Meiryo-7a" transform="translate(653.759766 0)"/>
    </g>
    <!-- σ=0.03 Hz(0.001%) -->
    <g style="fill: #2b57a8" transform="translate(16.311175 80.10618) scale(0.085 -0.085)">
     <defs>
      <path id="Meiryo-3c3" d="M 3984 3059 
L 3109 3059 
Q 3528 2566 3528 1791 
Q 3528 906 3095 404 
Q 2663 -97 1906 -97 
Q 1144 -97 708 401 
Q 272 900 272 1766 
Q 272 2638 714 3134 
Q 1156 3631 1913 3631 
Q 2181 3631 2513 3531 
L 3984 3531 
L 3984 3059 
z
M 1900 3166 
Q 1391 3166 1116 2805 
Q 841 2444 841 1763 
Q 841 1091 1116 731 
Q 1391 372 1900 372 
Q 2409 372 2684 731 
Q 2959 1091 2959 1763 
Q 2959 3166 1900 3166 
z
" transform="scale(0.015625)"/>
     </defs>
     <use xlink:href="#Meiryo-3c3"/>
     <use xlink:href="#Meiryo-3d" transform="translate(63.037109 0)"/>
     <use xlink:href="#Meiryo-30" transform="translate(143.408203 0)"/>
     <use xlink:href="#Meiryo-2e" transform="translate(205.517578 0)"/>
     <use xlink:href="#Meiryo-30" transform="translate(240.429688 0)"/>
     <use xlink:href="#Meiryo-33" transform="translate(302.539062 0)"/>
     <use xlink:href="#Meiryo-20" transform="translate(364.648438 0)"/>
     <use xlink:href="#Meiryo-48" transform="translate(398.632812 0)"/>
     <use xlink:href="#Meiryo-7a" transform="translate(472.949219 0)"/>
     <use xlink:href="#Meiryo-28" transform="translate(523.535156 0)"/>
     <use xlink:href="#Meiryo-30" transform="translate(567.480469 0)"/>
     <use xlink:href="#Meiryo-2e" transform="translate(629.589844 0)"/>
     <use xlink:href="#Meiryo-30" transform="translate(664.501953 0)"/>
     <use xlink:href="#Meiryo-30" transform="translate(726.611328 0)"/>
     <use xlink:href="#Meiryo-31" transform="translate(788.720703 0)"/>
     <use xlink:href="#Meiryo-25" transform="translate(841.080078 0)"/>
     <use xlink:href="#Meiryo-29" transform="translate(944.302734 0)"/>
    </g>
   </g>
   <g id="text_11">
    <!-- axis1 -->
    <g style="fill: #c2571a" transform="translate(563.180712 216.614454) scale(0.085 -0.085)">
     <use xlink:href="#Meiryo-61"/>
     <use xlink:href="#Meiryo-78" transform="translate(58.007812 0)"/>
     <use xlink:href="#Meiryo-69" transform="translate(113.574219 0)"/>
     <use xlink:href="#Meiryo-73" transform="translate(138.964844 0)"/>
     <use xlink:href="#Meiryo-31" transform="translate(188.769531 0)"/>
    </g>
    <!-- 平均446.08 Hz -->
    <g style="fill: #c2571a" transform="translate(543.908954 226.184657) scale(0.085 -0.085)">
     <defs>
      <path id="Meiryo-38" d="M 1206 2497 
L 1206 2534 
Q 459 2941 459 3588 
Q 459 4122 890 4469 
Q 1322 4816 1988 4816 
Q 2678 4816 3097 4487 
Q 3516 4159 3516 3628 
Q 3516 3284 3308 2982 
Q 3100 2681 2731 2513 
L 2731 2472 
Q 3641 2081 3641 1303 
Q 3641 697 3169 295 
Q 2697 -106 1988 -106 
Q 1234 -106 784 280 
Q 334 666 334 1291 
Q 334 2106 1206 2497 
z
M 2938 3625 
Q 2938 3963 2678 4178 
Q 2419 4394 1984 4394 
Q 1572 4394 1311 4192 
Q 1050 3991 1050 3663 
Q 1050 3300 1375 3065 
Q 1700 2831 2363 2628 
Q 2938 3000 2938 3625 
z
M 1588 2384 
Q 928 2013 928 1334 
Q 928 881 1228 601 
Q 1528 322 1994 322 
Q 2472 322 2753 567 
Q 3034 813 3034 1241 
Q 3034 1531 2906 1707 
Q 2778 1884 2533 2006 
Q 2288 2128 1588 2384 
z
" transform="scale(0.015625)"/>
     </defs>
     <use xlink:href="#Meiryo-5e73"/>
     <use xlink:href="#Meiryo-5747" transform="translate(100 0)"/>
     <use xlink:href="#Meiryo-34" transform="translate(200 0)"/>
     <use xlink:href="#Meiryo-34" transform="translate(262.109375 0)"/>
     <use xlink:href="#Meiryo-36" transform="translate(324.21875 0)"/>
     <use xlink:href="#Meiryo-2e" transform="translate(386.328125 0)"/>
     <use xlink:href="#Meiryo-30" transform="translate(421.240234 0)"/>
     <use xlink:href="#Meiryo-38" transform="translate(483.349609 0)"/>
     <use xlink:href="#Meiryo-20" transform="translate(545.458984 0)"/>
     <use xlink:href="#Meiryo-48" transform="translate(579.443359 0)"/>
     <use xlink:href="#Meiryo-7a" transform="translate(653.759766 0)"/>
    </g>
   </g>
   <g id="text_12">
    <!-- 再現性: 同じ指令でも2軸は違う周波数で鳴く（測定を繰り返しても両者は分離したまま） -->
    <g transform="translate(71.329533 20.057143) scale(0.12 -0.12)">
     <defs>
      <path id="Meiryo-518d" d="M 209 1134 
L 209 1513 
L 903 1513 
L 903 3922 
L 2900 3922 
L 2900 4616 
L 328 4616 
L 328 5000 
L 6053 5000 
L 6053 4616 
L 3384 4616 
L 3384 3922 
L 5459 3922 
L 5459 1513 
L 6138 1513 
L 6138 1134 
L 5459 1134 
L 5459 194 
Q 5459 -28 5290 -178 
Q 5122 -328 4891 -328 
L 4056 -328 
L 3978 122 
L 4703 122 
Q 4806 122 4890 194 
Q 4975 266 4975 366 
L 4975 1134 
L 1375 1134 
L 1375 -409 
L 903 -409 
L 903 1134 
L 209 1134 
z
M 4975 2759 
L 4975 3563 
L 3384 3563 
L 3384 2759 
L 4975 2759 
z
M 2900 3563 
L 1378 3563 
L 1378 2759 
L 2900 2759 
L 2900 3563 
z
M 1375 1513 
L 2900 1513 
L 2900 2416 
L 1378 2416 
L 1375 1513 
z
M 3384 1513 
L 4975 1513 
L 4975 2416 
L 3384 2416 
L 3384 1513 
z
" transform="scale(0.015625)"/>
      <path id="Meiryo-73fe" d="M 4434 1644 
L 3784 1644 
Q 3619 94 1988 -381 
L 1809 -47 
Q 3175 391 3300 1644 
L 2769 1644 
L 2769 5122 
L 5616 5122 
L 5616 1644 
L 4909 1644 
L 4909 306 
Q 4909 197 4987 137 
Q 5066 78 5316 78 
Q 5563 78 5663 134 
Q 5763 191 5792 337 
Q 5822 484 5838 919 
L 6228 881 
L 6231 375 
Q 6231 119 6206 15 
Q 6181 -88 6093 -167 
Q 6006 -247 5870 -278 
Q 5734 -309 5325 -309 
Q 5025 -309 4836 -290 
Q 4647 -272 4540 -148 
Q 4434 -25 4434 200 
L 4434 1644 
z
M 3234 4084 
L 5141 4084 
L 5141 4772 
L 3234 4772 
L 3234 4084 
z
M 3234 3053 
L 5141 3053 
L 5141 3734 
L 3234 3734 
L 3234 3053 
z
M 5141 2700 
L 3234 2700 
L 3234 2003 
L 5141 2003 
L 5141 2700 
z
M 209 581 
L 113 1003 
Q 466 1072 1053 1216 
L 1053 2922 
L 263 2922 
L 263 3281 
L 1053 3281 
L 1053 4678 
L 225 4678 
L 225 5050 
L 2300 5050 
L 2300 4678 
L 1522 4678 
L 1522 3281 
L 2222 3281 
L 2222 2922 
L 1522 2922 
L 1522 1334 
Q 2153 1503 2475 1625 
L 2541 1253 
Q 2309 1147 1481 911 
Q 653 675 209 581 
z
" transform="scale(0.015625)"/>
      <path id="Meiryo-6027" d="M 2138 -247 
L 2138 153 
L 4003 153 
L 4003 1891 
L 2469 1891 
L 2469 2275 
L 4003 2275 
L 4003 3653 
L 2978 3653 
Q 2744 3094 2431 2653 
L 2053 2850 
Q 2325 3247 2584 3890 
Q 2844 4534 2925 5044 
L 3416 4972 
Q 3322 4550 3128 4038 
L 4003 4038 
L 4003 5303 
L 4500 5303 
L 4500 4038 
L 6100 4038 
L 6100 3653 
L 4500 3653 
L 4500 2275 
L 5950 2275 
L 5950 1891 
L 4500 1891 
L 4500 153 
L 6238 153 
L 6238 -247 
L 2138 -247 
z
M 1078 -409 
L 1078 5278 
L 1538 5278 
L 1538 -409 
L 1078 -409 
z
M 1903 3431 
L 1700 4291 
L 2066 4375 
L 2269 3528 
L 1903 3431 
z
M 497 2334 
L 94 2419 
Q 272 3106 316 4163 
L 734 4147 
Q 722 3788 648 3202 
Q 575 2616 497 2334 
z
" transform="scale(0.015625)"/>
      <path id="Meiryo-3a" d="M 1731 2678 
L 1022 2678 
L 1022 3531 
L 1731 3531 
L 1731 2678 
z
M 1731 0 
L 1022 0 
L 1022 853 
L 1731 853 
L 1731 0 
z
" transform="scale(0.015625)"/>
      <path id="Meiryo-3067" d="M 5781 4066 
L 4216 4066 
Q 3644 3822 3101 3173 
Q 2559 2525 2559 1825 
Q 2559 1284 2846 923 
Q 3134 563 3615 395 
Q 4097 228 4891 228 
Q 5075 228 5269 238 
L 5238 -225 
L 5222 -225 
Q 4644 -225 4262 -204 
Q 3881 -184 3459 -51 
Q 3038 81 2716 353 
Q 2394 625 2237 981 
Q 2081 1338 2081 1788 
Q 2081 2416 2464 3033 
Q 2847 3650 3475 4078 
L 341 4078 
L 341 4494 
L 5781 4494 
L 5781 4066 
z
M 5916 2925 
L 5556 2778 
Q 5347 3263 5109 3641 
L 5441 3803 
Q 5656 3466 5916 2925 
z
M 5006 2734 
L 4647 2572 
Q 4422 3078 4194 3450 
L 4531 3603 
Q 4803 3181 5006 2734 
z
" transform="scale(0.015625)"/>
      <path id="Meiryo-3082" d="M 4481 2150 
L 2306 2150 
Q 2156 1266 2156 978 
Q 2156 172 3622 172 
Q 5416 172 5416 1100 
Q 5416 1784 5056 2431 
L 5453 2566 
Q 5897 1794 5897 1044 
Q 5897 -256 3622 -256 
Q 1678 -256 1678 1003 
Q 1678 1363 1800 2150 
L 544 2150 
L 544 2566 
L 1872 2566 
Q 1941 2966 2100 3700 
L 584 3700 
L 584 4122 
L 2194 4122 
Q 2259 4422 2413 5025 
L 2913 4994 
L 2706 4122 
L 5531 4122 
L 5531 3700 
L 2609 3700 
Q 2478 3113 2378 2566 
L 4481 2566 
L 4481 2150 
z
" transform="scale(0.015625)"/>
      <path id="Meiryo-8ef8" d="M 5513 -69 
L 3744 -69 
L 3744 -344 
L 3288 -344 
L 3288 3997 
L 4391 3997 
L 4391 5303 
L 4859 5303 
L 4859 3997 
L 5972 3997 
L 5972 -331 
L 5513 -331 
L 5513 -69 
z
M 5513 2247 
L 5513 3638 
L 4859 3638 
L 4859 2247 
L 5513 2247 
z
M 4391 3638 
L 3744 3638 
L 3744 2247 
L 4391 2247 
L 4391 3638 
z
M 3744 291 
L 4391 291 
L 4391 1881 
L 3744 1881 
L 3744 291 
z
M 4859 291 
L 5513 291 
L 5513 1881 
L 4859 1881 
L 4859 291 
z
M 159 609 
L 159 981 
L 1388 981 
L 1388 1503 
L 391 1503 
L 391 3881 
L 1388 3881 
L 1388 4397 
L 272 4397 
L 272 4763 
L 1388 4763 
L 1388 5291 
L 1838 5291 
L 1838 4763 
L 2963 4763 
L 2963 4397 
L 1838 4397 
L 1838 3881 
L 2838 3881 
L 2838 1503 
L 1838 1503 
L 1838 981 
L 2934 981 
L 2934 609 
L 1838 609 
L 1838 -403 
L 1388 -403 
L 1388 609 
L 159 609 
z
M 813 2875 
L 1406 2875 
L 1406 3547 
L 813 3547 
L 813 2875 
z
M 1825 2875 
L 2406 2875 
L 2406 3547 
L 1825 3547 
L 1825 2875 
z
M 2406 2563 
L 1825 2563 
L 1825 1856 
L 2406 1856 
L 2406 2563 
z
M 1406 2563 
L 813 2563 
L 813 1856 
L 1406 1856 
L 1406 2563 
z
" transform="scale(0.015625)"/>
      <path id="Meiryo-306f" d="M 6253 569 
L 5972 184 
Q 5669 459 4891 959 
L 4891 769 
Q 4891 294 4577 58 
Q 4263 -178 3509 -178 
Q 3000 -178 2636 69 
Q 2272 316 2272 731 
Q 2272 1156 2619 1420 
Q 2966 1684 3456 1684 
Q 3938 1684 4394 1569 
L 4394 3416 
L 2197 3416 
L 2197 3838 
L 4394 3838 
L 4394 4984 
L 4884 4984 
L 4884 3838 
L 6050 3838 
L 6050 3416 
L 4884 3416 
L 4884 1397 
Q 5613 1103 6253 569 
z
M 4422 769 
L 4422 1147 
Q 4047 1306 3466 1306 
Q 3141 1303 2933 1158 
Q 2725 1013 2725 756 
Q 2725 503 2965 361 
Q 3206 219 3538 219 
Q 4422 219 4422 769 
z
M 1466 -63 
L 1000 -166 
Q 681 863 681 2066 
Q 681 3378 1109 4897 
L 1588 4813 
Q 1159 3400 1159 2119 
Q 1159 988 1466 -63 
z
" transform="scale(0.015625)"/>
      <path id="Meiryo-9055" d="M 1953 3847 
L 1953 4206 
L 3034 4206 
L 3166 4656 
L 2331 4656 
L 2331 5016 
L 3269 5016 
L 3363 5334 
L 3853 5288 
L 3766 5016 
L 5472 5016 
L 5472 4206 
L 5988 4206 
L 5988 3847 
L 1953 3847 
z
M 3513 4206 
L 5016 4206 
L 5016 4656 
L 3653 4656 
L 3513 4206 
z
M 1647 4134 
L 1209 3872 
Q 769 4622 459 5003 
L 856 5244 
Q 1372 4603 1647 4134 
z
M 2566 1241 
L 2566 1725 
L 2103 1725 
L 2103 2072 
L 4322 2072 
L 4322 2444 
L 2234 2444 
L 2234 3500 
L 5603 3500 
L 5603 2444 
L 4794 2444 
L 4794 2072 
L 5928 2072 
L 5928 1725 
L 4794 1725 
L 4794 1241 
L 6106 1241 
L 6106 863 
L 4794 863 
L 4794 347 
L 4322 347 
L 4322 863 
L 1953 863 
L 1953 1241 
L 2566 1241 
z
M 5144 3169 
L 2691 3169 
L 2691 2763 
L 5144 2763 
L 5144 3169 
z
M 3009 1725 
L 3009 1241 
L 4322 1241 
L 4322 1725 
L 3009 1725 
z
M 6319 228 
L 6234 -206 
L 4663 -213 
Q 3253 -213 2883 -189 
Q 2513 -166 2116 -84 
Q 1491 131 1325 466 
Q 772 -63 300 -288 
L 106 159 
Q 309 256 618 450 
Q 928 644 1059 766 
L 1059 2594 
L 228 2594 
L 228 2984 
L 1547 2984 
L 1547 1025 
Q 1547 766 1711 587 
Q 1875 409 2167 318 
Q 2459 228 2851 214 
Q 3244 200 4288 200 
Q 5813 200 6319 228 
z
" transform="scale(0.015625)"/>
      <path id="Meiryo-3046" d="M 4872 4569 
L 4763 4128 
Q 3534 4369 1222 4416 
L 1244 4838 
Q 1931 4838 2725 4789 
Q 3519 4741 4872 4569 
z
M 1759 -250 
L 1672 159 
Q 3056 256 3812 584 
Q 4569 913 4816 1289 
Q 5063 1666 5063 2181 
Q 5063 2628 4706 2883 
Q 4350 3138 3797 3138 
Q 3500 3138 3150 3105 
Q 2800 3072 2565 3034 
Q 2331 2997 859 2728 
L 775 3175 
L 1997 3375 
Q 2575 3472 3014 3512 
Q 3453 3553 3803 3553 
Q 4603 3553 5079 3189 
Q 5556 2825 5556 2156 
Q 5556 1031 4551 418 
Q 3547 -194 1759 -250 
z
" transform="scale(0.015625)"/>
      <path id="Meiryo-9cf4" d="M 5959 963 
Q 5959 622 5868 292 
Q 5778 -38 5640 -163 
Q 5503 -288 5311 -327 
Q 5119 -366 4538 -366 
L 4378 -366 
L 4316 41 
L 4838 41 
Q 5144 41 5269 161 
Q 5394 281 5439 498 
Q 5484 716 5484 1313 
Q 5484 1416 5481 1497 
L 3131 1497 
L 3131 1334 
L 2669 1334 
L 2669 4878 
L 3703 4878 
Q 3816 5184 3863 5394 
L 4359 5316 
Q 4294 5178 4144 4878 
L 5666 4878 
L 5666 3044 
L 3141 3044 
L 3141 2625 
L 6169 2625 
L 6169 2278 
L 3141 2278 
L 3141 1834 
L 5959 1834 
L 5959 963 
z
M 3141 4094 
L 5197 4094 
L 5197 4531 
L 3141 4531 
L 3141 4094 
z
M 5197 3813 
L 3141 3813 
L 3141 3363 
L 5197 3363 
L 5197 3813 
z
M 900 1234 
L 900 797 
L 444 797 
L 444 4872 
L 2022 4872 
L 2022 1234 
L 900 1234 
z
M 1572 4519 
L 900 4519 
L 900 1600 
L 1572 1600 
L 1572 4519 
z
M 4894 569 
Q 4884 597 4588 1247 
L 4869 1353 
Q 5013 1078 5188 694 
L 4894 569 
z
M 4100 275 
Q 4097 288 3813 1103 
L 4131 1197 
Q 4241 922 4438 388 
L 4100 275 
z
M 2297 -228 
L 1872 -103 
Q 2166 534 2278 1072 
L 2694 1006 
Q 2528 234 2297 -228 
z
M 3213 -97 
Q 3131 453 3028 988 
L 3388 1059 
Q 3506 663 3616 -13 
L 3213 -97 
z
" transform="scale(0.015625)"/>
      <path id="Meiryo-304f" d="M 5109 38 
L 4719 -347 
Q 3759 553 2581 1338 
Q 2366 1472 1956 1742 
Q 1547 2013 1442 2103 
Q 1338 2194 1273 2309 
Q 1209 2425 1209 2544 
Q 1209 2838 1594 3109 
Q 2706 3822 3262 4233 
Q 3819 4644 4366 5134 
L 4750 4813 
Q 3631 3875 2144 2931 
Q 1853 2766 1781 2703 
Q 1709 2641 1709 2556 
Q 1709 2481 1754 2437 
Q 1800 2394 2134 2175 
Q 3391 1363 4003 919 
Q 4616 475 5109 38 
z
" transform="scale(0.015625)"/>
      <path id="Meiryo-3092" d="M 4059 794 
L 3597 794 
L 3597 1819 
Q 3597 2000 3588 2128 
Q 2150 1406 2150 819 
Q 2150 525 2472 351 
Q 2794 178 3828 178 
Q 5056 178 5788 294 
L 5819 -159 
Q 5075 -247 4100 -247 
Q 2597 -247 2140 15 
Q 1684 278 1684 766 
Q 1681 1200 2086 1625 
Q 2491 2050 3494 2544 
Q 3366 2825 3034 2825 
Q 2659 2825 2226 2689 
Q 1794 2553 1153 2006 
L 634 1569 
L 366 1888 
Q 1509 2775 2072 3938 
L 616 3938 
L 616 4344 
L 2244 4344 
Q 2388 4716 2466 5094 
L 2984 5050 
Q 2906 4691 2772 4344 
L 5094 4344 
L 5094 3938 
L 2606 3938 
Q 2431 3578 1997 2988 
L 2044 2963 
Q 2166 3041 2525 3114 
Q 2884 3188 3078 3188 
Q 3684 3188 3906 2734 
L 5747 3444 
L 5953 3022 
Q 5303 2809 4022 2331 
Q 4059 2097 4059 1741 
L 4059 794 
z
" transform="scale(0.015625)"/>
      <path id="Meiryo-7e70" d="M 1116 -397 
L 1116 2263 
L 209 2181 
L 156 2553 
L 497 2572 
Q 738 2863 1022 3244 
Q 675 3644 156 4159 
L 438 4428 
L 547 4319 
Q 941 4878 1150 5356 
L 1563 5197 
Q 1259 4669 797 4069 
Q 1091 3769 1266 3578 
Q 1741 4241 1934 4609 
L 2338 4428 
Q 1813 3600 931 2597 
Q 1563 2634 1944 2675 
Q 1847 3000 1809 3109 
L 2169 3206 
Q 2391 2516 2475 2209 
L 2103 2109 
Q 2078 2213 2031 2378 
Q 1834 2344 1575 2313 
L 1575 -397 
L 1116 -397 
z
M 3088 3894 
L 3088 5088 
L 5575 5088 
L 5575 3894 
L 3088 3894 
z
M 5144 4775 
L 3519 4775 
L 3519 4206 
L 5144 4206 
L 5144 4775 
z
M 2691 2294 
L 2691 3506 
L 4075 3506 
L 4075 2294 
L 2691 2294 
z
M 3691 3234 
L 3069 3234 
L 3069 2575 
L 3691 2575 
L 3691 3234 
z
M 4584 2294 
L 4584 3506 
L 5941 3506 
L 5941 2294 
L 4584 2294 
z
M 5569 3234 
L 4950 3234 
L 4950 2575 
L 5569 2575 
L 5569 3234 
z
M 2409 -213 
L 2213 81 
Q 3281 603 3925 1341 
L 2613 1341 
L 2613 1700 
L 4088 1700 
L 4088 2072 
L 4556 2072 
L 4556 1700 
L 6066 1700 
L 6066 1341 
L 4722 1341 
Q 5000 1006 5459 661 
Q 5919 316 6341 119 
L 6084 -225 
Q 5163 278 4556 991 
L 4556 -403 
L 4088 -403 
L 4088 966 
Q 3756 600 3250 258 
Q 2744 -84 2409 -213 
z
M 2044 663 
Q 1994 1141 1894 1772 
L 2259 1816 
L 2428 719 
L 2044 663 
z
M 472 166 
L 106 238 
Q 325 984 372 1772 
L 797 1731 
Q 634 528 472 166 
z
" transform="scale(0.015625)"/>
      <path id="Meiryo-308a" d="M 2247 -359 
L 2131 50 
Q 3475 156 4187 647 
Q 4900 1138 4900 2453 
Q 4897 3375 4614 3864 
Q 4331 4353 3859 4353 
Q 3413 4350 2939 4061 
Q 2466 3772 2134 3087 
Q 1803 2403 1806 1397 
L 1363 1369 
Q 1247 2088 1247 2984 
Q 1247 4131 1428 5075 
L 1922 5031 
Q 1713 3900 1672 2950 
L 1716 2950 
Q 1944 3800 2555 4286 
Q 3166 4772 3844 4775 
Q 4566 4775 4984 4169 
Q 5403 3563 5403 2428 
Q 5403 966 4603 347 
Q 3803 -272 2247 -359 
z
" transform="scale(0.015625)"/>
      <path id="Meiryo-8fd4" d="M 1203 3863 
Q 934 4350 450 4938 
L 875 5181 
Q 1331 4619 1641 4141 
L 1203 3863 
z
M 4622 1569 
Q 5141 1159 6031 847 
L 5791 472 
Q 4875 788 4288 1300 
Q 3516 722 2781 472 
L 2559 775 
Q 3281 1059 3991 1591 
Q 3253 2381 3075 3456 
L 2844 3456 
Q 2828 2591 2620 1861 
Q 2413 1131 2116 722 
L 1797 931 
Q 2075 1388 2233 2105 
Q 2391 2822 2391 3481 
L 2391 5069 
L 6019 5069 
L 6019 4697 
L 2847 4697 
L 2847 3822 
L 5653 3822 
L 5738 3750 
Q 5519 2363 4622 1569 
z
M 4316 1853 
Q 5025 2503 5191 3456 
L 3488 3456 
Q 3659 2556 4316 1853 
z
M 6234 -272 
L 5844 -269 
L 4700 -272 
Q 3047 -275 2569 -226 
Q 2091 -178 1770 5 
Q 1450 188 1331 434 
Q 916 28 306 -338 
L 125 100 
Q 303 175 615 378 
Q 928 581 1059 703 
L 1059 2581 
L 228 2581 
L 228 2975 
L 1547 2975 
L 1547 969 
Q 1547 744 1667 578 
Q 1788 413 2041 300 
Q 2294 188 2650 159 
Q 3006 131 4219 131 
Q 5797 131 6325 166 
L 6234 -272 
z
" transform="scale(0.015625)"/>
      <path id="Meiryo-4e21" d="M 2206 672 
L 2206 488 
L 1744 488 
L 1744 2788 
L 2206 2788 
L 2206 1044 
L 2894 1044 
L 2894 3375 
L 1113 3375 
L 1113 -359 
L 622 -359 
L 622 3753 
L 2894 3753 
L 2894 4588 
L 256 4588 
L 256 4981 
L 6144 4981 
L 6144 4588 
L 3381 4588 
L 3381 3753 
L 5759 3753 
L 5759 200 
Q 5759 -31 5593 -182 
Q 5428 -334 5197 -334 
L 4350 -334 
L 4272 116 
L 5003 116 
Q 5106 116 5184 184 
Q 5263 253 5263 344 
L 5263 3375 
L 3381 3375 
L 3381 1044 
L 4088 1044 
L 4088 2788 
L 4559 2788 
L 4559 672 
L 2206 672 
z
" transform="scale(0.015625)"/>
      <path id="Meiryo-8005" d="M 4984 -122 
L 1953 -122 
L 1953 -369 
L 1466 -369 
L 1466 2000 
Q 981 1788 341 1569 
L 172 1947 
Q 1619 2444 3025 3259 
L 394 3259 
L 394 3638 
L 2419 3638 
L 2419 4397 
L 734 4397 
L 734 4788 
L 2419 4788 
L 2419 5334 
L 2928 5334 
L 2928 4788 
L 4447 4788 
L 4447 4397 
L 2928 4397 
L 2928 3638 
L 3641 3638 
Q 4831 4409 5428 5106 
L 5866 4859 
Q 5391 4363 4481 3691 
L 4409 3638 
L 6138 3638 
L 6138 3259 
L 3778 3259 
Q 3116 2850 2578 2569 
L 5478 2569 
L 5478 -369 
L 4984 -369 
L 4984 -122 
z
M 4984 1472 
L 4984 2203 
L 1953 2203 
L 1953 1472 
L 4984 1472 
z
M 1953 269 
L 4984 269 
L 4984 1091 
L 1953 1091 
L 1953 269 
z
" transform="scale(0.015625)"/>
      <path id="Meiryo-5206" d="M 591 -394 
L 400 -69 
Q 1394 253 1898 931 
Q 2403 1609 2434 2738 
L 1203 2738 
L 1203 3116 
L 5181 3116 
Q 4181 4044 3703 5122 
L 4166 5259 
Q 4841 3866 6222 2900 
L 5856 2544 
Q 5503 2822 5203 3097 
L 5203 1647 
Q 5203 1053 5118 656 
Q 5034 259 4903 79 
Q 4772 -100 4587 -194 
Q 4403 -288 4203 -309 
Q 4003 -331 3419 -331 
L 3169 -331 
L 3091 106 
L 3913 106 
Q 4269 106 4486 390 
Q 4703 675 4703 1641 
L 4703 2738 
L 2941 2738 
Q 2878 1366 2245 625 
Q 1613 -116 591 -394 
z
M 400 2581 
L 131 2888 
Q 725 3284 1314 3954 
Q 1903 4625 2138 5200 
L 2631 5075 
Q 1881 3578 400 2581 
z
" transform="scale(0.015625)"/>
      <path id="Meiryo-96e2" d="M 5406 225 
L 6144 225 
L 6144 -147 
L 4309 -147 
L 4309 -356 
L 3853 -356 
L 3853 3313 
L 3619 2934 
L 3403 3144 
Q 3972 4169 4206 5303 
L 4681 5238 
Q 4556 4728 4363 4213 
L 5003 4213 
Q 5178 4594 5375 5225 
L 5838 5134 
Q 5697 4772 5416 4213 
L 6106 4213 
L 6106 3866 
L 5406 3866 
L 5406 2934 
L 6006 2934 
L 6006 2581 
L 5406 2581 
L 5406 1634 
L 6013 1634 
L 6013 1281 
L 5406 1281 
L 5406 225 
z
M 4309 3866 
L 4309 2934 
L 4975 2934 
L 4975 3866 
L 4309 3866 
z
M 4309 2581 
L 4309 1634 
L 4975 1634 
L 4975 2581 
L 4309 2581 
z
M 4309 225 
L 4975 225 
L 4975 1281 
L 4309 1281 
L 4309 225 
z
M 250 4481 
L 250 4828 
L 1691 4828 
L 1691 5272 
L 2169 5272 
L 2169 4828 
L 3506 4828 
L 3506 4481 
L 250 4481 
z
M 1222 3091 
L 1084 3306 
Q 1328 3428 1697 3681 
Q 1363 3900 1184 3991 
L 1353 4206 
Q 1694 4028 1953 3866 
Q 2194 4050 2416 4259 
L 2666 4091 
Q 2478 3903 2209 3700 
Q 2341 3616 2625 3416 
L 2422 3181 
Q 2200 3347 1950 3516 
Q 1528 3228 1222 3091 
z
M 1031 472 
L 981 766 
L 1213 791 
Q 1306 1100 1447 1797 
L 784 1797 
L 784 -397 
L 366 -397 
L 366 2125 
L 1513 2125 
L 1600 2613 
L 459 2613 
L 459 4147 
L 838 4147 
L 838 2922 
L 2919 2922 
L 2919 4147 
L 3278 4147 
L 3278 2613 
L 2025 2613 
L 1913 2125 
L 3363 2125 
L 3363 34 
Q 3363 -122 3242 -230 
Q 3122 -338 2966 -338 
L 2384 -338 
L 2350 3 
L 2763 3 
Q 2978 3 2978 178 
L 2978 1797 
L 1834 1797 
Q 1681 1172 1572 838 
Q 2031 900 2263 947 
L 2138 1431 
L 2438 1491 
L 2697 513 
L 2391 447 
L 2325 700 
Q 2025 634 1031 472 
z
" transform="scale(0.015625)"/>
      <path id="Meiryo-305f" d="M 2234 5100 
Q 2234 4750 2203 4263 
L 4475 4263 
L 4475 3847 
L 2169 3847 
Q 2056 2644 1637 1469 
Q 1219 294 788 -231 
L 416 13 
Q 869 656 1230 1739 
Q 1591 2822 1675 3847 
L 538 3847 
L 538 4263 
L 1703 4263 
Q 1722 4666 1722 5100 
L 2234 5100 
z
M 5800 3250 
L 5794 2841 
Q 5641 2847 5513 2847 
Q 4394 2847 3053 2719 
L 3022 3131 
Q 4244 3259 5438 3259 
Q 5647 3259 5800 3250 
z
M 5984 0 
Q 5488 -84 4641 -84 
Q 3925 -84 3517 -25 
Q 3109 34 2875 246 
Q 2641 459 2641 766 
Q 2641 1209 2997 1606 
L 3347 1409 
Q 3119 1103 3119 819 
Q 3116 625 3330 484 
Q 3544 344 4528 344 
Q 5278 344 5959 428 
L 5984 0 
z
" transform="scale(0.015625)"/>
      <path id="Meiryo-307e" d="M 5788 475 
L 5519 59 
Q 4781 613 3638 1038 
L 3638 575 
Q 3638 -231 2150 -231 
Q 1559 -231 1131 23 
Q 703 278 703 722 
Q 703 1181 1109 1451 
Q 1516 1722 2088 1722 
Q 2688 1722 3138 1606 
L 3138 2528 
L 769 2528 
L 769 2938 
L 3138 2938 
L 3138 3891 
L 603 3891 
L 603 4300 
L 3138 4300 
L 3138 4972 
L 3622 4972 
L 3622 4300 
L 5941 4300 
L 5941 3891 
L 3622 3891 
L 3622 2938 
L 5672 2938 
L 5672 2528 
L 3622 2528 
L 3622 1497 
Q 5059 953 5788 475 
z
M 3150 738 
L 3150 1178 
Q 2750 1325 2091 1325 
Q 1747 1325 1456 1169 
Q 1166 1013 1166 756 
Q 1166 484 1458 342 
Q 1750 200 2191 200 
Q 2613 200 2802 269 
Q 2991 338 3070 428 
Q 3150 519 3150 738 
z
" transform="scale(0.015625)"/>
     </defs>
     <use xlink:href="#Meiryo-518d"/>
     <use xlink:href="#Meiryo-73fe" transform="translate(100 0)"/>
     <use xlink:href="#Meiryo-6027" transform="translate(200 0)"/>
     <use xlink:href="#Meiryo-3a" transform="translate(300 0)"/>
     <use xlink:href="#Meiryo-20" transform="translate(342.96875 0)"/>
     <use xlink:href="#Meiryo-540c" transform="translate(376.953125 0)"/>
     <use xlink:href="#Meiryo-3058" transform="translate(476.953125 0)"/>
     <use xlink:href="#Meiryo-6307" transform="translate(576.953125 0)"/>
     <use xlink:href="#Meiryo-4ee4" transform="translate(676.953125 0)"/>
     <use xlink:href="#Meiryo-3067" transform="translate(776.953125 0)"/>
     <use xlink:href="#Meiryo-3082" transform="translate(876.953125 0)"/>
     <use xlink:href="#Meiryo-32" transform="translate(976.953125 0)"/>
     <use xlink:href="#Meiryo-8ef8" transform="translate(1039.0625 0)"/>
     <use xlink:href="#Meiryo-306f" transform="translate(1139.0625 0)"/>
     <use xlink:href="#Meiryo-9055" transform="translate(1239.0625 0)"/>
     <use xlink:href="#Meiryo-3046" transform="translate(1339.0625 0)"/>
     <use xlink:href="#Meiryo-5468" transform="translate(1439.0625 0)"/>
     <use xlink:href="#Meiryo-6ce2" transform="translate(1539.0625 0)"/>
     <use xlink:href="#Meiryo-6570" transform="translate(1639.0625 0)"/>
     <use xlink:href="#Meiryo-3067" transform="translate(1739.0625 0)"/>
     <use xlink:href="#Meiryo-9cf4" transform="translate(1839.0625 0)"/>
     <use xlink:href="#Meiryo-304f" transform="translate(1939.0625 0)"/>
     <use xlink:href="#Meiryo-ff08" transform="translate(2039.0625 0)"/>
     <use xlink:href="#Meiryo-6e2c" transform="translate(2139.0625 0)"/>
     <use xlink:href="#Meiryo-5b9a" transform="translate(2239.0625 0)"/>
     <use xlink:href="#Meiryo-3092" transform="translate(2339.0625 0)"/>
     <use xlink:href="#Meiryo-7e70" transform="translate(2439.0625 0)"/>
     <use xlink:href="#Meiryo-308a" transform="translate(2539.0625 0)"/>
     <use xlink:href="#Meiryo-8fd4" transform="translate(2639.0625 0)"/>
     <use xlink:href="#Meiryo-3057" transform="translate(2739.0625 0)"/>
     <use xlink:href="#Meiryo-3066" transform="translate(2839.0625 0)"/>
     <use xlink:href="#Meiryo-3082" transform="translate(2939.0625 0)"/>
     <use xlink:href="#Meiryo-4e21" transform="translate(3039.0625 0)"/>
     <use xlink:href="#Meiryo-8005" transform="translate(3139.0625 0)"/>
     <use xlink:href="#Meiryo-306f" transform="translate(3239.0625 0)"/>
     <use xlink:href="#Meiryo-5206" transform="translate(3339.0625 0)"/>
     <use xlink:href="#Meiryo-96e2" transform="translate(3439.0625 0)"/>
     <use xlink:href="#Meiryo-3057" transform="translate(3539.0625 0)"/>
     <use xlink:href="#Meiryo-305f" transform="translate(3639.0625 0)"/>
     <use xlink:href="#Meiryo-307e" transform="translate(3739.0625 0)"/>
     <use xlink:href="#Meiryo-307e" transform="translate(3839.0625 0)"/>
     <use xlink:href="#Meiryo-ff09" transform="translate(3939.0625 0)"/>
    </g>
   </g>
   <g id="legend_1">
    <g id="patch_8">
     <path d="M 475.963126 59.756518 
L 595.581564 59.756518 
Q 597.381564 59.756518 597.381564 57.956518 
L 597.381564 32.357143 
Q 597.381564 30.557143 595.581564 30.557143 
L 475.963126 30.557143 
Q 474.163126 30.557143 474.163126 32.357143 
L 474.163126 57.956518 
Q 474.163126 59.756518 475.963126 59.756518 
z
" style="fill: #ffffff; opacity: 0.8; stroke: #cccccc; stroke-linejoin: miter"/>
    </g>
    <g id="PathCollection_3">
     <g>
      <use xlink:href="#mdab8e60023" x="486.763126" y="38.711987" style="fill: #2b57a8; stroke: #2b57a8"/>
     </g>
    </g>
    <g id="text_13">
     <!-- axis0 の測定（10回） -->
     <g transform="translate(502.963126 41.074487) scale(0.09 -0.09)">
      <defs>
       <path id="Meiryo-56de" d="M 5413 6 
L 934 6 
L 934 -334 
L 472 -334 
L 472 4972 
L 5891 4972 
L 5891 -309 
L 5413 -309 
L 5413 6 
z
M 934 384 
L 5413 384 
L 5413 4594 
L 934 4594 
L 934 384 
z
M 1888 1297 
L 1888 3694 
L 4394 3694 
L 4394 1297 
L 1888 1297 
z
M 3913 3328 
L 2366 3328 
L 2366 1684 
L 3913 1684 
L 3913 3328 
z
" transform="scale(0.015625)"/>
      </defs>
      <use xlink:href="#Meiryo-61"/>
      <use xlink:href="#Meiryo-78" transform="translate(58.007812 0)"/>
      <use xlink:href="#Meiryo-69" transform="translate(113.574219 0)"/>
      <use xlink:href="#Meiryo-73" transform="translate(138.964844 0)"/>
      <use xlink:href="#Meiryo-30" transform="translate(188.769531 0)"/>
      <use xlink:href="#Meiryo-20" transform="translate(250.878906 0)"/>
      <use xlink:href="#Meiryo-306e" transform="translate(284.863281 0)"/>
      <use xlink:href="#Meiryo-6e2c" transform="translate(384.863281 0)"/>
      <use xlink:href="#Meiryo-5b9a" transform="translate(484.863281 0)"/>
      <use xlink:href="#Meiryo-ff08" transform="translate(584.863281 0)"/>
      <use xlink:href="#Meiryo-31" transform="translate(684.863281 0)"/>
      <use xlink:href="#Meiryo-30" transform="translate(746.972656 0)"/>
      <use xlink:href="#Meiryo-56de" transform="translate(809.082031 0)"/>
      <use xlink:href="#Meiryo-ff09" transform="translate(909.082031 0)"/>
     </g>
    </g>
    <g id="PathCollection_4">
     <g>
      <use xlink:href="#m898a65b287" x="486.763126" y="51.961674" style="fill: #c2571a; stroke: #c2571a"/>
     </g>
    </g>
    <g id="text_14">
     <!-- axis1 の測定（4回） -->
     <g transform="translate(502.963126 54.324174) scale(0.09 -0.09)">
      <use xlink:href="#Meiryo-61"/>
      <use xlink:href="#Meiryo-78" transform="translate(58.007812 0)"/>
      <use xlink:href="#Meiryo-69" transform="translate(113.574219 0)"/>
      <use xlink:href="#Meiryo-73" transform="translate(138.964844 0)"/>
      <use xlink:href="#Meiryo-31" transform="translate(188.769531 0)"/>
      <use xlink:href="#Meiryo-20" transform="translate(250.878906 0)"/>
      <use xlink:href="#Meiryo-306e" transform="translate(284.863281 0)"/>
      <use xlink:href="#Meiryo-6e2c" transform="translate(384.863281 0)"/>
      <use xlink:href="#Meiryo-5b9a" transform="translate(484.863281 0)"/>
      <use xlink:href="#Meiryo-ff08" transform="translate(584.863281 0)"/>
      <use xlink:href="#Meiryo-34" transform="translate(684.863281 0)"/>
      <use xlink:href="#Meiryo-56de" transform="translate(746.972656 0)"/>
      <use xlink:href="#Meiryo-ff09" transform="translate(846.972656 0)"/>
     </g>
    </g>
   </g>
  </g>
 </g>
 <defs>
  <clipPath id="p519980a3f1">
   <rect x="25.465003" y="26.057143" width="576.416561" height="277.549107"/>
  </clipPath>
 </defs>
</svg>
