<?xml version="1.0" encoding="utf-8" standalone="no"?>
<!DOCTYPE svg PUBLIC "-//W3C//DTD SVG 1.1//EN"
  "http://www.w3.org/Graphics/SVG/1.1/DTD/svg11.dtd">
<svg xmlns:xlink="http://www.w3.org/1999/xlink" width="619.2pt" height="331.2pt" viewBox="0 0 619.2 331.2" xmlns="http://www.w3.org/2000/svg" version="1.1">
 <metadata>
  <rdf:RDF xmlns:dc="http://purl.org/dc/elements/1.1/" xmlns:cc="http://creativecommons.org/ns#" xmlns:rdf="http://www.w3.org/1999/02/22-rdf-syntax-ns#">
   <cc:Work>
    <dc:type rdf:resource="http://purl.org/dc/dcmitype/StillImage"/>
    <dc:date>2026-07-05T23:42:17.334976</dc:date>
    <dc:format>image/svg+xml</dc:format>
    <dc:creator>
     <cc:Agent>
      <dc:title>Matplotlib v3.10.9, https://matplotlib.org/</dc:title>
     </cc:Agent>
    </dc:creator>
   </cc:Work>
  </rdf:RDF>
 </metadata>
 <defs>
  <style type="text/css">*{stroke-linejoin: round; stroke-linecap: butt}</style>
 </defs>
 <g id="figure_1">
  <g id="patch_1">
   <path d="M 0 331.2 
L 619.2 331.2 
L 619.2 0 
L 0 0 
z
" style="fill: #ffffff"/>
  </g>
  <g id="axes_1">
   <g id="patch_2">
    <path d="M 53.878571 289.342857 
L 608.4 289.342857 
L 608.4 26.884821 
L 53.878571 26.884821 
z
" style="fill: #ffffff"/>
   </g>
   <g id="matplotlib.axis_1">
    <g id="xtick_1">
     <g id="line2d_1">
      <path d="M 57.275488 289.342857 
L 57.275488 26.884821 
" clip-path="url(#pae54ab3d78)" style="fill: none; stroke: #b0b0b0; stroke-opacity: 0.3; stroke-width: 0.8; stroke-linecap: square"/>
     </g>
     <g id="line2d_2">
      <defs>
       <path id="m5f5d5aad05" d="M 0 0 
L 0 3.5 
" style="stroke: #000000; stroke-width: 0.8"/>
      </defs>
      <g>
       <use xlink:href="#m5f5d5aad05" x="57.275488" y="289.342857" style="stroke: #000000; stroke-width: 0.8"/>
      </g>
     </g>
     <g id="text_1">
      <!-- 0 -->
      <g transform="translate(54.170019 304.028795) scale(0.1 -0.1)">
       <defs>
        <path id="Meiryo-30" d="M 1991 -97 
Q 1159 -97 768 497 
Q 378 1091 378 2350 
Q 378 3609 770 4206 
Q 1163 4803 1991 4803 
Q 2813 4803 3206 4204 
Q 3600 3606 3600 2356 
Q 3600 1094 3209 498 
Q 2819 -97 1991 -97 
z
M 1991 4325 
Q 1456 4325 1215 3901 
Q 975 3478 975 2350 
Q 975 1231 1215 806 
Q 1456 381 1991 381 
Q 2525 381 2764 806 
Q 3003 1231 3003 2356 
Q 3003 3459 2765 3892 
Q 2528 4325 1991 4325 
z
" transform="scale(0.015625)"/>
       </defs>
       <use xlink:href="#Meiryo-30"/>
      </g>
     </g>
    </g>
    <g id="xtick_2">
     <g id="line2d_3">
      <path d="M 157.775964 289.342857 
L 157.775964 26.884821 
" clip-path="url(#pae54ab3d78)" style="fill: none; stroke: #b0b0b0; stroke-opacity: 0.3; stroke-width: 0.8; stroke-linecap: square"/>
     </g>
     <g id="line2d_4">
      <g>
       <use xlink:href="#m5f5d5aad05" x="157.775964" y="289.342857" style="stroke: #000000; stroke-width: 0.8"/>
      </g>
     </g>
     <g id="text_2">
      <!-- 1 -->
      <g transform="translate(154.670495 304.028795) scale(0.1 -0.1)">
       <defs>
        <path id="Meiryo-31" d="M 3338 0 
L 831 0 
L 831 431 
L 1813 431 
L 1813 3669 
L 831 3669 
L 831 4050 
Q 1406 4053 1653 4214 
Q 1900 4375 1931 4725 
L 2375 4725 
L 2375 431 
L 3338 431 
L 3338 0 
z
" transform="scale(0.015625)"/>
       </defs>
       <use xlink:href="#Meiryo-31"/>
      </g>
     </g>
    </g>
    <g id="xtick_3">
     <g id="line2d_5">
      <path d="M 258.27644 289.342857 
L 258.27644 26.884821 
" clip-path="url(#pae54ab3d78)" style="fill: none; stroke: #b0b0b0; stroke-opacity: 0.3; stroke-width: 0.8; stroke-linecap: square"/>
     </g>
     <g id="line2d_6">
      <g>
       <use xlink:href="#m5f5d5aad05" x="258.27644" y="289.342857" style="stroke: #000000; stroke-width: 0.8"/>
      </g>
     </g>
     <g id="text_3">
      <!-- 2 -->
      <g transform="translate(255.170972 304.028795) scale(0.1 -0.1)">
       <defs>
        <path id="Meiryo-32" d="M 3606 0 
L 456 0 
L 456 609 
Q 956 1041 1579 1612 
Q 2203 2184 2506 2618 
Q 2809 3053 2809 3488 
Q 2809 3872 2554 4087 
Q 2300 4303 1863 4303 
Q 1222 4303 603 3897 
L 572 3897 
L 572 4506 
Q 1203 4806 1878 4806 
Q 2591 4806 3000 4461 
Q 3409 4116 3409 3519 
Q 3409 3200 3304 2909 
Q 3200 2619 2978 2344 
Q 2756 2069 2447 1759 
Q 2138 1450 1025 503 
L 3606 503 
L 3606 0 
z
" transform="scale(0.015625)"/>
       </defs>
       <use xlink:href="#Meiryo-32"/>
      </g>
     </g>
    </g>
    <g id="xtick_4">
     <g id="line2d_7">
      <path d="M 358.776917 289.342857 
L 358.776917 26.884821 
" clip-path="url(#pae54ab3d78)" style="fill: none; stroke: #b0b0b0; stroke-opacity: 0.3; stroke-width: 0.8; stroke-linecap: square"/>
     </g>
     <g id="line2d_8">
      <g>
       <use xlink:href="#m5f5d5aad05" x="358.776917" y="289.342857" style="stroke: #000000; stroke-width: 0.8"/>
      </g>
     </g>
     <g id="text_4">
      <!-- 3 -->
      <g transform="translate(355.671448 304.028795) scale(0.1 -0.1)">
       <defs>
        <path id="Meiryo-33" d="M 475 197 
L 475 825 
L 525 825 
Q 1159 406 1838 406 
Q 2338 406 2639 678 
Q 2941 950 2941 1434 
Q 2941 1884 2678 2096 
Q 2416 2309 1828 2309 
L 1553 2309 
L 1553 2791 
L 1766 2791 
Q 2272 2791 2559 3006 
Q 2847 3222 2847 3613 
Q 2847 3944 2595 4123 
Q 2344 4303 1903 4303 
Q 1269 4303 644 3894 
L 609 3894 
L 609 4509 
Q 1241 4806 1919 4806 
Q 2647 4806 3045 4501 
Q 3444 4197 3444 3678 
Q 3444 3297 3178 2997 
Q 2913 2697 2513 2616 
L 2513 2566 
Q 3541 2381 3541 1381 
Q 3541 734 3069 318 
Q 2597 -97 1853 -97 
Q 1144 -97 475 197 
z
" transform="scale(0.015625)"/>
       </defs>
       <use xlink:href="#Meiryo-33"/>
      </g>
     </g>
    </g>
    <g id="xtick_5">
     <g id="line2d_9">
      <path d="M 459.277393 289.342857 
L 459.277393 26.884821 
" clip-path="url(#pae54ab3d78)" style="fill: none; stroke: #b0b0b0; stroke-opacity: 0.3; stroke-width: 0.8; stroke-linecap: square"/>
     </g>
     <g id="line2d_10">
      <g>
       <use xlink:href="#m5f5d5aad05" x="459.277393" y="289.342857" style="stroke: #000000; stroke-width: 0.8"/>
      </g>
     </g>
     <g id="text_5">
      <!-- 4 -->
      <g transform="translate(456.171924 304.028795) scale(0.1 -0.1)">
       <defs>
        <path id="Meiryo-34" d="M 3713 1356 
L 3022 1356 
L 3022 0 
L 2459 0 
L 2459 1356 
L 194 1356 
L 194 2013 
L 2484 4709 
L 3022 4709 
L 3022 1819 
L 3713 1819 
L 3713 1356 
z
M 2459 1819 
L 2459 4022 
L 588 1819 
L 2459 1819 
z
" transform="scale(0.015625)"/>
       </defs>
       <use xlink:href="#Meiryo-34"/>
      </g>
     </g>
    </g>
    <g id="xtick_6">
     <g id="line2d_11">
      <path d="M 559.77787 289.342857 
L 559.77787 26.884821 
" clip-path="url(#pae54ab3d78)" style="fill: none; stroke: #b0b0b0; stroke-opacity: 0.3; stroke-width: 0.8; stroke-linecap: square"/>
     </g>
     <g id="line2d_12">
      <g>
       <use xlink:href="#m5f5d5aad05" x="559.77787" y="289.342857" style="stroke: #000000; stroke-width: 0.8"/>
      </g>
     </g>
     <g id="text_6">
      <!-- 5 -->
      <g transform="translate(556.672401 304.028795) scale(0.1 -0.1)">
       <defs>
        <path id="Meiryo-35" d="M 538 178 
L 538 803 
L 588 803 
Q 1197 406 1856 406 
Q 2363 406 2667 695 
Q 2972 984 2972 1494 
Q 2972 2419 1703 2419 
Q 1341 2419 741 2294 
L 741 4709 
L 3538 4709 
L 3538 4203 
L 1303 4203 
L 1303 2869 
Q 1716 2909 1859 2909 
Q 2700 2909 3134 2546 
Q 3569 2184 3569 1491 
Q 3569 791 3098 347 
Q 2628 -97 1869 -97 
Q 1131 -97 538 178 
z
" transform="scale(0.015625)"/>
       </defs>
       <use xlink:href="#Meiryo-35"/>
      </g>
     </g>
    </g>
    <g id="text_7">
     <!-- 停止指令からの時間 [s]  (TPOWERDOWN=64, IHOLDDELAY=8) -->
     <g transform="translate(179.183036 318.46317) scale(0.1 -0.1)">
      <defs>
       <path id="Meiryo-505c" d="M 2000 4559 
L 2000 4925 
L 3788 4925 
L 3788 5375 
L 4278 5375 
L 4278 4925 
L 6209 4925 
L 6209 4559 
L 2000 4559 
z
M 922 -384 
L 922 2916 
Q 594 2303 347 1972 
L 41 2241 
Q 456 2844 825 3708 
Q 1194 4572 1366 5322 
L 1844 5244 
Q 1659 4431 1216 3494 
L 1388 3494 
L 1388 -384 
L 922 -384 
z
M 2288 2984 
L 2288 4141 
L 5728 4141 
L 5728 2984 
L 2288 2984 
z
M 5263 3834 
L 2750 3834 
L 2750 3297 
L 5263 3297 
L 5263 3834 
z
M 5753 1641 
L 5753 2194 
L 2275 2194 
L 2275 1641 
L 1863 1641 
L 1863 2553 
L 6178 2553 
L 6178 1641 
L 5753 1641 
z
M 3763 -363 
L 2959 -363 
L 2900 59 
L 3600 59 
Q 3700 59 3779 123 
Q 3859 188 3859 288 
L 3859 1306 
L 2281 1306 
L 2281 1688 
L 5747 1688 
L 5747 1306 
L 4363 1306 
L 4363 125 
Q 4363 -88 4188 -225 
Q 4013 -363 3763 -363 
z
" transform="scale(0.015625)"/>
       <path id="Meiryo-6b62" d="M 250 -200 
L 250 197 
L 1169 197 
L 1169 3950 
L 1672 3950 
L 1672 197 
L 3141 197 
L 3141 5178 
L 3650 5178 
L 3650 3450 
L 5766 3450 
L 5766 3056 
L 3650 3056 
L 3650 197 
L 6144 197 
L 6144 -200 
L 250 -200 
z
" transform="scale(0.015625)"/>
       <path id="Meiryo-6307" d="M 278 1688 
L 178 2106 
Q 572 2181 1219 2350 
L 1219 3719 
L 369 3719 
L 369 4103 
L 1219 4103 
L 1219 5272 
L 1706 5272 
L 1706 4103 
L 2300 4103 
L 2300 3719 
L 1706 3719 
L 1706 2488 
Q 2172 2622 2366 2700 
L 2444 2347 
Q 2238 2250 1706 2084 
L 1706 41 
Q 1706 -156 1542 -272 
Q 1378 -388 1159 -388 
L 434 -388 
L 375 56 
L 969 56 
Q 1219 56 1219 278 
L 1219 1938 
Q 631 1769 278 1688 
z
M 2653 5272 
L 3156 5272 
L 3156 4484 
Q 4913 4809 5578 5081 
L 5831 4697 
Q 5488 4578 4648 4400 
Q 3809 4222 3156 4122 
L 3156 3697 
Q 3156 3484 3342 3431 
Q 3528 3378 4419 3378 
Q 4972 3378 5147 3392 
Q 5322 3406 5415 3448 
Q 5509 3491 5545 3552 
Q 5581 3613 5592 3788 
Q 5603 3963 5603 4181 
L 6028 4116 
L 6028 3547 
Q 6028 3325 5900 3195 
Q 5772 3066 5508 3022 
Q 5244 2978 4438 2978 
Q 3528 2978 3217 3018 
Q 2906 3059 2779 3189 
Q 2653 3319 2653 3547 
L 2653 5272 
z
M 5325 -141 
L 3197 -141 
L 3197 -338 
L 2713 -338 
L 2713 2472 
L 5806 2472 
L 5806 -338 
L 5325 -338 
L 5325 -141 
z
M 5325 1388 
L 5325 2113 
L 3197 2113 
L 3197 1388 
L 5325 1388 
z
M 3197 231 
L 5325 231 
L 5325 1022 
L 3197 1022 
L 3197 231 
z
" transform="scale(0.015625)"/>
       <path id="Meiryo-4ee4" d="M 6097 2803 
Q 5431 3078 4582 3709 
Q 3734 4341 3175 5016 
Q 2697 4359 1894 3746 
Q 1091 3134 269 2778 
L 47 3116 
Q 1009 3581 1729 4182 
Q 2450 4784 2816 5316 
L 3519 5316 
Q 3997 4700 4823 4092 
Q 5650 3484 6372 3200 
L 6097 2803 
z
M 4722 3228 
L 1700 3228 
L 1700 3600 
L 4722 3600 
L 4722 3228 
z
M 2416 -416 
L 2416 1988 
L 603 1988 
L 603 2397 
L 5581 2397 
L 5581 531 
Q 5581 316 5401 159 
Q 5222 3 4963 3 
L 4028 3 
L 3956 447 
L 4788 447 
Q 5088 447 5088 716 
L 5088 1988 
L 2919 1988 
L 2919 -416 
L 2416 -416 
z
" transform="scale(0.015625)"/>
       <path id="Meiryo-304b" d="M 2197 4494 
Q 2197 4213 2166 3853 
L 3366 3853 
Q 3809 3853 4061 3536 
Q 4313 3219 4316 2706 
Q 4313 1444 4047 617 
Q 3781 -209 3116 -209 
Q 2728 -209 2028 159 
L 2184 556 
Q 2347 478 2650 378 
Q 2953 278 3066 278 
Q 3316 278 3467 539 
Q 3619 800 3720 1300 
Q 3822 1800 3822 2494 
Q 3822 3113 3656 3278 
Q 3491 3444 3213 3444 
L 2125 3444 
Q 2000 2647 1853 2078 
Q 1706 1509 1389 884 
Q 1072 259 622 -244 
L 269 13 
Q 678 494 1079 1351 
Q 1481 2209 1619 3378 
L 397 3378 
L 397 3797 
L 1669 3797 
Q 1691 4016 1691 5056 
L 2197 5056 
L 2197 4494 
z
M 6284 1966 
L 5800 1838 
Q 5372 3403 4556 4275 
L 4922 4525 
Q 5353 4084 5745 3345 
Q 6138 2606 6284 1966 
z
" transform="scale(0.015625)"/>
       <path id="Meiryo-3089" d="M 5178 4225 
L 4934 3816 
Q 4706 3922 4248 4064 
Q 3791 4206 3289 4339 
Q 2788 4472 1747 4653 
L 1888 5050 
Q 3025 4859 3931 4609 
Q 4838 4359 5178 4225 
z
M 1909 -244 
L 1844 184 
Q 3850 209 4547 536 
Q 5244 863 5244 1447 
Q 5244 1963 4880 2242 
Q 4516 2522 3900 2522 
Q 3163 2522 2377 2198 
Q 1591 1875 1178 1375 
L 769 1613 
Q 1175 2656 1222 4153 
L 1728 4141 
Q 1706 3297 1391 2119 
Q 1819 2472 2526 2701 
Q 3234 2931 3847 2931 
Q 4753 2931 5256 2550 
Q 5759 2169 5759 1447 
Q 5759 647 4939 201 
Q 4119 -244 2050 -244 
L 1909 -244 
z
" transform="scale(0.015625)"/>
       <path id="Meiryo-306e" d="M 3338 -128 
L 3216 294 
Q 4222 384 4936 878 
Q 5650 1372 5650 2353 
Q 5650 3228 5073 3706 
Q 4497 4184 3466 4213 
Q 3431 2531 2862 1406 
Q 2294 281 1438 281 
Q 906 281 601 732 
Q 297 1184 297 1834 
Q 297 2906 1222 3761 
Q 2147 4616 3413 4616 
Q 4603 4616 5375 4020 
Q 6147 3425 6147 2394 
Q 6147 1219 5369 597 
Q 4591 -25 3338 -128 
z
M 2975 4172 
Q 2069 4034 1416 3351 
Q 763 2669 763 1809 
Q 763 1353 953 1036 
Q 1144 719 1484 719 
Q 2069 719 2503 1811 
Q 2938 2903 2975 4172 
z
" transform="scale(0.015625)"/>
       <path id="Meiryo-6642" d="M 4759 -350 
L 3956 -350 
L 3897 100 
L 4556 100 
Q 4666 100 4752 173 
Q 4838 247 4838 341 
L 4838 1791 
L 2422 1791 
L 2422 2175 
L 4838 2175 
L 4838 2894 
L 2344 2894 
L 2344 3278 
L 3934 3278 
L 3934 4147 
L 2559 4147 
L 2559 4538 
L 3934 4538 
L 3934 5316 
L 4438 5316 
L 4438 4538 
L 5906 4538 
L 5906 4147 
L 4438 4147 
L 4438 3278 
L 6141 3278 
L 6141 2894 
L 5341 2894 
L 5341 2175 
L 5972 2175 
L 5972 1791 
L 5341 1791 
L 5341 125 
Q 5341 -88 5169 -219 
Q 4997 -350 4759 -350 
z
M 931 728 
L 931 309 
L 469 309 
L 469 4969 
L 2116 4969 
L 2116 728 
L 931 728 
z
M 1650 4597 
L 931 4597 
L 931 3109 
L 1650 3109 
L 1650 4597 
z
M 931 2750 
L 931 1100 
L 1650 1100 
L 1650 2750 
L 931 2750 
z
M 3419 303 
Q 3181 631 2609 1341 
L 2981 1588 
Q 3409 1116 3825 569 
L 3419 303 
z
" transform="scale(0.015625)"/>
       <path id="Meiryo-9593" d="M 988 3022 
L 988 -400 
L 519 -400 
L 519 5103 
L 2775 5103 
L 2775 3022 
L 988 3022 
z
M 988 4222 
L 2319 4222 
L 2319 4756 
L 988 4756 
L 988 4222 
z
M 2319 3903 
L 988 3903 
L 988 3378 
L 2319 3378 
L 2319 3903 
z
M 5263 -341 
L 4644 -341 
L 4572 84 
L 5153 84 
Q 5238 84 5306 148 
Q 5375 213 5375 291 
L 5375 3022 
L 3553 3022 
L 3553 5103 
L 5856 5103 
L 5856 181 
Q 5856 -63 5693 -202 
Q 5531 -341 5263 -341 
z
M 4016 4222 
L 5375 4222 
L 5375 4756 
L 4016 4756 
L 4016 4222 
z
M 5375 3903 
L 4016 3903 
L 4016 3378 
L 5375 3378 
L 5375 3903 
z
M 2384 128 
L 2384 -22 
L 1934 -22 
L 1934 2569 
L 4322 2569 
L 4322 128 
L 2384 128 
z
M 3853 1566 
L 3853 2225 
L 2384 2225 
L 2384 1566 
L 3853 1566 
z
M 2384 488 
L 3853 488 
L 3853 1231 
L 2384 1231 
L 2384 488 
z
" transform="scale(0.015625)"/>
       <path id="Meiryo-20" transform="scale(0.015625)"/>
       <path id="Meiryo-5b" d="M 2325 -1241 
L 697 -1241 
L 697 4919 
L 2325 4919 
L 2325 4516 
L 1206 4516 
L 1206 -838 
L 2325 -838 
L 2325 -1241 
z
" transform="scale(0.015625)"/>
       <path id="Meiryo-73" d="M 1528 -84 
Q 866 -84 284 206 
L 284 844 
L 306 844 
Q 938 375 1559 375 
Q 2431 375 2431 925 
Q 2431 1141 2315 1259 
Q 2200 1378 1834 1463 
Q 1528 1522 1131 1615 
Q 734 1709 517 1945 
Q 300 2181 300 2550 
Q 300 3019 681 3317 
Q 1063 3616 1700 3616 
Q 2356 3616 2853 3359 
L 2853 2753 
L 2831 2753 
Q 2284 3156 1672 3156 
Q 1294 3156 1075 3017 
Q 856 2878 856 2631 
Q 856 2413 973 2297 
Q 1091 2181 1441 2094 
L 2131 1944 
Q 2559 1850 2775 1614 
Q 2991 1378 2991 1003 
Q 2991 519 2594 217 
Q 2197 -84 1528 -84 
z
" transform="scale(0.015625)"/>
       <path id="Meiryo-5d" d="M 2116 -1241 
L 488 -1241 
L 488 -838 
L 1606 -838 
L 1606 4516 
L 488 4516 
L 488 4919 
L 2116 4919 
L 2116 -1241 
z
" transform="scale(0.015625)"/>
       <path id="Meiryo-28" d="M 2397 -1303 
L 1731 -1303 
Q 1094 -563 808 184 
Q 522 931 522 1809 
Q 522 3506 1731 4919 
L 2397 4919 
L 2397 4888 
Q 1775 4341 1401 3523 
Q 1028 2706 1028 1809 
Q 1028 909 1400 95 
Q 1772 -719 2397 -1272 
L 2397 -1303 
z
" transform="scale(0.015625)"/>
       <path id="Meiryo-54" d="M 1744 0 
L 1744 4203 
L 72 4203 
L 72 4709 
L 3997 4709 
L 3997 4203 
L 2325 4203 
L 2325 0 
L 1744 0 
z
" transform="scale(0.015625)"/>
       <path id="Meiryo-50" d="M 1159 1778 
L 1159 0 
L 578 0 
L 578 4709 
L 1878 4709 
Q 2788 4709 3223 4326 
Q 3659 3944 3659 3297 
Q 3659 2625 3182 2201 
Q 2706 1778 1850 1778 
L 1159 1778 
z
M 1159 4216 
L 1159 2269 
L 1741 2269 
Q 2456 2269 2754 2545 
Q 3053 2822 3053 3281 
Q 3053 3741 2762 3978 
Q 2472 4216 1834 4216 
L 1159 4216 
z
" transform="scale(0.015625)"/>
       <path id="Meiryo-4f" d="M 2438 -97 
Q 1434 -97 862 551 
Q 291 1200 291 2353 
Q 291 3503 864 4154 
Q 1438 4806 2438 4806 
Q 3441 4806 4014 4154 
Q 4588 3503 4588 2353 
Q 4588 1206 4014 554 
Q 3441 -97 2438 -97 
z
M 2441 4309 
Q 1709 4309 1303 3796 
Q 897 3284 897 2353 
Q 897 1422 1303 911 
Q 1709 400 2441 400 
Q 3169 400 3575 911 
Q 3981 1422 3981 2353 
Q 3981 3291 3575 3800 
Q 3169 4309 2441 4309 
z
" transform="scale(0.015625)"/>
       <path id="Meiryo-57" d="M 6116 4709 
L 4797 0 
L 4275 0 
L 3200 3913 
L 2134 0 
L 1628 0 
L 294 4709 
L 891 4709 
L 1925 931 
L 2947 4709 
L 3494 4709 
L 4516 897 
L 5547 4709 
L 6116 4709 
z
" transform="scale(0.015625)"/>
       <path id="Meiryo-45" d="M 3644 0 
L 578 0 
L 578 4709 
L 3644 4709 
L 3644 4203 
L 1159 4203 
L 1159 2831 
L 3581 2831 
L 3581 2325 
L 1159 2325 
L 1159 506 
L 3644 506 
L 3644 0 
z
" transform="scale(0.015625)"/>
       <path id="Meiryo-52" d="M 4428 0 
L 3669 0 
L 2119 1894 
L 1159 1894 
L 1159 0 
L 578 0 
L 578 4709 
L 1913 4709 
Q 2853 4709 3258 4356 
Q 3663 4003 3663 3428 
Q 3663 2456 2709 2059 
L 4428 0 
z
M 1159 4216 
L 1159 2372 
L 1844 2372 
Q 2491 2372 2772 2634 
Q 3053 2897 3053 3400 
Q 3053 4216 1950 4216 
L 1159 4216 
z
" transform="scale(0.015625)"/>
       <path id="Meiryo-44" d="M 578 0 
L 578 4709 
L 1713 4709 
Q 2706 4709 3275 4450 
Q 3844 4191 4173 3658 
Q 4503 3125 4503 2350 
Q 4503 1388 3879 694 
Q 3256 0 1725 0 
L 578 0 
z
M 1159 4216 
L 1159 494 
L 1766 494 
Q 2881 494 3387 966 
Q 3894 1438 3894 2359 
Q 3894 3234 3381 3725 
Q 2869 4216 1766 4216 
L 1159 4216 
z
" transform="scale(0.015625)"/>
       <path id="Meiryo-4e" d="M 4166 0 
L 3491 0 
L 1119 4088 
L 1119 0 
L 578 0 
L 578 4709 
L 1384 4709 
L 3625 847 
L 3625 4709 
L 4166 4709 
L 4166 0 
z
" transform="scale(0.015625)"/>
       <path id="Meiryo-3d" d="M 4425 2484 
L 719 2484 
L 719 2947 
L 4425 2947 
L 4425 2484 
z
M 4425 1172 
L 719 1172 
L 719 1634 
L 4425 1634 
L 4425 1172 
z
" transform="scale(0.015625)"/>
       <path id="Meiryo-36" d="M 3222 4722 
L 3222 4169 
L 3184 4169 
Q 2922 4297 2572 4297 
Q 1881 4297 1468 3858 
Q 1056 3419 988 2638 
Q 1578 2991 2138 2991 
Q 2822 2991 3248 2611 
Q 3675 2231 3675 1522 
Q 3675 816 3212 359 
Q 2750 -97 2063 -97 
Q 1266 -97 823 458 
Q 381 1013 381 2066 
Q 381 3363 973 4080 
Q 1566 4797 2666 4797 
Q 2997 4797 3222 4722 
z
M 988 2238 
Q 975 1981 975 1928 
Q 975 1184 1265 779 
Q 1556 375 2069 375 
Q 2541 375 2809 670 
Q 3078 966 3078 1497 
Q 3078 1938 2825 2225 
Q 2572 2513 1984 2513 
Q 1475 2513 988 2238 
z
" transform="scale(0.015625)"/>
       <path id="Meiryo-2c" d="M 1731 853 
L 850 -1156 
L 431 -1156 
L 981 853 
L 1731 853 
z
" transform="scale(0.015625)"/>
       <path id="Meiryo-49" d="M 2197 0 
L 381 0 
L 381 434 
L 1000 434 
L 1000 4275 
L 381 4275 
L 381 4709 
L 2197 4709 
L 2197 4275 
L 1581 4275 
L 1581 434 
L 2197 434 
L 2197 0 
z
" transform="scale(0.015625)"/>
       <path id="Meiryo-48" d="M 4178 0 
L 3597 0 
L 3597 2328 
L 1159 2328 
L 1159 0 
L 578 0 
L 578 4709 
L 1159 4709 
L 1159 2831 
L 3597 2831 
L 3597 4709 
L 4178 4709 
L 4178 0 
z
" transform="scale(0.015625)"/>
       <path id="Meiryo-4c" d="M 3513 0 
L 578 0 
L 578 4709 
L 1159 4709 
L 1159 506 
L 3513 506 
L 3513 0 
z
" transform="scale(0.015625)"/>
       <path id="Meiryo-41" d="M 3000 1828 
L 2153 4150 
L 1309 1828 
L 3000 1828 
z
M 3659 0 
L 3175 1344 
L 1131 1344 
L 647 0 
L 56 0 
L 1800 4709 
L 2541 4709 
L 4281 0 
L 3659 0 
z
" transform="scale(0.015625)"/>
       <path id="Meiryo-59" d="M 4025 4709 
L 2313 1950 
L 2313 0 
L 1731 0 
L 1731 1888 
L 9 4709 
L 656 4709 
L 2025 2447 
L 3403 4709 
L 4025 4709 
z
" transform="scale(0.015625)"/>
       <path id="Meiryo-38" d="M 1206 2497 
L 1206 2534 
Q 459 2941 459 3588 
Q 459 4122 890 4469 
Q 1322 4816 1988 4816 
Q 2678 4816 3097 4487 
Q 3516 4159 3516 3628 
Q 3516 3284 3308 2982 
Q 3100 2681 2731 2513 
L 2731 2472 
Q 3641 2081 3641 1303 
Q 3641 697 3169 295 
Q 2697 -106 1988 -106 
Q 1234 -106 784 280 
Q 334 666 334 1291 
Q 334 2106 1206 2497 
z
M 2938 3625 
Q 2938 3963 2678 4178 
Q 2419 4394 1984 4394 
Q 1572 4394 1311 4192 
Q 1050 3991 1050 3663 
Q 1050 3300 1375 3065 
Q 1700 2831 2363 2628 
Q 2938 3000 2938 3625 
z
M 1588 2384 
Q 928 2013 928 1334 
Q 928 881 1228 601 
Q 1528 322 1994 322 
Q 2472 322 2753 567 
Q 3034 813 3034 1241 
Q 3034 1531 2906 1707 
Q 2778 1884 2533 2006 
Q 2288 2128 1588 2384 
z
" transform="scale(0.015625)"/>
       <path id="Meiryo-29" d="M 1081 -1303 
L 416 -1303 
L 416 -1272 
Q 1044 -713 1414 98 
Q 1784 909 1784 1809 
Q 1784 2706 1412 3520 
Q 1041 4334 416 4888 
L 416 4919 
L 1081 4919 
Q 2291 3506 2291 1809 
Q 2291 934 2008 190 
Q 1725 -553 1081 -1303 
z
" transform="scale(0.015625)"/>
      </defs>
      <use xlink:href="#Meiryo-505c"/>
      <use xlink:href="#Meiryo-6b62" transform="translate(100 0)"/>
      <use xlink:href="#Meiryo-6307" transform="translate(200 0)"/>
      <use xlink:href="#Meiryo-4ee4" transform="translate(300 0)"/>
      <use xlink:href="#Meiryo-304b" transform="translate(400 0)"/>
      <use xlink:href="#Meiryo-3089" transform="translate(500 0)"/>
      <use xlink:href="#Meiryo-306e" transform="translate(600 0)"/>
      <use xlink:href="#Meiryo-6642" transform="translate(700 0)"/>
      <use xlink:href="#Meiryo-9593" transform="translate(800 0)"/>
      <use xlink:href="#Meiryo-20" transform="translate(900 0)"/>
      <use xlink:href="#Meiryo-5b" transform="translate(933.984375 0)"/>
      <use xlink:href="#Meiryo-73" transform="translate(977.929688 0)"/>
      <use xlink:href="#Meiryo-5d" transform="translate(1027.734375 0)"/>
      <use xlink:href="#Meiryo-20" transform="translate(1071.679688 0)"/>
      <use xlink:href="#Meiryo-20" transform="translate(1105.664062 0)"/>
      <use xlink:href="#Meiryo-28" transform="translate(1139.648438 0)"/>
      <use xlink:href="#Meiryo-54" transform="translate(1183.59375 0)"/>
      <use xlink:href="#Meiryo-50" transform="translate(1247.167969 0)"/>
      <use xlink:href="#Meiryo-4f" transform="translate(1306.738281 0)"/>
      <use xlink:href="#Meiryo-57" transform="translate(1382.958984 0)"/>
      <use xlink:href="#Meiryo-45" transform="translate(1483.105469 0)"/>
      <use xlink:href="#Meiryo-52" transform="translate(1544.873047 0)"/>
      <use xlink:href="#Meiryo-44" transform="translate(1613.134766 0)"/>
      <use xlink:href="#Meiryo-4f" transform="translate(1687.988281 0)"/>
      <use xlink:href="#Meiryo-57" transform="translate(1764.208984 0)"/>
      <use xlink:href="#Meiryo-4e" transform="translate(1864.355469 0)"/>
      <use xlink:href="#Meiryo-3d" transform="translate(1938.476562 0)"/>
      <use xlink:href="#Meiryo-36" transform="translate(2018.847656 0)"/>
      <use xlink:href="#Meiryo-34" transform="translate(2080.957031 0)"/>
      <use xlink:href="#Meiryo-2c" transform="translate(2143.066406 0)"/>
      <use xlink:href="#Meiryo-20" transform="translate(2177.978516 0)"/>
      <use xlink:href="#Meiryo-49" transform="translate(2211.962891 0)"/>
      <use xlink:href="#Meiryo-48" transform="translate(2252.294922 0)"/>
      <use xlink:href="#Meiryo-4f" transform="translate(2326.611328 0)"/>
      <use xlink:href="#Meiryo-4c" transform="translate(2402.832031 0)"/>
      <use xlink:href="#Meiryo-44" transform="translate(2458.496094 0)"/>
      <use xlink:href="#Meiryo-44" transform="translate(2533.349609 0)"/>
      <use xlink:href="#Meiryo-45" transform="translate(2608.203125 0)"/>
      <use xlink:href="#Meiryo-4c" transform="translate(2669.970703 0)"/>
      <use xlink:href="#Meiryo-41" transform="translate(2725.634766 0)"/>
      <use xlink:href="#Meiryo-59" transform="translate(2789.533203 0)"/>
      <use xlink:href="#Meiryo-3d" transform="translate(2852.619141 0)"/>
      <use xlink:href="#Meiryo-38" transform="translate(2932.990234 0)"/>
      <use xlink:href="#Meiryo-29" transform="translate(2995.099609 0)"/>
     </g>
    </g>
   </g>
   <g id="matplotlib.axis_2">
    <g id="ytick_1">
     <g id="line2d_13">
      <path d="M 53.878571 289.342857 
L 608.4 289.342857 
" clip-path="url(#pae54ab3d78)" style="fill: none; stroke: #b0b0b0; stroke-opacity: 0.3; stroke-width: 0.8; stroke-linecap: square"/>
     </g>
     <g id="line2d_14">
      <defs>
       <path id="m7d50b9a69e" d="M 0 0 
L -3.5 0 
" style="stroke: #000000; stroke-width: 0.8"/>
      </defs>
      <g>
       <use xlink:href="#m7d50b9a69e" x="53.878571" y="289.342857" style="stroke: #000000; stroke-width: 0.8"/>
      </g>
     </g>
     <g id="text_8">
      <!-- 0.0 -->
      <g transform="translate(30.966071 293.185826) scale(0.1 -0.1)">
       <defs>
        <path id="Meiryo-2e" d="M 1472 0 
L 763 0 
L 763 853 
L 1472 853 
L 1472 0 
z
" transform="scale(0.015625)"/>
       </defs>
       <use xlink:href="#Meiryo-30"/>
       <use xlink:href="#Meiryo-2e" transform="translate(62.109375 0)"/>
       <use xlink:href="#Meiryo-30" transform="translate(97.021484 0)"/>
      </g>
     </g>
    </g>
    <g id="ytick_2">
     <g id="line2d_15">
      <path d="M 53.878571 256.535603 
L 608.4 256.535603 
" clip-path="url(#pae54ab3d78)" style="fill: none; stroke: #b0b0b0; stroke-opacity: 0.3; stroke-width: 0.8; stroke-linecap: square"/>
     </g>
     <g id="line2d_16">
      <g>
       <use xlink:href="#m7d50b9a69e" x="53.878571" y="256.535603" style="stroke: #000000; stroke-width: 0.8"/>
      </g>
     </g>
     <g id="text_9">
      <!-- 2.5 -->
      <g transform="translate(30.966071 260.378571) scale(0.1 -0.1)">
       <use xlink:href="#Meiryo-32"/>
       <use xlink:href="#Meiryo-2e" transform="translate(62.109375 0)"/>
       <use xlink:href="#Meiryo-35" transform="translate(97.021484 0)"/>
      </g>
     </g>
    </g>
    <g id="ytick_3">
     <g id="line2d_17">
      <path d="M 53.878571 223.728348 
L 608.4 223.728348 
" clip-path="url(#pae54ab3d78)" style="fill: none; stroke: #b0b0b0; stroke-opacity: 0.3; stroke-width: 0.8; stroke-linecap: square"/>
     </g>
     <g id="line2d_18">
      <g>
       <use xlink:href="#m7d50b9a69e" x="53.878571" y="223.728348" style="stroke: #000000; stroke-width: 0.8"/>
      </g>
     </g>
     <g id="text_10">
      <!-- 5.0 -->
      <g transform="translate(30.966071 227.571317) scale(0.1 -0.1)">
       <use xlink:href="#Meiryo-35"/>
       <use xlink:href="#Meiryo-2e" transform="translate(62.109375 0)"/>
       <use xlink:href="#Meiryo-30" transform="translate(97.021484 0)"/>
      </g>
     </g>
    </g>
    <g id="ytick_4">
     <g id="line2d_19">
      <path d="M 53.878571 190.921094 
L 608.4 190.921094 
" clip-path="url(#pae54ab3d78)" style="fill: none; stroke: #b0b0b0; stroke-opacity: 0.3; stroke-width: 0.8; stroke-linecap: square"/>
     </g>
     <g id="line2d_20">
      <g>
       <use xlink:href="#m7d50b9a69e" x="53.878571" y="190.921094" style="stroke: #000000; stroke-width: 0.8"/>
      </g>
     </g>
     <g id="text_11">
      <!-- 7.5 -->
      <g transform="translate(30.966071 194.764063) scale(0.1 -0.1)">
       <defs>
        <path id="Meiryo-37" d="M 3619 4056 
L 1506 0 
L 878 0 
L 3125 4203 
L 434 4203 
L 434 4709 
L 3619 4709 
L 3619 4056 
z
" transform="scale(0.015625)"/>
       </defs>
       <use xlink:href="#Meiryo-37"/>
       <use xlink:href="#Meiryo-2e" transform="translate(62.109375 0)"/>
       <use xlink:href="#Meiryo-35" transform="translate(97.021484 0)"/>
      </g>
     </g>
    </g>
    <g id="ytick_5">
     <g id="line2d_21">
      <path d="M 53.878571 158.113839 
L 608.4 158.113839 
" clip-path="url(#pae54ab3d78)" style="fill: none; stroke: #b0b0b0; stroke-opacity: 0.3; stroke-width: 0.8; stroke-linecap: square"/>
     </g>
     <g id="line2d_22">
      <g>
       <use xlink:href="#m7d50b9a69e" x="53.878571" y="158.113839" style="stroke: #000000; stroke-width: 0.8"/>
      </g>
     </g>
     <g id="text_12">
      <!-- 10.0 -->
      <g transform="translate(24.755134 161.956808) scale(0.1 -0.1)">
       <use xlink:href="#Meiryo-31"/>
       <use xlink:href="#Meiryo-30" transform="translate(62.109375 0)"/>
       <use xlink:href="#Meiryo-2e" transform="translate(124.21875 0)"/>
       <use xlink:href="#Meiryo-30" transform="translate(159.130859 0)"/>
      </g>
     </g>
    </g>
    <g id="ytick_6">
     <g id="line2d_23">
      <path d="M 53.878571 125.306585 
L 608.4 125.306585 
" clip-path="url(#pae54ab3d78)" style="fill: none; stroke: #b0b0b0; stroke-opacity: 0.3; stroke-width: 0.8; stroke-linecap: square"/>
     </g>
     <g id="line2d_24">
      <g>
       <use xlink:href="#m7d50b9a69e" x="53.878571" y="125.306585" style="stroke: #000000; stroke-width: 0.8"/>
      </g>
     </g>
     <g id="text_13">
      <!-- 12.5 -->
      <g transform="translate(24.755134 129.149554) scale(0.1 -0.1)">
       <use xlink:href="#Meiryo-31"/>
       <use xlink:href="#Meiryo-32" transform="translate(62.109375 0)"/>
       <use xlink:href="#Meiryo-2e" transform="translate(124.21875 0)"/>
       <use xlink:href="#Meiryo-35" transform="translate(159.130859 0)"/>
      </g>
     </g>
    </g>
    <g id="ytick_7">
     <g id="line2d_25">
      <path d="M 53.878571 92.49933 
L 608.4 92.49933 
" clip-path="url(#pae54ab3d78)" style="fill: none; stroke: #b0b0b0; stroke-opacity: 0.3; stroke-width: 0.8; stroke-linecap: square"/>
     </g>
     <g id="line2d_26">
      <g>
       <use xlink:href="#m7d50b9a69e" x="53.878571" y="92.49933" style="stroke: #000000; stroke-width: 0.8"/>
      </g>
     </g>
     <g id="text_14">
      <!-- 15.0 -->
      <g transform="translate(24.755134 96.342299) scale(0.1 -0.1)">
       <use xlink:href="#Meiryo-31"/>
       <use xlink:href="#Meiryo-35" transform="translate(62.109375 0)"/>
       <use xlink:href="#Meiryo-2e" transform="translate(124.21875 0)"/>
       <use xlink:href="#Meiryo-30" transform="translate(159.130859 0)"/>
      </g>
     </g>
    </g>
    <g id="ytick_8">
     <g id="line2d_27">
      <path d="M 53.878571 59.692076 
L 608.4 59.692076 
" clip-path="url(#pae54ab3d78)" style="fill: none; stroke: #b0b0b0; stroke-opacity: 0.3; stroke-width: 0.8; stroke-linecap: square"/>
     </g>
     <g id="line2d_28">
      <g>
       <use xlink:href="#m7d50b9a69e" x="53.878571" y="59.692076" style="stroke: #000000; stroke-width: 0.8"/>
      </g>
     </g>
     <g id="text_15">
      <!-- 17.5 -->
      <g transform="translate(24.755134 63.535045) scale(0.1 -0.1)">
       <use xlink:href="#Meiryo-31"/>
       <use xlink:href="#Meiryo-37" transform="translate(62.109375 0)"/>
       <use xlink:href="#Meiryo-2e" transform="translate(124.21875 0)"/>
       <use xlink:href="#Meiryo-35" transform="translate(159.130859 0)"/>
      </g>
     </g>
    </g>
    <g id="ytick_9">
     <g id="line2d_29">
      <path d="M 53.878571 26.884821 
L 608.4 26.884821 
" clip-path="url(#pae54ab3d78)" style="fill: none; stroke: #b0b0b0; stroke-opacity: 0.3; stroke-width: 0.8; stroke-linecap: square"/>
     </g>
     <g id="line2d_30">
      <g>
       <use xlink:href="#m7d50b9a69e" x="53.878571" y="26.884821" style="stroke: #000000; stroke-width: 0.8"/>
      </g>
     </g>
     <g id="text_16">
      <!-- 20.0 -->
      <g transform="translate(24.755134 30.72779) scale(0.1 -0.1)">
       <use xlink:href="#Meiryo-32"/>
       <use xlink:href="#Meiryo-30" transform="translate(62.109375 0)"/>
       <use xlink:href="#Meiryo-2e" transform="translate(124.21875 0)"/>
       <use xlink:href="#Meiryo-30" transform="translate(159.130859 0)"/>
      </g>
     </g>
    </g>
    <g id="text_17">
     <!-- CS_ACTUAL -->
     <g transform="translate(18.719196 187.465402) rotate(-90) scale(0.1 -0.1)">
      <defs>
       <path id="Meiryo-43" d="M 2544 -84 
Q 1488 -84 889 553 
Q 291 1191 291 2350 
Q 291 3488 898 4141 
Q 1506 4794 2547 4794 
Q 3294 4794 4103 4372 
L 4103 3688 
L 4059 3688 
Q 3325 4303 2509 4303 
Q 1766 4303 1331 3786 
Q 897 3269 897 2350 
Q 897 1438 1339 923 
Q 1781 409 2516 409 
Q 2913 409 3272 536 
Q 3631 663 4059 1031 
L 4103 1031 
L 4103 344 
Q 3503 59 3170 -12 
Q 2838 -84 2544 -84 
z
" transform="scale(0.015625)"/>
       <path id="Meiryo-53" d="M 2022 -84 
Q 1228 -84 356 309 
L 356 1019 
L 397 1019 
Q 1116 406 2028 406 
Q 2591 406 2911 636 
Q 3231 866 3231 1247 
Q 3231 1541 3095 1708 
Q 2959 1875 2622 1969 
L 1572 2181 
Q 988 2303 686 2623 
Q 384 2944 384 3456 
Q 384 4038 853 4416 
Q 1322 4794 2075 4794 
Q 2863 4794 3650 4447 
L 3650 3763 
L 3606 3763 
Q 2956 4303 2075 4303 
Q 1588 4303 1289 4087 
Q 991 3872 991 3522 
Q 991 2938 1672 2769 
Q 2066 2697 2548 2589 
Q 3031 2481 3239 2364 
Q 3447 2247 3576 2097 
Q 3706 1947 3770 1756 
Q 3834 1566 3834 1334 
Q 3834 722 3337 319 
Q 2841 -84 2022 -84 
z
" transform="scale(0.015625)"/>
       <path id="Meiryo-5f" d="M 3988 -919 
L -13 -919 
L -13 -581 
L 3988 -581 
L 3988 -919 
z
" transform="scale(0.015625)"/>
       <path id="Meiryo-55" d="M 4141 1869 
Q 4141 847 3675 375 
Q 3209 -97 2331 -97 
Q 525 -97 525 1869 
L 525 4709 
L 1106 4709 
L 1106 1816 
Q 1106 1059 1409 726 
Q 1713 394 2331 394 
Q 2941 394 3250 720 
Q 3559 1047 3559 1800 
L 3559 4709 
L 4141 4709 
L 4141 1869 
z
" transform="scale(0.015625)"/>
      </defs>
      <use xlink:href="#Meiryo-43"/>
      <use xlink:href="#Meiryo-53" transform="translate(67.236328 0)"/>
      <use xlink:href="#Meiryo-5f" transform="translate(130.712891 0)"/>
      <use xlink:href="#Meiryo-41" transform="translate(192.822266 0)"/>
      <use xlink:href="#Meiryo-43" transform="translate(260.220703 0)"/>
      <use xlink:href="#Meiryo-54" transform="translate(327.457031 0)"/>
      <use xlink:href="#Meiryo-55" transform="translate(391.03125 0)"/>
      <use xlink:href="#Meiryo-41" transform="translate(463.556641 0)"/>
      <use xlink:href="#Meiryo-4c" transform="translate(531.330078 0)"/>
     </g>
    </g>
   </g>
   <g id="line2d_31">
    <path d="M 79.084091 79.376429 
L 94.360163 79.376429 
L 94.360163 79.376429 
L 109.636236 79.376429 
L 109.636236 79.376429 
L 124.912308 79.376429 
L 124.912308 79.376429 
L 140.188381 79.376429 
L 140.188381 79.376429 
L 155.464453 79.376429 
L 155.464453 79.376429 
L 170.740525 79.376429 
L 170.740525 79.376429 
L 186.016598 79.376429 
L 186.016598 79.376429 
L 201.29267 79.376429 
L 201.29267 79.376429 
L 216.568743 79.376429 
L 216.568743 79.376429 
L 231.844815 79.376429 
L 231.844815 79.376429 
L 247.120887 79.376429 
L 247.120887 92.49933 
L 262.39696 92.49933 
L 262.39696 105.622232 
L 277.673032 105.622232 
L 277.673032 118.745134 
L 292.949105 118.745134 
L 292.949105 131.868036 
L 308.225177 131.868036 
L 308.225177 144.990938 
L 323.50125 144.990938 
L 323.50125 158.113839 
L 338.777322 158.113839 
L 338.777322 171.236741 
L 354.053394 171.236741 
L 354.053394 171.236741 
L 369.329467 171.236741 
L 369.329467 184.359643 
L 384.605539 184.359643 
L 384.605539 197.482545 
L 399.881612 197.482545 
L 399.881612 210.605446 
L 415.157684 210.605446 
L 415.157684 223.728348 
L 430.433756 223.728348 
L 430.433756 236.85125 
L 445.709829 236.85125 
L 445.709829 236.85125 
L 460.985901 236.85125 
L 460.985901 236.85125 
L 476.261974 236.85125 
L 476.261974 236.85125 
L 491.538046 236.85125 
L 491.538046 236.85125 
L 506.814118 236.85125 
L 506.814118 236.85125 
L 522.090191 236.85125 
L 522.090191 236.85125 
L 537.366263 236.85125 
L 537.366263 236.85125 
L 552.642336 236.85125 
L 552.642336 236.85125 
L 567.918408 236.85125 
L 567.918408 236.85125 
L 583.194481 236.85125 
L 583.194481 236.85125 
" clip-path="url(#pae54ab3d78)" style="fill: none; stroke: #2b57a8; stroke-width: 2; stroke-linecap: square"/>
   </g>
   <g id="line2d_32">
    <path d="M 79.084091 289.342857 
L 79.084091 26.884821 
" clip-path="url(#pae54ab3d78)" style="fill: none; stroke-dasharray: 1.2,1.98; stroke-dashoffset: 0; stroke: #888888; stroke-width: 1.2"/>
   </g>
   <g id="patch_3">
    <path d="M 53.878571 289.342857 
L 53.878571 26.884821 
" style="fill: none; stroke: #000000; stroke-width: 0.8; stroke-linejoin: miter; stroke-linecap: square"/>
   </g>
   <g id="patch_4">
    <path d="M 608.4 289.342857 
L 608.4 26.884821 
" style="fill: none; stroke: #000000; stroke-width: 0.8; stroke-linejoin: miter; stroke-linecap: square"/>
   </g>
   <g id="patch_5">
    <path d="M 53.878571 289.342857 
L 608.4 289.342857 
" style="fill: none; stroke: #000000; stroke-width: 0.8; stroke-linejoin: miter; stroke-linecap: square"/>
   </g>
   <g id="patch_6">
    <path d="M 53.878571 26.884821 
L 608.4 26.884821 
" style="fill: none; stroke: #000000; stroke-width: 0.8; stroke-linejoin: miter; stroke-linecap: square"/>
   </g>
   <g id="text_18">
    <!-- stst=1 (静止検出 0.22s) -->
    <g style="fill: #555555" transform="translate(77.251747 173.861321) rotate(-90) scale(0.09 -0.09)">
     <defs>
      <path id="Meiryo-74" d="M 1647 -69 
Q 553 -69 553 1134 
L 553 3081 
L 150 3081 
L 150 3531 
L 556 3531 
L 556 4547 
L 1103 4547 
L 1103 3531 
L 2341 3531 
L 2341 3081 
L 1103 3081 
L 1103 1447 
Q 1103 891 1179 727 
Q 1256 563 1412 486 
Q 1569 409 1813 409 
Q 2044 409 2322 522 
L 2341 522 
L 2341 22 
Q 1969 -69 1647 -69 
z
" transform="scale(0.015625)"/>
      <path id="Meiryo-9759" d="M 4225 -369 
L 3513 -369 
L 3459 28 
L 4034 28 
Q 4244 28 4244 225 
L 4244 1156 
L 3219 1156 
L 3219 1528 
L 4244 1528 
L 4244 2275 
L 3050 2281 
L 3050 2647 
L 4244 2641 
L 4244 3344 
L 3434 3344 
L 3434 3691 
L 4538 3691 
Q 4888 4166 5034 4513 
L 3931 4513 
Q 3588 3959 3166 3547 
L 2859 3763 
Q 3553 4559 3866 5375 
L 4316 5275 
Q 4231 5059 4128 4859 
L 5544 4859 
L 5688 4769 
Q 5500 4328 5025 3691 
L 5969 3691 
L 5969 2634 
L 6288 2631 
L 6288 2266 
L 5969 2269 
L 5969 922 
L 5497 922 
L 5497 1156 
L 4722 1156 
L 4722 94 
Q 4722 -122 4583 -245 
Q 4444 -369 4225 -369 
z
M 4722 3344 
L 4722 2638 
L 5497 2634 
L 5497 3344 
L 4722 3344 
z
M 4722 2272 
L 4722 1528 
L 5497 1528 
L 5497 2269 
L 4722 2272 
z
M 150 3019 
L 150 3363 
L 1341 3363 
L 1341 3816 
L 366 3816 
L 366 4147 
L 1341 4147 
L 1341 4572 
L 275 4572 
L 275 4903 
L 1341 4903 
L 1341 5297 
L 1797 5297 
L 1797 4903 
L 2894 4903 
L 2894 4572 
L 1797 4572 
L 1797 4147 
L 2722 4147 
L 2722 3816 
L 1797 3816 
L 1797 3363 
L 2925 3363 
L 2925 3019 
L 150 3019 
z
M 2247 734 
L 831 734 
L 831 -391 
L 388 -391 
L 388 2613 
L 2709 2613 
L 2709 41 
Q 2709 -141 2559 -252 
Q 2409 -363 2247 -363 
L 1641 -363 
L 1588 34 
L 2019 34 
Q 2247 34 2247 231 
L 2247 734 
z
M 2247 1844 
L 2247 2300 
L 831 2300 
L 831 1844 
L 2247 1844 
z
M 831 1053 
L 2247 1053 
L 2247 1528 
L 831 1528 
L 831 1053 
z
" transform="scale(0.015625)"/>
      <path id="Meiryo-691c" d="M 3919 2888 
L 3919 3497 
L 3122 3497 
L 3122 3838 
Q 2719 3513 2313 3288 
L 2084 3575 
Q 3275 4278 3841 5319 
L 4453 5319 
Q 4678 4881 5270 4387 
Q 5863 3894 6341 3672 
L 6078 3319 
Q 5669 3534 5263 3850 
L 5263 3497 
L 4394 3497 
L 4394 2888 
L 5791 2888 
L 5791 1322 
L 4519 1322 
Q 5044 422 6228 -16 
L 5988 -381 
Q 5381 -144 4901 256 
Q 4422 656 4175 1125 
Q 3969 647 3433 217 
Q 2897 -213 2169 -388 
L 2013 -63 
Q 2669 125 3133 489 
Q 3597 853 3800 1322 
L 2559 1322 
L 2559 2888 
L 3919 2888 
z
M 3144 3856 
L 5259 3856 
Q 4563 4397 4166 4959 
Q 3747 4344 3144 3856 
z
M 5341 2556 
L 4394 2556 
L 4394 1663 
L 5341 1663 
L 5341 2556 
z
M 3919 2556 
L 3009 2556 
L 3009 1663 
L 3919 1663 
L 3919 2556 
z
M 316 1041 
L 41 1269 
Q 347 1684 673 2440 
Q 1000 3197 1116 3731 
L 316 3731 
L 316 4097 
L 1166 4097 
L 1166 5309 
L 1628 5309 
L 1628 4097 
L 2184 4097 
L 2184 3731 
L 1628 3731 
L 1628 3072 
Q 1831 2809 2294 2372 
L 2047 2006 
Q 1866 2191 1628 2519 
L 1628 -400 
L 1166 -400 
L 1166 2578 
Q 794 1650 316 1041 
z
" transform="scale(0.015625)"/>
      <path id="Meiryo-51fa" d="M 503 -309 
L 503 2209 
L 981 2209 
L 981 375 
L 2863 375 
L 2866 2744 
L 806 2744 
L 806 4822 
L 1300 4822 
L 1300 3116 
L 2866 3116 
L 2869 5213 
L 3363 5213 
L 3363 3116 
L 4975 3116 
L 4975 4822 
L 5478 4822 
L 5478 2744 
L 3359 2744 
L 3356 375 
L 5347 375 
L 5347 2209 
L 5844 2209 
L 5844 -309 
L 5347 -309 
L 5347 -9 
L 981 -9 
L 981 -309 
L 503 -309 
z
" transform="scale(0.015625)"/>
     </defs>
     <use xlink:href="#Meiryo-73"/>
     <use xlink:href="#Meiryo-74" transform="translate(49.804688 0)"/>
     <use xlink:href="#Meiryo-73" transform="translate(87.695312 0)"/>
     <use xlink:href="#Meiryo-74" transform="translate(137.5 0)"/>
     <use xlink:href="#Meiryo-3d" transform="translate(175.390625 0)"/>
     <use xlink:href="#Meiryo-31" transform="translate(255.761719 0)"/>
     <use xlink:href="#Meiryo-20" transform="translate(317.871094 0)"/>
     <use xlink:href="#Meiryo-28" transform="translate(351.855469 0)"/>
     <use xlink:href="#Meiryo-9759" transform="translate(395.800781 0)"/>
     <use xlink:href="#Meiryo-6b62" transform="translate(495.800781 0)"/>
     <use xlink:href="#Meiryo-691c" transform="translate(595.800781 0)"/>
     <use xlink:href="#Meiryo-51fa" transform="translate(695.800781 0)"/>
     <use xlink:href="#Meiryo-20" transform="translate(795.800781 0)"/>
     <use xlink:href="#Meiryo-30" transform="translate(829.785156 0)"/>
     <use xlink:href="#Meiryo-2e" transform="translate(891.894531 0)"/>
     <use xlink:href="#Meiryo-32" transform="translate(926.806641 0)"/>
     <use xlink:href="#Meiryo-32" transform="translate(988.916016 0)"/>
     <use xlink:href="#Meiryo-73" transform="translate(1051.025391 0)"/>
     <use xlink:href="#Meiryo-29" transform="translate(1100.830078 0)"/>
    </g>
   </g>
   <g id="text_19">
    <!-- IRUN=16 (走行電流) -->
    <g style="fill: #2b57a8" transform="translate(82.400607 74.127268) scale(0.1 -0.1)">
     <defs>
      <path id="Meiryo-8d70" d="M 1441 713 
Q 1081 41 450 -391 
L 178 -97 
Q 1316 788 1409 2409 
L 1894 2378 
Q 1831 1653 1616 1094 
Q 2153 484 2925 313 
L 2925 2875 
L 347 2875 
L 347 3259 
L 2925 3259 
L 2925 4188 
L 778 4188 
L 778 4578 
L 2925 4578 
L 2925 5356 
L 3416 5356 
L 3416 4578 
L 5622 4578 
L 5622 4188 
L 3416 4188 
L 3416 3259 
L 6113 3259 
L 6113 2875 
L 3416 2875 
L 3416 1953 
L 5581 1953 
L 5581 1550 
L 3416 1550 
L 3416 216 
Q 3875 153 4847 153 
L 4872 153 
Q 5838 153 6275 159 
L 6169 -266 
L 5684 -266 
Q 4013 -266 3364 -189 
Q 2716 -113 2239 120 
Q 1763 353 1441 713 
z
" transform="scale(0.015625)"/>
      <path id="Meiryo-884c" d="M 469 3522 
L 203 3834 
Q 953 4363 1528 5253 
L 1991 5081 
Q 1688 4634 1252 4187 
Q 816 3741 469 3522 
z
M 2703 4594 
L 2703 4991 
L 5913 4991 
L 5913 4594 
L 2703 4594 
z
M 1156 -403 
L 1156 2172 
Q 738 1688 353 1375 
L 50 1656 
Q 544 2075 1026 2719 
Q 1509 3363 1763 3881 
L 2231 3750 
Q 1950 3206 1472 2569 
L 1650 2569 
L 1650 -403 
L 1156 -403 
z
M 4484 -316 
L 3513 -316 
L 3459 141 
L 4238 141 
Q 4497 141 4497 356 
L 4497 2797 
L 2369 2797 
L 2369 3188 
L 6181 3188 
L 6181 2797 
L 5019 2797 
L 5019 147 
Q 5019 -63 4858 -189 
Q 4697 -316 4484 -316 
z
" transform="scale(0.015625)"/>
      <path id="Meiryo-96fb" d="M 5469 3041 
L 5469 4050 
L 3303 4050 
L 3303 2766 
L 2825 2766 
L 2825 4050 
L 763 4050 
L 763 3041 
L 331 3041 
L 331 4372 
L 2825 4372 
L 2825 4775 
L 731 4775 
L 731 5109 
L 5431 5109 
L 5438 4775 
L 3303 4775 
L 3303 4372 
L 5913 4372 
L 5913 3041 
L 5469 3041 
z
M 1206 3450 
L 1206 3719 
L 2350 3719 
L 2350 3450 
L 1206 3450 
z
M 3784 3450 
L 3784 3719 
L 5006 3719 
L 5006 3450 
L 3784 3450 
z
M 1206 2856 
L 1206 3125 
L 2350 3125 
L 2350 2856 
L 1206 2856 
z
M 3784 2856 
L 3784 3125 
L 5006 3125 
L 5006 2856 
L 3784 2856 
z
M 1163 619 
L 1163 350 
L 719 350 
L 719 2516 
L 5484 2516 
L 5484 619 
L 3309 619 
L 3309 344 
Q 3309 228 3371 162 
Q 3434 97 3551 81 
Q 3669 66 3928 52 
Q 4188 38 4453 38 
Q 4766 38 5111 56 
Q 5456 75 5545 86 
Q 5634 97 5701 150 
Q 5769 203 5801 306 
Q 5834 409 5850 956 
L 6259 897 
L 6259 200 
Q 6259 69 6198 -31 
Q 6138 -131 6038 -192 
Q 5938 -253 5830 -278 
Q 5722 -303 5230 -317 
Q 4738 -331 4316 -331 
Q 3525 -331 3278 -295 
Q 3031 -259 2925 -132 
Q 2819 -6 2819 219 
L 2819 619 
L 1163 619 
z
M 1181 1713 
L 2819 1713 
L 2819 2203 
L 1181 2203 
L 1181 1713 
z
M 3303 1713 
L 5019 1713 
L 5019 2203 
L 3303 2203 
L 3303 1713 
z
M 5019 1413 
L 3303 1413 
L 3303 938 
L 5019 938 
L 5019 1413 
z
M 2819 1413 
L 1181 1413 
L 1181 938 
L 2819 938 
L 2819 1413 
z
" transform="scale(0.015625)"/>
      <path id="Meiryo-6d41" d="M 2375 3075 
Q 2744 3731 2963 4259 
L 1766 4259 
L 1766 4650 
L 3563 4650 
L 3563 5316 
L 4063 5316 
L 4063 4650 
L 5969 4650 
L 5969 4259 
L 3497 4259 
Q 3166 3584 2878 3100 
Q 4281 3172 5075 3241 
Q 4825 3606 4631 3853 
L 5044 4025 
Q 5456 3531 5975 2738 
L 5531 2550 
Q 5434 2706 5309 2894 
Q 4419 2788 1844 2647 
L 1766 3050 
Q 1913 3053 2375 3075 
z
M 1184 3991 
Q 831 4366 303 4834 
L 616 5166 
Q 1288 4600 1525 4350 
L 1184 3991 
z
M 1016 2541 
Q 506 3066 134 3378 
L 453 3709 
Q 841 3416 1363 2906 
L 1016 2541 
z
M 4578 2406 
L 5044 2406 
L 5044 297 
Q 5044 69 5297 69 
Q 5466 69 5525 94 
Q 5584 119 5618 181 
Q 5653 244 5672 437 
Q 5691 631 5691 1000 
L 6063 938 
L 6063 178 
Q 6063 9 5986 -100 
Q 5909 -209 5771 -251 
Q 5634 -294 5350 -294 
Q 5103 -294 4940 -272 
Q 4778 -250 4678 -136 
Q 4578 -22 4578 178 
L 4578 2406 
z
M 3431 -284 
L 3431 2353 
L 3894 2353 
L 3894 -284 
L 3431 -284 
z
M 1681 -403 
L 1441 -134 
Q 1725 72 1923 375 
Q 2122 678 2195 972 
Q 2269 1266 2269 1666 
L 2269 2334 
L 2738 2334 
L 2738 1766 
Q 2738 975 2475 462 
Q 2213 -50 1681 -403 
z
M 650 -181 
L 244 106 
Q 494 453 784 1065 
Q 1075 1678 1219 2125 
L 1628 1981 
Q 1484 1491 1198 850 
Q 913 209 650 -181 
z
" transform="scale(0.015625)"/>
     </defs>
     <use xlink:href="#Meiryo-49"/>
     <use xlink:href="#Meiryo-52" transform="translate(40.332031 0)"/>
     <use xlink:href="#Meiryo-55" transform="translate(108.59375 0)"/>
     <use xlink:href="#Meiryo-4e" transform="translate(181.494141 0)"/>
     <use xlink:href="#Meiryo-3d" transform="translate(255.615234 0)"/>
     <use xlink:href="#Meiryo-31" transform="translate(335.986328 0)"/>
     <use xlink:href="#Meiryo-36" transform="translate(398.095703 0)"/>
     <use xlink:href="#Meiryo-20" transform="translate(460.205078 0)"/>
     <use xlink:href="#Meiryo-28" transform="translate(494.189453 0)"/>
     <use xlink:href="#Meiryo-8d70" transform="translate(538.134766 0)"/>
     <use xlink:href="#Meiryo-884c" transform="translate(638.134766 0)"/>
     <use xlink:href="#Meiryo-96fb" transform="translate(738.134766 0)"/>
     <use xlink:href="#Meiryo-6d41" transform="translate(838.134766 0)"/>
     <use xlink:href="#Meiryo-29" transform="translate(938.134766 0)"/>
    </g>
   </g>
   <g id="text_20">
    <!-- IHOLD=4 (保持電流) -->
    <g style="fill: #2b57a8" transform="translate(451.714732 230.289799) scale(0.1 -0.1)">
     <defs>
      <path id="Meiryo-4fdd" d="M 1059 -403 
L 1059 2903 
Q 738 2369 347 1916 
L 41 2163 
Q 494 2744 964 3683 
Q 1434 4622 1600 5328 
L 2069 5244 
Q 1881 4481 1384 3500 
L 1541 3500 
L 1541 -403 
L 1059 -403 
z
M 1763 -141 
L 1563 184 
Q 2184 503 2732 978 
Q 3281 1453 3553 1875 
L 1869 1875 
L 1869 2263 
L 3663 2263 
L 3663 3000 
L 2234 3000 
L 2234 4991 
L 5669 4991 
L 5669 3000 
L 4159 3000 
L 4159 2263 
L 6047 2263 
L 6047 1875 
L 4234 1875 
Q 4488 1500 5113 1012 
Q 5738 525 6372 244 
L 6113 -128 
Q 5591 113 5039 531 
Q 4488 950 4147 1369 
L 4147 -403 
L 3678 -403 
L 3678 1344 
Q 2991 472 1763 -141 
z
M 5178 4638 
L 2725 4638 
L 2725 3366 
L 5178 3366 
L 5178 4638 
z
" transform="scale(0.015625)"/>
      <path id="Meiryo-6301" d="M 4769 -350 
L 3966 -350 
L 3913 100 
L 4566 100 
Q 4675 100 4761 173 
Q 4847 247 4847 341 
L 4847 1791 
L 2431 1791 
L 2431 2175 
L 4847 2175 
L 4847 2894 
L 2319 2894 
L 2319 3278 
L 3947 3278 
L 3947 4147 
L 2569 4147 
L 2569 4541 
L 3947 4541 
L 3947 5316 
L 4447 5316 
L 4447 4541 
L 5916 4541 
L 5916 4147 
L 4447 4147 
L 4447 3278 
L 6153 3278 
L 6153 2894 
L 5350 2894 
L 5350 2175 
L 5981 2175 
L 5981 1791 
L 5350 1791 
L 5350 125 
Q 5350 -88 5178 -219 
Q 5006 -350 4769 -350 
z
M 1094 -397 
L 363 -397 
L 303 34 
L 872 34 
Q 1106 34 1106 238 
L 1106 1981 
Q 581 1781 244 1681 
L 119 2103 
Q 425 2178 1106 2428 
L 1106 3750 
L 291 3750 
L 291 4134 
L 1106 4134 
L 1106 5291 
L 1603 5291 
L 1603 4134 
L 2191 4134 
L 2191 3750 
L 1603 3750 
L 1603 2616 
Q 1953 2756 2131 2841 
L 2228 2478 
Q 2022 2359 1603 2181 
L 1603 41 
Q 1603 -150 1447 -273 
Q 1291 -397 1094 -397 
z
M 3431 303 
Q 3222 594 2619 1341 
L 2994 1588 
Q 3419 1125 3834 572 
L 3431 303 
z
" transform="scale(0.015625)"/>
     </defs>
     <use xlink:href="#Meiryo-49"/>
     <use xlink:href="#Meiryo-48" transform="translate(40.332031 0)"/>
     <use xlink:href="#Meiryo-4f" transform="translate(114.648438 0)"/>
     <use xlink:href="#Meiryo-4c" transform="translate(190.869141 0)"/>
     <use xlink:href="#Meiryo-44" transform="translate(246.533203 0)"/>
     <use xlink:href="#Meiryo-3d" transform="translate(321.386719 0)"/>
     <use xlink:href="#Meiryo-34" transform="translate(401.757812 0)"/>
     <use xlink:href="#Meiryo-20" transform="translate(463.867188 0)"/>
     <use xlink:href="#Meiryo-28" transform="translate(497.851562 0)"/>
     <use xlink:href="#Meiryo-4fdd" transform="translate(541.796875 0)"/>
     <use xlink:href="#Meiryo-6301" transform="translate(641.796875 0)"/>
     <use xlink:href="#Meiryo-96fb" transform="translate(741.796875 0)"/>
     <use xlink:href="#Meiryo-6d41" transform="translate(841.796875 0)"/>
     <use xlink:href="#Meiryo-29" transform="translate(941.796875 0)"/>
    </g>
   </g>
   <g id="text_21">
    <!-- 停止後の電流退避: IRUN → (TPOWERDOWN待ち) → IHOLDへ階段降下 -->
    <g transform="translate(131.177098 20.884821) scale(0.12 -0.12)">
     <defs>
      <path id="Meiryo-5f8c" d="M 2809 1484 
Q 2434 1159 2078 944 
L 1838 1238 
Q 2278 1516 2690 1906 
Q 3103 2297 3288 2616 
Q 2584 2581 2144 2569 
L 2084 2959 
L 2169 2959 
Q 2541 2959 3200 2984 
Q 3356 3122 3544 3309 
Q 3472 3375 2253 4384 
L 2600 4672 
L 2872 4450 
Q 3316 4963 3572 5388 
L 4044 5219 
Q 3622 4641 3188 4188 
L 3853 3631 
Q 4572 4403 4950 4966 
L 5406 4763 
Q 4778 3938 3797 3009 
Q 4656 3053 5306 3116 
Q 5125 3378 4963 3559 
L 5344 3763 
Q 5866 3144 6172 2634 
L 5741 2438 
Q 5669 2569 5531 2781 
Q 4906 2709 3809 2644 
Q 3666 2400 3419 2100 
L 5663 2100 
L 5838 1934 
Q 5441 1184 4584 569 
Q 5309 209 6238 34 
L 6009 -363 
Q 4944 -141 4159 297 
Q 3216 -241 2113 -409 
L 1994 -50 
Q 2997 134 3763 547 
Q 3184 953 2809 1484 
z
M 4181 797 
Q 4759 1178 5153 1734 
L 3150 1734 
Q 3531 1209 4181 797 
z
M 466 3575 
L 197 3875 
Q 1153 4622 1550 5278 
L 1994 5100 
Q 1700 4672 1264 4237 
Q 828 3803 466 3575 
z
M 1138 -409 
L 1138 2203 
Q 666 1659 328 1388 
L 41 1681 
Q 450 2019 976 2695 
Q 1503 3372 1772 3919 
L 2234 3756 
Q 1900 3159 1450 2581 
L 1616 2581 
L 1616 -409 
L 1138 -409 
z
" transform="scale(0.015625)"/>
      <path id="Meiryo-9000" d="M 1594 4169 
L 1156 3900 
Q 884 4394 406 4978 
L 803 5225 
Q 1306 4603 1594 4169 
z
M 6138 838 
L 5903 459 
Q 4097 1147 3488 2809 
L 2822 2809 
L 2822 1044 
Q 3844 1178 4309 1275 
L 4309 878 
Q 3841 763 2084 544 
L 1994 950 
L 2338 984 
L 2338 5100 
L 5466 5100 
L 5466 2809 
L 3978 2809 
Q 4200 2284 4513 1906 
Q 5253 2263 5753 2634 
L 6066 2313 
Q 5597 1991 4791 1619 
Q 5394 1097 6138 838 
z
M 4988 4741 
L 2822 4741 
L 2822 4122 
L 4988 4122 
L 4988 4741 
z
M 4988 3163 
L 4988 3781 
L 2822 3781 
L 2822 3163 
L 4988 3163 
z
M 6197 -259 
Q 5503 -266 3659 -266 
Q 2578 -266 2042 -89 
Q 1506 88 1294 459 
Q 775 -72 269 -319 
L 100 100 
Q 275 178 579 376 
Q 884 575 1019 700 
L 1019 2613 
L 191 2613 
L 191 3000 
L 1509 3000 
L 1509 994 
Q 1509 700 1715 514 
Q 1922 328 2200 264 
Q 2478 200 2722 165 
Q 2966 131 4138 131 
Q 5650 131 6288 172 
L 6197 -259 
z
" transform="scale(0.015625)"/>
      <path id="Meiryo-907f" d="M 4747 400 
L 4747 1778 
L 4016 1778 
L 4016 2131 
L 4747 2131 
L 4747 2875 
L 3919 2875 
L 3919 3228 
L 4384 3228 
L 4169 4331 
L 3913 4331 
L 3913 4669 
L 4747 4669 
L 4747 5291 
L 5197 5291 
L 5197 4669 
L 6041 4669 
L 6041 4331 
L 5781 4331 
L 5503 3228 
L 6059 3228 
L 6059 2875 
L 5197 2875 
L 5197 2131 
L 5988 2131 
L 5988 1778 
L 5197 1778 
L 5197 400 
L 4747 400 
z
M 4759 3228 
L 5153 3228 
L 5388 4331 
L 4556 4331 
L 4759 3228 
z
M 1163 3906 
Q 872 4400 425 4975 
L 838 5238 
Q 1288 4659 1588 4175 
L 1163 3906 
z
M 2803 772 
L 2803 563 
L 2438 563 
L 2438 2478 
L 2378 2300 
Q 2266 1647 1906 1119 
L 1641 1294 
Q 2156 2222 2156 3344 
L 2156 5141 
L 3656 5141 
L 3656 3416 
L 2559 3416 
Q 2556 3059 2506 2763 
L 3747 2763 
L 3747 772 
L 2803 772 
z
M 2559 3738 
L 3247 3738 
L 3247 4825 
L 2559 4825 
L 2559 3738 
z
M 3375 2456 
L 2803 2456 
L 2803 1084 
L 3375 1084 
L 3375 2456 
z
M 6203 -259 
L 5003 -263 
Q 4019 -263 3455 -252 
Q 2891 -241 2669 -220 
Q 2447 -200 2122 -134 
Q 1491 78 1331 425 
Q 794 -91 309 -331 
L 125 119 
Q 297 191 600 392 
Q 903 594 1038 719 
L 1038 2594 
L 244 2594 
L 244 2991 
L 1497 2991 
L 1497 988 
Q 1497 719 1683 539 
Q 1869 359 2161 276 
Q 2453 194 2754 164 
Q 3056 134 4206 134 
Q 5703 134 6294 178 
L 6203 -259 
z
" transform="scale(0.015625)"/>
      <path id="Meiryo-3a" d="M 1731 2678 
L 1022 2678 
L 1022 3531 
L 1731 3531 
L 1731 2678 
z
M 1731 0 
L 1022 0 
L 1022 853 
L 1731 853 
L 1731 0 
z
" transform="scale(0.015625)"/>
      <path id="Meiryo-2192" d="M 184 2203 
L 184 2569 
L 5522 2569 
L 4128 3872 
L 4641 3872 
L 6247 2394 
L 4672 834 
L 4141 834 
L 5528 2203 
L 184 2203 
z
" transform="scale(0.015625)"/>
      <path id="Meiryo-5f85" d="M 6166 2959 
L 5316 2959 
L 5316 2156 
L 6028 2156 
L 6028 1753 
L 5316 1753 
L 5316 166 
Q 5316 -50 5145 -190 
Q 4975 -331 4744 -331 
L 3934 -331 
L 3881 106 
L 4534 106 
Q 4644 106 4730 181 
Q 4816 256 4816 350 
L 4816 1753 
L 2156 1753 
L 2156 2156 
L 4816 2156 
L 4816 2959 
L 2203 2959 
L 2203 3359 
L 3847 3359 
L 3847 4188 
L 2438 4188 
L 2438 4578 
L 3847 4578 
L 3847 5303 
L 4350 5303 
L 4350 4578 
L 5884 4578 
L 5884 4188 
L 4350 4188 
L 4350 3359 
L 6166 3359 
L 6166 2959 
z
M 1934 5147 
Q 1691 4738 1272 4303 
Q 853 3869 453 3613 
L 194 3900 
Q 1013 4538 1491 5297 
L 1934 5147 
z
M 2203 3769 
Q 1913 3247 1397 2581 
L 1603 2581 
L 1603 -409 
L 1113 -409 
L 1113 2231 
Q 650 1688 344 1425 
L 56 1719 
Q 531 2163 1075 2897 
Q 1619 3631 1753 3925 
L 2203 3769 
z
M 3641 538 
L 3234 256 
Q 2803 850 2419 1294 
L 2816 1556 
Q 3269 1047 3641 538 
z
" transform="scale(0.015625)"/>
      <path id="Meiryo-3061" d="M 1888 -184 
L 1869 263 
Q 2463 197 3113 197 
Q 4041 194 4639 491 
Q 5238 788 5238 1350 
Q 5238 1659 5138 1834 
Q 5038 2009 4739 2168 
Q 4441 2328 3931 2328 
Q 3281 2325 2561 2078 
Q 1841 1831 1441 1447 
L 1128 1753 
Q 1753 2556 1978 3700 
L 403 3700 
L 403 4116 
L 2047 4116 
Q 2125 4659 2125 5031 
L 2638 5025 
Q 2619 4547 2566 4116 
L 6028 4116 
L 6028 3700 
L 2497 3700 
Q 2363 2922 1934 2222 
Q 2338 2441 2903 2575 
Q 3469 2709 3959 2709 
Q 4734 2709 5237 2356 
Q 5741 2003 5741 1375 
Q 5741 578 5047 170 
Q 4353 -238 3106 -238 
Q 2413 -238 1888 -184 
z
" transform="scale(0.015625)"/>
      <path id="Meiryo-3078" d="M 6363 684 
L 6016 269 
Q 5497 681 5015 1161 
Q 4534 1641 3209 3116 
L 2734 3681 
Q 2678 3744 2591 3744 
Q 2478 3744 2406 3653 
Q 2031 3075 1498 2370 
Q 966 1666 422 1081 
L 109 1428 
Q 934 2281 1769 3513 
Q 1966 3831 2053 3942 
Q 2141 4053 2275 4122 
Q 2409 4191 2581 4191 
Q 2891 4191 3131 3916 
Q 3738 3188 4647 2234 
Q 5556 1281 6363 684 
z
" transform="scale(0.015625)"/>
      <path id="Meiryo-968e" d="M 4288 5266 
L 4731 5266 
L 4731 4500 
Q 5406 4703 5853 4944 
L 6097 4619 
Q 5556 4372 4731 4169 
L 4731 3475 
Q 4731 3384 4775 3332 
Q 4819 3281 4895 3270 
Q 4972 3259 5306 3259 
Q 5528 3259 5581 3268 
Q 5634 3278 5707 3323 
Q 5781 3369 5811 3569 
Q 5841 3769 5841 4006 
L 6200 3953 
L 6200 3366 
Q 6200 3109 6020 2995 
Q 5841 2881 5188 2881 
Q 4950 2881 4734 2906 
Q 4519 2931 4403 3045 
Q 4288 3159 4288 3331 
L 4288 5266 
z
M 2375 2803 
L 2297 3156 
Q 2438 3178 2656 3216 
L 2656 5253 
L 3106 5253 
L 3106 4606 
L 3928 4606 
L 3928 4259 
L 3106 4259 
L 3106 3303 
Q 3572 3397 3988 3491 
L 4006 3156 
Q 3616 3038 2375 2803 
z
M 1825 3259 
Q 1856 3222 2037 2905 
Q 2219 2588 2284 2328 
Q 2350 2069 2350 1850 
L 2350 1825 
Q 2350 1597 2306 1395 
Q 2263 1194 2184 1055 
Q 2106 916 1989 828 
Q 1872 741 1739 711 
Q 1606 681 1341 681 
L 1194 681 
L 1122 1088 
Q 1397 1088 1515 1095 
Q 1634 1103 1717 1172 
Q 1800 1241 1845 1403 
Q 1891 1566 1891 1813 
Q 1891 2156 1744 2543 
Q 1597 2931 1409 3175 
L 1409 3181 
Q 1409 3191 1397 3231 
Q 1381 3272 1381 3281 
Q 1497 3556 1655 4065 
Q 1813 4575 1813 4697 
L 931 4697 
L 931 -416 
L 481 -416 
L 481 5100 
L 2297 5100 
L 2388 4978 
Q 2309 4641 2117 4034 
Q 1925 3428 1825 3259 
z
M 5306 -128 
L 3094 -128 
L 3094 -350 
L 2628 -350 
L 2628 2359 
L 3725 2359 
L 3922 2869 
Q 4013 2850 4384 2797 
Q 4288 2566 4181 2359 
L 5781 2359 
L 5781 -338 
L 5306 -338 
L 5306 -128 
z
M 5306 1341 
L 5306 2013 
L 3094 2013 
L 3094 1341 
L 5306 1341 
z
M 3094 250 
L 5306 250 
L 5306 997 
L 3094 997 
L 3094 250 
z
" transform="scale(0.015625)"/>
      <path id="Meiryo-6bb5" d="M 256 513 
L 159 922 
Q 328 944 669 997 
L 669 4913 
Q 1897 5059 2638 5322 
L 2847 4978 
Q 2141 4750 1131 4606 
L 1131 3853 
L 2666 3853 
L 2666 3488 
L 1131 3488 
L 1131 2556 
L 2625 2556 
L 2625 2191 
L 1131 2191 
L 1131 1072 
Q 2203 1256 2738 1388 
L 2756 1022 
Q 2297 894 1131 672 
L 1131 -391 
L 669 -391 
L 669 588 
L 256 513 
z
M 6172 3409 
Q 6172 3306 6103 3217 
Q 6034 3128 5928 3076 
Q 5822 3025 5494 3025 
Q 5369 3025 5231 3036 
Q 5094 3047 5014 3058 
Q 4934 3069 4865 3130 
Q 4797 3191 4756 3269 
Q 4716 3347 4716 3428 
L 4716 4769 
L 3678 4769 
L 3678 4559 
Q 3678 3988 3486 3519 
Q 3294 3050 2978 2797 
L 2684 3050 
Q 3206 3541 3206 4494 
L 3206 5122 
L 5184 5122 
L 5184 3588 
Q 5184 3425 5353 3397 
L 5550 3397 
Q 5647 3397 5700 3450 
Q 5753 3503 5764 3600 
Q 5775 3697 5791 4122 
L 6172 4081 
L 6172 3409 
z
M 4884 613 
Q 5375 300 6228 3 
L 5975 -381 
Q 5209 -128 4541 344 
Q 3697 -225 2797 -403 
L 2606 -50 
Q 3541 172 4188 619 
Q 3816 941 3552 1416 
Q 3288 1891 3244 2181 
L 2972 2181 
L 2972 2556 
L 5813 2556 
Q 5772 1441 4916 644 
L 4884 613 
z
M 4525 888 
Q 5194 1488 5291 2181 
L 3700 2181 
Q 3909 1456 4506 903 
L 4525 888 
z
" transform="scale(0.015625)"/>
      <path id="Meiryo-964d" d="M 3178 4191 
Q 2834 3831 2544 3653 
L 2309 3906 
Q 3050 4488 3472 5309 
L 3928 5225 
Q 3841 5041 3716 4853 
L 5509 4853 
L 5709 4691 
Q 5428 3978 4669 3403 
Q 5400 3041 6169 2906 
L 5966 2534 
Q 4959 2763 4294 3150 
Q 3553 2713 2544 2509 
L 2400 2844 
Q 3291 3034 3928 3394 
Q 3481 3731 3178 4191 
z
M 3463 4513 
L 3450 4497 
Q 3781 3963 4294 3619 
Q 4803 3966 5097 4513 
L 3463 4513 
z
M 1781 3403 
Q 1800 3388 1998 3047 
Q 2197 2706 2256 2439 
Q 2316 2172 2316 1934 
L 2316 1922 
Q 2316 1616 2250 1386 
Q 2184 1156 2056 1015 
Q 1928 875 1753 823 
Q 1578 772 1216 772 
L 1194 772 
L 1134 1172 
Q 1422 1172 1517 1192 
Q 1613 1213 1697 1298 
Q 1781 1384 1823 1537 
Q 1866 1691 1866 1909 
Q 1866 2247 1709 2650 
Q 1553 3053 1363 3300 
Q 1363 3313 1356 3350 
Q 1350 3384 1350 3397 
Q 1788 4556 1788 4806 
L 966 4806 
L 966 -403 
L 516 -403 
L 516 5153 
L 2278 5153 
L 2356 5063 
Q 2284 4781 2079 4176 
Q 1875 3572 1781 3403 
z
M 3000 813 
L 3000 1831 
L 2753 1831 
L 2753 2197 
L 4463 2197 
L 4463 2641 
L 4947 2641 
L 4947 2197 
L 5750 2197 
L 5750 1831 
L 4947 1831 
L 4947 813 
L 5931 813 
L 5931 441 
L 4947 441 
L 4947 -403 
L 4463 -403 
L 4463 441 
L 2334 441 
L 2334 813 
L 3000 813 
z
M 3444 1831 
L 3444 813 
L 4463 813 
L 4463 1831 
L 3444 1831 
z
" transform="scale(0.015625)"/>
      <path id="Meiryo-4e0b" d="M 2672 -419 
L 2672 4497 
L 334 4497 
L 334 4909 
L 6041 4909 
L 6041 4497 
L 3181 4497 
L 3181 3334 
Q 3634 3056 4315 2722 
Q 4997 2388 5363 2259 
L 5113 1841 
Q 4259 2184 3181 2825 
L 3181 -419 
L 2672 -419 
z
" transform="scale(0.015625)"/>
     </defs>
     <use xlink:href="#Meiryo-505c"/>
     <use xlink:href="#Meiryo-6b62" transform="translate(100 0)"/>
     <use xlink:href="#Meiryo-5f8c" transform="translate(200 0)"/>
     <use xlink:href="#Meiryo-306e" transform="translate(300 0)"/>
     <use xlink:href="#Meiryo-96fb" transform="translate(400 0)"/>
     <use xlink:href="#Meiryo-6d41" transform="translate(500 0)"/>
     <use xlink:href="#Meiryo-9000" transform="translate(600 0)"/>
     <use xlink:href="#Meiryo-907f" transform="translate(700 0)"/>
     <use xlink:href="#Meiryo-3a" transform="translate(800 0)"/>
     <use xlink:href="#Meiryo-20" transform="translate(842.96875 0)"/>
     <use xlink:href="#Meiryo-49" transform="translate(876.953125 0)"/>
     <use xlink:href="#Meiryo-52" transform="translate(917.285156 0)"/>
     <use xlink:href="#Meiryo-55" transform="translate(985.546875 0)"/>
     <use xlink:href="#Meiryo-4e" transform="translate(1058.447266 0)"/>
     <use xlink:href="#Meiryo-20" transform="translate(1132.568359 0)"/>
     <use xlink:href="#Meiryo-2192" transform="translate(1166.552734 0)"/>
     <use xlink:href="#Meiryo-20" transform="translate(1266.552734 0)"/>
     <use xlink:href="#Meiryo-28" transform="translate(1300.537109 0)"/>
     <use xlink:href="#Meiryo-54" transform="translate(1344.482422 0)"/>
     <use xlink:href="#Meiryo-50" transform="translate(1408.056641 0)"/>
     <use xlink:href="#Meiryo-4f" transform="translate(1467.626953 0)"/>
     <use xlink:href="#Meiryo-57" transform="translate(1543.847656 0)"/>
     <use xlink:href="#Meiryo-45" transform="translate(1643.994141 0)"/>
     <use xlink:href="#Meiryo-52" transform="translate(1705.761719 0)"/>
     <use xlink:href="#Meiryo-44" transform="translate(1774.023438 0)"/>
     <use xlink:href="#Meiryo-4f" transform="translate(1848.876953 0)"/>
     <use xlink:href="#Meiryo-57" transform="translate(1925.097656 0)"/>
     <use xlink:href="#Meiryo-4e" transform="translate(2025.244141 0)"/>
     <use xlink:href="#Meiryo-5f85" transform="translate(2099.365234 0)"/>
     <use xlink:href="#Meiryo-3061" transform="translate(2199.365234 0)"/>
     <use xlink:href="#Meiryo-29" transform="translate(2299.365234 0)"/>
     <use xlink:href="#Meiryo-20" transform="translate(2343.310547 0)"/>
     <use xlink:href="#Meiryo-2192" transform="translate(2377.294922 0)"/>
     <use xlink:href="#Meiryo-20" transform="translate(2477.294922 0)"/>
     <use xlink:href="#Meiryo-49" transform="translate(2511.279297 0)"/>
     <use xlink:href="#Meiryo-48" transform="translate(2551.611328 0)"/>
     <use xlink:href="#Meiryo-4f" transform="translate(2625.927734 0)"/>
     <use xlink:href="#Meiryo-4c" transform="translate(2702.148438 0)"/>
     <use xlink:href="#Meiryo-44" transform="translate(2757.8125 0)"/>
     <use xlink:href="#Meiryo-3078" transform="translate(2832.666016 0)"/>
     <use xlink:href="#Meiryo-968e" transform="translate(2932.666016 0)"/>
     <use xlink:href="#Meiryo-6bb5" transform="translate(3032.666016 0)"/>
     <use xlink:href="#Meiryo-964d" transform="translate(3132.666016 0)"/>
     <use xlink:href="#Meiryo-4e0b" transform="translate(3232.666016 0)"/>
    </g>
   </g>
   <g id="legend_1">
    <g id="patch_7">
     <path d="M 446.497031 47.932165 
L 602.1 47.932165 
Q 603.9 47.932165 603.9 46.132165 
L 603.9 33.184821 
Q 603.9 31.384821 602.1 31.384821 
L 446.497031 31.384821 
Q 444.697031 31.384821 444.697031 33.184821 
L 444.697031 46.132165 
Q 444.697031 47.932165 446.497031 47.932165 
z
" style="fill: #ffffff; opacity: 0.8; stroke: #cccccc; stroke-linejoin: miter"/>
    </g>
    <g id="line2d_33">
     <path d="M 448.297031 39.349821 
L 457.297031 39.349821 
L 457.297031 39.349821 
L 466.297031 39.349821 
L 466.297031 39.349821 
" style="fill: none; stroke: #2b57a8; stroke-width: 2; stroke-linecap: square"/>
    </g>
    <g id="text_22">
     <!-- CS_ACTUAL (実電流スケール) -->
     <g transform="translate(473.497031 42.499821) scale(0.09 -0.09)">
      <defs>
       <path id="Meiryo-5b9f" d="M 5519 3797 
L 5519 4475 
L 844 4475 
L 844 3797 
L 400 3797 
L 400 4834 
L 2881 4834 
L 2881 5344 
L 3384 5344 
L 3384 4834 
L 5981 4834 
L 5981 3797 
L 5519 3797 
z
M 2881 1738 
L 2881 2366 
L 813 2366 
L 813 2738 
L 2881 2738 
L 2881 3338 
L 916 3338 
L 916 3725 
L 2881 3725 
L 2881 4134 
L 3397 4134 
L 3397 3725 
L 5453 3725 
L 5453 3338 
L 3397 3338 
L 3397 2738 
L 5575 2738 
L 5575 2366 
L 3397 2366 
L 3397 1738 
L 6072 1738 
L 6072 1353 
L 3600 1353 
Q 4394 397 6094 16 
L 5878 -409 
Q 5072 -266 4325 175 
Q 3578 616 3191 1163 
Q 2831 575 2100 150 
Q 1369 -275 431 -434 
L 275 -56 
Q 1331 153 1948 584 
Q 2566 1016 2750 1353 
L 341 1353 
L 341 1738 
L 2881 1738 
z
" transform="scale(0.015625)"/>
       <path id="Meiryo-30b9" d="M 6228 50 
L 5784 -294 
Q 4928 588 3444 1838 
Q 1891 344 353 -269 
L 116 128 
Q 1403 653 2679 1792 
Q 3956 2931 4469 4281 
L 903 4281 
L 903 4716 
L 5031 4716 
L 5159 4600 
Q 4722 3275 3756 2181 
Q 4713 1434 6228 50 
z
" transform="scale(0.015625)"/>
       <path id="Meiryo-30b1" d="M 4641 3384 
Q 4547 1763 3683 872 
Q 2819 -19 1106 -275 
L 947 159 
Q 2563 413 3286 1214 
Q 4009 2016 4075 3384 
L 1913 3384 
Q 1331 2534 366 1944 
L 91 2297 
Q 881 2816 1387 3553 
Q 1894 4291 2094 5119 
L 2656 5050 
Q 2519 4453 2191 3847 
L 6309 3847 
L 6309 3384 
L 4641 3384 
z
" transform="scale(0.015625)"/>
       <path id="Meiryo-30fc" d="M 5756 2069 
L 588 2069 
L 588 2531 
L 5756 2531 
L 5756 2069 
z
" transform="scale(0.015625)"/>
       <path id="Meiryo-30eb" d="M 6394 2163 
Q 5994 1309 5158 676 
Q 4322 44 3506 -181 
L 3278 31 
L 3278 4897 
L 3803 4897 
L 3803 484 
Q 4319 638 4923 1119 
Q 5528 1600 6003 2438 
L 6394 2163 
z
M 1947 3275 
Q 1947 2538 1881 2073 
Q 1816 1609 1583 1164 
Q 1350 719 997 350 
Q 644 -19 238 -231 
L 6 166 
Q 397 406 728 800 
Q 1059 1194 1237 1731 
Q 1416 2269 1416 3378 
L 1416 4697 
L 1947 4697 
L 1947 3275 
z
" transform="scale(0.015625)"/>
      </defs>
      <use xlink:href="#Meiryo-43"/>
      <use xlink:href="#Meiryo-53" transform="translate(67.236328 0)"/>
      <use xlink:href="#Meiryo-5f" transform="translate(130.712891 0)"/>
      <use xlink:href="#Meiryo-41" transform="translate(192.822266 0)"/>
      <use xlink:href="#Meiryo-43" transform="translate(260.220703 0)"/>
      <use xlink:href="#Meiryo-54" transform="translate(327.457031 0)"/>
      <use xlink:href="#Meiryo-55" transform="translate(391.03125 0)"/>
      <use xlink:href="#Meiryo-41" transform="translate(463.556641 0)"/>
      <use xlink:href="#Meiryo-4c" transform="translate(531.330078 0)"/>
      <use xlink:href="#Meiryo-20" transform="translate(586.994141 0)"/>
      <use xlink:href="#Meiryo-28" transform="translate(620.978516 0)"/>
      <use xlink:href="#Meiryo-5b9f" transform="translate(664.923828 0)"/>
      <use xlink:href="#Meiryo-96fb" transform="translate(764.923828 0)"/>
      <use xlink:href="#Meiryo-6d41" transform="translate(864.923828 0)"/>
      <use xlink:href="#Meiryo-30b9" transform="translate(964.923828 0)"/>
      <use xlink:href="#Meiryo-30b1" transform="translate(1064.923828 0)"/>
      <use xlink:href="#Meiryo-30fc" transform="translate(1164.923828 0)"/>
      <use xlink:href="#Meiryo-30eb" transform="translate(1264.923828 0)"/>
      <use xlink:href="#Meiryo-29" transform="translate(1364.923828 0)"/>
     </g>
    </g>
   </g>
  </g>
 </g>
 <defs>
  <clipPath id="pae54ab3d78">
   <rect x="53.878571" y="26.884821" width="554.521429" height="262.458036"/>
  </clipPath>
 </defs>
</svg>
