<?xml version="1.0" encoding="utf-8" standalone="no"?>
<!DOCTYPE svg PUBLIC "-//W3C//DTD SVG 1.1//EN"
  "http://www.w3.org/Graphics/SVG/1.1/DTD/svg11.dtd">
<svg xmlns:xlink="http://www.w3.org/1999/xlink" width="619.2pt" height="360pt" viewBox="0 0 619.2 360" xmlns="http://www.w3.org/2000/svg" version="1.1">
 <metadata>
  <rdf:RDF xmlns:dc="http://purl.org/dc/elements/1.1/" xmlns:cc="http://creativecommons.org/ns#" xmlns:rdf="http://www.w3.org/1999/02/22-rdf-syntax-ns#">
   <cc:Work>
    <dc:type rdf:resource="http://purl.org/dc/dcmitype/StillImage"/>
    <dc:date>2026-07-05T23:34:34.450682</dc:date>
    <dc:format>image/svg+xml</dc:format>
    <dc:creator>
     <cc:Agent>
      <dc:title>Matplotlib v3.10.9, https://matplotlib.org/</dc:title>
     </cc:Agent>
    </dc:creator>
   </cc:Work>
  </rdf:RDF>
 </metadata>
 <defs>
  <style type="text/css">*{stroke-linejoin: round; stroke-linecap: butt}</style>
 </defs>
 <g id="figure_1">
  <g id="patch_1">
   <path d="M 0 360 
L 619.2 360 
L 619.2 0 
L 0 0 
z
" style="fill: #ffffff"/>
  </g>
  <g id="axes_1">
   <g id="patch_2">
    <path d="M 50.857143 318.657143 
L 608.4 318.657143 
L 608.4 26.057143 
L 50.857143 26.057143 
z
" style="fill: #ffffff"/>
   </g>
   <g id="patch_3">
    <path d="M 166.710204 318.657143 
L 383.934694 318.657143 
L 383.934694 26.057143 
L 166.710204 26.057143 
z
" clip-path="url(#p048fdea780)" style="fill: #e5484d; opacity: 0.1"/>
   </g>
   <g id="FillBetweenPolyCollection_1">
    <defs>
     <path id="mac08e7da0e" d="M 76.2 -166.742857 
L 76.2 -152.25219 
L 112.404082 -203.526857 
L 148.608163 -185.69219 
L 184.812245 -50.817524 
L 221.016327 -49.702857 
L 257.220408 -49.702857 
L 293.42449 -49.702857 
L 329.628571 -49.702857 
L 365.832653 -49.702857 
L 438.240816 -125.50019 
L 510.64898 -197.953524 
L 583.057143 -225.82019 
L 583.057143 -316.10819 
L 583.057143 -316.10819 
L 510.64898 -297.158857 
L 438.240816 -282.66819 
L 365.832653 -210.214857 
L 329.628571 -187.921524 
L 293.42449 -145.56419 
L 257.220408 -313.878857 
L 221.016327 -213.558857 
L 184.812245 -162.28419 
L 148.608163 -239.19619 
L 112.404082 -215.78819 
L 76.2 -166.742857 
z
" style="stroke: #4d7bd6; stroke-opacity: 0.25"/>
    </defs>
    <g clip-path="url(#p048fdea780)">
     <use xlink:href="#mac08e7da0e" x="0" y="360" style="fill: #4d7bd6; fill-opacity: 0.25; stroke: #4d7bd6; stroke-opacity: 0.25"/>
    </g>
   </g>
   <g id="matplotlib.axis_1">
    <g id="xtick_1">
     <g id="line2d_1">
      <path d="M 130.506122 318.657143 
L 130.506122 26.057143 
" clip-path="url(#p048fdea780)" style="fill: none; stroke: #b0b0b0; stroke-opacity: 0.3; stroke-width: 0.8; stroke-linecap: square"/>
     </g>
     <g id="line2d_2">
      <defs>
       <path id="m6ed5aa6bf5" d="M 0 0 
L 0 3.5 
" style="stroke: #000000; stroke-width: 0.8"/>
      </defs>
      <g>
       <use xlink:href="#m6ed5aa6bf5" x="130.506122" y="318.657143" style="stroke: #000000; stroke-width: 0.8"/>
      </g>
     </g>
     <g id="text_1">
      <!-- 5000 -->
      <g transform="translate(118.084247 333.34308) scale(0.1 -0.1)">
       <defs>
        <path id="Meiryo-35" d="M 538 178 
L 538 803 
L 588 803 
Q 1197 406 1856 406 
Q 2363 406 2667 695 
Q 2972 984 2972 1494 
Q 2972 2419 1703 2419 
Q 1341 2419 741 2294 
L 741 4709 
L 3538 4709 
L 3538 4203 
L 1303 4203 
L 1303 2869 
Q 1716 2909 1859 2909 
Q 2700 2909 3134 2546 
Q 3569 2184 3569 1491 
Q 3569 791 3098 347 
Q 2628 -97 1869 -97 
Q 1131 -97 538 178 
z
" transform="scale(0.015625)"/>
        <path id="Meiryo-30" d="M 1991 -97 
Q 1159 -97 768 497 
Q 378 1091 378 2350 
Q 378 3609 770 4206 
Q 1163 4803 1991 4803 
Q 2813 4803 3206 4204 
Q 3600 3606 3600 2356 
Q 3600 1094 3209 498 
Q 2819 -97 1991 -97 
z
M 1991 4325 
Q 1456 4325 1215 3901 
Q 975 3478 975 2350 
Q 975 1231 1215 806 
Q 1456 381 1991 381 
Q 2525 381 2764 806 
Q 3003 1231 3003 2356 
Q 3003 3459 2765 3892 
Q 2528 4325 1991 4325 
z
" transform="scale(0.015625)"/>
       </defs>
       <use xlink:href="#Meiryo-35"/>
       <use xlink:href="#Meiryo-30" transform="translate(62.109375 0)"/>
       <use xlink:href="#Meiryo-30" transform="translate(124.21875 0)"/>
       <use xlink:href="#Meiryo-30" transform="translate(186.328125 0)"/>
      </g>
     </g>
    </g>
    <g id="xtick_2">
     <g id="line2d_3">
      <path d="M 221.016327 318.657143 
L 221.016327 26.057143 
" clip-path="url(#p048fdea780)" style="fill: none; stroke: #b0b0b0; stroke-opacity: 0.3; stroke-width: 0.8; stroke-linecap: square"/>
     </g>
     <g id="line2d_4">
      <g>
       <use xlink:href="#m6ed5aa6bf5" x="221.016327" y="318.657143" style="stroke: #000000; stroke-width: 0.8"/>
      </g>
     </g>
     <g id="text_2">
      <!-- 10000 -->
      <g transform="translate(205.488983 333.34308) scale(0.1 -0.1)">
       <defs>
        <path id="Meiryo-31" d="M 3338 0 
L 831 0 
L 831 431 
L 1813 431 
L 1813 3669 
L 831 3669 
L 831 4050 
Q 1406 4053 1653 4214 
Q 1900 4375 1931 4725 
L 2375 4725 
L 2375 431 
L 3338 431 
L 3338 0 
z
" transform="scale(0.015625)"/>
       </defs>
       <use xlink:href="#Meiryo-31"/>
       <use xlink:href="#Meiryo-30" transform="translate(62.109375 0)"/>
       <use xlink:href="#Meiryo-30" transform="translate(124.21875 0)"/>
       <use xlink:href="#Meiryo-30" transform="translate(186.328125 0)"/>
       <use xlink:href="#Meiryo-30" transform="translate(248.4375 0)"/>
      </g>
     </g>
    </g>
    <g id="xtick_3">
     <g id="line2d_5">
      <path d="M 311.526531 318.657143 
L 311.526531 26.057143 
" clip-path="url(#p048fdea780)" style="fill: none; stroke: #b0b0b0; stroke-opacity: 0.3; stroke-width: 0.8; stroke-linecap: square"/>
     </g>
     <g id="line2d_6">
      <g>
       <use xlink:href="#m6ed5aa6bf5" x="311.526531" y="318.657143" style="stroke: #000000; stroke-width: 0.8"/>
      </g>
     </g>
     <g id="text_3">
      <!-- 15000 -->
      <g transform="translate(295.999187 333.34308) scale(0.1 -0.1)">
       <use xlink:href="#Meiryo-31"/>
       <use xlink:href="#Meiryo-35" transform="translate(62.109375 0)"/>
       <use xlink:href="#Meiryo-30" transform="translate(124.21875 0)"/>
       <use xlink:href="#Meiryo-30" transform="translate(186.328125 0)"/>
       <use xlink:href="#Meiryo-30" transform="translate(248.4375 0)"/>
      </g>
     </g>
    </g>
    <g id="xtick_4">
     <g id="line2d_7">
      <path d="M 402.036735 318.657143 
L 402.036735 26.057143 
" clip-path="url(#p048fdea780)" style="fill: none; stroke: #b0b0b0; stroke-opacity: 0.3; stroke-width: 0.8; stroke-linecap: square"/>
     </g>
     <g id="line2d_8">
      <g>
       <use xlink:href="#m6ed5aa6bf5" x="402.036735" y="318.657143" style="stroke: #000000; stroke-width: 0.8"/>
      </g>
     </g>
     <g id="text_4">
      <!-- 20000 -->
      <g transform="translate(386.509391 333.34308) scale(0.1 -0.1)">
       <defs>
        <path id="Meiryo-32" d="M 3606 0 
L 456 0 
L 456 609 
Q 956 1041 1579 1612 
Q 2203 2184 2506 2618 
Q 2809 3053 2809 3488 
Q 2809 3872 2554 4087 
Q 2300 4303 1863 4303 
Q 1222 4303 603 3897 
L 572 3897 
L 572 4506 
Q 1203 4806 1878 4806 
Q 2591 4806 3000 4461 
Q 3409 4116 3409 3519 
Q 3409 3200 3304 2909 
Q 3200 2619 2978 2344 
Q 2756 2069 2447 1759 
Q 2138 1450 1025 503 
L 3606 503 
L 3606 0 
z
" transform="scale(0.015625)"/>
       </defs>
       <use xlink:href="#Meiryo-32"/>
       <use xlink:href="#Meiryo-30" transform="translate(62.109375 0)"/>
       <use xlink:href="#Meiryo-30" transform="translate(124.21875 0)"/>
       <use xlink:href="#Meiryo-30" transform="translate(186.328125 0)"/>
       <use xlink:href="#Meiryo-30" transform="translate(248.4375 0)"/>
      </g>
     </g>
    </g>
    <g id="xtick_5">
     <g id="line2d_9">
      <path d="M 492.546939 318.657143 
L 492.546939 26.057143 
" clip-path="url(#p048fdea780)" style="fill: none; stroke: #b0b0b0; stroke-opacity: 0.3; stroke-width: 0.8; stroke-linecap: square"/>
     </g>
     <g id="line2d_10">
      <g>
       <use xlink:href="#m6ed5aa6bf5" x="492.546939" y="318.657143" style="stroke: #000000; stroke-width: 0.8"/>
      </g>
     </g>
     <g id="text_5">
      <!-- 25000 -->
      <g transform="translate(477.019595 333.34308) scale(0.1 -0.1)">
       <use xlink:href="#Meiryo-32"/>
       <use xlink:href="#Meiryo-35" transform="translate(62.109375 0)"/>
       <use xlink:href="#Meiryo-30" transform="translate(124.21875 0)"/>
       <use xlink:href="#Meiryo-30" transform="translate(186.328125 0)"/>
       <use xlink:href="#Meiryo-30" transform="translate(248.4375 0)"/>
      </g>
     </g>
    </g>
    <g id="xtick_6">
     <g id="line2d_11">
      <path d="M 583.057143 318.657143 
L 583.057143 26.057143 
" clip-path="url(#p048fdea780)" style="fill: none; stroke: #b0b0b0; stroke-opacity: 0.3; stroke-width: 0.8; stroke-linecap: square"/>
     </g>
     <g id="line2d_12">
      <g>
       <use xlink:href="#m6ed5aa6bf5" x="583.057143" y="318.657143" style="stroke: #000000; stroke-width: 0.8"/>
      </g>
     </g>
     <g id="text_6">
      <!-- 30000 -->
      <g transform="translate(567.529799 333.34308) scale(0.1 -0.1)">
       <defs>
        <path id="Meiryo-33" d="M 475 197 
L 475 825 
L 525 825 
Q 1159 406 1838 406 
Q 2338 406 2639 678 
Q 2941 950 2941 1434 
Q 2941 1884 2678 2096 
Q 2416 2309 1828 2309 
L 1553 2309 
L 1553 2791 
L 1766 2791 
Q 2272 2791 2559 3006 
Q 2847 3222 2847 3613 
Q 2847 3944 2595 4123 
Q 2344 4303 1903 4303 
Q 1269 4303 644 3894 
L 609 3894 
L 609 4509 
Q 1241 4806 1919 4806 
Q 2647 4806 3045 4501 
Q 3444 4197 3444 3678 
Q 3444 3297 3178 2997 
Q 2913 2697 2513 2616 
L 2513 2566 
Q 3541 2381 3541 1381 
Q 3541 734 3069 318 
Q 2597 -97 1853 -97 
Q 1144 -97 475 197 
z
" transform="scale(0.015625)"/>
       </defs>
       <use xlink:href="#Meiryo-33"/>
       <use xlink:href="#Meiryo-30" transform="translate(62.109375 0)"/>
       <use xlink:href="#Meiryo-30" transform="translate(124.21875 0)"/>
       <use xlink:href="#Meiryo-30" transform="translate(186.328125 0)"/>
       <use xlink:href="#Meiryo-30" transform="translate(248.4375 0)"/>
      </g>
     </g>
    </g>
    <g id="text_7">
     <!-- VACTUAL (16µstep, StealthChop, IRUN=14) -->
     <g transform="translate(221.569196 347.064955) scale(0.1 -0.1)">
      <defs>
       <path id="Meiryo-56" d="M 4313 4709 
L 2453 0 
L 1916 0 
L 56 4709 
L 678 4709 
L 2203 794 
L 3722 4709 
L 4313 4709 
z
" transform="scale(0.015625)"/>
       <path id="Meiryo-41" d="M 3000 1828 
L 2153 4150 
L 1309 1828 
L 3000 1828 
z
M 3659 0 
L 3175 1344 
L 1131 1344 
L 647 0 
L 56 0 
L 1800 4709 
L 2541 4709 
L 4281 0 
L 3659 0 
z
" transform="scale(0.015625)"/>
       <path id="Meiryo-43" d="M 2544 -84 
Q 1488 -84 889 553 
Q 291 1191 291 2350 
Q 291 3488 898 4141 
Q 1506 4794 2547 4794 
Q 3294 4794 4103 4372 
L 4103 3688 
L 4059 3688 
Q 3325 4303 2509 4303 
Q 1766 4303 1331 3786 
Q 897 3269 897 2350 
Q 897 1438 1339 923 
Q 1781 409 2516 409 
Q 2913 409 3272 536 
Q 3631 663 4059 1031 
L 4103 1031 
L 4103 344 
Q 3503 59 3170 -12 
Q 2838 -84 2544 -84 
z
" transform="scale(0.015625)"/>
       <path id="Meiryo-54" d="M 1744 0 
L 1744 4203 
L 72 4203 
L 72 4709 
L 3997 4709 
L 3997 4203 
L 2325 4203 
L 2325 0 
L 1744 0 
z
" transform="scale(0.015625)"/>
       <path id="Meiryo-55" d="M 4141 1869 
Q 4141 847 3675 375 
Q 3209 -97 2331 -97 
Q 525 -97 525 1869 
L 525 4709 
L 1106 4709 
L 1106 1816 
Q 1106 1059 1409 726 
Q 1713 394 2331 394 
Q 2941 394 3250 720 
Q 3559 1047 3559 1800 
L 3559 4709 
L 4141 4709 
L 4141 1869 
z
" transform="scale(0.015625)"/>
       <path id="Meiryo-4c" d="M 3513 0 
L 578 0 
L 578 4709 
L 1159 4709 
L 1159 506 
L 3513 506 
L 3513 0 
z
" transform="scale(0.015625)"/>
       <path id="Meiryo-20" transform="scale(0.015625)"/>
       <path id="Meiryo-28" d="M 2397 -1303 
L 1731 -1303 
Q 1094 -563 808 184 
Q 522 931 522 1809 
Q 522 3506 1731 4919 
L 2397 4919 
L 2397 4888 
Q 1775 4341 1401 3523 
Q 1028 2706 1028 1809 
Q 1028 909 1400 95 
Q 1772 -719 2397 -1272 
L 2397 -1303 
z
" transform="scale(0.015625)"/>
       <path id="Meiryo-36" d="M 3222 4722 
L 3222 4169 
L 3184 4169 
Q 2922 4297 2572 4297 
Q 1881 4297 1468 3858 
Q 1056 3419 988 2638 
Q 1578 2991 2138 2991 
Q 2822 2991 3248 2611 
Q 3675 2231 3675 1522 
Q 3675 816 3212 359 
Q 2750 -97 2063 -97 
Q 1266 -97 823 458 
Q 381 1013 381 2066 
Q 381 3363 973 4080 
Q 1566 4797 2666 4797 
Q 2997 4797 3222 4722 
z
M 988 2238 
Q 975 1981 975 1928 
Q 975 1184 1265 779 
Q 1556 375 2069 375 
Q 2541 375 2809 670 
Q 3078 966 3078 1497 
Q 3078 1938 2825 2225 
Q 2572 2513 1984 2513 
Q 1475 2513 988 2238 
z
" transform="scale(0.015625)"/>
       <path id="Meiryo-b5" d="M 3469 0 
L 2925 0 
L 2925 406 
Q 2500 -66 1991 -66 
Q 1750 -66 1550 25 
Q 1350 116 1081 391 
L 1081 -1303 
L 531 -1303 
L 531 3531 
L 1081 3531 
L 1081 828 
Q 1216 669 1473 558 
Q 1731 447 1997 447 
Q 2563 447 2919 847 
L 2919 3531 
L 3469 3531 
L 3469 0 
z
" transform="scale(0.015625)"/>
       <path id="Meiryo-73" d="M 1528 -84 
Q 866 -84 284 206 
L 284 844 
L 306 844 
Q 938 375 1559 375 
Q 2431 375 2431 925 
Q 2431 1141 2315 1259 
Q 2200 1378 1834 1463 
Q 1528 1522 1131 1615 
Q 734 1709 517 1945 
Q 300 2181 300 2550 
Q 300 3019 681 3317 
Q 1063 3616 1700 3616 
Q 2356 3616 2853 3359 
L 2853 2753 
L 2831 2753 
Q 2284 3156 1672 3156 
Q 1294 3156 1075 3017 
Q 856 2878 856 2631 
Q 856 2413 973 2297 
Q 1091 2181 1441 2094 
L 2131 1944 
Q 2559 1850 2775 1614 
Q 2991 1378 2991 1003 
Q 2991 519 2594 217 
Q 2197 -84 1528 -84 
z
" transform="scale(0.015625)"/>
       <path id="Meiryo-74" d="M 1647 -69 
Q 553 -69 553 1134 
L 553 3081 
L 150 3081 
L 150 3531 
L 556 3531 
L 556 4547 
L 1103 4547 
L 1103 3531 
L 2341 3531 
L 2341 3081 
L 1103 3081 
L 1103 1447 
Q 1103 891 1179 727 
Q 1256 563 1412 486 
Q 1569 409 1813 409 
Q 2044 409 2322 522 
L 2341 522 
L 2341 22 
Q 1969 -69 1647 -69 
z
" transform="scale(0.015625)"/>
       <path id="Meiryo-65" d="M 834 2131 
L 2906 2131 
Q 2881 3184 1941 3184 
Q 1466 3184 1172 2903 
Q 878 2622 834 2131 
z
M 2125 -81 
Q 1244 -81 758 395 
Q 272 872 272 1744 
Q 272 2609 737 3120 
Q 1203 3631 1972 3631 
Q 2672 3631 3058 3212 
Q 3444 2794 3444 2019 
L 3444 1716 
L 834 1716 
Q 834 1078 1179 736 
Q 1525 394 2134 394 
Q 2741 394 3347 816 
L 3372 816 
L 3372 219 
Q 2619 -81 2125 -81 
z
" transform="scale(0.015625)"/>
       <path id="Meiryo-70" d="M 1081 203 
L 1081 -1303 
L 531 -1303 
L 531 3531 
L 1081 3531 
L 1081 3141 
Q 1684 3631 2253 3631 
Q 2878 3631 3247 3145 
Q 3616 2659 3616 1809 
Q 3616 975 3169 453 
Q 2722 -69 2063 -69 
Q 1559 -69 1081 203 
z
M 1081 2694 
L 1081 631 
Q 1550 422 1950 422 
Q 2466 422 2756 780 
Q 3047 1138 3047 1791 
Q 3047 3113 2094 3113 
Q 1588 3113 1081 2694 
z
" transform="scale(0.015625)"/>
       <path id="Meiryo-2c" d="M 1731 853 
L 850 -1156 
L 431 -1156 
L 981 853 
L 1731 853 
z
" transform="scale(0.015625)"/>
       <path id="Meiryo-53" d="M 2022 -84 
Q 1228 -84 356 309 
L 356 1019 
L 397 1019 
Q 1116 406 2028 406 
Q 2591 406 2911 636 
Q 3231 866 3231 1247 
Q 3231 1541 3095 1708 
Q 2959 1875 2622 1969 
L 1572 2181 
Q 988 2303 686 2623 
Q 384 2944 384 3456 
Q 384 4038 853 4416 
Q 1322 4794 2075 4794 
Q 2863 4794 3650 4447 
L 3650 3763 
L 3606 3763 
Q 2956 4303 2075 4303 
Q 1588 4303 1289 4087 
Q 991 3872 991 3522 
Q 991 2938 1672 2769 
Q 2066 2697 2548 2589 
Q 3031 2481 3239 2364 
Q 3447 2247 3576 2097 
Q 3706 1947 3770 1756 
Q 3834 1566 3834 1334 
Q 3834 722 3337 319 
Q 2841 -84 2022 -84 
z
" transform="scale(0.015625)"/>
       <path id="Meiryo-61" d="M 2663 841 
L 2663 1866 
Q 1497 1813 1164 1608 
Q 831 1403 831 1044 
Q 831 409 1600 409 
Q 2122 409 2663 841 
z
M 2663 0 
L 2663 394 
Q 2222 75 1937 -11 
Q 1653 -97 1359 -97 
Q 888 -97 575 215 
Q 263 528 263 1009 
Q 263 1625 727 1936 
Q 1191 2247 2663 2306 
L 2663 2413 
Q 2663 2781 2444 2957 
Q 2225 3134 1675 3134 
Q 1191 3134 597 2884 
L 572 2884 
L 572 3456 
Q 1156 3616 1697 3616 
Q 2481 3616 2845 3323 
Q 3209 3031 3209 2416 
L 3209 0 
L 2663 0 
z
" transform="scale(0.015625)"/>
       <path id="Meiryo-6c" d="M 1088 0 
L 538 0 
L 538 4919 
L 1088 4919 
L 1088 0 
z
" transform="scale(0.015625)"/>
       <path id="Meiryo-68" d="M 3450 0 
L 2900 0 
L 2900 1975 
Q 2900 2666 2719 2889 
Q 2538 3113 2122 3113 
Q 1634 3113 1081 2659 
L 1081 0 
L 531 0 
L 531 4919 
L 1081 4919 
L 1081 3109 
Q 1700 3631 2309 3631 
Q 2856 3631 3153 3289 
Q 3450 2947 3450 2300 
L 3450 0 
z
" transform="scale(0.015625)"/>
       <path id="Meiryo-6f" d="M 1900 -97 
Q 1147 -97 709 401 
Q 272 900 272 1763 
Q 272 2625 712 3128 
Q 1153 3631 1900 3631 
Q 2647 3631 3087 3131 
Q 3528 2631 3528 1763 
Q 3528 894 3089 398 
Q 2650 -97 1900 -97 
z
M 1900 3163 
Q 1391 3163 1116 2803 
Q 841 2444 841 1763 
Q 841 1091 1116 731 
Q 1391 372 1900 372 
Q 2409 372 2684 731 
Q 2959 1091 2959 1763 
Q 2959 3163 1900 3163 
z
" transform="scale(0.015625)"/>
       <path id="Meiryo-49" d="M 2197 0 
L 381 0 
L 381 434 
L 1000 434 
L 1000 4275 
L 381 4275 
L 381 4709 
L 2197 4709 
L 2197 4275 
L 1581 4275 
L 1581 434 
L 2197 434 
L 2197 0 
z
" transform="scale(0.015625)"/>
       <path id="Meiryo-52" d="M 4428 0 
L 3669 0 
L 2119 1894 
L 1159 1894 
L 1159 0 
L 578 0 
L 578 4709 
L 1913 4709 
Q 2853 4709 3258 4356 
Q 3663 4003 3663 3428 
Q 3663 2456 2709 2059 
L 4428 0 
z
M 1159 4216 
L 1159 2372 
L 1844 2372 
Q 2491 2372 2772 2634 
Q 3053 2897 3053 3400 
Q 3053 4216 1950 4216 
L 1159 4216 
z
" transform="scale(0.015625)"/>
       <path id="Meiryo-4e" d="M 4166 0 
L 3491 0 
L 1119 4088 
L 1119 0 
L 578 0 
L 578 4709 
L 1384 4709 
L 3625 847 
L 3625 4709 
L 4166 4709 
L 4166 0 
z
" transform="scale(0.015625)"/>
       <path id="Meiryo-3d" d="M 4425 2484 
L 719 2484 
L 719 2947 
L 4425 2947 
L 4425 2484 
z
M 4425 1172 
L 719 1172 
L 719 1634 
L 4425 1634 
L 4425 1172 
z
" transform="scale(0.015625)"/>
       <path id="Meiryo-34" d="M 3713 1356 
L 3022 1356 
L 3022 0 
L 2459 0 
L 2459 1356 
L 194 1356 
L 194 2013 
L 2484 4709 
L 3022 4709 
L 3022 1819 
L 3713 1819 
L 3713 1356 
z
M 2459 1819 
L 2459 4022 
L 588 1819 
L 2459 1819 
z
" transform="scale(0.015625)"/>
       <path id="Meiryo-29" d="M 1081 -1303 
L 416 -1303 
L 416 -1272 
Q 1044 -713 1414 98 
Q 1784 909 1784 1809 
Q 1784 2706 1412 3520 
Q 1041 4334 416 4888 
L 416 4919 
L 1081 4919 
Q 2291 3506 2291 1809 
Q 2291 934 2008 190 
Q 1725 -553 1081 -1303 
z
" transform="scale(0.015625)"/>
      </defs>
      <use xlink:href="#Meiryo-56"/>
      <use xlink:href="#Meiryo-41" transform="translate(65.386719 0)"/>
      <use xlink:href="#Meiryo-43" transform="translate(132.785156 0)"/>
      <use xlink:href="#Meiryo-54" transform="translate(200.021484 0)"/>
      <use xlink:href="#Meiryo-55" transform="translate(263.595703 0)"/>
      <use xlink:href="#Meiryo-41" transform="translate(336.121094 0)"/>
      <use xlink:href="#Meiryo-4c" transform="translate(403.894531 0)"/>
      <use xlink:href="#Meiryo-20" transform="translate(459.558594 0)"/>
      <use xlink:href="#Meiryo-28" transform="translate(493.542969 0)"/>
      <use xlink:href="#Meiryo-31" transform="translate(537.488281 0)"/>
      <use xlink:href="#Meiryo-36" transform="translate(599.597656 0)"/>
      <use xlink:href="#Meiryo-b5" transform="translate(661.707031 0)"/>
      <use xlink:href="#Meiryo-73" transform="translate(724.207031 0)"/>
      <use xlink:href="#Meiryo-74" transform="translate(774.011719 0)"/>
      <use xlink:href="#Meiryo-65" transform="translate(811.902344 0)"/>
      <use xlink:href="#Meiryo-70" transform="translate(869.617188 0)"/>
      <use xlink:href="#Meiryo-2c" transform="translate(929.082031 0)"/>
      <use xlink:href="#Meiryo-20" transform="translate(963.994141 0)"/>
      <use xlink:href="#Meiryo-53" transform="translate(997.978516 0)"/>
      <use xlink:href="#Meiryo-74" transform="translate(1061.455078 0)"/>
      <use xlink:href="#Meiryo-65" transform="translate(1099.345703 0)"/>
      <use xlink:href="#Meiryo-61" transform="translate(1157.060547 0)"/>
      <use xlink:href="#Meiryo-6c" transform="translate(1215.068359 0)"/>
      <use xlink:href="#Meiryo-74" transform="translate(1240.458984 0)"/>
      <use xlink:href="#Meiryo-68" transform="translate(1278.349609 0)"/>
      <use xlink:href="#Meiryo-43" transform="translate(1340.166016 0)"/>
      <use xlink:href="#Meiryo-68" transform="translate(1407.402344 0)"/>
      <use xlink:href="#Meiryo-6f" transform="translate(1469.21875 0)"/>
      <use xlink:href="#Meiryo-70" transform="translate(1528.59375 0)"/>
      <use xlink:href="#Meiryo-2c" transform="translate(1588.058594 0)"/>
      <use xlink:href="#Meiryo-20" transform="translate(1622.970703 0)"/>
      <use xlink:href="#Meiryo-49" transform="translate(1656.955078 0)"/>
      <use xlink:href="#Meiryo-52" transform="translate(1697.287109 0)"/>
      <use xlink:href="#Meiryo-55" transform="translate(1765.548828 0)"/>
      <use xlink:href="#Meiryo-4e" transform="translate(1838.449219 0)"/>
      <use xlink:href="#Meiryo-3d" transform="translate(1912.570312 0)"/>
      <use xlink:href="#Meiryo-31" transform="translate(1992.941406 0)"/>
      <use xlink:href="#Meiryo-34" transform="translate(2055.050781 0)"/>
      <use xlink:href="#Meiryo-29" transform="translate(2117.160156 0)"/>
     </g>
    </g>
   </g>
   <g id="matplotlib.axis_2">
    <g id="ytick_1">
     <g id="line2d_13">
      <path d="M 50.857143 310.297143 
L 608.4 310.297143 
" clip-path="url(#p048fdea780)" style="fill: none; stroke: #b0b0b0; stroke-opacity: 0.3; stroke-width: 0.8; stroke-linecap: square"/>
     </g>
     <g id="line2d_14">
      <defs>
       <path id="m2ffcc4b683" d="M 0 0 
L -3.5 0 
" style="stroke: #000000; stroke-width: 0.8"/>
      </defs>
      <g>
       <use xlink:href="#m2ffcc4b683" x="50.857143" y="310.297143" style="stroke: #000000; stroke-width: 0.8"/>
      </g>
     </g>
     <g id="text_8">
      <!-- 0 -->
      <g transform="translate(37.646205 314.140112) scale(0.1 -0.1)">
       <use xlink:href="#Meiryo-30"/>
      </g>
     </g>
    </g>
    <g id="ytick_2">
     <g id="line2d_15">
      <path d="M 50.857143 254.56381 
L 608.4 254.56381 
" clip-path="url(#p048fdea780)" style="fill: none; stroke: #b0b0b0; stroke-opacity: 0.3; stroke-width: 0.8; stroke-linecap: square"/>
     </g>
     <g id="line2d_16">
      <g>
       <use xlink:href="#m2ffcc4b683" x="50.857143" y="254.56381" style="stroke: #000000; stroke-width: 0.8"/>
      </g>
     </g>
     <g id="text_9">
      <!-- 100 -->
      <g transform="translate(25.22433 258.406778) scale(0.1 -0.1)">
       <use xlink:href="#Meiryo-31"/>
       <use xlink:href="#Meiryo-30" transform="translate(62.109375 0)"/>
       <use xlink:href="#Meiryo-30" transform="translate(124.21875 0)"/>
      </g>
     </g>
    </g>
    <g id="ytick_3">
     <g id="line2d_17">
      <path d="M 50.857143 198.830476 
L 608.4 198.830476 
" clip-path="url(#p048fdea780)" style="fill: none; stroke: #b0b0b0; stroke-opacity: 0.3; stroke-width: 0.8; stroke-linecap: square"/>
     </g>
     <g id="line2d_18">
      <g>
       <use xlink:href="#m2ffcc4b683" x="50.857143" y="198.830476" style="stroke: #000000; stroke-width: 0.8"/>
      </g>
     </g>
     <g id="text_10">
      <!-- 200 -->
      <g transform="translate(25.22433 202.673445) scale(0.1 -0.1)">
       <use xlink:href="#Meiryo-32"/>
       <use xlink:href="#Meiryo-30" transform="translate(62.109375 0)"/>
       <use xlink:href="#Meiryo-30" transform="translate(124.21875 0)"/>
      </g>
     </g>
    </g>
    <g id="ytick_4">
     <g id="line2d_19">
      <path d="M 50.857143 143.097143 
L 608.4 143.097143 
" clip-path="url(#p048fdea780)" style="fill: none; stroke: #b0b0b0; stroke-opacity: 0.3; stroke-width: 0.8; stroke-linecap: square"/>
     </g>
     <g id="line2d_20">
      <g>
       <use xlink:href="#m2ffcc4b683" x="50.857143" y="143.097143" style="stroke: #000000; stroke-width: 0.8"/>
      </g>
     </g>
     <g id="text_11">
      <!-- 300 -->
      <g transform="translate(25.22433 146.940112) scale(0.1 -0.1)">
       <use xlink:href="#Meiryo-33"/>
       <use xlink:href="#Meiryo-30" transform="translate(62.109375 0)"/>
       <use xlink:href="#Meiryo-30" transform="translate(124.21875 0)"/>
      </g>
     </g>
    </g>
    <g id="ytick_5">
     <g id="line2d_21">
      <path d="M 50.857143 87.36381 
L 608.4 87.36381 
" clip-path="url(#p048fdea780)" style="fill: none; stroke: #b0b0b0; stroke-opacity: 0.3; stroke-width: 0.8; stroke-linecap: square"/>
     </g>
     <g id="line2d_22">
      <g>
       <use xlink:href="#m2ffcc4b683" x="50.857143" y="87.36381" style="stroke: #000000; stroke-width: 0.8"/>
      </g>
     </g>
     <g id="text_12">
      <!-- 400 -->
      <g transform="translate(25.22433 91.206778) scale(0.1 -0.1)">
       <use xlink:href="#Meiryo-34"/>
       <use xlink:href="#Meiryo-30" transform="translate(62.109375 0)"/>
       <use xlink:href="#Meiryo-30" transform="translate(124.21875 0)"/>
      </g>
     </g>
    </g>
    <g id="ytick_6">
     <g id="line2d_23">
      <path d="M 50.857143 31.630476 
L 608.4 31.630476 
" clip-path="url(#p048fdea780)" style="fill: none; stroke: #b0b0b0; stroke-opacity: 0.3; stroke-width: 0.8; stroke-linecap: square"/>
     </g>
     <g id="line2d_24">
      <g>
       <use xlink:href="#m2ffcc4b683" x="50.857143" y="31.630476" style="stroke: #000000; stroke-width: 0.8"/>
      </g>
     </g>
     <g id="text_13">
      <!-- 500 -->
      <g transform="translate(25.22433 35.473445) scale(0.1 -0.1)">
       <use xlink:href="#Meiryo-35"/>
       <use xlink:href="#Meiryo-30" transform="translate(62.109375 0)"/>
       <use xlink:href="#Meiryo-30" transform="translate(124.21875 0)"/>
      </g>
     </g>
    </g>
    <g id="text_14">
     <!-- SG_RESULT (StallGuard 負荷指標, 大=軽負荷) -->
     <g transform="translate(19.188393 281.639955) rotate(-90) scale(0.1 -0.1)">
      <defs>
       <path id="Meiryo-47" d="M 4319 350 
Q 3306 -91 2663 -91 
Q 1538 -91 914 546 
Q 291 1184 291 2359 
Q 291 3500 925 4147 
Q 1559 4794 2663 4794 
Q 3478 4794 4316 4366 
L 4316 3681 
L 4272 3681 
Q 3506 4303 2563 4303 
Q 1788 4303 1342 3784 
Q 897 3266 897 2378 
Q 897 1450 1361 926 
Q 1825 403 2634 403 
Q 3228 403 3744 628 
L 3744 1841 
L 2522 1841 
L 2522 2347 
L 4319 2347 
L 4319 350 
z
" transform="scale(0.015625)"/>
       <path id="Meiryo-5f" d="M 3988 -919 
L -13 -919 
L -13 -581 
L 3988 -581 
L 3988 -919 
z
" transform="scale(0.015625)"/>
       <path id="Meiryo-45" d="M 3644 0 
L 578 0 
L 578 4709 
L 3644 4709 
L 3644 4203 
L 1159 4203 
L 1159 2831 
L 3581 2831 
L 3581 2325 
L 1159 2325 
L 1159 506 
L 3644 506 
L 3644 0 
z
" transform="scale(0.015625)"/>
       <path id="Meiryo-75" d="M 3425 0 
L 2875 0 
L 2875 425 
Q 2234 -97 1647 -97 
Q 1094 -97 800 245 
Q 506 588 506 1225 
L 506 3531 
L 1056 3531 
L 1056 1547 
Q 1056 866 1239 644 
Q 1422 422 1834 422 
Q 2322 422 2875 875 
L 2875 3531 
L 3425 3531 
L 3425 0 
z
" transform="scale(0.015625)"/>
       <path id="Meiryo-72" d="M 531 0 
L 531 3531 
L 1081 3531 
L 1081 2988 
Q 1744 3531 2303 3531 
Q 2500 3531 2700 3500 
L 2700 2925 
L 2678 2925 
Q 2419 2988 2153 2988 
Q 1622 2988 1081 2538 
L 1081 0 
L 531 0 
z
" transform="scale(0.015625)"/>
       <path id="Meiryo-64" d="M 2813 838 
L 2813 2928 
Q 2350 3141 1947 3141 
Q 1428 3141 1137 2777 
Q 847 2413 847 1753 
Q 847 422 1800 422 
Q 2334 422 2813 838 
z
M 2813 0 
L 2813 391 
Q 2209 -97 1644 -97 
Q 1019 -97 648 393 
Q 278 884 278 1734 
Q 278 2575 725 3103 
Q 1172 3631 1828 3631 
Q 2288 3631 2813 3353 
L 2813 4919 
L 3363 4919 
L 3363 0 
L 2813 0 
z
" transform="scale(0.015625)"/>
       <path id="Meiryo-8ca0" d="M 1053 675 
L 1053 3613 
Q 716 3350 400 3153 
L 144 3456 
Q 647 3775 1259 4340 
Q 1872 4906 2169 5413 
L 2672 5303 
Q 2572 5141 2384 4878 
L 4597 4878 
L 4753 4741 
Q 4513 4378 4066 3878 
L 5641 3878 
L 5641 675 
L 1053 675 
z
M 1384 3878 
L 3544 3878 
Q 3881 4278 4016 4538 
L 2088 4538 
Q 1747 4184 1384 3878 
z
M 1522 2931 
L 5172 2931 
L 5172 3534 
L 1522 3534 
L 1522 2931 
z
M 1522 2006 
L 5172 2006 
L 5172 2600 
L 1522 2600 
L 1522 2006 
z
M 5172 1672 
L 1522 1672 
L 1522 1041 
L 5172 1041 
L 5172 1672 
z
M 406 -397 
L 244 -19 
Q 1506 203 2188 588 
L 2503 244 
Q 2153 53 1548 -130 
Q 944 -313 406 -397 
z
M 5981 -378 
Q 5522 -291 4944 -101 
Q 4366 88 4022 263 
L 4338 581 
Q 5094 216 6234 22 
L 5981 -378 
z
" transform="scale(0.015625)"/>
       <path id="Meiryo-8377" d="M 4463 4416 
L 4463 3997 
L 3972 3997 
L 3972 4416 
L 2347 4416 
L 2347 3984 
L 1863 3984 
L 1863 4416 
L 256 4416 
L 256 4816 
L 1863 4816 
L 1863 5272 
L 2347 5272 
L 2347 4816 
L 3972 4816 
L 3972 5272 
L 4463 5272 
L 4463 4816 
L 6094 4816 
L 6094 4416 
L 4463 4416 
z
M 1016 -416 
L 1016 2000 
Q 666 1481 316 1147 
L 28 1400 
Q 481 1916 911 2639 
Q 1341 3363 1497 3888 
L 1969 3769 
Q 1759 3216 1356 2544 
L 1491 2544 
L 1491 -416 
L 1016 -416 
z
M 5094 -369 
L 4147 -369 
L 4081 75 
L 4919 75 
Q 5159 75 5159 291 
L 5159 3241 
L 2234 3241 
L 2234 3653 
L 6225 3653 
L 6225 3241 
L 5656 3241 
L 5656 134 
Q 5656 -103 5501 -236 
Q 5347 -369 5094 -369 
z
M 2738 741 
L 2738 550 
L 2275 550 
L 2275 2606 
L 4350 2606 
L 4350 741 
L 2738 741 
z
M 3875 2256 
L 2738 2256 
L 2738 1113 
L 3875 1113 
L 3875 2256 
z
" transform="scale(0.015625)"/>
       <path id="Meiryo-6307" d="M 278 1688 
L 178 2106 
Q 572 2181 1219 2350 
L 1219 3719 
L 369 3719 
L 369 4103 
L 1219 4103 
L 1219 5272 
L 1706 5272 
L 1706 4103 
L 2300 4103 
L 2300 3719 
L 1706 3719 
L 1706 2488 
Q 2172 2622 2366 2700 
L 2444 2347 
Q 2238 2250 1706 2084 
L 1706 41 
Q 1706 -156 1542 -272 
Q 1378 -388 1159 -388 
L 434 -388 
L 375 56 
L 969 56 
Q 1219 56 1219 278 
L 1219 1938 
Q 631 1769 278 1688 
z
M 2653 5272 
L 3156 5272 
L 3156 4484 
Q 4913 4809 5578 5081 
L 5831 4697 
Q 5488 4578 4648 4400 
Q 3809 4222 3156 4122 
L 3156 3697 
Q 3156 3484 3342 3431 
Q 3528 3378 4419 3378 
Q 4972 3378 5147 3392 
Q 5322 3406 5415 3448 
Q 5509 3491 5545 3552 
Q 5581 3613 5592 3788 
Q 5603 3963 5603 4181 
L 6028 4116 
L 6028 3547 
Q 6028 3325 5900 3195 
Q 5772 3066 5508 3022 
Q 5244 2978 4438 2978 
Q 3528 2978 3217 3018 
Q 2906 3059 2779 3189 
Q 2653 3319 2653 3547 
L 2653 5272 
z
M 5325 -141 
L 3197 -141 
L 3197 -338 
L 2713 -338 
L 2713 2472 
L 5806 2472 
L 5806 -338 
L 5325 -338 
L 5325 -141 
z
M 5325 1388 
L 5325 2113 
L 3197 2113 
L 3197 1388 
L 5325 1388 
z
M 3197 231 
L 5325 231 
L 5325 1022 
L 3197 1022 
L 3197 231 
z
" transform="scale(0.015625)"/>
       <path id="Meiryo-6a19" d="M 1103 2463 
Q 838 1734 331 1009 
L 38 1225 
Q 338 1647 650 2372 
Q 963 3097 1066 3606 
L 313 3606 
L 313 3984 
L 1116 3984 
L 1116 5284 
L 1578 5284 
L 1578 3984 
L 2022 3984 
L 2022 3606 
L 1578 3606 
L 1578 3128 
Q 1788 2866 2206 2503 
L 1972 2131 
Q 1847 2263 1578 2563 
L 1578 -403 
L 1116 -403 
L 1103 2463 
z
M 3331 4234 
L 3331 4734 
L 2084 4734 
L 2084 5081 
L 6100 5081 
L 6100 4734 
L 4794 4734 
L 4794 4234 
L 5909 4234 
L 5909 2966 
L 2253 2966 
L 2253 4234 
L 3331 4234 
z
M 3738 4734 
L 3738 4234 
L 4388 4234 
L 4388 4734 
L 3738 4734 
z
M 3331 3272 
L 3331 3931 
L 2678 3931 
L 2678 3272 
L 3331 3272 
z
M 3738 3931 
L 3738 3272 
L 4388 3272 
L 4388 3931 
L 3738 3931 
z
M 5491 3931 
L 4794 3931 
L 4794 3272 
L 5491 3272 
L 5491 3931 
z
M 2425 2138 
L 2425 2491 
L 5794 2491 
L 5794 2138 
L 2425 2138 
z
M 3841 -369 
L 3206 -369 
L 3150 28 
L 3631 28 
Q 3866 28 3866 238 
L 3866 1288 
L 2000 1288 
L 2000 1647 
L 6216 1647 
L 6216 1288 
L 4344 1288 
L 4344 69 
Q 4344 -138 4205 -253 
Q 4066 -369 3841 -369 
z
M 6022 -141 
Q 5716 31 5306 350 
Q 4897 669 4741 859 
L 5069 1113 
Q 5572 631 6316 200 
L 6022 -141 
z
M 2013 -141 
L 1772 159 
Q 2488 572 2934 1094 
L 3306 866 
Q 3084 606 2678 293 
Q 2272 -19 2013 -141 
z
" transform="scale(0.015625)"/>
       <path id="Meiryo-5927" d="M 6081 63 
L 5759 -331 
Q 4888 166 4228 1016 
Q 3569 1866 3231 2728 
Q 2928 1697 2211 895 
Q 1494 94 394 -309 
L 213 56 
Q 1238 425 1978 1339 
Q 2719 2253 2850 3259 
L 369 3259 
L 369 3672 
L 2941 3672 
L 2941 5244 
L 3463 5244 
L 3463 3672 
L 6034 3672 
L 6034 3259 
L 3516 3259 
Q 3772 2378 4484 1448 
Q 5197 519 6081 63 
z
" transform="scale(0.015625)"/>
       <path id="Meiryo-8efd" d="M 256 709 
L 256 1081 
L 1397 1081 
L 1397 1575 
L 456 1575 
L 456 3841 
L 1397 3841 
L 1397 4363 
L 353 4363 
L 353 4722 
L 1397 4722 
L 1397 5278 
L 1869 5278 
L 1869 4722 
L 2878 4722 
L 2878 4363 
L 1869 4363 
L 1869 3841 
L 2794 3841 
L 2794 1575 
L 1869 1575 
L 1869 1081 
L 2878 1081 
L 2878 709 
L 1869 709 
L 1869 -403 
L 1397 -403 
L 1397 709 
L 256 709 
z
M 881 2869 
L 1416 2869 
L 1416 3522 
L 881 3522 
L 881 2869 
z
M 1834 2869 
L 2363 2869 
L 2363 3522 
L 1834 3522 
L 1834 2869 
z
M 2363 2550 
L 1834 2550 
L 1834 1897 
L 2363 1897 
L 2363 2550 
z
M 1416 2550 
L 881 2550 
L 881 1897 
L 1416 1897 
L 1416 2550 
z
M 4569 3097 
Q 4013 2703 3056 2353 
L 2900 2684 
Q 3619 2947 4225 3363 
Q 3600 3897 3297 4450 
L 3663 4625 
Q 4063 4025 4563 3616 
Q 5159 4109 5366 4663 
L 3134 4663 
L 3134 5044 
L 5838 5044 
L 6006 4872 
Q 5716 4063 4909 3366 
Q 5559 2953 6241 2713 
L 5981 2347 
Q 5281 2588 4569 3097 
z
M 2866 -253 
L 2866 128 
L 4269 128 
L 4269 1322 
L 3172 1322 
L 3172 1706 
L 4269 1706 
L 4269 2406 
L 4753 2406 
L 4753 1706 
L 5869 1706 
L 5869 1322 
L 4753 1322 
L 4753 128 
L 6109 128 
L 6109 -253 
L 2866 -253 
z
" transform="scale(0.015625)"/>
      </defs>
      <use xlink:href="#Meiryo-53"/>
      <use xlink:href="#Meiryo-47" transform="translate(63.476562 0)"/>
      <use xlink:href="#Meiryo-5f" transform="translate(136.279297 0)"/>
      <use xlink:href="#Meiryo-52" transform="translate(198.388672 0)"/>
      <use xlink:href="#Meiryo-45" transform="translate(266.650391 0)"/>
      <use xlink:href="#Meiryo-53" transform="translate(328.417969 0)"/>
      <use xlink:href="#Meiryo-55" transform="translate(391.894531 0)"/>
      <use xlink:href="#Meiryo-4c" transform="translate(464.794922 0)"/>
      <use xlink:href="#Meiryo-54" transform="translate(511.958984 0)"/>
      <use xlink:href="#Meiryo-20" transform="translate(575.533203 0)"/>
      <use xlink:href="#Meiryo-28" transform="translate(609.517578 0)"/>
      <use xlink:href="#Meiryo-53" transform="translate(653.462891 0)"/>
      <use xlink:href="#Meiryo-74" transform="translate(716.939453 0)"/>
      <use xlink:href="#Meiryo-61" transform="translate(754.830078 0)"/>
      <use xlink:href="#Meiryo-6c" transform="translate(812.837891 0)"/>
      <use xlink:href="#Meiryo-6c" transform="translate(838.228516 0)"/>
      <use xlink:href="#Meiryo-47" transform="translate(863.619141 0)"/>
      <use xlink:href="#Meiryo-75" transform="translate(936.421875 0)"/>
      <use xlink:href="#Meiryo-61" transform="translate(998.238281 0)"/>
      <use xlink:href="#Meiryo-72" transform="translate(1056.246094 0)"/>
      <use xlink:href="#Meiryo-64" transform="translate(1097.554688 0)"/>
      <use xlink:href="#Meiryo-20" transform="translate(1158.394531 0)"/>
      <use xlink:href="#Meiryo-8ca0" transform="translate(1192.378906 0)"/>
      <use xlink:href="#Meiryo-8377" transform="translate(1292.378906 0)"/>
      <use xlink:href="#Meiryo-6307" transform="translate(1392.378906 0)"/>
      <use xlink:href="#Meiryo-6a19" transform="translate(1492.378906 0)"/>
      <use xlink:href="#Meiryo-2c" transform="translate(1592.378906 0)"/>
      <use xlink:href="#Meiryo-20" transform="translate(1627.291016 0)"/>
      <use xlink:href="#Meiryo-5927" transform="translate(1661.275391 0)"/>
      <use xlink:href="#Meiryo-3d" transform="translate(1761.275391 0)"/>
      <use xlink:href="#Meiryo-8efd" transform="translate(1841.646484 0)"/>
      <use xlink:href="#Meiryo-8ca0" transform="translate(1941.646484 0)"/>
      <use xlink:href="#Meiryo-8377" transform="translate(2041.646484 0)"/>
      <use xlink:href="#Meiryo-29" transform="translate(2141.646484 0)"/>
     </g>
    </g>
   </g>
   <g id="line2d_25">
    <path d="M 76.2 199.945143 
L 112.404082 149.22781 
L 148.608163 145.88381 
L 184.812245 252.89181 
L 221.016327 255.678476 
L 257.220408 245.646476 
L 293.42449 285.217143 
L 329.628571 257.90781 
L 365.832653 254.006476 
L 438.240816 128.606476 
L 510.64898 115.230476 
L 583.057143 85.134476 
" clip-path="url(#p048fdea780)" style="fill: none; stroke: #2b57a8; stroke-width: 2; stroke-linecap: square"/>
    <defs>
     <path id="mf242250bec" d="M 0 2.5 
C 0.663008 2.5 1.29895 2.236584 1.767767 1.767767 
C 2.236584 1.29895 2.5 0.663008 2.5 0 
C 2.5 -0.663008 2.236584 -1.29895 1.767767 -1.767767 
C 1.29895 -2.236584 0.663008 -2.5 0 -2.5 
C -0.663008 -2.5 -1.29895 -2.236584 -1.767767 -1.767767 
C -2.236584 -1.29895 -2.5 -0.663008 -2.5 0 
C -2.5 0.663008 -2.236584 1.29895 -1.767767 1.767767 
C -1.29895 2.236584 -0.663008 2.5 0 2.5 
z
" style="stroke: #2b57a8"/>
    </defs>
    <g clip-path="url(#p048fdea780)">
     <use xlink:href="#mf242250bec" x="76.2" y="199.945143" style="fill: #2b57a8; stroke: #2b57a8"/>
     <use xlink:href="#mf242250bec" x="112.404082" y="149.22781" style="fill: #2b57a8; stroke: #2b57a8"/>
     <use xlink:href="#mf242250bec" x="148.608163" y="145.88381" style="fill: #2b57a8; stroke: #2b57a8"/>
     <use xlink:href="#mf242250bec" x="184.812245" y="252.89181" style="fill: #2b57a8; stroke: #2b57a8"/>
     <use xlink:href="#mf242250bec" x="221.016327" y="255.678476" style="fill: #2b57a8; stroke: #2b57a8"/>
     <use xlink:href="#mf242250bec" x="257.220408" y="245.646476" style="fill: #2b57a8; stroke: #2b57a8"/>
     <use xlink:href="#mf242250bec" x="293.42449" y="285.217143" style="fill: #2b57a8; stroke: #2b57a8"/>
     <use xlink:href="#mf242250bec" x="329.628571" y="257.90781" style="fill: #2b57a8; stroke: #2b57a8"/>
     <use xlink:href="#mf242250bec" x="365.832653" y="254.006476" style="fill: #2b57a8; stroke: #2b57a8"/>
     <use xlink:href="#mf242250bec" x="438.240816" y="128.606476" style="fill: #2b57a8; stroke: #2b57a8"/>
     <use xlink:href="#mf242250bec" x="510.64898" y="115.230476" style="fill: #2b57a8; stroke: #2b57a8"/>
     <use xlink:href="#mf242250bec" x="583.057143" y="85.134476" style="fill: #2b57a8; stroke: #2b57a8"/>
    </g>
   </g>
   <g id="patch_4">
    <path d="M 50.857143 318.657143 
L 50.857143 26.057143 
" style="fill: none; stroke: #000000; stroke-width: 0.8; stroke-linejoin: miter; stroke-linecap: square"/>
   </g>
   <g id="patch_5">
    <path d="M 608.4 318.657143 
L 608.4 26.057143 
" style="fill: none; stroke: #000000; stroke-width: 0.8; stroke-linejoin: miter; stroke-linecap: square"/>
   </g>
   <g id="patch_6">
    <path d="M 50.857143 318.657143 
L 608.4 318.657143 
" style="fill: none; stroke: #000000; stroke-width: 0.8; stroke-linejoin: miter; stroke-linecap: square"/>
   </g>
   <g id="patch_7">
    <path d="M 50.857143 26.057143 
L 608.4 26.057143 
" style="fill: none; stroke: #000000; stroke-width: 0.8; stroke-linejoin: miter; stroke-linecap: square"/>
   </g>
   <g id="text_15">
    <!-- 安定(低速端) -->
    <g style="fill: #1a7f37" transform="translate(75.767953 53.92381) scale(0.1 -0.1)">
     <defs>
      <path id="Meiryo-5b89" d="M 5350 3534 
L 5350 4241 
L 981 4241 
L 981 3528 
L 506 3528 
L 506 4631 
L 2922 4631 
L 2922 5322 
L 3438 5322 
L 3438 4631 
L 5831 4631 
L 5831 3534 
L 5350 3534 
z
M 3938 747 
Q 5050 328 5794 -16 
L 5500 -403 
Q 4513 50 3513 434 
Q 2397 -259 597 -416 
L 478 -38 
Q 2113 128 3006 625 
Q 1863 1050 1316 1197 
Q 1216 1222 1222 1353 
Q 1481 1825 1816 2613 
L 309 2613 
L 309 3019 
L 1984 3019 
Q 2222 3613 2334 3984 
L 2844 3900 
Q 2734 3584 2503 3019 
L 5956 3019 
L 5956 2613 
L 4988 2613 
Q 4834 1528 3938 747 
z
M 3453 925 
Q 4334 1625 4484 2613 
L 2334 2613 
Q 1997 1822 1791 1478 
Q 2494 1272 3453 925 
z
" transform="scale(0.015625)"/>
      <path id="Meiryo-5b9a" d="M 5563 3516 
L 5563 4238 
L 850 4238 
L 850 3475 
L 400 3475 
L 400 4625 
L 2978 4625 
L 2978 5322 
L 3481 5322 
L 3481 4625 
L 6028 4625 
L 6028 3516 
L 5563 3516 
z
M 1763 1200 
Q 2163 619 2906 375 
L 2966 356 
L 2966 3266 
L 1256 3266 
L 1256 3644 
L 5125 3644 
L 5125 3266 
L 3463 3266 
L 3463 2103 
L 5497 2103 
L 5497 1731 
L 3463 1731 
L 3463 228 
Q 4028 125 5069 125 
Q 5369 125 6125 141 
L 6019 -266 
L 5494 -266 
Q 4472 -266 4001 -234 
Q 3531 -203 3093 -111 
Q 2656 -19 2250 206 
Q 1844 431 1591 728 
Q 1228 22 509 -384 
L 263 -69 
Q 694 194 945 567 
Q 1197 941 1308 1361 
Q 1419 1781 1419 2516 
L 1419 2625 
L 1894 2625 
Q 1894 1697 1763 1200 
z
" transform="scale(0.015625)"/>
      <path id="Meiryo-4f4e" d="M 1016 -403 
L 1016 2981 
Q 706 2409 344 1981 
L 50 2228 
Q 1153 3903 1459 5322 
L 1950 5244 
Q 1738 4506 1275 3494 
L 1494 3494 
L 1494 -403 
L 1016 -403 
z
M 1819 584 
L 1753 988 
Q 1878 1006 2253 1072 
L 2253 4775 
Q 2753 4781 3895 4943 
Q 5038 5106 5525 5263 
L 5759 4872 
Q 5434 4784 4550 4653 
Q 4544 4388 4544 4188 
Q 4544 3747 4566 3331 
L 6041 3331 
L 6041 2941 
L 4591 2941 
Q 4691 1719 5053 973 
Q 5416 228 5631 228 
Q 5772 228 5805 437 
Q 5838 647 5878 1216 
L 6269 1159 
Q 6234 325 6136 3 
Q 6038 -319 5709 -319 
Q 5534 -319 5362 -212 
Q 5191 -106 4953 183 
Q 4716 472 4523 928 
Q 4331 1384 4237 1959 
Q 4144 2534 4106 2941 
L 2731 2941 
L 2731 1156 
Q 3641 1328 4019 1425 
L 4044 1034 
Q 3766 938 1819 584 
z
M 2731 4434 
L 2731 3331 
L 4081 3331 
Q 4063 3750 4063 4584 
Q 3222 4472 2731 4434 
z
M 2138 -206 
L 2138 191 
L 4534 191 
L 4534 -206 
L 2138 -206 
z
" transform="scale(0.015625)"/>
      <path id="Meiryo-901f" d="M 6184 1059 
L 5947 688 
Q 4897 1109 4134 1900 
L 4134 413 
L 3669 413 
L 3669 1869 
Q 2900 1094 1953 713 
L 1778 1034 
Q 2325 1275 2839 1684 
Q 3353 2094 3534 2331 
L 2144 2331 
L 2144 3900 
L 3656 3900 
L 3656 4422 
L 1888 4422 
L 1888 4806 
L 3656 4806 
L 3656 5256 
L 4141 5256 
L 4141 4806 
L 5947 4806 
L 5947 4422 
L 4141 4422 
L 4141 3900 
L 5669 3900 
L 5669 2331 
L 4259 2331 
Q 4578 1966 5126 1606 
Q 5675 1247 6184 1059 
z
M 5197 2659 
L 5197 3559 
L 4141 3559 
L 4141 2659 
L 5197 2659 
z
M 3656 2659 
L 3656 3559 
L 2613 3559 
L 2613 2659 
L 3656 2659 
z
M 1594 4166 
L 1156 3906 
Q 875 4406 406 4978 
L 803 5225 
Q 1294 4619 1594 4166 
z
M 6288 172 
L 6197 -253 
L 4453 -259 
Q 3138 -259 2831 -231 
Q 2525 -203 2203 -133 
Q 1881 -63 1642 101 
Q 1403 266 1294 459 
Q 775 -72 269 -319 
L 100 100 
Q 272 175 583 379 
Q 894 584 1019 706 
L 1019 2613 
L 191 2613 
L 191 3000 
L 1509 3000 
L 1509 994 
Q 1509 700 1715 514 
Q 1922 328 2200 264 
Q 2478 200 2722 165 
Q 2966 131 4138 131 
Q 5650 131 6288 172 
z
" transform="scale(0.015625)"/>
      <path id="Meiryo-7aef" d="M 269 3959 
L 269 4319 
L 1094 4319 
L 1094 5291 
L 1563 5291 
L 1563 4319 
L 2331 4319 
L 2331 3959 
L 269 3959 
z
M 2684 3769 
L 2684 5069 
L 3150 5069 
L 3150 4128 
L 4050 4128 
L 4050 5284 
L 4531 5284 
L 4531 4128 
L 5484 4128 
L 5484 5069 
L 5944 5069 
L 5944 3769 
L 2684 3769 
z
M 203 213 
L 106 622 
Q 669 725 1394 897 
Q 1588 1825 1753 3697 
L 2216 3638 
Q 2144 2694 1781 991 
Q 2041 1056 2247 1119 
L 2275 766 
Q 2056 678 1692 576 
Q 1328 475 1169 438 
L 203 213 
z
M 628 1275 
Q 550 2456 394 3438 
L 819 3494 
Q 966 2656 1066 1341 
L 628 1275 
z
M 3553 -325 
L 3553 1941 
L 2991 1941 
L 2991 -397 
L 2534 -397 
L 2534 2281 
L 3759 2281 
L 3947 2928 
L 2438 2928 
L 2438 3288 
L 6203 3288 
L 6203 2928 
L 4425 2928 
L 4175 2281 
L 6028 2281 
L 6028 63 
Q 6028 -125 5884 -231 
Q 5741 -338 5556 -338 
L 5213 -338 
L 5159 56 
L 5363 56 
Q 5572 56 5572 238 
L 5572 1941 
L 4956 1941 
L 4956 -325 
L 4531 -325 
L 4531 1941 
L 3978 1941 
L 3978 -325 
L 3553 -325 
z
" transform="scale(0.015625)"/>
     </defs>
     <use xlink:href="#Meiryo-5b89"/>
     <use xlink:href="#Meiryo-5b9a" transform="translate(100 0)"/>
     <use xlink:href="#Meiryo-28" transform="translate(200 0)"/>
     <use xlink:href="#Meiryo-4f4e" transform="translate(243.945312 0)"/>
     <use xlink:href="#Meiryo-901f" transform="translate(343.945312 0)"/>
     <use xlink:href="#Meiryo-7aef" transform="translate(443.945312 0)"/>
     <use xlink:href="#Meiryo-29" transform="translate(543.945312 0)"/>
    </g>
   </g>
   <g id="text_16">
    <!-- 共振帯 -->
    <g style="fill: #b3261e" transform="translate(260.322449 44.420164) scale(0.1 -0.1)">
     <defs>
      <path id="Meiryo-5171" d="M 303 1663 
L 303 2047 
L 1713 2047 
L 1713 3666 
L 556 3666 
L 556 4050 
L 1713 4050 
L 1713 5213 
L 2209 5213 
L 2209 4050 
L 4147 4050 
L 4147 5200 
L 4644 5200 
L 4644 4050 
L 5866 4050 
L 5866 3666 
L 4644 3666 
L 4644 2047 
L 6088 2047 
L 6088 1663 
L 303 1663 
z
M 2209 2047 
L 4147 2047 
L 4147 3666 
L 2209 3666 
L 2209 2047 
z
M 484 -331 
L 250 9 
Q 819 256 1366 706 
Q 1913 1156 2116 1419 
L 2547 1172 
Q 2222 775 1576 303 
Q 931 -169 484 -331 
z
M 5759 -325 
Q 5347 -144 4825 254 
Q 4303 653 3866 1191 
L 4253 1419 
Q 5019 534 6066 41 
L 5759 -325 
z
" transform="scale(0.015625)"/>
      <path id="Meiryo-632f" d="M 178 1713 
L 100 2119 
Q 372 2175 975 2375 
L 975 3691 
L 275 3691 
L 275 4056 
L 975 4056 
L 975 5278 
L 1438 5278 
L 1438 4056 
L 1972 4056 
L 1972 3691 
L 1438 3691 
L 1438 2534 
Q 1813 2669 1981 2744 
L 2044 2413 
Q 1856 2306 1438 2141 
L 1438 63 
Q 1438 -125 1284 -234 
Q 1131 -344 922 -344 
L 322 -344 
L 269 56 
L 753 56 
Q 975 56 975 256 
L 975 1969 
Q 447 1781 178 1713 
z
M 2731 -350 
L 2647 47 
Q 2838 66 3272 125 
L 3272 2450 
L 2719 2450 
Q 2666 734 2059 -316 
L 1713 -109 
Q 1969 353 2125 1087 
Q 2281 1822 2281 2628 
L 2281 5044 
L 5988 5044 
L 5988 4669 
L 2725 4669 
L 2725 2816 
L 5956 2816 
L 5956 2450 
L 4772 2450 
Q 4863 1891 5072 1406 
Q 5484 1713 5747 1975 
L 6047 1694 
Q 5772 1453 5238 1081 
Q 5628 416 6244 -63 
L 5916 -381 
Q 5247 125 4844 881 
Q 4441 1638 4350 2450 
L 3728 2450 
L 3728 188 
Q 4541 300 4831 369 
L 4866 9 
Q 4634 -56 3901 -178 
Q 3169 -300 2731 -350 
z
M 3122 3588 
L 3122 3959 
L 5772 3959 
L 5772 3588 
L 3122 3588 
z
" transform="scale(0.015625)"/>
      <path id="Meiryo-5e2f" d="M 6106 4272 
L 5191 4272 
L 5191 3347 
L 1144 3347 
L 1144 4272 
L 275 4272 
L 275 4656 
L 1144 4656 
L 1144 5225 
L 1622 5225 
L 1622 4656 
L 2941 4656 
L 2941 5231 
L 3422 5231 
L 3422 4656 
L 4716 4656 
L 4716 5225 
L 5191 5225 
L 5191 4656 
L 6106 4656 
L 6106 4272 
z
M 4716 3703 
L 4716 4313 
L 3422 4313 
L 3422 3703 
L 4716 3703 
z
M 2941 3703 
L 2941 4313 
L 1622 4313 
L 1622 3703 
L 2941 3703 
z
M 6019 1869 
L 5584 1869 
L 5584 2503 
L 3403 2506 
L 3403 1903 
L 5453 1903 
L 5453 584 
Q 5453 369 5287 228 
Q 5122 88 4925 88 
L 4134 88 
L 4075 513 
L 4703 513 
Q 4816 513 4898 581 
Q 4981 650 4981 734 
L 4981 1525 
L 3403 1525 
L 3403 -369 
L 2913 -369 
L 2913 1525 
L 1431 1525 
L 1431 34 
L 953 34 
L 953 1903 
L 2913 1903 
L 2913 2506 
L 819 2509 
L 819 1869 
L 394 1869 
L 394 2881 
L 6019 2881 
L 6019 1869 
z
" transform="scale(0.015625)"/>
     </defs>
     <use xlink:href="#Meiryo-5171"/>
     <use xlink:href="#Meiryo-632f" transform="translate(100 0)"/>
     <use xlink:href="#Meiryo-5e2f" transform="translate(200 0)"/>
    </g>
    <!-- (SGが乱れて使えない) -->
    <g style="fill: #b3261e" transform="translate(224.113074 56.710476) scale(0.1 -0.1)">
     <defs>
      <path id="Meiryo-304c" d="M 2150 4494 
Q 2150 4213 2122 3853 
L 3322 3853 
Q 3766 3853 4017 3536 
Q 4269 3219 4269 2706 
Q 4269 1447 4003 619 
Q 3738 -209 3072 -209 
Q 2684 -209 1984 159 
L 2138 556 
Q 2306 475 2607 376 
Q 2909 278 3022 278 
Q 3278 275 3429 548 
Q 3581 822 3679 1317 
Q 3778 1813 3778 2494 
Q 3778 3116 3611 3280 
Q 3444 3444 3169 3444 
L 2081 3444 
Q 1972 2381 1576 1406 
Q 1181 431 578 -244 
L 225 13 
Q 631 494 1032 1351 
Q 1434 2209 1575 3378 
L 353 3378 
L 353 3797 
L 1625 3797 
Q 1647 4016 1647 5056 
L 2150 5056 
L 2150 4494 
z
M 5984 1903 
L 5497 1775 
Q 5072 3341 4256 4213 
L 4622 4463 
Q 5050 4025 5444 3279 
Q 5838 2534 5984 1903 
z
M 6313 4591 
L 5953 4444 
Q 5744 4928 5506 5309 
L 5838 5469 
Q 6053 5134 6313 4591 
z
M 5416 4463 
L 5056 4303 
Q 4831 4806 4603 5178 
L 4941 5334 
Q 5213 4913 5416 4463 
z
" transform="scale(0.015625)"/>
      <path id="Meiryo-4e71" d="M 4034 5256 
L 4544 5256 
L 4544 381 
Q 4544 228 4650 158 
Q 4756 88 5141 88 
Q 5331 88 5476 114 
Q 5622 141 5706 303 
Q 5791 466 5791 1250 
L 6228 1172 
L 6228 269 
Q 6228 -19 6022 -169 
Q 5816 -319 5138 -319 
Q 4447 -319 4240 -194 
Q 4034 -69 4034 231 
L 4034 5256 
z
M 2925 -88 
L 994 -88 
L 994 -344 
L 503 -344 
L 503 2113 
L 1703 2113 
L 1703 3175 
L 234 3175 
L 234 3566 
L 1703 3566 
L 1703 4456 
Q 1016 4375 444 4350 
L 372 4734 
Q 2188 4828 3297 5172 
L 3519 4813 
Q 3053 4653 2206 4525 
L 2206 3566 
L 3675 3566 
L 3675 3175 
L 2206 3175 
L 2206 2113 
L 3416 2113 
L 3416 -344 
L 2925 -344 
L 2925 -88 
z
M 994 291 
L 2925 291 
L 2925 1731 
L 994 1731 
L 994 291 
z
" transform="scale(0.015625)"/>
      <path id="Meiryo-308c" d="M 1550 2053 
Q 1197 1525 469 500 
L 141 819 
Q 484 1234 929 1921 
Q 1375 2609 1550 3019 
L 1550 3694 
L 409 3694 
L 409 4103 
L 1550 4103 
L 1550 5119 
L 2022 5119 
L 2022 3200 
Q 2584 3769 3204 4147 
Q 3825 4525 4284 4528 
Q 4728 4528 5008 4270 
Q 5288 4013 5291 3591 
Q 5291 3553 5288 3513 
L 5103 1469 
Q 5041 772 5041 731 
Q 5041 341 5369 341 
Q 5634 341 6184 647 
L 6313 256 
Q 5763 -109 5253 -109 
Q 4919 -109 4737 98 
Q 4556 306 4556 672 
Q 4556 778 4703 2159 
Q 4788 2975 4803 3569 
Q 4803 3791 4668 3934 
Q 4534 4078 4306 4078 
Q 3463 4078 2022 2600 
L 2022 -231 
L 1550 -231 
L 1550 2053 
z
" transform="scale(0.015625)"/>
      <path id="Meiryo-3066" d="M 5844 4066 
L 4278 4066 
Q 3706 3822 3165 3173 
Q 2625 2525 2625 1825 
Q 2625 1284 2912 923 
Q 3200 563 3679 395 
Q 4159 228 4956 228 
Q 5138 228 5331 238 
L 5300 -225 
L 5284 -225 
Q 4706 -225 4326 -204 
Q 3947 -184 3523 -51 
Q 3100 81 2778 353 
Q 2456 625 2300 981 
Q 2144 1338 2144 1788 
Q 2144 2416 2528 3033 
Q 2913 3650 3538 4078 
L 403 4078 
L 403 4494 
L 5844 4494 
L 5844 4066 
z
" transform="scale(0.015625)"/>
      <path id="Meiryo-4f7f" d="M 6103 -375 
Q 4725 -150 3609 494 
Q 2984 -197 1938 -397 
L 1806 -50 
Q 2675 150 3216 741 
Q 2706 1088 2347 1438 
L 2656 1694 
Q 2994 1350 3459 1053 
Q 3659 1375 3716 1863 
L 2159 1863 
L 2159 3731 
L 3744 3731 
L 3744 4331 
L 1997 4331 
L 1997 4703 
L 3744 4703 
L 3744 5328 
L 4234 5328 
L 4234 4703 
L 6128 4703 
L 6128 4331 
L 4234 4331 
L 4234 3731 
L 5847 3731 
L 5847 1863 
L 4206 1863 
Q 4134 1234 3869 831 
L 3863 819 
Q 5034 203 6309 22 
L 6103 -375 
z
M 5372 3391 
L 4234 3391 
L 4234 2522 
Q 4234 2303 4231 2216 
L 5372 2216 
L 5372 3391 
z
M 3744 3391 
L 2634 3391 
L 2634 2216 
L 3741 2216 
Q 3744 2303 3744 2575 
L 3744 3391 
z
M 1000 -403 
L 1000 2900 
Q 669 2300 328 1881 
L 41 2144 
Q 484 2756 892 3661 
Q 1300 4566 1469 5297 
L 1966 5219 
Q 1756 4413 1325 3500 
L 1475 3500 
L 1475 -403 
L 1000 -403 
z
" transform="scale(0.015625)"/>
      <path id="Meiryo-3048" d="M 4841 4666 
L 4769 4231 
Q 3297 4444 1238 4469 
L 1238 4878 
Q 3253 4878 4841 4666 
z
M 5025 3244 
Q 4141 2600 3353 1978 
Q 3513 2019 3641 2019 
Q 4103 2019 4122 1338 
Q 4122 1163 4150 880 
Q 4178 597 4201 537 
Q 4225 478 4290 409 
Q 4356 341 4634 320 
Q 4913 300 5234 300 
Q 5684 300 6106 328 
L 6100 -122 
Q 5747 -144 5278 -144 
Q 4591 -144 4323 -91 
Q 4056 -38 3907 96 
Q 3759 231 3721 451 
Q 3684 672 3650 1325 
Q 3638 1525 3569 1620 
Q 3500 1716 3359 1716 
Q 3066 1716 2794 1503 
Q 2522 1291 616 -263 
L 281 72 
Q 947 578 2247 1638 
Q 2581 1928 3231 2416 
Q 3922 2938 4219 3188 
L 831 3175 
L 831 3584 
L 4775 3584 
L 5025 3244 
z
" transform="scale(0.015625)"/>
      <path id="Meiryo-306a" d="M 2119 4972 
Q 2097 4481 2041 4056 
L 3431 4056 
L 3431 3641 
L 1978 3641 
Q 1656 1766 653 453 
L 288 722 
Q 1175 1922 1484 3641 
L 463 3641 
L 463 4056 
L 1550 4056 
Q 1613 4513 1625 4978 
L 2119 4972 
z
M 6131 3231 
L 5747 2925 
Q 5169 3656 4147 4428 
L 4428 4738 
Q 5306 4225 6131 3231 
z
M 6119 525 
L 5869 128 
Q 5213 659 4706 906 
L 4706 609 
Q 4706 -309 3356 -309 
Q 2800 -309 2408 -71 
Q 2016 166 2016 584 
Q 2016 1044 2414 1309 
Q 2813 1575 3388 1575 
Q 3834 1575 4213 1500 
L 4213 3194 
L 4706 3194 
L 4706 1353 
Q 5328 1116 6119 525 
z
M 4225 1088 
Q 3809 1197 3388 1197 
Q 3022 1197 2747 1045 
Q 2472 894 2472 628 
Q 2472 97 3419 97 
Q 4225 97 4225 622 
L 4225 1088 
z
" transform="scale(0.015625)"/>
      <path id="Meiryo-3044" d="M 3150 1650 
Q 3044 1353 2814 925 
Q 2584 497 2345 211 
Q 2106 -75 1850 -75 
Q 1694 -75 1572 0 
Q 1450 75 1253 290 
Q 1056 506 892 882 
Q 728 1259 650 1671 
Q 572 2084 572 2475 
Q 572 2825 644 3466 
Q 719 4138 725 4447 
L 1250 4447 
Q 1238 4166 1150 3466 
Q 1072 2841 1072 2478 
Q 1072 1934 1186 1501 
Q 1300 1069 1517 756 
Q 1734 444 1834 444 
Q 1997 444 2272 889 
Q 2547 1334 2766 1850 
L 3150 1650 
z
M 6009 731 
L 5484 716 
L 5484 772 
Q 5484 1697 5184 2572 
Q 4884 3447 4328 4134 
L 4713 4378 
Q 5988 2919 6009 731 
z
" transform="scale(0.015625)"/>
     </defs>
     <use xlink:href="#Meiryo-28"/>
     <use xlink:href="#Meiryo-53" transform="translate(43.945312 0)"/>
     <use xlink:href="#Meiryo-47" transform="translate(107.421875 0)"/>
     <use xlink:href="#Meiryo-304c" transform="translate(180.224609 0)"/>
     <use xlink:href="#Meiryo-4e71" transform="translate(280.224609 0)"/>
     <use xlink:href="#Meiryo-308c" transform="translate(380.224609 0)"/>
     <use xlink:href="#Meiryo-3066" transform="translate(480.224609 0)"/>
     <use xlink:href="#Meiryo-4f7f" transform="translate(580.224609 0)"/>
     <use xlink:href="#Meiryo-3048" transform="translate(680.224609 0)"/>
     <use xlink:href="#Meiryo-306a" transform="translate(780.224609 0)"/>
     <use xlink:href="#Meiryo-3044" transform="translate(880.224609 0)"/>
     <use xlink:href="#Meiryo-29" transform="translate(980.224609 0)"/>
    </g>
   </g>
   <g id="text_17">
    <!-- 安定(高速端) -->
    <g style="fill: #1a7f37" transform="translate(490.304687 53.92381) scale(0.1 -0.1)">
     <defs>
      <path id="Meiryo-9ad8" d="M 281 4506 
L 281 4872 
L 2888 4872 
L 2888 5316 
L 3416 5316 
L 3416 4872 
L 6053 4872 
L 6053 4506 
L 281 4506 
z
M 1131 2847 
L 1131 4038 
L 5263 4038 
L 5263 2847 
L 1131 2847 
z
M 4800 3716 
L 1600 3716 
L 1600 3169 
L 4800 3169 
L 4800 3716 
z
M 5309 -325 
L 4584 -325 
L 4519 88 
L 5088 88 
Q 5334 88 5334 297 
L 5334 2019 
L 1028 2019 
L 1028 -363 
L 531 -363 
L 531 2378 
L 5831 2378 
L 5831 113 
Q 5831 -88 5686 -206 
Q 5541 -325 5309 -325 
z
M 2313 244 
L 2313 88 
L 1856 88 
L 1856 1563 
L 4488 1563 
L 4488 244 
L 2313 244 
z
M 4022 1234 
L 2313 1234 
L 2313 584 
L 4022 584 
L 4022 1234 
z
" transform="scale(0.015625)"/>
     </defs>
     <use xlink:href="#Meiryo-5b89"/>
     <use xlink:href="#Meiryo-5b9a" transform="translate(100 0)"/>
     <use xlink:href="#Meiryo-28" transform="translate(200 0)"/>
     <use xlink:href="#Meiryo-9ad8" transform="translate(243.945312 0)"/>
     <use xlink:href="#Meiryo-901f" transform="translate(343.945312 0)"/>
     <use xlink:href="#Meiryo-7aef" transform="translate(443.945312 0)"/>
     <use xlink:href="#Meiryo-29" transform="translate(543.945312 0)"/>
    </g>
   </g>
   <g id="text_18">
    <!-- StallGuardは速度に対して単調ではない — 中速の共振帯で暴れる -->
    <g transform="translate(151.253259 20.057143) scale(0.12 -0.12)">
     <defs>
      <path id="Meiryo-306f" d="M 6253 569 
L 5972 184 
Q 5669 459 4891 959 
L 4891 769 
Q 4891 294 4577 58 
Q 4263 -178 3509 -178 
Q 3000 -178 2636 69 
Q 2272 316 2272 731 
Q 2272 1156 2619 1420 
Q 2966 1684 3456 1684 
Q 3938 1684 4394 1569 
L 4394 3416 
L 2197 3416 
L 2197 3838 
L 4394 3838 
L 4394 4984 
L 4884 4984 
L 4884 3838 
L 6050 3838 
L 6050 3416 
L 4884 3416 
L 4884 1397 
Q 5613 1103 6253 569 
z
M 4422 769 
L 4422 1147 
Q 4047 1306 3466 1306 
Q 3141 1303 2933 1158 
Q 2725 1013 2725 756 
Q 2725 503 2965 361 
Q 3206 219 3538 219 
Q 4422 219 4422 769 
z
M 1466 -63 
L 1000 -166 
Q 681 863 681 2066 
Q 681 3378 1109 4897 
L 1588 4813 
Q 1159 3400 1159 2119 
Q 1159 988 1466 -63 
z
" transform="scale(0.015625)"/>
      <path id="Meiryo-5ea6" d="M 1128 4441 
L 1128 2947 
Q 1128 1750 917 956 
Q 706 163 353 -325 
L 38 -84 
Q 659 963 659 2666 
L 659 4831 
L 3100 4831 
L 3100 5363 
L 3609 5363 
L 3609 4831 
L 6075 4831 
L 6075 4441 
L 1128 4441 
z
M 2303 2403 
L 2303 3338 
L 1388 3338 
L 1388 3703 
L 2303 3703 
L 2303 4166 
L 2772 4166 
L 2772 3703 
L 4378 3703 
L 4378 4166 
L 4869 4166 
L 4869 3703 
L 5881 3703 
L 5881 3338 
L 4869 3338 
L 4869 2403 
L 2303 2403 
z
M 2772 3338 
L 2772 2744 
L 4378 2744 
L 4378 3338 
L 2772 3338 
z
M 3691 234 
Q 2697 -222 1219 -384 
L 1116 3 
Q 1538 41 1898 106 
Q 2259 172 2498 240 
Q 2738 309 3209 472 
Q 2441 922 2047 1594 
L 1531 1594 
L 1531 1966 
L 5356 1966 
L 5475 1831 
Q 5072 1031 4153 478 
Q 4984 172 6063 66 
L 5872 -344 
Q 4697 -203 3691 234 
z
M 3688 681 
Q 4419 1078 4769 1594 
L 2572 1594 
Q 2966 1047 3688 681 
z
" transform="scale(0.015625)"/>
      <path id="Meiryo-306b" d="M 1550 -63 
L 1103 -166 
Q 781 863 781 2066 
Q 781 3378 1209 4897 
L 1691 4813 
Q 1259 3391 1259 2041 
Q 1259 931 1550 -63 
z
M 5781 4066 
Q 5284 4075 4844 4075 
Q 4197 4075 2503 3988 
Q 2503 4128 2484 4409 
Q 4094 4503 5100 4503 
Q 5600 4503 5766 4494 
L 5766 4466 
Q 5766 4322 5781 4066 
z
M 5819 91 
Q 5166 22 4541 22 
Q 3672 22 3242 123 
Q 2813 225 2591 459 
Q 2369 694 2369 1063 
Q 2369 1600 2838 2197 
L 3200 2003 
Q 2816 1581 2816 1091 
Q 2816 847 3023 697 
Q 3231 547 3579 498 
Q 3928 450 4569 450 
Q 5219 450 5819 525 
L 5819 91 
z
" transform="scale(0.015625)"/>
      <path id="Meiryo-5bfe" d="M 6081 3638 
L 5409 3638 
L 5409 206 
Q 5409 -16 5245 -167 
Q 5081 -319 4866 -319 
L 3875 -319 
L 3822 106 
L 4644 106 
Q 4753 106 4836 173 
Q 4919 241 4919 341 
L 4919 3638 
L 3416 3638 
L 3416 4025 
L 4919 4025 
L 4919 5309 
L 5409 5309 
L 5409 4025 
L 6081 4025 
L 6081 3638 
z
M 3163 759 
L 2766 459 
Q 2550 766 2031 1341 
Q 1369 266 428 -375 
L 172 -69 
Q 1175 691 1719 1684 
Q 1034 2413 538 2834 
L 859 3122 
Q 1209 2838 1928 2125 
Q 2281 2988 2294 3853 
L 394 3853 
L 394 4238 
L 1569 4238 
L 1569 5238 
L 2041 5238 
L 2041 4238 
L 3109 4238 
L 3109 3853 
L 2766 3853 
Q 2722 2713 2272 1775 
Q 2872 1153 3163 759 
z
M 4313 1550 
L 3853 1381 
Q 3616 2097 3294 2809 
L 3716 2972 
Q 4022 2331 4313 1550 
z
" transform="scale(0.015625)"/>
      <path id="Meiryo-3057" d="M 5934 2188 
Q 5581 938 4893 350 
Q 4206 -238 3125 -238 
Q 2703 -238 2375 -153 
Q 2047 -69 1812 98 
Q 1578 266 1437 517 
Q 1297 769 1258 1062 
Q 1219 1356 1219 2034 
Q 1219 3188 1356 4866 
L 1869 4866 
Q 1703 3256 1703 2009 
Q 1703 1575 1723 1276 
Q 1744 978 1905 725 
Q 2066 472 2384 340 
Q 2703 209 3175 209 
Q 4022 209 4584 686 
Q 5147 1163 5497 2350 
L 5934 2188 
z
" transform="scale(0.015625)"/>
      <path id="Meiryo-5358" d="M 3003 4225 
Q 2878 4575 2559 5213 
L 3038 5344 
Q 3234 4975 3488 4363 
L 3003 4225 
z
M 2906 -409 
L 2906 591 
L 263 591 
L 263 994 
L 2906 994 
L 2906 1588 
L 719 1588 
L 719 4088 
L 4575 4088 
Q 4750 4350 5256 5291 
L 5772 5119 
Q 5434 4569 5081 4088 
L 5634 4088 
L 5634 1588 
L 3403 1588 
L 3403 994 
L 6156 994 
L 6156 591 
L 3403 591 
L 3403 -409 
L 2906 -409 
z
M 2906 3006 
L 2906 3738 
L 1203 3738 
L 1203 3006 
L 2906 3006 
z
M 3403 3738 
L 3403 3006 
L 5153 3006 
L 5153 3738 
L 3403 3738 
z
M 2906 1941 
L 2906 2672 
L 1203 2672 
L 1203 1941 
L 2906 1941 
z
M 3403 2672 
L 3403 1941 
L 5153 1941 
L 5153 2672 
L 3403 2672 
z
M 1169 4134 
Q 1000 4506 653 5069 
L 1097 5238 
Q 1503 4581 1641 4297 
L 1169 4134 
z
" transform="scale(0.015625)"/>
      <path id="Meiryo-8abf" d="M 5375 -328 
L 4716 -328 
L 4666 84 
L 5172 84 
Q 5447 84 5447 300 
L 5447 4706 
L 3019 4706 
L 3019 2928 
Q 3019 653 2456 -341 
L 2150 -106 
Q 2594 781 2594 2994 
L 2594 5050 
L 5897 5050 
L 5897 116 
Q 5897 -88 5753 -208 
Q 5609 -328 5375 -328 
z
M 544 4691 
L 544 5031 
L 2072 5031 
L 2072 4691 
L 544 4691 
z
M 3275 2597 
L 3275 2928 
L 4006 2928 
L 4006 3628 
L 3397 3628 
L 3397 3941 
L 4006 3941 
L 4006 4469 
L 4434 4469 
L 4434 3941 
L 5038 3941 
L 5038 3628 
L 4434 3628 
L 4434 2928 
L 5194 2928 
L 5194 2597 
L 3275 2597 
z
M 322 3825 
L 322 4175 
L 2234 4175 
L 2234 3825 
L 322 3825 
z
M 550 2975 
L 550 3316 
L 2034 3316 
L 2034 2975 
L 550 2975 
z
M 550 2134 
L 550 2472 
L 2034 2472 
L 2034 2134 
L 550 2134 
z
M 3791 578 
L 3791 338 
L 3391 338 
L 3391 2113 
L 4997 2113 
L 4997 578 
L 3791 578 
z
M 3791 900 
L 4594 900 
L 4594 1813 
L 3791 1813 
L 3791 900 
z
M 909 -138 
L 909 -381 
L 466 -381 
L 466 1578 
L 2059 1578 
L 2059 -138 
L 909 -138 
z
M 1616 1244 
L 909 1244 
L 909 206 
L 1616 206 
L 1616 1244 
z
" transform="scale(0.015625)"/>
      <path id="Meiryo-3067" d="M 5781 4066 
L 4216 4066 
Q 3644 3822 3101 3173 
Q 2559 2525 2559 1825 
Q 2559 1284 2846 923 
Q 3134 563 3615 395 
Q 4097 228 4891 228 
Q 5075 228 5269 238 
L 5238 -225 
L 5222 -225 
Q 4644 -225 4262 -204 
Q 3881 -184 3459 -51 
Q 3038 81 2716 353 
Q 2394 625 2237 981 
Q 2081 1338 2081 1788 
Q 2081 2416 2464 3033 
Q 2847 3650 3475 4078 
L 341 4078 
L 341 4494 
L 5781 4494 
L 5781 4066 
z
M 5916 2925 
L 5556 2778 
Q 5347 3263 5109 3641 
L 5441 3803 
Q 5656 3466 5916 2925 
z
M 5006 2734 
L 4647 2572 
Q 4422 3078 4194 3450 
L 4531 3603 
Q 4803 3181 5006 2734 
z
" transform="scale(0.015625)"/>
      <path id="Meiryo-2014" d="M 5922 1828 
L 478 1828 
L 478 2291 
L 5922 2291 
L 5922 1828 
z
" transform="scale(0.015625)"/>
      <path id="Meiryo-4e2d" d="M 5316 1603 
L 3391 1603 
L 3391 -381 
L 2900 -381 
L 2900 1603 
L 1028 1603 
L 1028 1309 
L 550 1309 
L 550 4278 
L 2900 4278 
L 2900 5250 
L 3391 5250 
L 3391 4278 
L 5784 4278 
L 5784 1309 
L 5316 1309 
L 5316 1603 
z
M 1028 1969 
L 2900 1969 
L 2900 3913 
L 1028 3913 
L 1028 1969 
z
M 3391 1969 
L 5316 1969 
L 5316 3913 
L 3391 3913 
L 3391 1969 
z
" transform="scale(0.015625)"/>
      <path id="Meiryo-306e" d="M 3338 -128 
L 3216 294 
Q 4222 384 4936 878 
Q 5650 1372 5650 2353 
Q 5650 3228 5073 3706 
Q 4497 4184 3466 4213 
Q 3431 2531 2862 1406 
Q 2294 281 1438 281 
Q 906 281 601 732 
Q 297 1184 297 1834 
Q 297 2906 1222 3761 
Q 2147 4616 3413 4616 
Q 4603 4616 5375 4020 
Q 6147 3425 6147 2394 
Q 6147 1219 5369 597 
Q 4591 -25 3338 -128 
z
M 2975 4172 
Q 2069 4034 1416 3351 
Q 763 2669 763 1809 
Q 763 1353 953 1036 
Q 1144 719 1484 719 
Q 2069 719 2503 1811 
Q 2938 2903 2975 4172 
z
" transform="scale(0.015625)"/>
      <path id="Meiryo-66b4" d="M 1578 1244 
Q 922 925 231 722 
L 81 1044 
Q 753 1253 1154 1433 
Q 1556 1613 1953 1872 
L 256 1872 
L 256 2219 
L 1713 2219 
L 1713 2663 
L 531 2663 
L 531 2994 
L 1713 2994 
L 1713 3425 
L 806 3425 
L 806 5103 
L 5513 5103 
L 5513 3425 
L 4538 3425 
L 4538 2994 
L 5753 2994 
L 5753 2663 
L 4538 2663 
L 4538 2219 
L 6100 2219 
L 6100 1872 
L 4272 1872 
Q 4581 1678 5250 1428 
Q 5919 1178 6263 1109 
L 6034 728 
Q 5353 931 4775 1203 
L 4338 775 
L 3972 956 
L 4397 1394 
Q 4019 1603 3706 1872 
L 2563 1872 
Q 2300 1638 1944 1434 
L 2325 956 
L 1928 775 
L 1578 1244 
z
M 1275 4397 
L 5034 4397 
L 5034 4791 
L 1275 4791 
L 1275 4397 
z
M 5034 4119 
L 1275 4119 
L 1275 3719 
L 5034 3719 
L 5034 4119 
z
M 2194 3425 
L 2194 2994 
L 4069 2994 
L 4069 3425 
L 2194 3425 
z
M 2194 2663 
L 2194 2219 
L 4069 2219 
L 4069 2663 
L 2194 2663 
z
M 2925 -406 
L 2294 -406 
L 2228 -16 
L 2703 -16 
Q 2953 -16 2953 200 
L 2953 1584 
L 3441 1584 
L 3441 38 
Q 3441 -163 3303 -284 
Q 3166 -406 2925 -406 
z
M 597 -225 
L 484 141 
Q 803 194 1489 378 
Q 2175 563 2475 663 
L 2541 331 
Q 2344 238 1667 48 
Q 991 -141 597 -225 
z
M 5584 -250 
Q 4566 -59 3734 300 
L 3913 619 
Q 4763 291 5766 141 
L 5584 -250 
z
" transform="scale(0.015625)"/>
      <path id="Meiryo-308b" d="M 4056 228 
Q 5228 509 5228 1434 
Q 5228 2006 4797 2318 
Q 4366 2631 3647 2631 
Q 3153 2631 2683 2506 
Q 2213 2381 1602 1997 
Q 991 1613 750 1409 
L 519 1794 
Q 2422 3022 4238 4378 
L 1075 4366 
L 1075 4781 
L 4891 4781 
L 5109 4463 
L 2906 2938 
L 2931 2900 
Q 3313 3016 3691 3016 
Q 4588 3016 5164 2603 
Q 5741 2191 5741 1463 
Q 5741 609 5034 160 
Q 4328 -288 3141 -288 
Q 1509 -288 1509 609 
Q 1509 963 1846 1203 
Q 2184 1444 2588 1444 
Q 3153 1444 3556 1128 
Q 3959 813 4056 228 
z
M 3597 147 
Q 3416 1044 2622 1044 
Q 2369 1044 2167 919 
Q 1966 794 1966 588 
Q 1966 109 3072 109 
Q 3313 109 3597 147 
z
" transform="scale(0.015625)"/>
     </defs>
     <use xlink:href="#Meiryo-53"/>
     <use xlink:href="#Meiryo-74" transform="translate(63.476562 0)"/>
     <use xlink:href="#Meiryo-61" transform="translate(101.367188 0)"/>
     <use xlink:href="#Meiryo-6c" transform="translate(159.375 0)"/>
     <use xlink:href="#Meiryo-6c" transform="translate(184.765625 0)"/>
     <use xlink:href="#Meiryo-47" transform="translate(210.15625 0)"/>
     <use xlink:href="#Meiryo-75" transform="translate(282.958984 0)"/>
     <use xlink:href="#Meiryo-61" transform="translate(344.775391 0)"/>
     <use xlink:href="#Meiryo-72" transform="translate(402.783203 0)"/>
     <use xlink:href="#Meiryo-64" transform="translate(444.091797 0)"/>
     <use xlink:href="#Meiryo-306f" transform="translate(504.931641 0)"/>
     <use xlink:href="#Meiryo-901f" transform="translate(604.931641 0)"/>
     <use xlink:href="#Meiryo-5ea6" transform="translate(704.931641 0)"/>
     <use xlink:href="#Meiryo-306b" transform="translate(804.931641 0)"/>
     <use xlink:href="#Meiryo-5bfe" transform="translate(904.931641 0)"/>
     <use xlink:href="#Meiryo-3057" transform="translate(1004.931641 0)"/>
     <use xlink:href="#Meiryo-3066" transform="translate(1104.931641 0)"/>
     <use xlink:href="#Meiryo-5358" transform="translate(1204.931641 0)"/>
     <use xlink:href="#Meiryo-8abf" transform="translate(1304.931641 0)"/>
     <use xlink:href="#Meiryo-3067" transform="translate(1404.931641 0)"/>
     <use xlink:href="#Meiryo-306f" transform="translate(1504.931641 0)"/>
     <use xlink:href="#Meiryo-306a" transform="translate(1604.931641 0)"/>
     <use xlink:href="#Meiryo-3044" transform="translate(1704.931641 0)"/>
     <use xlink:href="#Meiryo-20" transform="translate(1804.931641 0)"/>
     <use xlink:href="#Meiryo-2014" transform="translate(1838.916016 0)"/>
     <use xlink:href="#Meiryo-20" transform="translate(1938.916016 0)"/>
     <use xlink:href="#Meiryo-4e2d" transform="translate(1972.900391 0)"/>
     <use xlink:href="#Meiryo-901f" transform="translate(2072.900391 0)"/>
     <use xlink:href="#Meiryo-306e" transform="translate(2172.900391 0)"/>
     <use xlink:href="#Meiryo-5171" transform="translate(2272.900391 0)"/>
     <use xlink:href="#Meiryo-632f" transform="translate(2372.900391 0)"/>
     <use xlink:href="#Meiryo-5e2f" transform="translate(2472.900391 0)"/>
     <use xlink:href="#Meiryo-3067" transform="translate(2572.900391 0)"/>
     <use xlink:href="#Meiryo-66b4" transform="translate(2672.900391 0)"/>
     <use xlink:href="#Meiryo-308c" transform="translate(2772.900391 0)"/>
     <use xlink:href="#Meiryo-308b" transform="translate(2872.900391 0)"/>
    </g>
   </g>
   <g id="legend_1">
    <g id="patch_8">
     <path d="M 485.398125 187.363237 
L 602.1 187.363237 
Q 603.9 187.363237 603.9 185.563237 
L 603.9 159.151049 
Q 603.9 157.351049 602.1 157.351049 
L 485.398125 157.351049 
Q 483.598125 157.351049 483.598125 159.151049 
L 483.598125 185.563237 
Q 483.598125 187.363237 485.398125 187.363237 
z
" style="fill: #ffffff; opacity: 0.8; stroke: #cccccc; stroke-linejoin: miter"/>
    </g>
    <g id="patch_9">
     <path d="M 487.198125 168.654487 
L 505.198125 168.654487 
L 505.198125 162.354487 
L 487.198125 162.354487 
z
" style="fill: #4d7bd6; fill-opacity: 0.25; stroke: #4d7bd6; stroke-opacity: 0.25; stroke-linejoin: miter"/>
    </g>
    <g id="text_19">
     <!-- ばらつき (min–max) -->
     <g transform="translate(512.398125 168.654487) scale(0.09 -0.09)">
      <defs>
       <path id="Meiryo-3070" d="M 6106 569 
L 5825 184 
Q 5522 459 4744 959 
L 4744 769 
Q 4744 294 4430 58 
Q 4116 -178 3359 -178 
Q 2853 -178 2489 69 
Q 2125 316 2125 731 
Q 2125 1156 2472 1420 
Q 2819 1684 3309 1684 
Q 3800 1684 4256 1569 
L 4256 3400 
L 2050 3400 
L 2050 3822 
L 4256 3822 
L 4256 4984 
L 4738 4984 
L 4738 3822 
L 5903 3822 
L 5903 3400 
L 4738 3400 
L 4738 1397 
Q 5466 1103 6106 569 
z
M 4275 769 
L 4275 1147 
Q 3900 1306 3319 1306 
Q 2994 1303 2786 1159 
Q 2578 1016 2578 756 
Q 2578 503 2818 361 
Q 3059 219 3391 219 
Q 4275 219 4275 769 
z
M 1319 -63 
L 853 -166 
Q 534 863 534 2066 
Q 534 3378 959 4897 
L 1441 4813 
Q 1013 3400 1013 2119 
Q 1013 988 1319 -63 
z
M 6359 4616 
L 6006 4469 
Q 5800 4953 5559 5331 
L 5888 5478 
Q 6125 5106 6359 4616 
z
M 5588 4416 
L 5244 4256 
Q 5019 4759 4788 5134 
L 5116 5288 
Q 5384 4866 5588 4416 
z
" transform="scale(0.015625)"/>
       <path id="Meiryo-3089" d="M 5178 4225 
L 4934 3816 
Q 4706 3922 4248 4064 
Q 3791 4206 3289 4339 
Q 2788 4472 1747 4653 
L 1888 5050 
Q 3025 4859 3931 4609 
Q 4838 4359 5178 4225 
z
M 1909 -244 
L 1844 184 
Q 3850 209 4547 536 
Q 5244 863 5244 1447 
Q 5244 1963 4880 2242 
Q 4516 2522 3900 2522 
Q 3163 2522 2377 2198 
Q 1591 1875 1178 1375 
L 769 1613 
Q 1175 2656 1222 4153 
L 1728 4141 
Q 1706 3297 1391 2119 
Q 1819 2472 2526 2701 
Q 3234 2931 3847 2931 
Q 4753 2931 5256 2550 
Q 5759 2169 5759 1447 
Q 5759 647 4939 201 
Q 4119 -244 2050 -244 
L 1909 -244 
z
" transform="scale(0.015625)"/>
       <path id="Meiryo-3064" d="M 1831 72 
L 1753 513 
Q 3816 569 4687 1055 
Q 5559 1541 5563 2444 
Q 5563 3150 5138 3548 
Q 4713 3947 3981 3950 
Q 3513 3950 2436 3803 
Q 1359 3656 409 3469 
L 341 3931 
Q 3122 4378 3928 4378 
Q 4934 4375 5504 3875 
Q 6075 3375 6075 2456 
Q 6075 1338 5142 736 
Q 4209 134 1831 72 
z
" transform="scale(0.015625)"/>
       <path id="Meiryo-304d" d="M 5184 1538 
L 4841 1191 
Q 4500 1419 4000 1555 
Q 3500 1691 3034 1691 
Q 2022 1691 1676 1480 
Q 1331 1269 1331 897 
Q 1331 572 1731 387 
Q 2131 203 3303 203 
Q 4341 203 5141 334 
L 5153 -116 
Q 4456 -231 3291 -231 
Q 1944 -231 1387 58 
Q 831 347 831 897 
Q 831 1484 1361 1792 
Q 1891 2100 2778 2100 
Q 3734 2100 4450 1831 
Q 4138 2234 3872 2734 
L 634 2734 
L 634 3138 
L 3678 3138 
Q 3506 3525 3394 3884 
L 813 3884 
L 813 4288 
L 3266 4288 
Q 3166 4688 3113 5069 
L 3609 5113 
Q 3700 4553 3769 4288 
L 5575 4288 
L 5575 3884 
L 3881 3884 
Q 3966 3622 4163 3138 
L 5875 3138 
L 5875 2734 
L 4366 2734 
Q 4625 2253 5184 1538 
z
" transform="scale(0.015625)"/>
       <path id="Meiryo-6d" d="M 5084 0 
L 5084 1978 
Q 5084 2550 5004 2742 
Q 4925 2934 4761 3023 
Q 4597 3113 4347 3113 
Q 3919 3113 3338 2641 
Q 3356 2478 3356 2225 
L 3356 0 
L 2806 0 
L 2806 1978 
Q 2806 2566 2726 2752 
Q 2647 2938 2486 3025 
Q 2325 3113 2078 3113 
Q 1631 3113 1081 2656 
L 1081 0 
L 531 0 
L 531 3531 
L 1081 3531 
L 1081 3106 
Q 1709 3631 2269 3631 
Q 2991 3631 3244 3053 
Q 3925 3631 4538 3631 
Q 5634 3631 5634 2300 
L 5634 0 
L 5084 0 
z
" transform="scale(0.015625)"/>
       <path id="Meiryo-69" d="M 1122 4238 
L 500 4238 
L 500 4809 
L 1122 4809 
L 1122 4238 
z
M 1088 0 
L 538 0 
L 538 3531 
L 1088 3531 
L 1088 0 
z
" transform="scale(0.015625)"/>
       <path id="Meiryo-6e" d="M 3450 0 
L 2900 0 
L 2900 1978 
Q 2900 2666 2719 2889 
Q 2538 3113 2122 3113 
Q 1631 3113 1081 2656 
L 1081 0 
L 531 0 
L 531 3531 
L 1081 3531 
L 1081 3106 
Q 1703 3631 2309 3631 
Q 2856 3631 3153 3289 
Q 3450 2947 3450 2300 
L 3450 0 
z
" transform="scale(0.015625)"/>
       <path id="Meiryo-2013" d="M 3544 1828 
L 431 1828 
L 431 2291 
L 3544 2291 
L 3544 1828 
z
" transform="scale(0.015625)"/>
       <path id="Meiryo-78" d="M 3428 0 
L 2763 0 
L 1766 1372 
L 744 0 
L 128 0 
L 1472 1753 
L 141 3531 
L 806 3531 
L 1797 2169 
L 2809 3531 
L 3428 3531 
L 2091 1788 
L 3428 0 
z
" transform="scale(0.015625)"/>
      </defs>
      <use xlink:href="#Meiryo-3070"/>
      <use xlink:href="#Meiryo-3089" transform="translate(100 0)"/>
      <use xlink:href="#Meiryo-3064" transform="translate(200 0)"/>
      <use xlink:href="#Meiryo-304d" transform="translate(300 0)"/>
      <use xlink:href="#Meiryo-20" transform="translate(400 0)"/>
      <use xlink:href="#Meiryo-28" transform="translate(433.984375 0)"/>
      <use xlink:href="#Meiryo-6d" transform="translate(477.929688 0)"/>
      <use xlink:href="#Meiryo-69" transform="translate(573.876953 0)"/>
      <use xlink:href="#Meiryo-6e" transform="translate(599.267578 0)"/>
      <use xlink:href="#Meiryo-2013" transform="translate(661.083984 0)"/>
      <use xlink:href="#Meiryo-6d" transform="translate(723.193359 0)"/>
      <use xlink:href="#Meiryo-61" transform="translate(819.140625 0)"/>
      <use xlink:href="#Meiryo-78" transform="translate(877.148438 0)"/>
      <use xlink:href="#Meiryo-29" transform="translate(932.714844 0)"/>
     </g>
    </g>
    <g id="line2d_26">
     <path d="M 487.198125 178.780893 
L 496.198125 178.780893 
L 505.198125 178.780893 
" style="fill: none; stroke: #2b57a8; stroke-width: 2; stroke-linecap: square"/>
     <g>
      <use xlink:href="#mf242250bec" x="496.198125" y="178.780893" style="fill: #2b57a8; stroke: #2b57a8"/>
     </g>
    </g>
    <g id="text_20">
     <!-- SG_RESULT 平均 -->
     <g transform="translate(512.398125 181.930893) scale(0.09 -0.09)">
      <defs>
       <path id="Meiryo-5e73" d="M 275 1638 
L 275 2044 
L 2900 2044 
L 2900 4563 
L 525 4563 
L 525 4959 
L 5778 4959 
L 5778 4563 
L 3409 4563 
L 3409 2044 
L 6066 2044 
L 6066 1638 
L 3409 1638 
L 3409 -400 
L 2900 -400 
L 2900 1638 
L 275 1638 
z
M 4709 2338 
L 4284 2475 
Q 4669 3159 5009 4131 
L 5519 3981 
Q 5056 2900 4709 2338 
z
M 1606 2356 
Q 1256 3297 941 3950 
L 1413 4119 
Q 1669 3609 2084 2519 
L 1606 2356 
z
" transform="scale(0.015625)"/>
       <path id="Meiryo-5747" d="M 4000 -338 
L 3950 94 
L 4438 91 
Q 4684 88 4793 105 
Q 4903 122 5006 208 
Q 5109 294 5170 450 
Q 5231 606 5278 965 
Q 5325 1325 5325 1903 
L 5325 3178 
Q 5325 3666 5319 4200 
L 3053 4200 
Q 2781 3513 2303 2816 
L 1950 3038 
Q 2663 4109 2866 5322 
L 3363 5256 
Q 3309 4966 3188 4584 
L 5797 4584 
L 5797 3250 
Q 5797 2169 5769 1442 
Q 5741 716 5678 439 
Q 5616 163 5506 5 
Q 5397 -153 5258 -233 
Q 5119 -313 5005 -322 
Q 4891 -331 4000 -338 
z
M 222 531 
L 116 963 
Q 484 1047 913 1163 
L 913 3481 
L 253 3481 
L 253 3853 
L 913 3853 
L 913 5256 
L 1409 5256 
L 1409 3853 
L 1959 3853 
L 1959 3481 
L 1409 3481 
L 1409 1306 
Q 1894 1450 2134 1534 
L 2166 1138 
Q 1659 922 222 531 
z
M 2769 2834 
L 2769 3188 
L 4622 3188 
L 4622 2834 
L 2769 2834 
z
M 2603 994 
L 2500 1413 
Q 3766 1606 4825 1881 
L 4856 1497 
Q 3900 1194 2603 994 
z
" transform="scale(0.015625)"/>
      </defs>
      <use xlink:href="#Meiryo-53"/>
      <use xlink:href="#Meiryo-47" transform="translate(63.476562 0)"/>
      <use xlink:href="#Meiryo-5f" transform="translate(136.279297 0)"/>
      <use xlink:href="#Meiryo-52" transform="translate(198.388672 0)"/>
      <use xlink:href="#Meiryo-45" transform="translate(266.650391 0)"/>
      <use xlink:href="#Meiryo-53" transform="translate(328.417969 0)"/>
      <use xlink:href="#Meiryo-55" transform="translate(391.894531 0)"/>
      <use xlink:href="#Meiryo-4c" transform="translate(464.794922 0)"/>
      <use xlink:href="#Meiryo-54" transform="translate(511.958984 0)"/>
      <use xlink:href="#Meiryo-20" transform="translate(575.533203 0)"/>
      <use xlink:href="#Meiryo-5e73" transform="translate(609.517578 0)"/>
      <use xlink:href="#Meiryo-5747" transform="translate(709.517578 0)"/>
     </g>
    </g>
   </g>
  </g>
 </g>
 <defs>
  <clipPath id="p048fdea780">
   <rect x="50.857143" y="26.057143" width="557.542857" height="292.6"/>
  </clipPath>
 </defs>
</svg>
