<?xml version="1.0" encoding="utf-8" standalone="no"?>
<!DOCTYPE svg PUBLIC "-//W3C//DTD SVG 1.1//EN"
  "http://www.w3.org/Graphics/SVG/1.1/DTD/svg11.dtd">
<svg xmlns:xlink="http://www.w3.org/1999/xlink" width="604.8pt" height="374.4pt" viewBox="0 0 604.8 374.4" xmlns="http://www.w3.org/2000/svg" version="1.1">
 <metadata>
  <rdf:RDF xmlns:dc="http://purl.org/dc/elements/1.1/" xmlns:cc="http://creativecommons.org/ns#" xmlns:rdf="http://www.w3.org/1999/02/22-rdf-syntax-ns#">
   <cc:Work>
    <dc:type rdf:resource="http://purl.org/dc/dcmitype/StillImage"/>
    <dc:date>2026-07-06T10:22:39.657872</dc:date>
    <dc:format>image/svg+xml</dc:format>
    <dc:creator>
     <cc:Agent>
      <dc:title>Matplotlib v3.10.9, https://matplotlib.org/</dc:title>
     </cc:Agent>
    </dc:creator>
   </cc:Work>
  </rdf:RDF>
 </metadata>
 <defs>
  <style type="text/css">*{stroke-linejoin: round; stroke-linecap: butt}</style>
 </defs>
 <g id="figure_1">
  <g id="patch_1">
   <path d="M 0 374.4 
L 604.8 374.4 
L 604.8 0 
L 0 0 
z
" style="fill: #ffffff"/>
  </g>
  <g id="axes_1">
   <g id="patch_2">
    <path d="M 50.905357 332.165179 
L 594 332.165179 
L 594 26.820536 
L 50.905357 26.820536 
z
" style="fill: #ffffff"/>
   </g>
   <g id="matplotlib.axis_1">
    <g id="xtick_1">
     <g id="line2d_1">
      <path d="M 75.591477 332.165179 
L 75.591477 26.820536 
" clip-path="url(#p56d3afa028)" style="fill: none; stroke: #b0b0b0; stroke-opacity: 0.3; stroke-width: 0.8; stroke-linecap: square"/>
     </g>
     <g id="line2d_2">
      <defs>
       <path id="m89ac3173e8" d="M 0 0 
L 0 3.5 
" style="stroke: #000000; stroke-width: 0.8"/>
      </defs>
      <g>
       <use xlink:href="#m89ac3173e8" x="75.591477" y="332.165179" style="stroke: #000000; stroke-width: 0.8"/>
      </g>
     </g>
     <g id="text_1">
      <!-- 1000 -->
      <g transform="translate(63.169602 346.851116) scale(0.1 -0.1)">
       <defs>
        <path id="Meiryo-31" d="M 3338 0 
L 831 0 
L 831 431 
L 1813 431 
L 1813 3669 
L 831 3669 
L 831 4050 
Q 1406 4053 1653 4214 
Q 1900 4375 1931 4725 
L 2375 4725 
L 2375 431 
L 3338 431 
L 3338 0 
z
" transform="scale(0.015625)"/>
        <path id="Meiryo-30" d="M 1991 -97 
Q 1159 -97 768 497 
Q 378 1091 378 2350 
Q 378 3609 770 4206 
Q 1163 4803 1991 4803 
Q 2813 4803 3206 4204 
Q 3600 3606 3600 2356 
Q 3600 1094 3209 498 
Q 2819 -97 1991 -97 
z
M 1991 4325 
Q 1456 4325 1215 3901 
Q 975 3478 975 2350 
Q 975 1231 1215 806 
Q 1456 381 1991 381 
Q 2525 381 2764 806 
Q 3003 1231 3003 2356 
Q 3003 3459 2765 3892 
Q 2528 4325 1991 4325 
z
" transform="scale(0.015625)"/>
       </defs>
       <use xlink:href="#Meiryo-31"/>
       <use xlink:href="#Meiryo-30" transform="translate(62.109375 0)"/>
       <use xlink:href="#Meiryo-30" transform="translate(124.21875 0)"/>
       <use xlink:href="#Meiryo-30" transform="translate(186.328125 0)"/>
      </g>
     </g>
    </g>
    <g id="xtick_2">
     <g id="line2d_3">
      <path d="M 174.335958 332.165179 
L 174.335958 26.820536 
" clip-path="url(#p56d3afa028)" style="fill: none; stroke: #b0b0b0; stroke-opacity: 0.3; stroke-width: 0.8; stroke-linecap: square"/>
     </g>
     <g id="line2d_4">
      <g>
       <use xlink:href="#m89ac3173e8" x="174.335958" y="332.165179" style="stroke: #000000; stroke-width: 0.8"/>
      </g>
     </g>
     <g id="text_2">
      <!-- 2000 -->
      <g transform="translate(161.914083 346.851116) scale(0.1 -0.1)">
       <defs>
        <path id="Meiryo-32" d="M 3606 0 
L 456 0 
L 456 609 
Q 956 1041 1579 1612 
Q 2203 2184 2506 2618 
Q 2809 3053 2809 3488 
Q 2809 3872 2554 4087 
Q 2300 4303 1863 4303 
Q 1222 4303 603 3897 
L 572 3897 
L 572 4506 
Q 1203 4806 1878 4806 
Q 2591 4806 3000 4461 
Q 3409 4116 3409 3519 
Q 3409 3200 3304 2909 
Q 3200 2619 2978 2344 
Q 2756 2069 2447 1759 
Q 2138 1450 1025 503 
L 3606 503 
L 3606 0 
z
" transform="scale(0.015625)"/>
       </defs>
       <use xlink:href="#Meiryo-32"/>
       <use xlink:href="#Meiryo-30" transform="translate(62.109375 0)"/>
       <use xlink:href="#Meiryo-30" transform="translate(124.21875 0)"/>
       <use xlink:href="#Meiryo-30" transform="translate(186.328125 0)"/>
      </g>
     </g>
    </g>
    <g id="xtick_3">
     <g id="line2d_5">
      <path d="M 273.080438 332.165179 
L 273.080438 26.820536 
" clip-path="url(#p56d3afa028)" style="fill: none; stroke: #b0b0b0; stroke-opacity: 0.3; stroke-width: 0.8; stroke-linecap: square"/>
     </g>
     <g id="line2d_6">
      <g>
       <use xlink:href="#m89ac3173e8" x="273.080438" y="332.165179" style="stroke: #000000; stroke-width: 0.8"/>
      </g>
     </g>
     <g id="text_3">
      <!-- 3000 -->
      <g transform="translate(260.658563 346.851116) scale(0.1 -0.1)">
       <defs>
        <path id="Meiryo-33" d="M 475 197 
L 475 825 
L 525 825 
Q 1159 406 1838 406 
Q 2338 406 2639 678 
Q 2941 950 2941 1434 
Q 2941 1884 2678 2096 
Q 2416 2309 1828 2309 
L 1553 2309 
L 1553 2791 
L 1766 2791 
Q 2272 2791 2559 3006 
Q 2847 3222 2847 3613 
Q 2847 3944 2595 4123 
Q 2344 4303 1903 4303 
Q 1269 4303 644 3894 
L 609 3894 
L 609 4509 
Q 1241 4806 1919 4806 
Q 2647 4806 3045 4501 
Q 3444 4197 3444 3678 
Q 3444 3297 3178 2997 
Q 2913 2697 2513 2616 
L 2513 2566 
Q 3541 2381 3541 1381 
Q 3541 734 3069 318 
Q 2597 -97 1853 -97 
Q 1144 -97 475 197 
z
" transform="scale(0.015625)"/>
       </defs>
       <use xlink:href="#Meiryo-33"/>
       <use xlink:href="#Meiryo-30" transform="translate(62.109375 0)"/>
       <use xlink:href="#Meiryo-30" transform="translate(124.21875 0)"/>
       <use xlink:href="#Meiryo-30" transform="translate(186.328125 0)"/>
      </g>
     </g>
    </g>
    <g id="xtick_4">
     <g id="line2d_7">
      <path d="M 371.824919 332.165179 
L 371.824919 26.820536 
" clip-path="url(#p56d3afa028)" style="fill: none; stroke: #b0b0b0; stroke-opacity: 0.3; stroke-width: 0.8; stroke-linecap: square"/>
     </g>
     <g id="line2d_8">
      <g>
       <use xlink:href="#m89ac3173e8" x="371.824919" y="332.165179" style="stroke: #000000; stroke-width: 0.8"/>
      </g>
     </g>
     <g id="text_4">
      <!-- 4000 -->
      <g transform="translate(359.403044 346.851116) scale(0.1 -0.1)">
       <defs>
        <path id="Meiryo-34" d="M 3713 1356 
L 3022 1356 
L 3022 0 
L 2459 0 
L 2459 1356 
L 194 1356 
L 194 2013 
L 2484 4709 
L 3022 4709 
L 3022 1819 
L 3713 1819 
L 3713 1356 
z
M 2459 1819 
L 2459 4022 
L 588 1819 
L 2459 1819 
z
" transform="scale(0.015625)"/>
       </defs>
       <use xlink:href="#Meiryo-34"/>
       <use xlink:href="#Meiryo-30" transform="translate(62.109375 0)"/>
       <use xlink:href="#Meiryo-30" transform="translate(124.21875 0)"/>
       <use xlink:href="#Meiryo-30" transform="translate(186.328125 0)"/>
      </g>
     </g>
    </g>
    <g id="xtick_5">
     <g id="line2d_9">
      <path d="M 470.569399 332.165179 
L 470.569399 26.820536 
" clip-path="url(#p56d3afa028)" style="fill: none; stroke: #b0b0b0; stroke-opacity: 0.3; stroke-width: 0.8; stroke-linecap: square"/>
     </g>
     <g id="line2d_10">
      <g>
       <use xlink:href="#m89ac3173e8" x="470.569399" y="332.165179" style="stroke: #000000; stroke-width: 0.8"/>
      </g>
     </g>
     <g id="text_5">
      <!-- 5000 -->
      <g transform="translate(458.147524 346.851116) scale(0.1 -0.1)">
       <defs>
        <path id="Meiryo-35" d="M 538 178 
L 538 803 
L 588 803 
Q 1197 406 1856 406 
Q 2363 406 2667 695 
Q 2972 984 2972 1494 
Q 2972 2419 1703 2419 
Q 1341 2419 741 2294 
L 741 4709 
L 3538 4709 
L 3538 4203 
L 1303 4203 
L 1303 2869 
Q 1716 2909 1859 2909 
Q 2700 2909 3134 2546 
Q 3569 2184 3569 1491 
Q 3569 791 3098 347 
Q 2628 -97 1869 -97 
Q 1131 -97 538 178 
z
" transform="scale(0.015625)"/>
       </defs>
       <use xlink:href="#Meiryo-35"/>
       <use xlink:href="#Meiryo-30" transform="translate(62.109375 0)"/>
       <use xlink:href="#Meiryo-30" transform="translate(124.21875 0)"/>
       <use xlink:href="#Meiryo-30" transform="translate(186.328125 0)"/>
      </g>
     </g>
    </g>
    <g id="xtick_6">
     <g id="line2d_11">
      <path d="M 569.31388 332.165179 
L 569.31388 26.820536 
" clip-path="url(#p56d3afa028)" style="fill: none; stroke: #b0b0b0; stroke-opacity: 0.3; stroke-width: 0.8; stroke-linecap: square"/>
     </g>
     <g id="line2d_12">
      <g>
       <use xlink:href="#m89ac3173e8" x="569.31388" y="332.165179" style="stroke: #000000; stroke-width: 0.8"/>
      </g>
     </g>
     <g id="text_6">
      <!-- 6000 -->
      <g transform="translate(556.892005 346.851116) scale(0.1 -0.1)">
       <defs>
        <path id="Meiryo-36" d="M 3222 4722 
L 3222 4169 
L 3184 4169 
Q 2922 4297 2572 4297 
Q 1881 4297 1468 3858 
Q 1056 3419 988 2638 
Q 1578 2991 2138 2991 
Q 2822 2991 3248 2611 
Q 3675 2231 3675 1522 
Q 3675 816 3212 359 
Q 2750 -97 2063 -97 
Q 1266 -97 823 458 
Q 381 1013 381 2066 
Q 381 3363 973 4080 
Q 1566 4797 2666 4797 
Q 2997 4797 3222 4722 
z
M 988 2238 
Q 975 1981 975 1928 
Q 975 1184 1265 779 
Q 1556 375 2069 375 
Q 2541 375 2809 670 
Q 3078 966 3078 1497 
Q 3078 1938 2825 2225 
Q 2572 2513 1984 2513 
Q 1475 2513 988 2238 
z
" transform="scale(0.015625)"/>
       </defs>
       <use xlink:href="#Meiryo-36"/>
       <use xlink:href="#Meiryo-30" transform="translate(62.109375 0)"/>
       <use xlink:href="#Meiryo-30" transform="translate(124.21875 0)"/>
       <use xlink:href="#Meiryo-30" transform="translate(186.328125 0)"/>
      </g>
     </g>
    </g>
    <g id="text_7">
     <!-- VACTUAL (速度→ back-EMFと巻線インピーダンス∝速度) -->
     <g transform="translate(188.387835 361.646429) scale(0.1 -0.1)">
      <defs>
       <path id="Meiryo-56" d="M 4313 4709 
L 2453 0 
L 1916 0 
L 56 4709 
L 678 4709 
L 2203 794 
L 3722 4709 
L 4313 4709 
z
" transform="scale(0.015625)"/>
       <path id="Meiryo-41" d="M 3000 1828 
L 2153 4150 
L 1309 1828 
L 3000 1828 
z
M 3659 0 
L 3175 1344 
L 1131 1344 
L 647 0 
L 56 0 
L 1800 4709 
L 2541 4709 
L 4281 0 
L 3659 0 
z
" transform="scale(0.015625)"/>
       <path id="Meiryo-43" d="M 2544 -84 
Q 1488 -84 889 553 
Q 291 1191 291 2350 
Q 291 3488 898 4141 
Q 1506 4794 2547 4794 
Q 3294 4794 4103 4372 
L 4103 3688 
L 4059 3688 
Q 3325 4303 2509 4303 
Q 1766 4303 1331 3786 
Q 897 3269 897 2350 
Q 897 1438 1339 923 
Q 1781 409 2516 409 
Q 2913 409 3272 536 
Q 3631 663 4059 1031 
L 4103 1031 
L 4103 344 
Q 3503 59 3170 -12 
Q 2838 -84 2544 -84 
z
" transform="scale(0.015625)"/>
       <path id="Meiryo-54" d="M 1744 0 
L 1744 4203 
L 72 4203 
L 72 4709 
L 3997 4709 
L 3997 4203 
L 2325 4203 
L 2325 0 
L 1744 0 
z
" transform="scale(0.015625)"/>
       <path id="Meiryo-55" d="M 4141 1869 
Q 4141 847 3675 375 
Q 3209 -97 2331 -97 
Q 525 -97 525 1869 
L 525 4709 
L 1106 4709 
L 1106 1816 
Q 1106 1059 1409 726 
Q 1713 394 2331 394 
Q 2941 394 3250 720 
Q 3559 1047 3559 1800 
L 3559 4709 
L 4141 4709 
L 4141 1869 
z
" transform="scale(0.015625)"/>
       <path id="Meiryo-4c" d="M 3513 0 
L 578 0 
L 578 4709 
L 1159 4709 
L 1159 506 
L 3513 506 
L 3513 0 
z
" transform="scale(0.015625)"/>
       <path id="Meiryo-20" transform="scale(0.015625)"/>
       <path id="Meiryo-28" d="M 2397 -1303 
L 1731 -1303 
Q 1094 -563 808 184 
Q 522 931 522 1809 
Q 522 3506 1731 4919 
L 2397 4919 
L 2397 4888 
Q 1775 4341 1401 3523 
Q 1028 2706 1028 1809 
Q 1028 909 1400 95 
Q 1772 -719 2397 -1272 
L 2397 -1303 
z
" transform="scale(0.015625)"/>
       <path id="Meiryo-901f" d="M 6184 1059 
L 5947 688 
Q 4897 1109 4134 1900 
L 4134 413 
L 3669 413 
L 3669 1869 
Q 2900 1094 1953 713 
L 1778 1034 
Q 2325 1275 2839 1684 
Q 3353 2094 3534 2331 
L 2144 2331 
L 2144 3900 
L 3656 3900 
L 3656 4422 
L 1888 4422 
L 1888 4806 
L 3656 4806 
L 3656 5256 
L 4141 5256 
L 4141 4806 
L 5947 4806 
L 5947 4422 
L 4141 4422 
L 4141 3900 
L 5669 3900 
L 5669 2331 
L 4259 2331 
Q 4578 1966 5126 1606 
Q 5675 1247 6184 1059 
z
M 5197 2659 
L 5197 3559 
L 4141 3559 
L 4141 2659 
L 5197 2659 
z
M 3656 2659 
L 3656 3559 
L 2613 3559 
L 2613 2659 
L 3656 2659 
z
M 1594 4166 
L 1156 3906 
Q 875 4406 406 4978 
L 803 5225 
Q 1294 4619 1594 4166 
z
M 6288 172 
L 6197 -253 
L 4453 -259 
Q 3138 -259 2831 -231 
Q 2525 -203 2203 -133 
Q 1881 -63 1642 101 
Q 1403 266 1294 459 
Q 775 -72 269 -319 
L 100 100 
Q 272 175 583 379 
Q 894 584 1019 706 
L 1019 2613 
L 191 2613 
L 191 3000 
L 1509 3000 
L 1509 994 
Q 1509 700 1715 514 
Q 1922 328 2200 264 
Q 2478 200 2722 165 
Q 2966 131 4138 131 
Q 5650 131 6288 172 
z
" transform="scale(0.015625)"/>
       <path id="Meiryo-5ea6" d="M 1128 4441 
L 1128 2947 
Q 1128 1750 917 956 
Q 706 163 353 -325 
L 38 -84 
Q 659 963 659 2666 
L 659 4831 
L 3100 4831 
L 3100 5363 
L 3609 5363 
L 3609 4831 
L 6075 4831 
L 6075 4441 
L 1128 4441 
z
M 2303 2403 
L 2303 3338 
L 1388 3338 
L 1388 3703 
L 2303 3703 
L 2303 4166 
L 2772 4166 
L 2772 3703 
L 4378 3703 
L 4378 4166 
L 4869 4166 
L 4869 3703 
L 5881 3703 
L 5881 3338 
L 4869 3338 
L 4869 2403 
L 2303 2403 
z
M 2772 3338 
L 2772 2744 
L 4378 2744 
L 4378 3338 
L 2772 3338 
z
M 3691 234 
Q 2697 -222 1219 -384 
L 1116 3 
Q 1538 41 1898 106 
Q 2259 172 2498 240 
Q 2738 309 3209 472 
Q 2441 922 2047 1594 
L 1531 1594 
L 1531 1966 
L 5356 1966 
L 5475 1831 
Q 5072 1031 4153 478 
Q 4984 172 6063 66 
L 5872 -344 
Q 4697 -203 3691 234 
z
M 3688 681 
Q 4419 1078 4769 1594 
L 2572 1594 
Q 2966 1047 3688 681 
z
" transform="scale(0.015625)"/>
       <path id="Meiryo-2192" d="M 184 2203 
L 184 2569 
L 5522 2569 
L 4128 3872 
L 4641 3872 
L 6247 2394 
L 4672 834 
L 4141 834 
L 5528 2203 
L 184 2203 
z
" transform="scale(0.015625)"/>
       <path id="Meiryo-62" d="M 1084 188 
L 1038 0 
L 531 0 
L 531 4919 
L 1081 4919 
L 1081 3144 
Q 1684 3631 2253 3631 
Q 2875 3631 3245 3140 
Q 3616 2650 3616 1797 
Q 3616 953 3169 428 
Q 2722 -97 2063 -97 
Q 1547 -97 1084 188 
z
M 1081 2697 
L 1081 603 
Q 1550 394 1950 394 
Q 2469 394 2758 756 
Q 3047 1119 3047 1781 
Q 3047 3113 2094 3113 
Q 1588 3113 1081 2697 
z
" transform="scale(0.015625)"/>
       <path id="Meiryo-61" d="M 2663 841 
L 2663 1866 
Q 1497 1813 1164 1608 
Q 831 1403 831 1044 
Q 831 409 1600 409 
Q 2122 409 2663 841 
z
M 2663 0 
L 2663 394 
Q 2222 75 1937 -11 
Q 1653 -97 1359 -97 
Q 888 -97 575 215 
Q 263 528 263 1009 
Q 263 1625 727 1936 
Q 1191 2247 2663 2306 
L 2663 2413 
Q 2663 2781 2444 2957 
Q 2225 3134 1675 3134 
Q 1191 3134 597 2884 
L 572 2884 
L 572 3456 
Q 1156 3616 1697 3616 
Q 2481 3616 2845 3323 
Q 3209 3031 3209 2416 
L 3209 0 
L 2663 0 
z
" transform="scale(0.015625)"/>
       <path id="Meiryo-63" d="M 3097 216 
Q 2463 -81 1991 -81 
Q 1175 -81 723 397 
Q 272 875 272 1759 
Q 272 2625 737 3122 
Q 1203 3619 1994 3619 
Q 2516 3619 3097 3328 
L 3097 2716 
L 3072 2716 
Q 2488 3144 1981 3144 
Q 1441 3144 1141 2784 
Q 841 2425 841 1759 
Q 841 1094 1139 744 
Q 1438 394 1981 394 
Q 2503 394 3072 816 
L 3097 816 
L 3097 216 
z
" transform="scale(0.015625)"/>
       <path id="Meiryo-6b" d="M 3550 0 
L 2822 0 
L 1409 1559 
L 1081 1244 
L 1081 0 
L 531 0 
L 531 4919 
L 1081 4919 
L 1081 1794 
L 2734 3531 
L 3422 3531 
L 1816 1906 
L 3550 0 
z
" transform="scale(0.015625)"/>
       <path id="Meiryo-2d" d="M 2381 1797 
L 431 1797 
L 431 2322 
L 2381 2322 
L 2381 1797 
z
" transform="scale(0.015625)"/>
       <path id="Meiryo-45" d="M 3644 0 
L 578 0 
L 578 4709 
L 3644 4709 
L 3644 4203 
L 1159 4203 
L 1159 2831 
L 3581 2831 
L 3581 2325 
L 1159 2325 
L 1159 506 
L 3644 506 
L 3644 0 
z
" transform="scale(0.015625)"/>
       <path id="Meiryo-4d" d="M 4738 0 
L 4156 0 
L 4156 4044 
L 2797 1281 
L 2478 1281 
L 1119 4044 
L 1119 0 
L 578 0 
L 578 4709 
L 1322 4709 
L 2656 2000 
L 3988 4709 
L 4738 4709 
L 4738 0 
z
" transform="scale(0.015625)"/>
       <path id="Meiryo-46" d="M 3550 4203 
L 1159 4203 
L 1159 2797 
L 3281 2797 
L 3281 2291 
L 1159 2291 
L 1159 0 
L 578 0 
L 578 4709 
L 3550 4709 
L 3550 4203 
z
" transform="scale(0.015625)"/>
       <path id="Meiryo-3068" d="M 5794 -109 
Q 4903 -200 3881 -200 
Q 3438 -200 2917 -184 
Q 2397 -169 2061 -100 
Q 1725 -31 1462 147 
Q 1200 325 1078 562 
Q 956 800 956 1109 
Q 956 2178 2659 2903 
Q 2575 3891 2559 5006 
L 3078 5006 
Q 3075 4872 3075 4722 
Q 3075 3991 3138 3091 
Q 3741 3313 5441 3797 
L 5569 3353 
Q 5075 3222 4029 2919 
Q 2984 2616 2468 2342 
Q 1953 2069 1700 1764 
Q 1447 1459 1447 1122 
Q 1447 953 1512 815 
Q 1578 678 1722 562 
Q 1866 447 2114 361 
Q 2363 275 2784 256 
Q 3206 238 3703 241 
Q 4856 241 5794 353 
L 5794 -109 
z
" transform="scale(0.015625)"/>
       <path id="Meiryo-5dfb" d="M 1450 1359 
L 4100 1359 
L 4100 2031 
L 1756 2031 
L 1756 2338 
Q 1191 1850 419 1425 
L 172 1744 
Q 1147 2241 1788 2931 
L 400 2931 
L 400 3297 
L 2094 3297 
Q 2341 3619 2509 3938 
L 628 3938 
L 628 4297 
L 1634 4297 
Q 1559 4469 1263 5078 
L 1697 5216 
Q 1938 4781 2128 4297 
L 2672 4297 
Q 2847 4759 2925 5388 
L 3434 5341 
Q 3316 4694 3166 4297 
L 4209 4297 
Q 4491 4800 4609 5209 
L 5100 5113 
Q 5013 4850 4650 4297 
L 5813 4297 
L 5813 3938 
L 3925 3938 
Q 4103 3606 4363 3297 
L 5963 3297 
L 5963 2931 
L 4713 2931 
Q 5350 2331 6247 1828 
L 5928 1469 
Q 4966 2038 4144 2931 
L 2353 2931 
Q 2109 2653 1794 2372 
L 4572 2372 
L 4572 1013 
L 1906 1013 
L 1906 347 
Q 1906 159 2156 120 
Q 2406 81 3225 81 
Q 3756 81 4139 97 
Q 4522 113 4675 141 
Q 4828 169 4898 286 
Q 4969 403 4969 903 
L 5375 838 
L 5375 234 
Q 5375 -97 5062 -203 
Q 4750 -309 3241 -309 
Q 1938 -309 1694 -201 
Q 1450 -94 1450 244 
L 1450 1359 
z
M 3009 3938 
Q 2838 3584 2638 3297 
L 3838 3297 
Q 3606 3609 3463 3938 
L 3009 3938 
z
" transform="scale(0.015625)"/>
       <path id="Meiryo-7dda" d="M 4056 -356 
L 3422 -356 
L 3375 53 
L 3847 53 
Q 4081 53 4081 263 
L 4081 2631 
L 2803 2631 
L 2803 4859 
L 3903 4859 
L 4081 5394 
L 4556 5297 
L 4341 4859 
L 5869 4859 
L 5869 2631 
L 4566 2631 
L 4566 2306 
Q 4691 1947 4956 1541 
Q 5578 1978 5897 2300 
L 6228 2019 
Q 5922 1738 5159 1253 
Q 5669 578 6341 106 
L 6034 -219 
Q 5097 466 4566 1544 
L 4566 100 
Q 4566 -100 4419 -228 
Q 4272 -356 4056 -356 
z
M 3241 3900 
L 5413 3900 
L 5413 4506 
L 3241 4506 
L 3241 3900 
z
M 5413 3566 
L 3241 3566 
L 3241 2972 
L 5413 2972 
L 5413 3566 
z
M 1119 -397 
L 1119 2225 
L 172 2150 
L 113 2541 
L 444 2550 
Q 681 2844 1009 3294 
Q 856 3450 131 4153 
L 406 4428 
L 522 4319 
Q 897 4853 1103 5309 
L 1522 5159 
Q 1184 4581 791 4056 
L 1238 3609 
Q 1688 4253 1881 4644 
L 2306 4466 
Q 1722 3541 916 2566 
Q 1584 2594 2000 2628 
L 1856 3097 
L 2234 3200 
Q 2416 2638 2541 2181 
L 2156 2078 
Q 2144 2138 2094 2309 
Q 1853 2281 1563 2259 
L 1563 -397 
L 1119 -397 
z
M 2403 -228 
L 2169 47 
Q 2675 391 2973 869 
Q 3272 1347 3338 1778 
L 2644 1778 
L 2644 2116 
L 3741 2116 
L 3841 2019 
Q 3775 1366 3367 722 
Q 2959 78 2403 -228 
z
M 2044 653 
Q 1963 1050 1875 1725 
L 2241 1778 
Q 2303 1372 2416 713 
L 2044 653 
z
M 419 100 
L 66 184 
Q 322 1075 372 1731 
L 791 1700 
Q 738 1306 622 812 
Q 506 319 419 100 
z
" transform="scale(0.015625)"/>
       <path id="Meiryo-30a4" d="M 3994 -300 
L 3438 -300 
L 3438 2813 
Q 2066 2084 513 1722 
L 347 2150 
Q 2375 2672 3547 3459 
Q 4719 4247 5306 5088 
L 5819 4888 
Q 5250 4038 3994 3175 
L 3994 -300 
z
" transform="scale(0.015625)"/>
       <path id="Meiryo-30f3" d="M 3334 3622 
L 2981 3213 
Q 1866 3900 756 4372 
L 1025 4763 
Q 2194 4325 3334 3622 
z
M 6059 2828 
Q 5534 1913 4696 1245 
Q 3859 578 2954 251 
Q 2050 -75 825 -206 
L 716 275 
Q 1734 378 2540 648 
Q 3347 919 3908 1301 
Q 4469 1684 4853 2061 
Q 5238 2438 5631 3097 
L 6059 2828 
z
" transform="scale(0.015625)"/>
       <path id="Meiryo-30d4" d="M 5819 -103 
L 2606 -103 
Q 2250 -103 1978 -39 
Q 1706 25 1520 154 
Q 1334 284 1232 492 
Q 1131 700 1131 1172 
L 1131 5075 
L 1663 5075 
L 1663 3128 
Q 4316 3619 5381 4116 
L 5644 3647 
Q 4997 3369 3828 3095 
Q 2659 2822 1663 2691 
L 1663 1216 
Q 1663 875 1736 709 
Q 1809 544 2064 464 
Q 2319 384 2747 384 
L 5819 384 
L 5819 -103 
z
M 4341 4944 
Q 4341 5225 4548 5415 
Q 4756 5606 5031 5606 
Q 5338 5606 5533 5407 
Q 5728 5209 5728 4947 
Q 5728 4647 5518 4458 
Q 5309 4269 5044 4269 
Q 4738 4269 4539 4470 
Q 4341 4672 4341 4944 
z
M 5484 4947 
Q 5484 5125 5348 5256 
Q 5213 5388 5031 5388 
Q 4856 5388 4718 5255 
Q 4581 5122 4581 4941 
Q 4581 4759 4717 4626 
Q 4853 4494 5031 4494 
Q 5216 4494 5350 4622 
Q 5484 4750 5484 4947 
z
" transform="scale(0.015625)"/>
       <path id="Meiryo-30fc" d="M 5756 2069 
L 588 2069 
L 588 2531 
L 5756 2531 
L 5756 2069 
z
" transform="scale(0.015625)"/>
       <path id="Meiryo-30c0" d="M 2894 5056 
Q 2800 4756 2650 4447 
L 5709 4447 
Q 5684 3994 5653 3806 
Q 5550 3213 5348 2700 
Q 5147 2188 4819 1720 
Q 4491 1253 3987 850 
Q 3484 447 2823 158 
Q 2163 -131 1350 -300 
L 1203 128 
Q 3034 478 4075 1606 
Q 3131 2119 1831 2572 
L 2075 2944 
Q 3019 2653 4397 2006 
Q 4997 2878 5131 4031 
L 2425 4031 
Q 2031 3350 1465 2792 
Q 900 2234 347 1919 
L 72 2259 
Q 913 2797 1520 3595 
Q 2128 4394 2363 5125 
L 2894 5056 
z
M 6322 4734 
L 5966 4588 
Q 5759 5069 5516 5453 
L 5844 5606 
Q 6084 5234 6322 4734 
z
M 5403 4709 
L 5044 4550 
Q 4850 4988 4594 5400 
L 4934 5553 
Q 5231 5097 5403 4709 
z
" transform="scale(0.015625)"/>
       <path id="Meiryo-30b9" d="M 6228 50 
L 5784 -294 
Q 4928 588 3444 1838 
Q 1891 344 353 -269 
L 116 128 
Q 1403 653 2679 1792 
Q 3956 2931 4469 4281 
L 903 4281 
L 903 4716 
L 5031 4716 
L 5159 4600 
Q 4722 3275 3756 2181 
Q 4713 1434 6228 50 
z
" transform="scale(0.015625)"/>
       <path id="Meiryo-221d" d="M 5822 1600 
Q 5438 981 4672 981 
Q 3803 981 3244 1934 
Q 2944 1416 2619 1198 
Q 2294 981 1834 981 
Q 1178 981 797 1397 
Q 447 1778 447 2356 
Q 447 2919 828 3325 
Q 1225 3744 1809 3744 
Q 2672 3744 3250 2797 
Q 3541 3313 3862 3528 
Q 4184 3744 4644 3744 
Q 5403 3744 5816 3188 
L 5497 2953 
Q 5184 3375 4644 3375 
Q 4234 3375 3953 3125 
Q 3703 2903 3459 2381 
Q 3903 1353 4672 1353 
Q 5203 1353 5503 1800 
L 5822 1600 
z
M 3019 2356 
Q 2788 2875 2519 3116 
Q 2225 3381 1809 3381 
Q 1391 3381 1103 3059 
Q 831 2756 831 2356 
Q 831 1956 1081 1669 
Q 1363 1344 1834 1344 
Q 2241 1344 2522 1600 
Q 2769 1825 3019 2356 
z
" transform="scale(0.015625)"/>
       <path id="Meiryo-29" d="M 1081 -1303 
L 416 -1303 
L 416 -1272 
Q 1044 -713 1414 98 
Q 1784 909 1784 1809 
Q 1784 2706 1412 3520 
Q 1041 4334 416 4888 
L 416 4919 
L 1081 4919 
Q 2291 3506 2291 1809 
Q 2291 934 2008 190 
Q 1725 -553 1081 -1303 
z
" transform="scale(0.015625)"/>
      </defs>
      <use xlink:href="#Meiryo-56"/>
      <use xlink:href="#Meiryo-41" transform="translate(65.386719 0)"/>
      <use xlink:href="#Meiryo-43" transform="translate(132.785156 0)"/>
      <use xlink:href="#Meiryo-54" transform="translate(200.021484 0)"/>
      <use xlink:href="#Meiryo-55" transform="translate(263.595703 0)"/>
      <use xlink:href="#Meiryo-41" transform="translate(336.121094 0)"/>
      <use xlink:href="#Meiryo-4c" transform="translate(403.894531 0)"/>
      <use xlink:href="#Meiryo-20" transform="translate(459.558594 0)"/>
      <use xlink:href="#Meiryo-28" transform="translate(493.542969 0)"/>
      <use xlink:href="#Meiryo-901f" transform="translate(537.488281 0)"/>
      <use xlink:href="#Meiryo-5ea6" transform="translate(637.488281 0)"/>
      <use xlink:href="#Meiryo-2192" transform="translate(737.488281 0)"/>
      <use xlink:href="#Meiryo-20" transform="translate(837.488281 0)"/>
      <use xlink:href="#Meiryo-62" transform="translate(871.472656 0)"/>
      <use xlink:href="#Meiryo-61" transform="translate(932.3125 0)"/>
      <use xlink:href="#Meiryo-63" transform="translate(990.320312 0)"/>
      <use xlink:href="#Meiryo-6b" transform="translate(1041.003906 0)"/>
      <use xlink:href="#Meiryo-2d" transform="translate(1091.380859 0)"/>
      <use xlink:href="#Meiryo-45" transform="translate(1135.326172 0)"/>
      <use xlink:href="#Meiryo-4d" transform="translate(1197.09375 0)"/>
      <use xlink:href="#Meiryo-46" transform="translate(1280.150391 0)"/>
      <use xlink:href="#Meiryo-3068" transform="translate(1337.279297 0)"/>
      <use xlink:href="#Meiryo-5dfb" transform="translate(1437.279297 0)"/>
      <use xlink:href="#Meiryo-7dda" transform="translate(1537.279297 0)"/>
      <use xlink:href="#Meiryo-30a4" transform="translate(1637.279297 0)"/>
      <use xlink:href="#Meiryo-30f3" transform="translate(1737.279297 0)"/>
      <use xlink:href="#Meiryo-30d4" transform="translate(1837.279297 0)"/>
      <use xlink:href="#Meiryo-30fc" transform="translate(1937.279297 0)"/>
      <use xlink:href="#Meiryo-30c0" transform="translate(2037.279297 0)"/>
      <use xlink:href="#Meiryo-30f3" transform="translate(2137.279297 0)"/>
      <use xlink:href="#Meiryo-30b9" transform="translate(2237.279297 0)"/>
      <use xlink:href="#Meiryo-221d" transform="translate(2337.279297 0)"/>
      <use xlink:href="#Meiryo-901f" transform="translate(2437.279297 0)"/>
      <use xlink:href="#Meiryo-5ea6" transform="translate(2537.279297 0)"/>
      <use xlink:href="#Meiryo-29" transform="translate(2637.279297 0)"/>
     </g>
    </g>
   </g>
   <g id="matplotlib.axis_2">
    <g id="ytick_1">
     <g id="line2d_13">
      <path d="M 50.905357 332.165179 
L 594 332.165179 
" clip-path="url(#p56d3afa028)" style="fill: none; stroke: #b0b0b0; stroke-opacity: 0.3; stroke-width: 0.8; stroke-linecap: square"/>
     </g>
     <g id="line2d_14">
      <defs>
       <path id="m9dd5aa2398" d="M 0 0 
L -3.5 0 
" style="stroke: #000000; stroke-width: 0.8"/>
      </defs>
      <g>
       <use xlink:href="#m9dd5aa2398" x="50.905357" y="332.165179" style="stroke: #000000; stroke-width: 0.8"/>
      </g>
     </g>
     <g id="text_8">
      <!-- 0 -->
      <g transform="translate(37.69442 336.008147) scale(0.1 -0.1)">
       <use xlink:href="#Meiryo-30"/>
      </g>
     </g>
    </g>
    <g id="ytick_2">
     <g id="line2d_15">
      <path d="M 50.905357 276.647971 
L 594 276.647971 
" clip-path="url(#p56d3afa028)" style="fill: none; stroke: #b0b0b0; stroke-opacity: 0.3; stroke-width: 0.8; stroke-linecap: square"/>
     </g>
     <g id="line2d_16">
      <g>
       <use xlink:href="#m9dd5aa2398" x="50.905357" y="276.647971" style="stroke: #000000; stroke-width: 0.8"/>
      </g>
     </g>
     <g id="text_9">
      <!-- 50 -->
      <g transform="translate(31.483482 280.49094) scale(0.1 -0.1)">
       <use xlink:href="#Meiryo-35"/>
       <use xlink:href="#Meiryo-30" transform="translate(62.109375 0)"/>
      </g>
     </g>
    </g>
    <g id="ytick_3">
     <g id="line2d_17">
      <path d="M 50.905357 221.130763 
L 594 221.130763 
" clip-path="url(#p56d3afa028)" style="fill: none; stroke: #b0b0b0; stroke-opacity: 0.3; stroke-width: 0.8; stroke-linecap: square"/>
     </g>
     <g id="line2d_18">
      <g>
       <use xlink:href="#m9dd5aa2398" x="50.905357" y="221.130763" style="stroke: #000000; stroke-width: 0.8"/>
      </g>
     </g>
     <g id="text_10">
      <!-- 100 -->
      <g transform="translate(25.272545 224.973732) scale(0.1 -0.1)">
       <use xlink:href="#Meiryo-31"/>
       <use xlink:href="#Meiryo-30" transform="translate(62.109375 0)"/>
       <use xlink:href="#Meiryo-30" transform="translate(124.21875 0)"/>
      </g>
     </g>
    </g>
    <g id="ytick_4">
     <g id="line2d_19">
      <path d="M 50.905357 165.613555 
L 594 165.613555 
" clip-path="url(#p56d3afa028)" style="fill: none; stroke: #b0b0b0; stroke-opacity: 0.3; stroke-width: 0.8; stroke-linecap: square"/>
     </g>
     <g id="line2d_20">
      <g>
       <use xlink:href="#m9dd5aa2398" x="50.905357" y="165.613555" style="stroke: #000000; stroke-width: 0.8"/>
      </g>
     </g>
     <g id="text_11">
      <!-- 150 -->
      <g transform="translate(25.272545 169.456524) scale(0.1 -0.1)">
       <use xlink:href="#Meiryo-31"/>
       <use xlink:href="#Meiryo-35" transform="translate(62.109375 0)"/>
       <use xlink:href="#Meiryo-30" transform="translate(124.21875 0)"/>
      </g>
     </g>
    </g>
    <g id="ytick_5">
     <g id="line2d_21">
      <path d="M 50.905357 110.096347 
L 594 110.096347 
" clip-path="url(#p56d3afa028)" style="fill: none; stroke: #b0b0b0; stroke-opacity: 0.3; stroke-width: 0.8; stroke-linecap: square"/>
     </g>
     <g id="line2d_22">
      <g>
       <use xlink:href="#m9dd5aa2398" x="50.905357" y="110.096347" style="stroke: #000000; stroke-width: 0.8"/>
      </g>
     </g>
     <g id="text_12">
      <!-- 200 -->
      <g transform="translate(25.272545 113.939316) scale(0.1 -0.1)">
       <use xlink:href="#Meiryo-32"/>
       <use xlink:href="#Meiryo-30" transform="translate(62.109375 0)"/>
       <use xlink:href="#Meiryo-30" transform="translate(124.21875 0)"/>
      </g>
     </g>
    </g>
    <g id="ytick_6">
     <g id="line2d_23">
      <path d="M 50.905357 54.57914 
L 594 54.57914 
" clip-path="url(#p56d3afa028)" style="fill: none; stroke: #b0b0b0; stroke-opacity: 0.3; stroke-width: 0.8; stroke-linecap: square"/>
     </g>
     <g id="line2d_24">
      <g>
       <use xlink:href="#m9dd5aa2398" x="50.905357" y="54.57914" style="stroke: #000000; stroke-width: 0.8"/>
      </g>
     </g>
     <g id="text_13">
      <!-- 250 -->
      <g transform="translate(25.272545 58.422108) scale(0.1 -0.1)">
       <use xlink:href="#Meiryo-32"/>
       <use xlink:href="#Meiryo-35" transform="translate(62.109375 0)"/>
       <use xlink:href="#Meiryo-30" transform="translate(124.21875 0)"/>
      </g>
     </g>
    </g>
    <g id="text_14">
     <!-- PWM_SCALE_SUM (StealthChopが要求するPWM振幅) -->
     <g transform="translate(19.236607 307.41942) rotate(-90) scale(0.1 -0.1)">
      <defs>
       <path id="Meiryo-50" d="M 1159 1778 
L 1159 0 
L 578 0 
L 578 4709 
L 1878 4709 
Q 2788 4709 3223 4326 
Q 3659 3944 3659 3297 
Q 3659 2625 3182 2201 
Q 2706 1778 1850 1778 
L 1159 1778 
z
M 1159 4216 
L 1159 2269 
L 1741 2269 
Q 2456 2269 2754 2545 
Q 3053 2822 3053 3281 
Q 3053 3741 2762 3978 
Q 2472 4216 1834 4216 
L 1159 4216 
z
" transform="scale(0.015625)"/>
       <path id="Meiryo-57" d="M 6116 4709 
L 4797 0 
L 4275 0 
L 3200 3913 
L 2134 0 
L 1628 0 
L 294 4709 
L 891 4709 
L 1925 931 
L 2947 4709 
L 3494 4709 
L 4516 897 
L 5547 4709 
L 6116 4709 
z
" transform="scale(0.015625)"/>
       <path id="Meiryo-5f" d="M 3988 -919 
L -13 -919 
L -13 -581 
L 3988 -581 
L 3988 -919 
z
" transform="scale(0.015625)"/>
       <path id="Meiryo-53" d="M 2022 -84 
Q 1228 -84 356 309 
L 356 1019 
L 397 1019 
Q 1116 406 2028 406 
Q 2591 406 2911 636 
Q 3231 866 3231 1247 
Q 3231 1541 3095 1708 
Q 2959 1875 2622 1969 
L 1572 2181 
Q 988 2303 686 2623 
Q 384 2944 384 3456 
Q 384 4038 853 4416 
Q 1322 4794 2075 4794 
Q 2863 4794 3650 4447 
L 3650 3763 
L 3606 3763 
Q 2956 4303 2075 4303 
Q 1588 4303 1289 4087 
Q 991 3872 991 3522 
Q 991 2938 1672 2769 
Q 2066 2697 2548 2589 
Q 3031 2481 3239 2364 
Q 3447 2247 3576 2097 
Q 3706 1947 3770 1756 
Q 3834 1566 3834 1334 
Q 3834 722 3337 319 
Q 2841 -84 2022 -84 
z
" transform="scale(0.015625)"/>
       <path id="Meiryo-74" d="M 1647 -69 
Q 553 -69 553 1134 
L 553 3081 
L 150 3081 
L 150 3531 
L 556 3531 
L 556 4547 
L 1103 4547 
L 1103 3531 
L 2341 3531 
L 2341 3081 
L 1103 3081 
L 1103 1447 
Q 1103 891 1179 727 
Q 1256 563 1412 486 
Q 1569 409 1813 409 
Q 2044 409 2322 522 
L 2341 522 
L 2341 22 
Q 1969 -69 1647 -69 
z
" transform="scale(0.015625)"/>
       <path id="Meiryo-65" d="M 834 2131 
L 2906 2131 
Q 2881 3184 1941 3184 
Q 1466 3184 1172 2903 
Q 878 2622 834 2131 
z
M 2125 -81 
Q 1244 -81 758 395 
Q 272 872 272 1744 
Q 272 2609 737 3120 
Q 1203 3631 1972 3631 
Q 2672 3631 3058 3212 
Q 3444 2794 3444 2019 
L 3444 1716 
L 834 1716 
Q 834 1078 1179 736 
Q 1525 394 2134 394 
Q 2741 394 3347 816 
L 3372 816 
L 3372 219 
Q 2619 -81 2125 -81 
z
" transform="scale(0.015625)"/>
       <path id="Meiryo-6c" d="M 1088 0 
L 538 0 
L 538 4919 
L 1088 4919 
L 1088 0 
z
" transform="scale(0.015625)"/>
       <path id="Meiryo-68" d="M 3450 0 
L 2900 0 
L 2900 1975 
Q 2900 2666 2719 2889 
Q 2538 3113 2122 3113 
Q 1634 3113 1081 2659 
L 1081 0 
L 531 0 
L 531 4919 
L 1081 4919 
L 1081 3109 
Q 1700 3631 2309 3631 
Q 2856 3631 3153 3289 
Q 3450 2947 3450 2300 
L 3450 0 
z
" transform="scale(0.015625)"/>
       <path id="Meiryo-6f" d="M 1900 -97 
Q 1147 -97 709 401 
Q 272 900 272 1763 
Q 272 2625 712 3128 
Q 1153 3631 1900 3631 
Q 2647 3631 3087 3131 
Q 3528 2631 3528 1763 
Q 3528 894 3089 398 
Q 2650 -97 1900 -97 
z
M 1900 3163 
Q 1391 3163 1116 2803 
Q 841 2444 841 1763 
Q 841 1091 1116 731 
Q 1391 372 1900 372 
Q 2409 372 2684 731 
Q 2959 1091 2959 1763 
Q 2959 3163 1900 3163 
z
" transform="scale(0.015625)"/>
       <path id="Meiryo-70" d="M 1081 203 
L 1081 -1303 
L 531 -1303 
L 531 3531 
L 1081 3531 
L 1081 3141 
Q 1684 3631 2253 3631 
Q 2878 3631 3247 3145 
Q 3616 2659 3616 1809 
Q 3616 975 3169 453 
Q 2722 -69 2063 -69 
Q 1559 -69 1081 203 
z
M 1081 2694 
L 1081 631 
Q 1550 422 1950 422 
Q 2466 422 2756 780 
Q 3047 1138 3047 1791 
Q 3047 3113 2094 3113 
Q 1588 3113 1081 2694 
z
" transform="scale(0.015625)"/>
       <path id="Meiryo-304c" d="M 2150 4494 
Q 2150 4213 2122 3853 
L 3322 3853 
Q 3766 3853 4017 3536 
Q 4269 3219 4269 2706 
Q 4269 1447 4003 619 
Q 3738 -209 3072 -209 
Q 2684 -209 1984 159 
L 2138 556 
Q 2306 475 2607 376 
Q 2909 278 3022 278 
Q 3278 275 3429 548 
Q 3581 822 3679 1317 
Q 3778 1813 3778 2494 
Q 3778 3116 3611 3280 
Q 3444 3444 3169 3444 
L 2081 3444 
Q 1972 2381 1576 1406 
Q 1181 431 578 -244 
L 225 13 
Q 631 494 1032 1351 
Q 1434 2209 1575 3378 
L 353 3378 
L 353 3797 
L 1625 3797 
Q 1647 4016 1647 5056 
L 2150 5056 
L 2150 4494 
z
M 5984 1903 
L 5497 1775 
Q 5072 3341 4256 4213 
L 4622 4463 
Q 5050 4025 5444 3279 
Q 5838 2534 5984 1903 
z
M 6313 4591 
L 5953 4444 
Q 5744 4928 5506 5309 
L 5838 5469 
Q 6053 5134 6313 4591 
z
M 5416 4463 
L 5056 4303 
Q 4831 4806 4603 5178 
L 4941 5334 
Q 5213 4913 5416 4463 
z
" transform="scale(0.015625)"/>
       <path id="Meiryo-8981" d="M 2188 4034 
L 2188 4622 
L 294 4622 
L 294 4988 
L 6059 4988 
L 6059 4622 
L 4122 4622 
L 4122 4034 
L 5700 4034 
L 5700 2559 
L 2803 2559 
Q 2728 2397 2491 1966 
L 6138 1966 
L 6138 1578 
L 5053 1578 
Q 4741 944 4141 503 
Q 5125 231 5778 -13 
L 5491 -384 
Q 4731 -84 3706 231 
Q 3219 -16 2278 -194 
Q 1338 -372 609 -413 
L 516 -41 
Q 1375 -6 2104 139 
Q 2834 284 3144 400 
Q 3003 444 2906 463 
L 1775 672 
Q 1444 734 1420 745 
Q 1397 756 1381 787 
Q 1366 819 1366 863 
Q 1366 888 1378 906 
Q 1559 1172 1788 1578 
L 250 1578 
L 250 1966 
L 1997 1966 
Q 2163 2284 2288 2559 
L 675 2559 
L 675 4034 
L 2188 4034 
z
M 2659 4622 
L 2659 4034 
L 3656 4034 
L 3656 4622 
L 2659 4622 
z
M 2188 2897 
L 2188 3694 
L 1144 3694 
L 1144 2897 
L 2188 2897 
z
M 2659 3694 
L 2659 2897 
L 3656 2897 
L 3656 3694 
L 2659 3694 
z
M 5225 3694 
L 4122 3694 
L 4122 2897 
L 5225 2897 
L 5225 3694 
z
M 3631 653 
Q 4134 959 4497 1578 
L 2275 1578 
Q 2072 1222 1947 1025 
Q 2384 934 3631 653 
z
" transform="scale(0.015625)"/>
       <path id="Meiryo-6c42" d="M 2847 -384 
L 1972 -384 
L 1900 59 
L 2647 59 
Q 2906 59 2906 303 
L 2906 3841 
L 406 3841 
L 406 4244 
L 2906 4244 
L 2906 5381 
L 3409 5381 
L 3409 4244 
L 5038 4244 
Q 4841 4463 4244 4997 
L 4572 5256 
Q 4878 5019 5419 4519 
L 5078 4244 
L 6084 4244 
L 6084 3841 
L 3409 3841 
L 3409 3553 
L 3447 3428 
Q 3594 2941 4213 2206 
Q 4928 2747 5484 3313 
L 5869 3013 
Q 5284 2450 4478 1906 
Q 5316 1000 6216 419 
L 5869 53 
Q 5031 641 4382 1336 
Q 3734 2031 3409 2659 
L 3409 119 
Q 3409 -94 3231 -239 
Q 3053 -384 2847 -384 
z
M 1684 1966 
Q 1363 2531 856 3175 
L 1275 3403 
Q 1847 2669 2128 2209 
L 1684 1966 
z
M 341 334 
L 159 766 
Q 616 909 1350 1225 
Q 2084 1541 2516 1772 
L 2631 1378 
Q 2391 1216 1647 877 
Q 903 538 341 334 
z
" transform="scale(0.015625)"/>
       <path id="Meiryo-3059" d="M 3644 2675 
Q 3466 3028 2900 3028 
Q 2625 3025 2409 2800 
Q 2194 2575 2197 2297 
Q 2197 1994 2365 1809 
Q 2534 1625 2825 1625 
Q 3194 1625 3414 1865 
Q 3634 2106 3644 2497 
L 3644 2675 
z
M 6113 3944 
L 4141 3944 
L 4141 2741 
Q 4347 2378 4347 1747 
Q 4344 922 3736 361 
Q 3128 -200 2234 -256 
L 2106 134 
Q 2856 188 3367 650 
Q 3878 1113 3878 1797 
Q 3878 1913 3866 2006 
Q 3788 1644 3500 1436 
Q 3213 1228 2809 1228 
Q 2353 1228 2037 1517 
Q 1722 1806 1722 2244 
Q 1722 2747 2076 3083 
Q 2431 3419 2947 3419 
Q 3334 3419 3638 3191 
L 3638 3944 
L 506 3944 
L 506 4353 
L 3638 4353 
L 3638 5100 
L 4141 5100 
L 4141 4353 
L 6113 4353 
L 6113 3944 
z
" transform="scale(0.015625)"/>
       <path id="Meiryo-308b" d="M 4056 228 
Q 5228 509 5228 1434 
Q 5228 2006 4797 2318 
Q 4366 2631 3647 2631 
Q 3153 2631 2683 2506 
Q 2213 2381 1602 1997 
Q 991 1613 750 1409 
L 519 1794 
Q 2422 3022 4238 4378 
L 1075 4366 
L 1075 4781 
L 4891 4781 
L 5109 4463 
L 2906 2938 
L 2931 2900 
Q 3313 3016 3691 3016 
Q 4588 3016 5164 2603 
Q 5741 2191 5741 1463 
Q 5741 609 5034 160 
Q 4328 -288 3141 -288 
Q 1509 -288 1509 609 
Q 1509 963 1846 1203 
Q 2184 1444 2588 1444 
Q 3153 1444 3556 1128 
Q 3959 813 4056 228 
z
M 3597 147 
Q 3416 1044 2622 1044 
Q 2369 1044 2167 919 
Q 1966 794 1966 588 
Q 1966 109 3072 109 
Q 3313 109 3597 147 
z
" transform="scale(0.015625)"/>
       <path id="Meiryo-632f" d="M 178 1713 
L 100 2119 
Q 372 2175 975 2375 
L 975 3691 
L 275 3691 
L 275 4056 
L 975 4056 
L 975 5278 
L 1438 5278 
L 1438 4056 
L 1972 4056 
L 1972 3691 
L 1438 3691 
L 1438 2534 
Q 1813 2669 1981 2744 
L 2044 2413 
Q 1856 2306 1438 2141 
L 1438 63 
Q 1438 -125 1284 -234 
Q 1131 -344 922 -344 
L 322 -344 
L 269 56 
L 753 56 
Q 975 56 975 256 
L 975 1969 
Q 447 1781 178 1713 
z
M 2731 -350 
L 2647 47 
Q 2838 66 3272 125 
L 3272 2450 
L 2719 2450 
Q 2666 734 2059 -316 
L 1713 -109 
Q 1969 353 2125 1087 
Q 2281 1822 2281 2628 
L 2281 5044 
L 5988 5044 
L 5988 4669 
L 2725 4669 
L 2725 2816 
L 5956 2816 
L 5956 2450 
L 4772 2450 
Q 4863 1891 5072 1406 
Q 5484 1713 5747 1975 
L 6047 1694 
Q 5772 1453 5238 1081 
Q 5628 416 6244 -63 
L 5916 -381 
Q 5247 125 4844 881 
Q 4441 1638 4350 2450 
L 3728 2450 
L 3728 188 
Q 4541 300 4831 369 
L 4866 9 
Q 4634 -56 3901 -178 
Q 3169 -300 2731 -350 
z
M 3122 3588 
L 3122 3959 
L 5772 3959 
L 5772 3588 
L 3122 3588 
z
" transform="scale(0.015625)"/>
       <path id="Meiryo-5e45" d="M 1150 -388 
L 1150 4038 
L 731 4038 
L 731 1009 
L 322 1009 
L 322 4363 
L 1150 4363 
L 1150 5244 
L 1581 5244 
L 1581 4363 
L 2444 4363 
L 2444 1472 
Q 2444 1313 2323 1216 
Q 2203 1119 2013 1119 
L 1725 1119 
L 1653 1478 
L 1850 1478 
Q 2025 1478 2025 1628 
L 2025 4038 
L 1581 4038 
L 1581 -388 
L 1150 -388 
z
M 2697 4678 
L 2697 5028 
L 6053 5028 
L 6053 4678 
L 2697 4678 
z
M 3038 2928 
L 3038 4206 
L 5706 4206 
L 5706 2928 
L 3038 2928 
z
M 5263 3881 
L 3500 3881 
L 3500 3247 
L 5263 3247 
L 5263 3881 
z
M 5484 -122 
L 3291 -122 
L 3291 -331 
L 2834 -331 
L 2834 2438 
L 5950 2438 
L 5950 -331 
L 5484 -331 
L 5484 -122 
z
M 5484 1369 
L 5484 2091 
L 4603 2091 
L 4603 1369 
L 5484 1369 
z
M 4153 2091 
L 3291 2091 
L 3291 1369 
L 4153 1369 
L 4153 2091 
z
M 3291 238 
L 4153 238 
L 4153 1028 
L 3291 1028 
L 3291 238 
z
M 4603 238 
L 5484 238 
L 5484 1028 
L 4603 1028 
L 4603 238 
z
" transform="scale(0.015625)"/>
      </defs>
      <use xlink:href="#Meiryo-50"/>
      <use xlink:href="#Meiryo-57" transform="translate(59.570312 0)"/>
      <use xlink:href="#Meiryo-4d" transform="translate(159.716797 0)"/>
      <use xlink:href="#Meiryo-5f" transform="translate(242.773438 0)"/>
      <use xlink:href="#Meiryo-53" transform="translate(304.882812 0)"/>
      <use xlink:href="#Meiryo-43" transform="translate(368.359375 0)"/>
      <use xlink:href="#Meiryo-41" transform="translate(435.595703 0)"/>
      <use xlink:href="#Meiryo-4c" transform="translate(503.369141 0)"/>
      <use xlink:href="#Meiryo-45" transform="translate(559.033203 0)"/>
      <use xlink:href="#Meiryo-5f" transform="translate(620.800781 0)"/>
      <use xlink:href="#Meiryo-53" transform="translate(682.910156 0)"/>
      <use xlink:href="#Meiryo-55" transform="translate(746.386719 0)"/>
      <use xlink:href="#Meiryo-4d" transform="translate(819.287109 0)"/>
      <use xlink:href="#Meiryo-20" transform="translate(902.34375 0)"/>
      <use xlink:href="#Meiryo-28" transform="translate(936.328125 0)"/>
      <use xlink:href="#Meiryo-53" transform="translate(980.273438 0)"/>
      <use xlink:href="#Meiryo-74" transform="translate(1043.75 0)"/>
      <use xlink:href="#Meiryo-65" transform="translate(1081.640625 0)"/>
      <use xlink:href="#Meiryo-61" transform="translate(1139.355469 0)"/>
      <use xlink:href="#Meiryo-6c" transform="translate(1197.363281 0)"/>
      <use xlink:href="#Meiryo-74" transform="translate(1222.753906 0)"/>
      <use xlink:href="#Meiryo-68" transform="translate(1260.644531 0)"/>
      <use xlink:href="#Meiryo-43" transform="translate(1322.460938 0)"/>
      <use xlink:href="#Meiryo-68" transform="translate(1389.697266 0)"/>
      <use xlink:href="#Meiryo-6f" transform="translate(1451.513672 0)"/>
      <use xlink:href="#Meiryo-70" transform="translate(1510.888672 0)"/>
      <use xlink:href="#Meiryo-304c" transform="translate(1571.728516 0)"/>
      <use xlink:href="#Meiryo-8981" transform="translate(1671.728516 0)"/>
      <use xlink:href="#Meiryo-6c42" transform="translate(1771.728516 0)"/>
      <use xlink:href="#Meiryo-3059" transform="translate(1871.728516 0)"/>
      <use xlink:href="#Meiryo-308b" transform="translate(1971.728516 0)"/>
      <use xlink:href="#Meiryo-50" transform="translate(2071.728516 0)"/>
      <use xlink:href="#Meiryo-57" transform="translate(2131.298828 0)"/>
      <use xlink:href="#Meiryo-4d" transform="translate(2231.445312 0)"/>
      <use xlink:href="#Meiryo-632f" transform="translate(2314.501953 0)"/>
      <use xlink:href="#Meiryo-5e45" transform="translate(2414.501953 0)"/>
      <use xlink:href="#Meiryo-29" transform="translate(2514.501953 0)"/>
     </g>
    </g>
   </g>
   <g id="line2d_25">
    <path d="M 75.591477 298.854854 
L 174.335958 283.310036 
L 273.080438 244.44799 
L 371.824919 213.358354 
L 470.569399 178.937685 
L 569.31388 143.406672 
" clip-path="url(#p56d3afa028)" style="fill: none; stroke: #1a7f37; stroke-width: 2; stroke-linecap: square"/>
    <defs>
     <path id="m2b7acd7927" d="M 0 3 
C 0.795609 3 1.55874 2.683901 2.12132 2.12132 
C 2.683901 1.55874 3 0.795609 3 0 
C 3 -0.795609 2.683901 -1.55874 2.12132 -2.12132 
C 1.55874 -2.683901 0.795609 -3 0 -3 
C -0.795609 -3 -1.55874 -2.683901 -2.12132 -2.12132 
C -2.683901 -1.55874 -3 -0.795609 -3 0 
C -3 0.795609 -2.683901 1.55874 -2.12132 2.12132 
C -1.55874 2.683901 -0.795609 3 0 3 
z
" style="stroke: #1a7f37"/>
    </defs>
    <g clip-path="url(#p56d3afa028)">
     <use xlink:href="#m2b7acd7927" x="75.591477" y="298.854854" style="fill: #1a7f37; stroke: #1a7f37"/>
     <use xlink:href="#m2b7acd7927" x="174.335958" y="283.310036" style="fill: #1a7f37; stroke: #1a7f37"/>
     <use xlink:href="#m2b7acd7927" x="273.080438" y="244.44799" style="fill: #1a7f37; stroke: #1a7f37"/>
     <use xlink:href="#m2b7acd7927" x="371.824919" y="213.358354" style="fill: #1a7f37; stroke: #1a7f37"/>
     <use xlink:href="#m2b7acd7927" x="470.569399" y="178.937685" style="fill: #1a7f37; stroke: #1a7f37"/>
     <use xlink:href="#m2b7acd7927" x="569.31388" y="143.406672" style="fill: #1a7f37; stroke: #1a7f37"/>
    </g>
   </g>
   <g id="line2d_26">
    <path d="M 75.591477 276.647971 
L 174.335958 222.241107 
L 273.080438 155.620458 
L 371.824919 84.558432 
L 470.569399 49.027419 
L 569.31388 49.027419 
" clip-path="url(#p56d3afa028)" style="fill: none; stroke: #2b57a8; stroke-width: 2; stroke-linecap: square"/>
    <defs>
     <path id="mc8cc670fee" d="M 0 3 
C 0.795609 3 1.55874 2.683901 2.12132 2.12132 
C 2.683901 1.55874 3 0.795609 3 0 
C 3 -0.795609 2.683901 -1.55874 2.12132 -2.12132 
C 1.55874 -2.683901 0.795609 -3 0 -3 
C -0.795609 -3 -1.55874 -2.683901 -2.12132 -2.12132 
C -2.683901 -1.55874 -3 -0.795609 -3 0 
C -3 0.795609 -2.683901 1.55874 -2.12132 2.12132 
C -1.55874 2.683901 -0.795609 3 0 3 
z
" style="stroke: #2b57a8"/>
    </defs>
    <g clip-path="url(#p56d3afa028)">
     <use xlink:href="#mc8cc670fee" x="75.591477" y="276.647971" style="fill: #2b57a8; stroke: #2b57a8"/>
     <use xlink:href="#mc8cc670fee" x="174.335958" y="222.241107" style="fill: #2b57a8; stroke: #2b57a8"/>
     <use xlink:href="#mc8cc670fee" x="273.080438" y="155.620458" style="fill: #2b57a8; stroke: #2b57a8"/>
     <use xlink:href="#mc8cc670fee" x="371.824919" y="84.558432" style="fill: #2b57a8; stroke: #2b57a8"/>
     <use xlink:href="#mc8cc670fee" x="470.569399" y="49.027419" style="fill: #2b57a8; stroke: #2b57a8"/>
     <use xlink:href="#mc8cc670fee" x="569.31388" y="49.027419" style="fill: #2b57a8; stroke: #2b57a8"/>
    </g>
   </g>
   <g id="line2d_27">
    <path d="M 75.591477 259.992808 
L 174.335958 174.496308 
L 273.080438 59.020516 
L 371.824919 49.027419 
L 470.569399 49.027419 
L 569.31388 49.027419 
" clip-path="url(#p56d3afa028)" style="fill: none; stroke: #c2571a; stroke-width: 2; stroke-linecap: square"/>
    <defs>
     <path id="m3a753d6ecf" d="M 0 3 
C 0.795609 3 1.55874 2.683901 2.12132 2.12132 
C 2.683901 1.55874 3 0.795609 3 0 
C 3 -0.795609 2.683901 -1.55874 2.12132 -2.12132 
C 1.55874 -2.683901 0.795609 -3 0 -3 
C -0.795609 -3 -1.55874 -2.683901 -2.12132 -2.12132 
C -2.683901 -1.55874 -3 -0.795609 -3 0 
C -3 0.795609 -2.683901 1.55874 -2.12132 2.12132 
C -1.55874 2.683901 -0.795609 3 0 3 
z
" style="stroke: #c2571a"/>
    </defs>
    <g clip-path="url(#p56d3afa028)">
     <use xlink:href="#m3a753d6ecf" x="75.591477" y="259.992808" style="fill: #c2571a; stroke: #c2571a"/>
     <use xlink:href="#m3a753d6ecf" x="174.335958" y="174.496308" style="fill: #c2571a; stroke: #c2571a"/>
     <use xlink:href="#m3a753d6ecf" x="273.080438" y="59.020516" style="fill: #c2571a; stroke: #c2571a"/>
     <use xlink:href="#m3a753d6ecf" x="371.824919" y="49.027419" style="fill: #c2571a; stroke: #c2571a"/>
     <use xlink:href="#m3a753d6ecf" x="470.569399" y="49.027419" style="fill: #c2571a; stroke: #c2571a"/>
     <use xlink:href="#m3a753d6ecf" x="569.31388" y="49.027419" style="fill: #c2571a; stroke: #c2571a"/>
    </g>
   </g>
   <g id="line2d_28">
    <path d="M 50.905357 49.027419 
L 594 49.027419 
" clip-path="url(#p56d3afa028)" style="fill: none; stroke-dasharray: 5.18,2.24; stroke-dashoffset: 0; stroke: #b3261e; stroke-width: 1.4"/>
   </g>
   <g id="patch_3">
    <path d="M 50.905357 332.165179 
L 50.905357 26.820536 
" style="fill: none; stroke: #000000; stroke-width: 0.8; stroke-linejoin: miter; stroke-linecap: square"/>
   </g>
   <g id="patch_4">
    <path d="M 594 332.165179 
L 594 26.820536 
" style="fill: none; stroke: #000000; stroke-width: 0.8; stroke-linejoin: miter; stroke-linecap: square"/>
   </g>
   <g id="patch_5">
    <path d="M 50.905357 332.165179 
L 594 332.165179 
" style="fill: none; stroke: #000000; stroke-width: 0.8; stroke-linejoin: miter; stroke-linecap: square"/>
   </g>
   <g id="patch_6">
    <path d="M 50.905357 26.820536 
L 594 26.820536 
" style="fill: none; stroke: #000000; stroke-width: 0.8; stroke-linejoin: miter; stroke-linecap: square"/>
   </g>
   <g id="text_15">
    <!-- 255 = PWM飽和 -->
    <g style="fill: #b3261e" transform="translate(292.829334 33.040699) scale(0.09 -0.09)">
     <defs>
      <path id="Meiryo-3d" d="M 4425 2484 
L 719 2484 
L 719 2947 
L 4425 2947 
L 4425 2484 
z
M 4425 1172 
L 719 1172 
L 719 1634 
L 4425 1634 
L 4425 1172 
z
" transform="scale(0.015625)"/>
      <path id="Meiryo-98fd" d="M 4500 1144 
L 4450 1550 
L 4938 1550 
Q 5138 1550 5253 1709 
Q 5369 1869 5412 2476 
Q 5456 3084 5456 3878 
L 5453 4225 
L 3656 4225 
Q 3334 3491 2947 3038 
L 2641 3259 
Q 2938 3650 3192 4247 
Q 3447 4844 3528 5347 
L 3997 5275 
Q 3934 4944 3803 4584 
L 5931 4584 
L 5931 3859 
Q 5931 3122 5895 2586 
Q 5859 2050 5801 1779 
Q 5744 1509 5675 1409 
Q 5606 1309 5495 1246 
Q 5384 1184 5259 1164 
Q 5134 1144 4709 1144 
L 4500 1144 
z
M 272 -331 
L 194 47 
Q 347 66 584 103 
L 584 3663 
Q 413 3509 272 3409 
L 34 3697 
Q 863 4353 1334 5291 
L 1897 5291 
Q 2019 5081 2300 4793 
Q 2581 4506 2869 4309 
L 2594 4009 
Q 1991 4406 1634 4981 
Q 1359 4375 644 3716 
L 1394 3716 
L 1394 4188 
L 1819 4188 
L 1819 3716 
L 2544 3716 
L 2544 1581 
L 1028 1581 
L 1028 178 
Q 1756 306 2219 406 
L 1891 1078 
L 2275 1247 
Q 2613 663 2953 -134 
L 2544 -306 
Q 2494 -184 2369 84 
Q 1622 -116 272 -331 
z
M 2100 3403 
L 1028 3403 
L 1028 2816 
L 2100 2816 
L 2100 3403 
z
M 1028 2522 
L 1028 1906 
L 2100 1906 
L 2100 2522 
L 1028 2522 
z
M 3241 2372 
L 4403 2372 
L 4403 3284 
L 3378 3284 
L 3378 3631 
L 4847 3631 
L 4847 2025 
L 3725 2025 
L 3725 388 
Q 3725 269 3786 203 
Q 3847 138 3945 125 
Q 4044 113 4323 97 
Q 4603 81 4813 81 
Q 5031 81 5292 100 
Q 5553 119 5612 183 
Q 5672 247 5705 322 
Q 5738 397 5769 1072 
L 6178 1019 
L 6178 269 
Q 6178 47 6023 -103 
Q 5869 -253 5534 -275 
Q 5200 -297 4747 -297 
Q 4428 -297 4147 -283 
Q 3866 -269 3716 -251 
Q 3566 -234 3458 -159 
Q 3350 -84 3295 23 
Q 3241 131 3241 275 
L 3241 2372 
z
" transform="scale(0.015625)"/>
      <path id="Meiryo-548c" d="M 391 694 
L 84 941 
Q 438 1284 895 1946 
Q 1353 2609 1522 3081 
L 319 3081 
L 319 3469 
L 1578 3469 
L 1578 4463 
Q 891 4344 475 4303 
L 397 4681 
Q 1903 4847 2766 5153 
L 2975 4781 
Q 2638 4669 2081 4556 
L 2081 3469 
L 3016 3469 
L 3016 3081 
L 2081 3081 
L 2081 2678 
Q 2438 2303 3009 1881 
L 2772 1484 
Q 2453 1734 2081 2138 
L 2081 -397 
L 1578 -397 
L 1578 2247 
Q 953 1206 391 694 
z
M 5444 -6 
L 3881 -6 
L 3881 -325 
L 3388 -325 
L 3388 4788 
L 5938 4788 
L 5938 -331 
L 5444 -331 
L 5444 -6 
z
M 3881 381 
L 5444 381 
L 5444 4416 
L 3881 4416 
L 3881 381 
z
" transform="scale(0.015625)"/>
     </defs>
     <use xlink:href="#Meiryo-32"/>
     <use xlink:href="#Meiryo-35" transform="translate(62.109375 0)"/>
     <use xlink:href="#Meiryo-35" transform="translate(124.21875 0)"/>
     <use xlink:href="#Meiryo-20" transform="translate(186.328125 0)"/>
     <use xlink:href="#Meiryo-3d" transform="translate(220.3125 0)"/>
     <use xlink:href="#Meiryo-20" transform="translate(300.683594 0)"/>
     <use xlink:href="#Meiryo-50" transform="translate(334.667969 0)"/>
     <use xlink:href="#Meiryo-57" transform="translate(394.238281 0)"/>
     <use xlink:href="#Meiryo-4d" transform="translate(494.384766 0)"/>
     <use xlink:href="#Meiryo-98fd" transform="translate(577.441406 0)"/>
     <use xlink:href="#Meiryo-548c" transform="translate(677.441406 0)"/>
    </g>
    <!-- (電圧天井→これ以上電流を保てない) -->
    <g style="fill: #b3261e" transform="translate(292.829334 43.864043) scale(0.09 -0.09)">
     <defs>
      <path id="Meiryo-96fb" d="M 5469 3041 
L 5469 4050 
L 3303 4050 
L 3303 2766 
L 2825 2766 
L 2825 4050 
L 763 4050 
L 763 3041 
L 331 3041 
L 331 4372 
L 2825 4372 
L 2825 4775 
L 731 4775 
L 731 5109 
L 5431 5109 
L 5438 4775 
L 3303 4775 
L 3303 4372 
L 5913 4372 
L 5913 3041 
L 5469 3041 
z
M 1206 3450 
L 1206 3719 
L 2350 3719 
L 2350 3450 
L 1206 3450 
z
M 3784 3450 
L 3784 3719 
L 5006 3719 
L 5006 3450 
L 3784 3450 
z
M 1206 2856 
L 1206 3125 
L 2350 3125 
L 2350 2856 
L 1206 2856 
z
M 3784 2856 
L 3784 3125 
L 5006 3125 
L 5006 2856 
L 3784 2856 
z
M 1163 619 
L 1163 350 
L 719 350 
L 719 2516 
L 5484 2516 
L 5484 619 
L 3309 619 
L 3309 344 
Q 3309 228 3371 162 
Q 3434 97 3551 81 
Q 3669 66 3928 52 
Q 4188 38 4453 38 
Q 4766 38 5111 56 
Q 5456 75 5545 86 
Q 5634 97 5701 150 
Q 5769 203 5801 306 
Q 5834 409 5850 956 
L 6259 897 
L 6259 200 
Q 6259 69 6198 -31 
Q 6138 -131 6038 -192 
Q 5938 -253 5830 -278 
Q 5722 -303 5230 -317 
Q 4738 -331 4316 -331 
Q 3525 -331 3278 -295 
Q 3031 -259 2925 -132 
Q 2819 -6 2819 219 
L 2819 619 
L 1163 619 
z
M 1181 1713 
L 2819 1713 
L 2819 2203 
L 1181 2203 
L 1181 1713 
z
M 3303 1713 
L 5019 1713 
L 5019 2203 
L 3303 2203 
L 3303 1713 
z
M 5019 1413 
L 3303 1413 
L 3303 938 
L 5019 938 
L 5019 1413 
z
M 2819 1413 
L 1181 1413 
L 1181 938 
L 2819 938 
L 2819 1413 
z
" transform="scale(0.015625)"/>
      <path id="Meiryo-5727" d="M 1166 4491 
L 1166 3053 
Q 1166 872 375 -319 
L 31 -91 
Q 341 431 508 1193 
Q 675 1956 675 2769 
L 675 4875 
L 5991 4875 
L 5991 4491 
L 1166 4491 
z
M 1194 -197 
L 1194 209 
L 3334 209 
L 3334 2356 
L 1650 2356 
L 1650 2753 
L 3334 2753 
L 3334 4106 
L 3850 4106 
L 3850 2753 
L 5672 2753 
L 5672 2356 
L 3850 2356 
L 3850 209 
L 5997 209 
L 5997 -197 
L 1194 -197 
z
" transform="scale(0.015625)"/>
      <path id="Meiryo-5929" d="M 3213 2109 
Q 2978 1222 2233 575 
Q 1488 -72 341 -372 
L 172 0 
Q 1209 281 1925 918 
Q 2641 1556 2797 2391 
L 597 2391 
L 597 2788 
L 2931 2788 
L 2931 4419 
L 431 4419 
L 431 4819 
L 6000 4819 
L 6000 4419 
L 3428 4419 
L 3428 2788 
L 5878 2788 
L 5878 2391 
L 3569 2391 
Q 3756 1791 4423 1131 
Q 5091 472 6191 66 
L 5909 -353 
Q 4966 9 4227 668 
Q 3488 1328 3213 2109 
z
" transform="scale(0.015625)"/>
      <path id="Meiryo-4e95" d="M 647 -381 
L 394 -63 
Q 919 294 1219 695 
Q 1519 1097 1613 1713 
L 275 1713 
L 275 2113 
L 1656 2113 
Q 1678 2419 1678 3109 
L 1678 3731 
L 406 3731 
L 406 4134 
L 1678 4134 
L 1678 5250 
L 2163 5250 
L 2163 4134 
L 4272 4134 
L 4272 5259 
L 4759 5259 
L 4759 4134 
L 5981 4134 
L 5981 3731 
L 4759 3731 
L 4759 2113 
L 6094 2113 
L 6094 1713 
L 4759 1713 
L 4759 -338 
L 4272 -338 
L 4272 1713 
L 2091 1713 
Q 1981 981 1607 478 
Q 1234 -25 647 -381 
z
M 2163 3731 
L 2163 2959 
Q 2163 2431 2138 2113 
L 4272 2113 
L 4272 3731 
L 2163 3731 
z
" transform="scale(0.015625)"/>
      <path id="Meiryo-3053" d="M 5600 4038 
Q 5441 4003 5236 3926 
Q 5031 3850 4897 3786 
Q 4763 3722 3859 3266 
L 3638 3578 
Q 3950 3747 4591 4072 
L 4578 4134 
Q 3459 4116 1222 4031 
L 1197 4469 
Q 2431 4516 4581 4516 
Q 5266 4516 5491 4506 
L 5600 4038 
z
M 5819 66 
Q 4884 -78 3716 -78 
L 3347 -78 
Q 1866 -78 1342 222 
Q 819 522 819 1081 
Q 819 1763 1459 2322 
L 1800 2069 
Q 1294 1572 1294 1116 
Q 1294 719 1748 544 
Q 2203 369 3603 369 
Q 4691 369 5741 525 
L 5819 66 
z
" transform="scale(0.015625)"/>
      <path id="Meiryo-308c" d="M 1550 2053 
Q 1197 1525 469 500 
L 141 819 
Q 484 1234 929 1921 
Q 1375 2609 1550 3019 
L 1550 3694 
L 409 3694 
L 409 4103 
L 1550 4103 
L 1550 5119 
L 2022 5119 
L 2022 3200 
Q 2584 3769 3204 4147 
Q 3825 4525 4284 4528 
Q 4728 4528 5008 4270 
Q 5288 4013 5291 3591 
Q 5291 3553 5288 3513 
L 5103 1469 
Q 5041 772 5041 731 
Q 5041 341 5369 341 
Q 5634 341 6184 647 
L 6313 256 
Q 5763 -109 5253 -109 
Q 4919 -109 4737 98 
Q 4556 306 4556 672 
Q 4556 778 4703 2159 
Q 4788 2975 4803 3569 
Q 4803 3791 4668 3934 
Q 4534 4078 4306 4078 
Q 3463 4078 2022 2600 
L 2022 -231 
L 1550 -231 
L 1550 2053 
z
" transform="scale(0.015625)"/>
      <path id="Meiryo-4ee5" d="M 5694 -316 
Q 4925 438 4447 1209 
Q 3619 91 2034 -422 
L 1844 -34 
Q 3369 475 4134 1631 
Q 4900 2788 4900 5006 
L 4900 5225 
L 5409 5225 
L 5409 4978 
Q 5409 2834 4725 1644 
Q 5272 734 6088 9 
L 5694 -316 
z
M 322 194 
L 172 644 
Q 456 728 872 878 
L 872 5159 
L 1353 5159 
L 1353 1059 
Q 2578 1538 3266 1916 
L 3397 1525 
Q 3097 1309 2058 859 
Q 1019 409 322 194 
z
M 3306 2941 
Q 2806 3856 2144 4744 
L 2563 4984 
Q 2981 4456 3769 3191 
L 3306 2941 
z
" transform="scale(0.015625)"/>
      <path id="Meiryo-4e0a" d="M 309 -225 
L 309 184 
L 2781 184 
L 2781 5178 
L 3291 5178 
L 3291 3434 
L 5603 3434 
L 5603 3031 
L 3291 3031 
L 3291 184 
L 6084 184 
L 6084 -225 
L 309 -225 
z
" transform="scale(0.015625)"/>
      <path id="Meiryo-6d41" d="M 2375 3075 
Q 2744 3731 2963 4259 
L 1766 4259 
L 1766 4650 
L 3563 4650 
L 3563 5316 
L 4063 5316 
L 4063 4650 
L 5969 4650 
L 5969 4259 
L 3497 4259 
Q 3166 3584 2878 3100 
Q 4281 3172 5075 3241 
Q 4825 3606 4631 3853 
L 5044 4025 
Q 5456 3531 5975 2738 
L 5531 2550 
Q 5434 2706 5309 2894 
Q 4419 2788 1844 2647 
L 1766 3050 
Q 1913 3053 2375 3075 
z
M 1184 3991 
Q 831 4366 303 4834 
L 616 5166 
Q 1288 4600 1525 4350 
L 1184 3991 
z
M 1016 2541 
Q 506 3066 134 3378 
L 453 3709 
Q 841 3416 1363 2906 
L 1016 2541 
z
M 4578 2406 
L 5044 2406 
L 5044 297 
Q 5044 69 5297 69 
Q 5466 69 5525 94 
Q 5584 119 5618 181 
Q 5653 244 5672 437 
Q 5691 631 5691 1000 
L 6063 938 
L 6063 178 
Q 6063 9 5986 -100 
Q 5909 -209 5771 -251 
Q 5634 -294 5350 -294 
Q 5103 -294 4940 -272 
Q 4778 -250 4678 -136 
Q 4578 -22 4578 178 
L 4578 2406 
z
M 3431 -284 
L 3431 2353 
L 3894 2353 
L 3894 -284 
L 3431 -284 
z
M 1681 -403 
L 1441 -134 
Q 1725 72 1923 375 
Q 2122 678 2195 972 
Q 2269 1266 2269 1666 
L 2269 2334 
L 2738 2334 
L 2738 1766 
Q 2738 975 2475 462 
Q 2213 -50 1681 -403 
z
M 650 -181 
L 244 106 
Q 494 453 784 1065 
Q 1075 1678 1219 2125 
L 1628 1981 
Q 1484 1491 1198 850 
Q 913 209 650 -181 
z
" transform="scale(0.015625)"/>
      <path id="Meiryo-3092" d="M 4059 794 
L 3597 794 
L 3597 1819 
Q 3597 2000 3588 2128 
Q 2150 1406 2150 819 
Q 2150 525 2472 351 
Q 2794 178 3828 178 
Q 5056 178 5788 294 
L 5819 -159 
Q 5075 -247 4100 -247 
Q 2597 -247 2140 15 
Q 1684 278 1684 766 
Q 1681 1200 2086 1625 
Q 2491 2050 3494 2544 
Q 3366 2825 3034 2825 
Q 2659 2825 2226 2689 
Q 1794 2553 1153 2006 
L 634 1569 
L 366 1888 
Q 1509 2775 2072 3938 
L 616 3938 
L 616 4344 
L 2244 4344 
Q 2388 4716 2466 5094 
L 2984 5050 
Q 2906 4691 2772 4344 
L 5094 4344 
L 5094 3938 
L 2606 3938 
Q 2431 3578 1997 2988 
L 2044 2963 
Q 2166 3041 2525 3114 
Q 2884 3188 3078 3188 
Q 3684 3188 3906 2734 
L 5747 3444 
L 5953 3022 
Q 5303 2809 4022 2331 
Q 4059 2097 4059 1741 
L 4059 794 
z
" transform="scale(0.015625)"/>
      <path id="Meiryo-4fdd" d="M 1059 -403 
L 1059 2903 
Q 738 2369 347 1916 
L 41 2163 
Q 494 2744 964 3683 
Q 1434 4622 1600 5328 
L 2069 5244 
Q 1881 4481 1384 3500 
L 1541 3500 
L 1541 -403 
L 1059 -403 
z
M 1763 -141 
L 1563 184 
Q 2184 503 2732 978 
Q 3281 1453 3553 1875 
L 1869 1875 
L 1869 2263 
L 3663 2263 
L 3663 3000 
L 2234 3000 
L 2234 4991 
L 5669 4991 
L 5669 3000 
L 4159 3000 
L 4159 2263 
L 6047 2263 
L 6047 1875 
L 4234 1875 
Q 4488 1500 5113 1012 
Q 5738 525 6372 244 
L 6113 -128 
Q 5591 113 5039 531 
Q 4488 950 4147 1369 
L 4147 -403 
L 3678 -403 
L 3678 1344 
Q 2991 472 1763 -141 
z
M 5178 4638 
L 2725 4638 
L 2725 3366 
L 5178 3366 
L 5178 4638 
z
" transform="scale(0.015625)"/>
      <path id="Meiryo-3066" d="M 5844 4066 
L 4278 4066 
Q 3706 3822 3165 3173 
Q 2625 2525 2625 1825 
Q 2625 1284 2912 923 
Q 3200 563 3679 395 
Q 4159 228 4956 228 
Q 5138 228 5331 238 
L 5300 -225 
L 5284 -225 
Q 4706 -225 4326 -204 
Q 3947 -184 3523 -51 
Q 3100 81 2778 353 
Q 2456 625 2300 981 
Q 2144 1338 2144 1788 
Q 2144 2416 2528 3033 
Q 2913 3650 3538 4078 
L 403 4078 
L 403 4494 
L 5844 4494 
L 5844 4066 
z
" transform="scale(0.015625)"/>
      <path id="Meiryo-306a" d="M 2119 4972 
Q 2097 4481 2041 4056 
L 3431 4056 
L 3431 3641 
L 1978 3641 
Q 1656 1766 653 453 
L 288 722 
Q 1175 1922 1484 3641 
L 463 3641 
L 463 4056 
L 1550 4056 
Q 1613 4513 1625 4978 
L 2119 4972 
z
M 6131 3231 
L 5747 2925 
Q 5169 3656 4147 4428 
L 4428 4738 
Q 5306 4225 6131 3231 
z
M 6119 525 
L 5869 128 
Q 5213 659 4706 906 
L 4706 609 
Q 4706 -309 3356 -309 
Q 2800 -309 2408 -71 
Q 2016 166 2016 584 
Q 2016 1044 2414 1309 
Q 2813 1575 3388 1575 
Q 3834 1575 4213 1500 
L 4213 3194 
L 4706 3194 
L 4706 1353 
Q 5328 1116 6119 525 
z
M 4225 1088 
Q 3809 1197 3388 1197 
Q 3022 1197 2747 1045 
Q 2472 894 2472 628 
Q 2472 97 3419 97 
Q 4225 97 4225 622 
L 4225 1088 
z
" transform="scale(0.015625)"/>
      <path id="Meiryo-3044" d="M 3150 1650 
Q 3044 1353 2814 925 
Q 2584 497 2345 211 
Q 2106 -75 1850 -75 
Q 1694 -75 1572 0 
Q 1450 75 1253 290 
Q 1056 506 892 882 
Q 728 1259 650 1671 
Q 572 2084 572 2475 
Q 572 2825 644 3466 
Q 719 4138 725 4447 
L 1250 4447 
Q 1238 4166 1150 3466 
Q 1072 2841 1072 2478 
Q 1072 1934 1186 1501 
Q 1300 1069 1517 756 
Q 1734 444 1834 444 
Q 1997 444 2272 889 
Q 2547 1334 2766 1850 
L 3150 1650 
z
M 6009 731 
L 5484 716 
L 5484 772 
Q 5484 1697 5184 2572 
Q 4884 3447 4328 4134 
L 4713 4378 
Q 5988 2919 6009 731 
z
" transform="scale(0.015625)"/>
     </defs>
     <use xlink:href="#Meiryo-28"/>
     <use xlink:href="#Meiryo-96fb" transform="translate(43.945312 0)"/>
     <use xlink:href="#Meiryo-5727" transform="translate(143.945312 0)"/>
     <use xlink:href="#Meiryo-5929" transform="translate(243.945312 0)"/>
     <use xlink:href="#Meiryo-4e95" transform="translate(343.945312 0)"/>
     <use xlink:href="#Meiryo-2192" transform="translate(443.945312 0)"/>
     <use xlink:href="#Meiryo-3053" transform="translate(543.945312 0)"/>
     <use xlink:href="#Meiryo-308c" transform="translate(643.945312 0)"/>
     <use xlink:href="#Meiryo-4ee5" transform="translate(743.945312 0)"/>
     <use xlink:href="#Meiryo-4e0a" transform="translate(843.945312 0)"/>
     <use xlink:href="#Meiryo-96fb" transform="translate(943.945312 0)"/>
     <use xlink:href="#Meiryo-6d41" transform="translate(1043.945312 0)"/>
     <use xlink:href="#Meiryo-3092" transform="translate(1143.945312 0)"/>
     <use xlink:href="#Meiryo-4fdd" transform="translate(1243.945312 0)"/>
     <use xlink:href="#Meiryo-3066" transform="translate(1343.945312 0)"/>
     <use xlink:href="#Meiryo-306a" transform="translate(1443.945312 0)"/>
     <use xlink:href="#Meiryo-3044" transform="translate(1543.945312 0)"/>
     <use xlink:href="#Meiryo-29" transform="translate(1643.945312 0)"/>
    </g>
   </g>
   <g id="patch_7">
    <path d="M 439.069499 122.677604 
Q 406.121338 86.590856 373.927024 51.329767 
" style="fill: none; stroke: #c2571a; stroke-linecap: round"/>
    <path d="M 374.903078 54.771761 
L 373.927024 51.329767 
L 377.266251 52.614121 
" style="fill: none; stroke: #c2571a; stroke-linecap: round"/>
   </g>
   <g id="text_16">
    <!-- IRUN=24は4000で天井 -->
    <g style="fill: #c2571a" transform="translate(401.448263 132.303231) scale(0.08 -0.08)">
     <defs>
      <path id="Meiryo-49" d="M 2197 0 
L 381 0 
L 381 434 
L 1000 434 
L 1000 4275 
L 381 4275 
L 381 4709 
L 2197 4709 
L 2197 4275 
L 1581 4275 
L 1581 434 
L 2197 434 
L 2197 0 
z
" transform="scale(0.015625)"/>
      <path id="Meiryo-52" d="M 4428 0 
L 3669 0 
L 2119 1894 
L 1159 1894 
L 1159 0 
L 578 0 
L 578 4709 
L 1913 4709 
Q 2853 4709 3258 4356 
Q 3663 4003 3663 3428 
Q 3663 2456 2709 2059 
L 4428 0 
z
M 1159 4216 
L 1159 2372 
L 1844 2372 
Q 2491 2372 2772 2634 
Q 3053 2897 3053 3400 
Q 3053 4216 1950 4216 
L 1159 4216 
z
" transform="scale(0.015625)"/>
      <path id="Meiryo-4e" d="M 4166 0 
L 3491 0 
L 1119 4088 
L 1119 0 
L 578 0 
L 578 4709 
L 1384 4709 
L 3625 847 
L 3625 4709 
L 4166 4709 
L 4166 0 
z
" transform="scale(0.015625)"/>
      <path id="Meiryo-306f" d="M 6253 569 
L 5972 184 
Q 5669 459 4891 959 
L 4891 769 
Q 4891 294 4577 58 
Q 4263 -178 3509 -178 
Q 3000 -178 2636 69 
Q 2272 316 2272 731 
Q 2272 1156 2619 1420 
Q 2966 1684 3456 1684 
Q 3938 1684 4394 1569 
L 4394 3416 
L 2197 3416 
L 2197 3838 
L 4394 3838 
L 4394 4984 
L 4884 4984 
L 4884 3838 
L 6050 3838 
L 6050 3416 
L 4884 3416 
L 4884 1397 
Q 5613 1103 6253 569 
z
M 4422 769 
L 4422 1147 
Q 4047 1306 3466 1306 
Q 3141 1303 2933 1158 
Q 2725 1013 2725 756 
Q 2725 503 2965 361 
Q 3206 219 3538 219 
Q 4422 219 4422 769 
z
M 1466 -63 
L 1000 -166 
Q 681 863 681 2066 
Q 681 3378 1109 4897 
L 1588 4813 
Q 1159 3400 1159 2119 
Q 1159 988 1466 -63 
z
" transform="scale(0.015625)"/>
      <path id="Meiryo-3067" d="M 5781 4066 
L 4216 4066 
Q 3644 3822 3101 3173 
Q 2559 2525 2559 1825 
Q 2559 1284 2846 923 
Q 3134 563 3615 395 
Q 4097 228 4891 228 
Q 5075 228 5269 238 
L 5238 -225 
L 5222 -225 
Q 4644 -225 4262 -204 
Q 3881 -184 3459 -51 
Q 3038 81 2716 353 
Q 2394 625 2237 981 
Q 2081 1338 2081 1788 
Q 2081 2416 2464 3033 
Q 2847 3650 3475 4078 
L 341 4078 
L 341 4494 
L 5781 4494 
L 5781 4066 
z
M 5916 2925 
L 5556 2778 
Q 5347 3263 5109 3641 
L 5441 3803 
Q 5656 3466 5916 2925 
z
M 5006 2734 
L 4647 2572 
Q 4422 3078 4194 3450 
L 4531 3603 
Q 4803 3181 5006 2734 
z
" transform="scale(0.015625)"/>
     </defs>
     <use xlink:href="#Meiryo-49"/>
     <use xlink:href="#Meiryo-52" transform="translate(40.332031 0)"/>
     <use xlink:href="#Meiryo-55" transform="translate(108.59375 0)"/>
     <use xlink:href="#Meiryo-4e" transform="translate(181.494141 0)"/>
     <use xlink:href="#Meiryo-3d" transform="translate(255.615234 0)"/>
     <use xlink:href="#Meiryo-32" transform="translate(335.986328 0)"/>
     <use xlink:href="#Meiryo-34" transform="translate(398.095703 0)"/>
     <use xlink:href="#Meiryo-306f" transform="translate(460.205078 0)"/>
     <use xlink:href="#Meiryo-34" transform="translate(560.205078 0)"/>
     <use xlink:href="#Meiryo-30" transform="translate(622.314453 0)"/>
     <use xlink:href="#Meiryo-30" transform="translate(684.423828 0)"/>
     <use xlink:href="#Meiryo-30" transform="translate(746.533203 0)"/>
     <use xlink:href="#Meiryo-3067" transform="translate(808.642578 0)"/>
     <use xlink:href="#Meiryo-5929" transform="translate(908.642578 0)"/>
     <use xlink:href="#Meiryo-4e95" transform="translate(1008.642578 0)"/>
    </g>
   </g>
   <g id="patch_8">
    <path d="M 488.880233 189.77659 
Q 528.231796 167.090453 566.614756 144.962714 
" style="fill: none; stroke: #1a7f37; stroke-linecap: round"/>
    <path d="M 563.043338 145.174793 
L 566.614756 144.962714 
L 564.641568 147.947095 
" style="fill: none; stroke: #1a7f37; stroke-linecap: round"/>
   </g>
   <g id="text_17">
    <!-- IRUN=8は6000でも余裕 -->
    <g style="fill: #1a7f37" transform="translate(431.071607 198.92388) scale(0.08 -0.08)">
     <defs>
      <path id="Meiryo-38" d="M 1206 2497 
L 1206 2534 
Q 459 2941 459 3588 
Q 459 4122 890 4469 
Q 1322 4816 1988 4816 
Q 2678 4816 3097 4487 
Q 3516 4159 3516 3628 
Q 3516 3284 3308 2982 
Q 3100 2681 2731 2513 
L 2731 2472 
Q 3641 2081 3641 1303 
Q 3641 697 3169 295 
Q 2697 -106 1988 -106 
Q 1234 -106 784 280 
Q 334 666 334 1291 
Q 334 2106 1206 2497 
z
M 2938 3625 
Q 2938 3963 2678 4178 
Q 2419 4394 1984 4394 
Q 1572 4394 1311 4192 
Q 1050 3991 1050 3663 
Q 1050 3300 1375 3065 
Q 1700 2831 2363 2628 
Q 2938 3000 2938 3625 
z
M 1588 2384 
Q 928 2013 928 1334 
Q 928 881 1228 601 
Q 1528 322 1994 322 
Q 2472 322 2753 567 
Q 3034 813 3034 1241 
Q 3034 1531 2906 1707 
Q 2778 1884 2533 2006 
Q 2288 2128 1588 2384 
z
" transform="scale(0.015625)"/>
      <path id="Meiryo-3082" d="M 4481 2150 
L 2306 2150 
Q 2156 1266 2156 978 
Q 2156 172 3622 172 
Q 5416 172 5416 1100 
Q 5416 1784 5056 2431 
L 5453 2566 
Q 5897 1794 5897 1044 
Q 5897 -256 3622 -256 
Q 1678 -256 1678 1003 
Q 1678 1363 1800 2150 
L 544 2150 
L 544 2566 
L 1872 2566 
Q 1941 2966 2100 3700 
L 584 3700 
L 584 4122 
L 2194 4122 
Q 2259 4422 2413 5025 
L 2913 4994 
L 2706 4122 
L 5531 4122 
L 5531 3700 
L 2609 3700 
Q 2478 3113 2378 2566 
L 4481 2566 
L 4481 2150 
z
" transform="scale(0.015625)"/>
      <path id="Meiryo-4f59" d="M 6091 3019 
Q 5313 3297 4508 3830 
Q 3703 4363 3219 4978 
Q 2716 4369 1927 3837 
Q 1138 3306 263 2953 
L 47 3284 
Q 772 3547 1700 4209 
Q 2628 4872 2859 5309 
L 3531 5309 
Q 3884 4775 4703 4231 
Q 5522 3688 6372 3403 
L 6091 3019 
z
M 2888 -375 
L 1941 -375 
L 1875 69 
L 2678 69 
Q 2791 69 2867 142 
Q 2944 216 2944 328 
L 2944 1863 
L 381 1863 
L 381 2253 
L 2944 2253 
L 2944 3072 
L 1522 3072 
L 1522 3463 
L 4891 3463 
L 4891 3072 
L 3453 3072 
L 3453 2253 
L 5953 2253 
L 5953 1863 
L 3453 1863 
L 3453 119 
Q 3453 -103 3289 -239 
Q 3125 -375 2888 -375 
z
M 5766 -122 
Q 4800 547 4172 1366 
L 4597 1594 
Q 4816 1309 5284 898 
Q 5753 488 6131 238 
L 5766 -122 
z
M 459 -147 
L 178 178 
Q 619 453 1075 848 
Q 1531 1244 1750 1569 
L 2194 1347 
Q 1913 975 1377 519 
Q 841 63 459 -147 
z
" transform="scale(0.015625)"/>
      <path id="Meiryo-88d5" d="M 988 -403 
L 988 2266 
Q 619 1897 225 1616 
L 22 1922 
Q 619 2363 1070 2923 
Q 1522 3484 1700 4050 
L 250 4050 
L 250 4428 
L 1013 4428 
L 1013 5272 
L 1472 5272 
L 1472 4428 
L 2163 4428 
L 2275 4319 
Q 2028 3531 1456 2800 
L 1456 2419 
Q 1534 2347 1681 2222 
L 2059 2875 
L 2359 2738 
L 1906 2041 
Q 2084 1903 2241 1791 
L 2072 1459 
Q 1863 1631 1456 1991 
L 1456 -403 
L 988 -403 
z
M 6178 4175 
L 5856 3847 
Q 5547 4009 5125 4362 
Q 4703 4716 4513 4978 
L 4884 5172 
Q 5063 4959 5466 4648 
Q 5869 4338 6178 4175 
z
M 2613 3816 
L 2366 4122 
Q 2672 4303 3025 4615 
Q 3378 4928 3528 5159 
L 3925 4966 
Q 3719 4688 3331 4348 
Q 2944 4009 2613 3816 
z
M 2528 2013 
L 2347 2322 
Q 2881 2638 3329 3130 
Q 3778 3622 3944 4003 
L 4441 4003 
Q 4597 3691 5081 3222 
Q 5566 2753 6322 2366 
L 6022 2006 
Q 5591 2197 5067 2648 
Q 4544 3100 4228 3609 
Q 3578 2547 2528 2013 
z
M 5184 -88 
L 3306 -88 
L 3306 -356 
L 2828 -356 
L 2828 2072 
L 5663 2072 
L 5663 -356 
L 5184 -356 
L 5184 -88 
z
M 3306 297 
L 5184 297 
L 5184 1688 
L 3306 1688 
L 3306 297 
z
" transform="scale(0.015625)"/>
     </defs>
     <use xlink:href="#Meiryo-49"/>
     <use xlink:href="#Meiryo-52" transform="translate(40.332031 0)"/>
     <use xlink:href="#Meiryo-55" transform="translate(108.59375 0)"/>
     <use xlink:href="#Meiryo-4e" transform="translate(181.494141 0)"/>
     <use xlink:href="#Meiryo-3d" transform="translate(255.615234 0)"/>
     <use xlink:href="#Meiryo-38" transform="translate(335.986328 0)"/>
     <use xlink:href="#Meiryo-306f" transform="translate(398.095703 0)"/>
     <use xlink:href="#Meiryo-36" transform="translate(498.095703 0)"/>
     <use xlink:href="#Meiryo-30" transform="translate(560.205078 0)"/>
     <use xlink:href="#Meiryo-30" transform="translate(622.314453 0)"/>
     <use xlink:href="#Meiryo-30" transform="translate(684.423828 0)"/>
     <use xlink:href="#Meiryo-3067" transform="translate(746.533203 0)"/>
     <use xlink:href="#Meiryo-3082" transform="translate(846.533203 0)"/>
     <use xlink:href="#Meiryo-4f59" transform="translate(946.533203 0)"/>
     <use xlink:href="#Meiryo-88d5" transform="translate(1046.533203 0)"/>
    </g>
   </g>
   <g id="text_18">
    <!-- StealthChopの電圧包絡: 速いほど・電流大ほど早く天井に当たる -->
    <g transform="translate(144.347366 20.820536) scale(0.12 -0.12)">
     <defs>
      <path id="Meiryo-306e" d="M 3338 -128 
L 3216 294 
Q 4222 384 4936 878 
Q 5650 1372 5650 2353 
Q 5650 3228 5073 3706 
Q 4497 4184 3466 4213 
Q 3431 2531 2862 1406 
Q 2294 281 1438 281 
Q 906 281 601 732 
Q 297 1184 297 1834 
Q 297 2906 1222 3761 
Q 2147 4616 3413 4616 
Q 4603 4616 5375 4020 
Q 6147 3425 6147 2394 
Q 6147 1219 5369 597 
Q 4591 -25 3338 -128 
z
M 2975 4172 
Q 2069 4034 1416 3351 
Q 763 2669 763 1809 
Q 763 1353 953 1036 
Q 1144 719 1484 719 
Q 2069 719 2503 1811 
Q 2938 2903 2975 4172 
z
" transform="scale(0.015625)"/>
      <path id="Meiryo-5305" d="M 1634 4269 
Q 975 3203 378 2631 
L 63 2878 
Q 659 3528 1081 4243 
Q 1503 4959 1638 5419 
L 2159 5334 
Q 2056 5006 1850 4634 
L 5566 4634 
L 5566 3866 
Q 5566 2900 5502 2325 
Q 5438 1750 5348 1561 
Q 5259 1372 5128 1276 
Q 4997 1181 4834 1151 
Q 4672 1122 4184 1122 
L 3897 1122 
L 3819 1553 
L 4431 1553 
Q 4666 1553 4816 1683 
Q 4966 1813 5023 2369 
Q 5081 2925 5081 3794 
Q 5081 4072 5078 4269 
L 1634 4269 
z
M 1116 2297 
L 3394 2297 
L 3394 3266 
L 1338 3266 
L 1338 3644 
L 3875 3644 
L 3875 1925 
L 1609 1925 
L 1609 463 
Q 1609 331 1687 237 
Q 1766 144 2212 114 
Q 2659 84 3197 84 
Q 3975 84 4567 114 
Q 5159 144 5262 180 
Q 5366 216 5437 306 
Q 5509 397 5525 656 
Q 5541 916 5541 1122 
L 5966 1072 
L 5966 853 
Q 5966 456 5956 322 
Q 5947 188 5876 67 
Q 5806 -53 5678 -128 
Q 5550 -203 5356 -233 
Q 5163 -263 4597 -283 
Q 4031 -303 3319 -303 
Q 2741 -303 2319 -286 
Q 1897 -269 1636 -230 
Q 1375 -191 1245 -51 
Q 1116 88 1116 328 
L 1116 2297 
z
" transform="scale(0.015625)"/>
      <path id="Meiryo-7d61" d="M 4506 2741 
Q 3747 2178 2788 1947 
L 2656 2275 
Q 3638 2594 4191 3006 
Q 3688 3491 3428 4041 
Q 3088 3578 2822 3325 
L 2522 3559 
Q 2844 3888 3184 4402 
Q 3525 4916 3703 5381 
L 4153 5284 
Q 4053 5034 3931 4813 
L 5797 4813 
L 5903 4688 
Q 5588 3703 4841 3019 
Q 5438 2613 6334 2359 
L 6103 1966 
Q 5166 2244 4506 2741 
z
M 4509 3275 
Q 5016 3759 5328 4475 
L 3725 4475 
L 3672 4391 
Q 3975 3744 4509 3275 
z
M 1203 -403 
L 1203 2244 
L 203 2169 
L 156 2553 
Q 291 2556 609 2569 
Q 803 2819 1075 3197 
Q 444 3906 191 4159 
L 478 4453 
L 613 4322 
Q 966 4850 1181 5322 
L 1606 5178 
Q 1334 4653 869 4056 
Q 1094 3819 1328 3553 
Q 1822 4266 2038 4681 
L 2469 4519 
Q 1791 3475 1066 2591 
Q 1678 2622 2031 2656 
L 1869 3147 
L 2234 3253 
Q 2469 2597 2572 2222 
L 2200 2116 
Q 2166 2241 2134 2341 
Q 1959 2316 1672 2288 
L 1672 -403 
L 1203 -403 
z
M 5316 -128 
L 3609 -128 
L 3609 -338 
L 3141 -338 
L 3141 1959 
L 5791 1959 
L 5791 -338 
L 5316 -338 
L 5316 -128 
z
M 3609 238 
L 5316 238 
L 5316 1594 
L 3609 1594 
L 3609 238 
z
M 2200 556 
L 2038 1759 
L 2441 1809 
L 2613 628 
L 2200 556 
z
M 509 131 
L 125 209 
Q 378 1063 431 1772 
L 856 1731 
Q 722 613 509 131 
z
" transform="scale(0.015625)"/>
      <path id="Meiryo-3a" d="M 1731 2678 
L 1022 2678 
L 1022 3531 
L 1731 3531 
L 1731 2678 
z
M 1731 0 
L 1022 0 
L 1022 853 
L 1731 853 
L 1731 0 
z
" transform="scale(0.015625)"/>
      <path id="Meiryo-307b" d="M 1422 -50 
L 959 -166 
Q 641 863 641 2066 
Q 641 3378 1069 4897 
L 1550 4813 
Q 1122 3397 1122 2097 
Q 1122 981 1422 -50 
z
M 6234 569 
L 5941 184 
Q 5684 419 4859 947 
L 4859 769 
Q 4859 288 4570 55 
Q 4281 -178 3534 -178 
Q 3022 -178 2640 69 
Q 2259 316 2259 731 
Q 2259 1147 2621 1406 
Q 2984 1666 3475 1666 
Q 3928 1666 4359 1556 
L 4359 2644 
L 2197 2644 
L 2197 3047 
L 4359 3047 
L 4359 4225 
L 2331 4225 
L 2331 4616 
L 5881 4616 
L 5881 4225 
L 4853 4225 
L 4853 3047 
L 6016 3047 
L 6016 2644 
L 4853 2644 
L 4853 1381 
Q 5716 984 6234 569 
z
M 4391 769 
L 4391 1128 
Q 4031 1281 3484 1281 
Q 3156 1278 2925 1139 
Q 2694 1000 2694 753 
Q 2694 513 2951 364 
Q 3209 216 3522 219 
Q 4391 219 4391 769 
z
" transform="scale(0.015625)"/>
      <path id="Meiryo-3069" d="M 5775 -109 
Q 4884 -200 3863 -200 
Q 3278 -200 2814 -181 
Q 2350 -163 2104 -113 
Q 1859 -63 1643 35 
Q 1428 134 1265 286 
Q 1103 438 1020 645 
Q 938 853 938 1109 
Q 938 2178 2641 2903 
Q 2556 3891 2541 5006 
L 3059 5006 
Q 3056 4872 3056 4722 
Q 3056 3991 3119 3091 
Q 3725 3313 5422 3797 
L 5550 3353 
Q 5053 3222 4014 2920 
Q 2975 2619 2458 2347 
Q 1941 2075 1684 1769 
Q 1428 1463 1428 1122 
Q 1428 809 1659 600 
Q 1891 391 2264 316 
Q 2638 241 3681 241 
Q 4838 241 5775 353 
L 5775 -109 
z
M 6106 4513 
L 5747 4366 
Q 5541 4850 5300 5228 
L 5638 5381 
Q 5891 4966 6106 4513 
z
M 5197 4319 
L 4841 4159 
Q 4616 4666 4384 5038 
L 4725 5191 
Q 4997 4769 5197 4319 
z
" transform="scale(0.015625)"/>
      <path id="Meiryo-30fb" d="M 2631 2284 
Q 2631 2522 2800 2690 
Q 2969 2859 3206 2859 
Q 3444 2859 3612 2690 
Q 3781 2522 3781 2284 
Q 3781 2047 3612 1878 
Q 3444 1709 3206 1709 
Q 2969 1709 2800 1878 
Q 2631 2047 2631 2284 
z
" transform="scale(0.015625)"/>
      <path id="Meiryo-5927" d="M 6081 63 
L 5759 -331 
Q 4888 166 4228 1016 
Q 3569 1866 3231 2728 
Q 2928 1697 2211 895 
Q 1494 94 394 -309 
L 213 56 
Q 1238 425 1978 1339 
Q 2719 2253 2850 3259 
L 369 3259 
L 369 3672 
L 2941 3672 
L 2941 5244 
L 3463 5244 
L 3463 3672 
L 6034 3672 
L 6034 3259 
L 3516 3259 
Q 3772 2378 4484 1448 
Q 5197 519 6081 63 
z
" transform="scale(0.015625)"/>
      <path id="Meiryo-65e9" d="M 2913 -394 
L 2913 1063 
L 216 1063 
L 216 1469 
L 2913 1469 
L 2913 2250 
L 741 2250 
L 741 5038 
L 5616 5038 
L 5616 2250 
L 3409 2250 
L 3409 1469 
L 6138 1469 
L 6138 1063 
L 3409 1063 
L 3409 -394 
L 2913 -394 
z
M 1209 3844 
L 5141 3844 
L 5141 4678 
L 1209 4678 
L 1209 3844 
z
M 5141 3478 
L 1209 3478 
L 1209 2622 
L 5141 2622 
L 5141 3478 
z
" transform="scale(0.015625)"/>
      <path id="Meiryo-304f" d="M 5109 38 
L 4719 -347 
Q 3759 553 2581 1338 
Q 2366 1472 1956 1742 
Q 1547 2013 1442 2103 
Q 1338 2194 1273 2309 
Q 1209 2425 1209 2544 
Q 1209 2838 1594 3109 
Q 2706 3822 3262 4233 
Q 3819 4644 4366 5134 
L 4750 4813 
Q 3631 3875 2144 2931 
Q 1853 2766 1781 2703 
Q 1709 2641 1709 2556 
Q 1709 2481 1754 2437 
Q 1800 2394 2134 2175 
Q 3391 1363 4003 919 
Q 4616 475 5109 38 
z
" transform="scale(0.015625)"/>
      <path id="Meiryo-306b" d="M 1550 -63 
L 1103 -166 
Q 781 863 781 2066 
Q 781 3378 1209 4897 
L 1691 4813 
Q 1259 3391 1259 2041 
Q 1259 931 1550 -63 
z
M 5781 4066 
Q 5284 4075 4844 4075 
Q 4197 4075 2503 3988 
Q 2503 4128 2484 4409 
Q 4094 4503 5100 4503 
Q 5600 4503 5766 4494 
L 5766 4466 
Q 5766 4322 5781 4066 
z
M 5819 91 
Q 5166 22 4541 22 
Q 3672 22 3242 123 
Q 2813 225 2591 459 
Q 2369 694 2369 1063 
Q 2369 1600 2838 2197 
L 3200 2003 
Q 2816 1581 2816 1091 
Q 2816 847 3023 697 
Q 3231 547 3579 498 
Q 3928 450 4569 450 
Q 5219 450 5819 525 
L 5819 91 
z
" transform="scale(0.015625)"/>
      <path id="Meiryo-5f53" d="M 538 -116 
L 538 297 
L 5244 297 
L 5244 1366 
L 656 1366 
L 656 1772 
L 5244 1772 
L 5244 2791 
L 597 2791 
L 597 3175 
L 2922 3175 
L 2922 5284 
L 3416 5284 
L 3416 3175 
L 5741 3175 
L 5741 -338 
L 5244 -338 
L 5244 -116 
L 538 -116 
z
M 4806 3444 
L 4375 3619 
Q 4838 4244 5200 5047 
L 5700 4872 
Q 5119 3841 4806 3444 
z
M 1438 3469 
Q 1191 4038 706 4813 
L 1144 5003 
Q 1544 4384 1897 3666 
L 1438 3469 
z
" transform="scale(0.015625)"/>
      <path id="Meiryo-305f" d="M 2234 5100 
Q 2234 4750 2203 4263 
L 4475 4263 
L 4475 3847 
L 2169 3847 
Q 2056 2644 1637 1469 
Q 1219 294 788 -231 
L 416 13 
Q 869 656 1230 1739 
Q 1591 2822 1675 3847 
L 538 3847 
L 538 4263 
L 1703 4263 
Q 1722 4666 1722 5100 
L 2234 5100 
z
M 5800 3250 
L 5794 2841 
Q 5641 2847 5513 2847 
Q 4394 2847 3053 2719 
L 3022 3131 
Q 4244 3259 5438 3259 
Q 5647 3259 5800 3250 
z
M 5984 0 
Q 5488 -84 4641 -84 
Q 3925 -84 3517 -25 
Q 3109 34 2875 246 
Q 2641 459 2641 766 
Q 2641 1209 2997 1606 
L 3347 1409 
Q 3119 1103 3119 819 
Q 3116 625 3330 484 
Q 3544 344 4528 344 
Q 5278 344 5959 428 
L 5984 0 
z
" transform="scale(0.015625)"/>
     </defs>
     <use xlink:href="#Meiryo-53"/>
     <use xlink:href="#Meiryo-74" transform="translate(63.476562 0)"/>
     <use xlink:href="#Meiryo-65" transform="translate(101.367188 0)"/>
     <use xlink:href="#Meiryo-61" transform="translate(159.082031 0)"/>
     <use xlink:href="#Meiryo-6c" transform="translate(217.089844 0)"/>
     <use xlink:href="#Meiryo-74" transform="translate(242.480469 0)"/>
     <use xlink:href="#Meiryo-68" transform="translate(280.371094 0)"/>
     <use xlink:href="#Meiryo-43" transform="translate(342.1875 0)"/>
     <use xlink:href="#Meiryo-68" transform="translate(409.423828 0)"/>
     <use xlink:href="#Meiryo-6f" transform="translate(471.240234 0)"/>
     <use xlink:href="#Meiryo-70" transform="translate(530.615234 0)"/>
     <use xlink:href="#Meiryo-306e" transform="translate(591.455078 0)"/>
     <use xlink:href="#Meiryo-96fb" transform="translate(691.455078 0)"/>
     <use xlink:href="#Meiryo-5727" transform="translate(791.455078 0)"/>
     <use xlink:href="#Meiryo-5305" transform="translate(891.455078 0)"/>
     <use xlink:href="#Meiryo-7d61" transform="translate(991.455078 0)"/>
     <use xlink:href="#Meiryo-3a" transform="translate(1091.455078 0)"/>
     <use xlink:href="#Meiryo-20" transform="translate(1134.423828 0)"/>
     <use xlink:href="#Meiryo-901f" transform="translate(1168.408203 0)"/>
     <use xlink:href="#Meiryo-3044" transform="translate(1268.408203 0)"/>
     <use xlink:href="#Meiryo-307b" transform="translate(1368.408203 0)"/>
     <use xlink:href="#Meiryo-3069" transform="translate(1468.408203 0)"/>
     <use xlink:href="#Meiryo-30fb" transform="translate(1568.408203 0)"/>
     <use xlink:href="#Meiryo-96fb" transform="translate(1668.408203 0)"/>
     <use xlink:href="#Meiryo-6d41" transform="translate(1768.408203 0)"/>
     <use xlink:href="#Meiryo-5927" transform="translate(1868.408203 0)"/>
     <use xlink:href="#Meiryo-307b" transform="translate(1968.408203 0)"/>
     <use xlink:href="#Meiryo-3069" transform="translate(2068.408203 0)"/>
     <use xlink:href="#Meiryo-65e9" transform="translate(2168.408203 0)"/>
     <use xlink:href="#Meiryo-304f" transform="translate(2268.408203 0)"/>
     <use xlink:href="#Meiryo-5929" transform="translate(2368.408203 0)"/>
     <use xlink:href="#Meiryo-4e95" transform="translate(2468.408203 0)"/>
     <use xlink:href="#Meiryo-306b" transform="translate(2568.408203 0)"/>
     <use xlink:href="#Meiryo-5f53" transform="translate(2668.408203 0)"/>
     <use xlink:href="#Meiryo-305f" transform="translate(2768.408203 0)"/>
     <use xlink:href="#Meiryo-308b" transform="translate(2868.408203 0)"/>
    </g>
   </g>
   <g id="legend_1">
    <g id="patch_9">
     <path d="M 508.978125 210.436607 
L 587 210.436607 
Q 589 210.436607 589 208.436607 
L 589 150.549107 
Q 589 148.549107 587 148.549107 
L 508.978125 148.549107 
Q 506.978125 148.549107 506.978125 150.549107 
L 506.978125 208.436607 
Q 506.978125 210.436607 508.978125 210.436607 
z
" style="fill: #ffffff; opacity: 0.8; stroke: #cccccc; stroke-linejoin: miter"/>
    </g>
    <g id="text_19">
     <!-- 電流 -->
     <g transform="translate(537.989062 160.235045) scale(0.1 -0.1)">
      <use xlink:href="#Meiryo-96fb"/>
      <use xlink:href="#Meiryo-6d41" transform="translate(100 0)"/>
     </g>
    </g>
    <g id="line2d_29">
     <path d="M 510.978125 171.45692 
L 520.978125 171.45692 
L 530.978125 171.45692 
" style="fill: none; stroke: #1a7f37; stroke-width: 2; stroke-linecap: square"/>
     <g>
      <use xlink:href="#m2b7acd7927" x="520.978125" y="171.45692" style="fill: #1a7f37; stroke: #1a7f37"/>
     </g>
    </g>
    <g id="text_20">
     <!-- IRUN=8 -->
     <g transform="translate(538.978125 174.95692) scale(0.1 -0.1)">
      <use xlink:href="#Meiryo-49"/>
      <use xlink:href="#Meiryo-52" transform="translate(40.332031 0)"/>
      <use xlink:href="#Meiryo-55" transform="translate(108.59375 0)"/>
      <use xlink:href="#Meiryo-4e" transform="translate(181.494141 0)"/>
      <use xlink:href="#Meiryo-3d" transform="translate(255.615234 0)"/>
      <use xlink:href="#Meiryo-38" transform="translate(335.986328 0)"/>
     </g>
    </g>
    <g id="line2d_30">
     <path d="M 510.978125 186.178795 
L 520.978125 186.178795 
L 530.978125 186.178795 
" style="fill: none; stroke: #2b57a8; stroke-width: 2; stroke-linecap: square"/>
     <g>
      <use xlink:href="#mc8cc670fee" x="520.978125" y="186.178795" style="fill: #2b57a8; stroke: #2b57a8"/>
     </g>
    </g>
    <g id="text_21">
     <!-- IRUN=16 -->
     <g transform="translate(538.978125 189.678795) scale(0.1 -0.1)">
      <use xlink:href="#Meiryo-49"/>
      <use xlink:href="#Meiryo-52" transform="translate(40.332031 0)"/>
      <use xlink:href="#Meiryo-55" transform="translate(108.59375 0)"/>
      <use xlink:href="#Meiryo-4e" transform="translate(181.494141 0)"/>
      <use xlink:href="#Meiryo-3d" transform="translate(255.615234 0)"/>
      <use xlink:href="#Meiryo-31" transform="translate(335.986328 0)"/>
      <use xlink:href="#Meiryo-36" transform="translate(398.095703 0)"/>
     </g>
    </g>
    <g id="line2d_31">
     <path d="M 510.978125 200.90067 
L 520.978125 200.90067 
L 530.978125 200.90067 
" style="fill: none; stroke: #c2571a; stroke-width: 2; stroke-linecap: square"/>
     <g>
      <use xlink:href="#m3a753d6ecf" x="520.978125" y="200.90067" style="fill: #c2571a; stroke: #c2571a"/>
     </g>
    </g>
    <g id="text_22">
     <!-- IRUN=24 -->
     <g transform="translate(538.978125 204.40067) scale(0.1 -0.1)">
      <use xlink:href="#Meiryo-49"/>
      <use xlink:href="#Meiryo-52" transform="translate(40.332031 0)"/>
      <use xlink:href="#Meiryo-55" transform="translate(108.59375 0)"/>
      <use xlink:href="#Meiryo-4e" transform="translate(181.494141 0)"/>
      <use xlink:href="#Meiryo-3d" transform="translate(255.615234 0)"/>
      <use xlink:href="#Meiryo-32" transform="translate(335.986328 0)"/>
      <use xlink:href="#Meiryo-34" transform="translate(398.095703 0)"/>
     </g>
    </g>
   </g>
  </g>
 </g>
 <defs>
  <clipPath id="p56d3afa028">
   <rect x="50.905357" y="26.820536" width="543.094643" height="305.344643"/>
  </clipPath>
 </defs>
</svg>
