<?xml version="1.0" encoding="utf-8" standalone="no"?>
<!DOCTYPE svg PUBLIC "-//W3C//DTD SVG 1.1//EN"
  "http://www.w3.org/Graphics/SVG/1.1/DTD/svg11.dtd">
<svg xmlns:xlink="http://www.w3.org/1999/xlink" width="619.2pt" height="360pt" viewBox="0 0 619.2 360" xmlns="http://www.w3.org/2000/svg" version="1.1">
 <metadata>
  <rdf:RDF xmlns:dc="http://purl.org/dc/elements/1.1/" xmlns:cc="http://creativecommons.org/ns#" xmlns:rdf="http://www.w3.org/1999/02/22-rdf-syntax-ns#">
   <cc:Work>
    <dc:type rdf:resource="http://purl.org/dc/dcmitype/StillImage"/>
    <dc:date>2026-07-06T10:37:20.929766</dc:date>
    <dc:format>image/svg+xml</dc:format>
    <dc:creator>
     <cc:Agent>
      <dc:title>Matplotlib v3.10.9, https://matplotlib.org/</dc:title>
     </cc:Agent>
    </dc:creator>
   </cc:Work>
  </rdf:RDF>
 </metadata>
 <defs>
  <style type="text/css">*{stroke-linejoin: round; stroke-linecap: butt}</style>
 </defs>
 <g id="figure_1">
  <g id="patch_1">
   <path d="M 0 360 
L 619.2 360 
L 619.2 0 
L 0 0 
z
" style="fill: #ffffff"/>
  </g>
  <g id="axes_1">
   <g id="patch_2">
    <path d="M 44.958929 318.142857 
L 608.4 318.142857 
L 608.4 26.892857 
L 44.958929 26.892857 
z
" style="fill: #ffffff"/>
   </g>
   <g id="matplotlib.axis_1">
    <g id="xtick_1">
     <g id="line2d_1">
      <path d="M 70.569886 318.142857 
L 70.569886 26.892857 
" clip-path="url(#p09b6d6b4da)" style="fill: none; stroke: #b0b0b0; stroke-opacity: 0.3; stroke-width: 0.8; stroke-linecap: square"/>
     </g>
     <g id="line2d_2">
      <defs>
       <path id="mc9e18df183" d="M 0 0 
L 0 3.5 
" style="stroke: #000000; stroke-width: 0.8"/>
      </defs>
      <g>
       <use xlink:href="#mc9e18df183" x="70.569886" y="318.142857" style="stroke: #000000; stroke-width: 0.8"/>
      </g>
     </g>
     <g id="text_1">
      <!-- 1.0 -->
      <g transform="translate(62.613636 332.828795) scale(0.1 -0.1)">
       <defs>
        <path id="Meiryo-31" d="M 3338 0 
L 831 0 
L 831 431 
L 1813 431 
L 1813 3669 
L 831 3669 
L 831 4050 
Q 1406 4053 1653 4214 
Q 1900 4375 1931 4725 
L 2375 4725 
L 2375 431 
L 3338 431 
L 3338 0 
z
" transform="scale(0.015625)"/>
        <path id="Meiryo-2e" d="M 1472 0 
L 763 0 
L 763 853 
L 1472 853 
L 1472 0 
z
" transform="scale(0.015625)"/>
        <path id="Meiryo-30" d="M 1991 -97 
Q 1159 -97 768 497 
Q 378 1091 378 2350 
Q 378 3609 770 4206 
Q 1163 4803 1991 4803 
Q 2813 4803 3206 4204 
Q 3600 3606 3600 2356 
Q 3600 1094 3209 498 
Q 2819 -97 1991 -97 
z
M 1991 4325 
Q 1456 4325 1215 3901 
Q 975 3478 975 2350 
Q 975 1231 1215 806 
Q 1456 381 1991 381 
Q 2525 381 2764 806 
Q 3003 1231 3003 2356 
Q 3003 3459 2765 3892 
Q 2528 4325 1991 4325 
z
" transform="scale(0.015625)"/>
       </defs>
       <use xlink:href="#Meiryo-31"/>
       <use xlink:href="#Meiryo-2e" transform="translate(62.109375 0)"/>
       <use xlink:href="#Meiryo-30" transform="translate(97.021484 0)"/>
      </g>
     </g>
    </g>
    <g id="xtick_2">
     <g id="line2d_3">
      <path d="M 173.013718 318.142857 
L 173.013718 26.892857 
" clip-path="url(#p09b6d6b4da)" style="fill: none; stroke: #b0b0b0; stroke-opacity: 0.3; stroke-width: 0.8; stroke-linecap: square"/>
     </g>
     <g id="line2d_4">
      <g>
       <use xlink:href="#mc9e18df183" x="173.013718" y="318.142857" style="stroke: #000000; stroke-width: 0.8"/>
      </g>
     </g>
     <g id="text_2">
      <!-- 1.2 -->
      <g transform="translate(165.057468 332.828795) scale(0.1 -0.1)">
       <defs>
        <path id="Meiryo-32" d="M 3606 0 
L 456 0 
L 456 609 
Q 956 1041 1579 1612 
Q 2203 2184 2506 2618 
Q 2809 3053 2809 3488 
Q 2809 3872 2554 4087 
Q 2300 4303 1863 4303 
Q 1222 4303 603 3897 
L 572 3897 
L 572 4506 
Q 1203 4806 1878 4806 
Q 2591 4806 3000 4461 
Q 3409 4116 3409 3519 
Q 3409 3200 3304 2909 
Q 3200 2619 2978 2344 
Q 2756 2069 2447 1759 
Q 2138 1450 1025 503 
L 3606 503 
L 3606 0 
z
" transform="scale(0.015625)"/>
       </defs>
       <use xlink:href="#Meiryo-31"/>
       <use xlink:href="#Meiryo-2e" transform="translate(62.109375 0)"/>
       <use xlink:href="#Meiryo-32" transform="translate(97.021484 0)"/>
      </g>
     </g>
    </g>
    <g id="xtick_3">
     <g id="line2d_5">
      <path d="M 275.457549 318.142857 
L 275.457549 26.892857 
" clip-path="url(#p09b6d6b4da)" style="fill: none; stroke: #b0b0b0; stroke-opacity: 0.3; stroke-width: 0.8; stroke-linecap: square"/>
     </g>
     <g id="line2d_6">
      <g>
       <use xlink:href="#mc9e18df183" x="275.457549" y="318.142857" style="stroke: #000000; stroke-width: 0.8"/>
      </g>
     </g>
     <g id="text_3">
      <!-- 1.4 -->
      <g transform="translate(267.501299 332.828795) scale(0.1 -0.1)">
       <defs>
        <path id="Meiryo-34" d="M 3713 1356 
L 3022 1356 
L 3022 0 
L 2459 0 
L 2459 1356 
L 194 1356 
L 194 2013 
L 2484 4709 
L 3022 4709 
L 3022 1819 
L 3713 1819 
L 3713 1356 
z
M 2459 1819 
L 2459 4022 
L 588 1819 
L 2459 1819 
z
" transform="scale(0.015625)"/>
       </defs>
       <use xlink:href="#Meiryo-31"/>
       <use xlink:href="#Meiryo-2e" transform="translate(62.109375 0)"/>
       <use xlink:href="#Meiryo-34" transform="translate(97.021484 0)"/>
      </g>
     </g>
    </g>
    <g id="xtick_4">
     <g id="line2d_7">
      <path d="M 377.90138 318.142857 
L 377.90138 26.892857 
" clip-path="url(#p09b6d6b4da)" style="fill: none; stroke: #b0b0b0; stroke-opacity: 0.3; stroke-width: 0.8; stroke-linecap: square"/>
     </g>
     <g id="line2d_8">
      <g>
       <use xlink:href="#mc9e18df183" x="377.90138" y="318.142857" style="stroke: #000000; stroke-width: 0.8"/>
      </g>
     </g>
     <g id="text_4">
      <!-- 1.6 -->
      <g transform="translate(369.94513 332.828795) scale(0.1 -0.1)">
       <defs>
        <path id="Meiryo-36" d="M 3222 4722 
L 3222 4169 
L 3184 4169 
Q 2922 4297 2572 4297 
Q 1881 4297 1468 3858 
Q 1056 3419 988 2638 
Q 1578 2991 2138 2991 
Q 2822 2991 3248 2611 
Q 3675 2231 3675 1522 
Q 3675 816 3212 359 
Q 2750 -97 2063 -97 
Q 1266 -97 823 458 
Q 381 1013 381 2066 
Q 381 3363 973 4080 
Q 1566 4797 2666 4797 
Q 2997 4797 3222 4722 
z
M 988 2238 
Q 975 1981 975 1928 
Q 975 1184 1265 779 
Q 1556 375 2069 375 
Q 2541 375 2809 670 
Q 3078 966 3078 1497 
Q 3078 1938 2825 2225 
Q 2572 2513 1984 2513 
Q 1475 2513 988 2238 
z
" transform="scale(0.015625)"/>
       </defs>
       <use xlink:href="#Meiryo-31"/>
       <use xlink:href="#Meiryo-2e" transform="translate(62.109375 0)"/>
       <use xlink:href="#Meiryo-36" transform="translate(97.021484 0)"/>
      </g>
     </g>
    </g>
    <g id="xtick_5">
     <g id="line2d_9">
      <path d="M 480.345211 318.142857 
L 480.345211 26.892857 
" clip-path="url(#p09b6d6b4da)" style="fill: none; stroke: #b0b0b0; stroke-opacity: 0.3; stroke-width: 0.8; stroke-linecap: square"/>
     </g>
     <g id="line2d_10">
      <g>
       <use xlink:href="#mc9e18df183" x="480.345211" y="318.142857" style="stroke: #000000; stroke-width: 0.8"/>
      </g>
     </g>
     <g id="text_5">
      <!-- 1.8 -->
      <g transform="translate(472.388961 332.828795) scale(0.1 -0.1)">
       <defs>
        <path id="Meiryo-38" d="M 1206 2497 
L 1206 2534 
Q 459 2941 459 3588 
Q 459 4122 890 4469 
Q 1322 4816 1988 4816 
Q 2678 4816 3097 4487 
Q 3516 4159 3516 3628 
Q 3516 3284 3308 2982 
Q 3100 2681 2731 2513 
L 2731 2472 
Q 3641 2081 3641 1303 
Q 3641 697 3169 295 
Q 2697 -106 1988 -106 
Q 1234 -106 784 280 
Q 334 666 334 1291 
Q 334 2106 1206 2497 
z
M 2938 3625 
Q 2938 3963 2678 4178 
Q 2419 4394 1984 4394 
Q 1572 4394 1311 4192 
Q 1050 3991 1050 3663 
Q 1050 3300 1375 3065 
Q 1700 2831 2363 2628 
Q 2938 3000 2938 3625 
z
M 1588 2384 
Q 928 2013 928 1334 
Q 928 881 1228 601 
Q 1528 322 1994 322 
Q 2472 322 2753 567 
Q 3034 813 3034 1241 
Q 3034 1531 2906 1707 
Q 2778 1884 2533 2006 
Q 2288 2128 1588 2384 
z
" transform="scale(0.015625)"/>
       </defs>
       <use xlink:href="#Meiryo-31"/>
       <use xlink:href="#Meiryo-2e" transform="translate(62.109375 0)"/>
       <use xlink:href="#Meiryo-38" transform="translate(97.021484 0)"/>
      </g>
     </g>
    </g>
    <g id="xtick_6">
     <g id="line2d_11">
      <path d="M 582.789042 318.142857 
L 582.789042 26.892857 
" clip-path="url(#p09b6d6b4da)" style="fill: none; stroke: #b0b0b0; stroke-opacity: 0.3; stroke-width: 0.8; stroke-linecap: square"/>
     </g>
     <g id="line2d_12">
      <g>
       <use xlink:href="#mc9e18df183" x="582.789042" y="318.142857" style="stroke: #000000; stroke-width: 0.8"/>
      </g>
     </g>
     <g id="text_6">
      <!-- 2.0 -->
      <g transform="translate(574.832792 332.828795) scale(0.1 -0.1)">
       <use xlink:href="#Meiryo-32"/>
       <use xlink:href="#Meiryo-2e" transform="translate(62.109375 0)"/>
       <use xlink:href="#Meiryo-30" transform="translate(97.021484 0)"/>
      </g>
     </g>
    </g>
    <g id="text_7">
     <!-- 音程比 (axis1/axis0) -->
     <g transform="translate(278.249777 347.199107) scale(0.1 -0.1)">
      <defs>
       <path id="Meiryo-97f3" d="M 1825 3384 
L 1403 4403 
L 563 4403 
L 563 4794 
L 2900 4794 
L 2900 5334 
L 3397 5334 
L 3397 4794 
L 5838 4794 
L 5838 4403 
L 4981 4403 
L 4472 3384 
L 6059 3384 
L 6059 2997 
L 322 2997 
L 322 3384 
L 1825 3384 
z
M 1919 4403 
L 2350 3384 
L 3950 3384 
L 4434 4403 
L 1919 4403 
z
M 4794 -97 
L 1528 -97 
L 1528 -356 
L 1041 -356 
L 1041 2475 
L 5281 2475 
L 5281 -344 
L 4794 -344 
L 4794 -97 
z
M 4794 1394 
L 4794 2097 
L 1528 2097 
L 1528 1394 
L 4794 1394 
z
M 1528 291 
L 4794 291 
L 4794 1034 
L 1528 1034 
L 1528 291 
z
" transform="scale(0.015625)"/>
       <path id="Meiryo-7a0b" d="M 328 878 
L 53 1119 
Q 981 2363 1234 3209 
L 263 3209 
L 263 3581 
L 1269 3581 
L 1269 4594 
Q 675 4481 309 4434 
L 209 4794 
Q 1622 4988 2353 5266 
L 2553 4919 
Q 2241 4803 1756 4694 
L 1756 3581 
L 2475 3581 
L 2475 3209 
L 1756 3209 
L 1756 2831 
Q 1984 2563 2503 2078 
L 2247 1713 
Q 2016 1944 1756 2284 
L 1756 -394 
L 1269 -394 
L 1269 2284 
Q 828 1456 328 878 
z
M 2834 3338 
L 2834 5075 
L 5856 5075 
L 5856 3338 
L 2834 3338 
z
M 5381 4709 
L 3306 4709 
L 3306 3703 
L 5381 3703 
L 5381 4709 
z
M 2353 -253 
L 2353 141 
L 4075 141 
L 4075 1147 
L 2653 1147 
L 2653 1525 
L 4075 1525 
L 4075 2400 
L 2575 2400 
L 2575 2766 
L 6156 2766 
L 6156 2400 
L 4566 2400 
L 4566 1525 
L 5975 1525 
L 5975 1147 
L 4566 1147 
L 4566 141 
L 6300 141 
L 6300 -253 
L 2353 -253 
z
" transform="scale(0.015625)"/>
       <path id="Meiryo-6bd4" d="M 3372 5172 
L 3863 5172 
L 3863 3169 
Q 5125 3741 5703 4194 
L 6053 3847 
Q 5316 3319 3863 2734 
L 3863 400 
Q 3863 163 4166 136 
Q 4469 109 4741 109 
Q 5000 109 5206 136 
Q 5413 163 5500 231 
Q 5588 300 5625 478 
Q 5663 656 5663 1328 
L 6094 1275 
L 6094 303 
Q 6094 50 5930 -94 
Q 5766 -238 5459 -270 
Q 5153 -303 4731 -303 
Q 4488 -303 4247 -292 
Q 4006 -281 3872 -272 
Q 3738 -263 3619 -184 
Q 3500 -106 3436 16 
Q 3372 138 3372 303 
L 3372 5172 
z
M 225 -309 
L 116 106 
Q 425 147 931 234 
L 931 5134 
L 1425 5134 
L 1425 3606 
L 2959 3606 
L 2959 3222 
L 1425 3222 
L 1425 325 
Q 2481 522 2922 650 
L 2922 238 
Q 2538 103 225 -309 
z
" transform="scale(0.015625)"/>
       <path id="Meiryo-20" transform="scale(0.015625)"/>
       <path id="Meiryo-28" d="M 2397 -1303 
L 1731 -1303 
Q 1094 -563 808 184 
Q 522 931 522 1809 
Q 522 3506 1731 4919 
L 2397 4919 
L 2397 4888 
Q 1775 4341 1401 3523 
Q 1028 2706 1028 1809 
Q 1028 909 1400 95 
Q 1772 -719 2397 -1272 
L 2397 -1303 
z
" transform="scale(0.015625)"/>
       <path id="Meiryo-61" d="M 2663 841 
L 2663 1866 
Q 1497 1813 1164 1608 
Q 831 1403 831 1044 
Q 831 409 1600 409 
Q 2122 409 2663 841 
z
M 2663 0 
L 2663 394 
Q 2222 75 1937 -11 
Q 1653 -97 1359 -97 
Q 888 -97 575 215 
Q 263 528 263 1009 
Q 263 1625 727 1936 
Q 1191 2247 2663 2306 
L 2663 2413 
Q 2663 2781 2444 2957 
Q 2225 3134 1675 3134 
Q 1191 3134 597 2884 
L 572 2884 
L 572 3456 
Q 1156 3616 1697 3616 
Q 2481 3616 2845 3323 
Q 3209 3031 3209 2416 
L 3209 0 
L 2663 0 
z
" transform="scale(0.015625)"/>
       <path id="Meiryo-78" d="M 3428 0 
L 2763 0 
L 1766 1372 
L 744 0 
L 128 0 
L 1472 1753 
L 141 3531 
L 806 3531 
L 1797 2169 
L 2809 3531 
L 3428 3531 
L 2091 1788 
L 3428 0 
z
" transform="scale(0.015625)"/>
       <path id="Meiryo-69" d="M 1122 4238 
L 500 4238 
L 500 4809 
L 1122 4809 
L 1122 4238 
z
M 1088 0 
L 538 0 
L 538 3531 
L 1088 3531 
L 1088 0 
z
" transform="scale(0.015625)"/>
       <path id="Meiryo-73" d="M 1528 -84 
Q 866 -84 284 206 
L 284 844 
L 306 844 
Q 938 375 1559 375 
Q 2431 375 2431 925 
Q 2431 1141 2315 1259 
Q 2200 1378 1834 1463 
Q 1528 1522 1131 1615 
Q 734 1709 517 1945 
Q 300 2181 300 2550 
Q 300 3019 681 3317 
Q 1063 3616 1700 3616 
Q 2356 3616 2853 3359 
L 2853 2753 
L 2831 2753 
Q 2284 3156 1672 3156 
Q 1294 3156 1075 3017 
Q 856 2878 856 2631 
Q 856 2413 973 2297 
Q 1091 2181 1441 2094 
L 2131 1944 
Q 2559 1850 2775 1614 
Q 2991 1378 2991 1003 
Q 2991 519 2594 217 
Q 2197 -84 1528 -84 
z
" transform="scale(0.015625)"/>
       <path id="Meiryo-2f" d="M 2675 4919 
L 413 -950 
L -91 -950 
L 2163 4919 
L 2675 4919 
z
" transform="scale(0.015625)"/>
       <path id="Meiryo-29" d="M 1081 -1303 
L 416 -1303 
L 416 -1272 
Q 1044 -713 1414 98 
Q 1784 909 1784 1809 
Q 1784 2706 1412 3520 
Q 1041 4334 416 4888 
L 416 4919 
L 1081 4919 
Q 2291 3506 2291 1809 
Q 2291 934 2008 190 
Q 1725 -553 1081 -1303 
z
" transform="scale(0.015625)"/>
      </defs>
      <use xlink:href="#Meiryo-97f3"/>
      <use xlink:href="#Meiryo-7a0b" transform="translate(100 0)"/>
      <use xlink:href="#Meiryo-6bd4" transform="translate(200 0)"/>
      <use xlink:href="#Meiryo-20" transform="translate(300 0)"/>
      <use xlink:href="#Meiryo-28" transform="translate(333.984375 0)"/>
      <use xlink:href="#Meiryo-61" transform="translate(377.929688 0)"/>
      <use xlink:href="#Meiryo-78" transform="translate(435.9375 0)"/>
      <use xlink:href="#Meiryo-69" transform="translate(491.503906 0)"/>
      <use xlink:href="#Meiryo-73" transform="translate(516.894531 0)"/>
      <use xlink:href="#Meiryo-31" transform="translate(566.699219 0)"/>
      <use xlink:href="#Meiryo-2f" transform="translate(628.808594 0)"/>
      <use xlink:href="#Meiryo-61" transform="translate(673.730469 0)"/>
      <use xlink:href="#Meiryo-78" transform="translate(731.738281 0)"/>
      <use xlink:href="#Meiryo-69" transform="translate(787.304688 0)"/>
      <use xlink:href="#Meiryo-73" transform="translate(812.695312 0)"/>
      <use xlink:href="#Meiryo-30" transform="translate(862.5 0)"/>
      <use xlink:href="#Meiryo-29" transform="translate(924.609375 0)"/>
     </g>
    </g>
   </g>
   <g id="matplotlib.axis_2">
    <g id="ytick_1">
     <g id="line2d_13">
      <path d="M 44.958929 290.252746 
L 608.4 290.252746 
" clip-path="url(#p09b6d6b4da)" style="fill: none; stroke: #b0b0b0; stroke-opacity: 0.3; stroke-width: 0.8; stroke-linecap: square"/>
     </g>
     <g id="line2d_14">
      <defs>
       <path id="m51d751bed7" d="M 0 0 
L -3.5 0 
" style="stroke: #000000; stroke-width: 0.8"/>
      </defs>
      <g>
       <use xlink:href="#m51d751bed7" x="44.958929" y="290.252746" style="stroke: #000000; stroke-width: 0.8"/>
      </g>
     </g>
     <g id="text_8">
      <!-- 40 -->
      <g transform="translate(25.537054 294.095714) scale(0.1 -0.1)">
       <use xlink:href="#Meiryo-34"/>
       <use xlink:href="#Meiryo-30" transform="translate(62.109375 0)"/>
      </g>
     </g>
    </g>
    <g id="ytick_2">
     <g id="line2d_15">
      <path d="M 44.958929 239.994841 
L 608.4 239.994841 
" clip-path="url(#p09b6d6b4da)" style="fill: none; stroke: #b0b0b0; stroke-opacity: 0.3; stroke-width: 0.8; stroke-linecap: square"/>
     </g>
     <g id="line2d_16">
      <g>
       <use xlink:href="#m51d751bed7" x="44.958929" y="239.994841" style="stroke: #000000; stroke-width: 0.8"/>
      </g>
     </g>
     <g id="text_9">
      <!-- 50 -->
      <g transform="translate(25.537054 243.83781) scale(0.1 -0.1)">
       <defs>
        <path id="Meiryo-35" d="M 538 178 
L 538 803 
L 588 803 
Q 1197 406 1856 406 
Q 2363 406 2667 695 
Q 2972 984 2972 1494 
Q 2972 2419 1703 2419 
Q 1341 2419 741 2294 
L 741 4709 
L 3538 4709 
L 3538 4203 
L 1303 4203 
L 1303 2869 
Q 1716 2909 1859 2909 
Q 2700 2909 3134 2546 
Q 3569 2184 3569 1491 
Q 3569 791 3098 347 
Q 2628 -97 1869 -97 
Q 1131 -97 538 178 
z
" transform="scale(0.015625)"/>
       </defs>
       <use xlink:href="#Meiryo-35"/>
       <use xlink:href="#Meiryo-30" transform="translate(62.109375 0)"/>
      </g>
     </g>
    </g>
    <g id="ytick_3">
     <g id="line2d_17">
      <path d="M 44.958929 189.736937 
L 608.4 189.736937 
" clip-path="url(#p09b6d6b4da)" style="fill: none; stroke: #b0b0b0; stroke-opacity: 0.3; stroke-width: 0.8; stroke-linecap: square"/>
     </g>
     <g id="line2d_18">
      <g>
       <use xlink:href="#m51d751bed7" x="44.958929" y="189.736937" style="stroke: #000000; stroke-width: 0.8"/>
      </g>
     </g>
     <g id="text_10">
      <!-- 60 -->
      <g transform="translate(25.537054 193.579905) scale(0.1 -0.1)">
       <use xlink:href="#Meiryo-36"/>
       <use xlink:href="#Meiryo-30" transform="translate(62.109375 0)"/>
      </g>
     </g>
    </g>
    <g id="ytick_4">
     <g id="line2d_19">
      <path d="M 44.958929 139.479032 
L 608.4 139.479032 
" clip-path="url(#p09b6d6b4da)" style="fill: none; stroke: #b0b0b0; stroke-opacity: 0.3; stroke-width: 0.8; stroke-linecap: square"/>
     </g>
     <g id="line2d_20">
      <g>
       <use xlink:href="#m51d751bed7" x="44.958929" y="139.479032" style="stroke: #000000; stroke-width: 0.8"/>
      </g>
     </g>
     <g id="text_11">
      <!-- 70 -->
      <g transform="translate(25.537054 143.322001) scale(0.1 -0.1)">
       <defs>
        <path id="Meiryo-37" d="M 3619 4056 
L 1506 0 
L 878 0 
L 3125 4203 
L 434 4203 
L 434 4709 
L 3619 4709 
L 3619 4056 
z
" transform="scale(0.015625)"/>
       </defs>
       <use xlink:href="#Meiryo-37"/>
       <use xlink:href="#Meiryo-30" transform="translate(62.109375 0)"/>
      </g>
     </g>
    </g>
    <g id="ytick_5">
     <g id="line2d_21">
      <path d="M 44.958929 89.221127 
L 608.4 89.221127 
" clip-path="url(#p09b6d6b4da)" style="fill: none; stroke: #b0b0b0; stroke-opacity: 0.3; stroke-width: 0.8; stroke-linecap: square"/>
     </g>
     <g id="line2d_22">
      <g>
       <use xlink:href="#m51d751bed7" x="44.958929" y="89.221127" style="stroke: #000000; stroke-width: 0.8"/>
      </g>
     </g>
     <g id="text_12">
      <!-- 80 -->
      <g transform="translate(25.537054 93.064096) scale(0.1 -0.1)">
       <use xlink:href="#Meiryo-38"/>
       <use xlink:href="#Meiryo-30" transform="translate(62.109375 0)"/>
      </g>
     </g>
    </g>
    <g id="ytick_6">
     <g id="line2d_23">
      <path d="M 44.958929 38.963223 
L 608.4 38.963223 
" clip-path="url(#p09b6d6b4da)" style="fill: none; stroke: #b0b0b0; stroke-opacity: 0.3; stroke-width: 0.8; stroke-linecap: square"/>
     </g>
     <g id="line2d_24">
      <g>
       <use xlink:href="#m51d751bed7" x="44.958929" y="38.963223" style="stroke: #000000; stroke-width: 0.8"/>
      </g>
     </g>
     <g id="text_13">
      <!-- 90 -->
      <g transform="translate(25.537054 42.806192) scale(0.1 -0.1)">
       <defs>
        <path id="Meiryo-39" d="M 759 -19 
L 759 534 
L 797 534 
Q 1059 409 1409 409 
Q 2853 409 2997 2081 
Q 2372 1706 1847 1706 
Q 1134 1706 720 2101 
Q 306 2497 306 3184 
Q 306 3891 768 4347 
Q 1231 4803 1919 4803 
Q 2703 4803 3151 4264 
Q 3600 3725 3600 2641 
Q 3600 1341 3009 625 
Q 2419 -91 1316 -91 
Q 991 -91 759 -19 
z
M 2997 2475 
L 3006 2753 
Q 3006 3516 2725 3923 
Q 2444 4331 1913 4331 
Q 1447 4331 1175 4032 
Q 903 3734 903 3209 
Q 903 2759 1156 2470 
Q 1409 2181 1994 2181 
Q 2472 2181 2997 2475 
z
" transform="scale(0.015625)"/>
       </defs>
       <use xlink:href="#Meiryo-39"/>
       <use xlink:href="#Meiryo-30" transform="translate(62.109375 0)"/>
      </g>
     </g>
    </g>
    <g id="text_14">
     <!-- roughness (15〜150Hz AMエネルギー, 大=不協和) -->
     <g transform="translate(19.446429 292.297545) rotate(-90) scale(0.1 -0.1)">
      <defs>
       <path id="Meiryo-72" d="M 531 0 
L 531 3531 
L 1081 3531 
L 1081 2988 
Q 1744 3531 2303 3531 
Q 2500 3531 2700 3500 
L 2700 2925 
L 2678 2925 
Q 2419 2988 2153 2988 
Q 1622 2988 1081 2538 
L 1081 0 
L 531 0 
z
" transform="scale(0.015625)"/>
       <path id="Meiryo-6f" d="M 1900 -97 
Q 1147 -97 709 401 
Q 272 900 272 1763 
Q 272 2625 712 3128 
Q 1153 3631 1900 3631 
Q 2647 3631 3087 3131 
Q 3528 2631 3528 1763 
Q 3528 894 3089 398 
Q 2650 -97 1900 -97 
z
M 1900 3163 
Q 1391 3163 1116 2803 
Q 841 2444 841 1763 
Q 841 1091 1116 731 
Q 1391 372 1900 372 
Q 2409 372 2684 731 
Q 2959 1091 2959 1763 
Q 2959 3163 1900 3163 
z
" transform="scale(0.015625)"/>
       <path id="Meiryo-75" d="M 3425 0 
L 2875 0 
L 2875 425 
Q 2234 -97 1647 -97 
Q 1094 -97 800 245 
Q 506 588 506 1225 
L 506 3531 
L 1056 3531 
L 1056 1547 
Q 1056 866 1239 644 
Q 1422 422 1834 422 
Q 2322 422 2875 875 
L 2875 3531 
L 3425 3531 
L 3425 0 
z
" transform="scale(0.015625)"/>
       <path id="Meiryo-67" d="M 3353 400 
Q 3353 -1338 1706 -1338 
Q 1166 -1338 631 -1191 
L 631 -622 
L 656 -622 
Q 1203 -847 1738 -847 
Q 2278 -847 2540 -605 
Q 2803 -363 2803 178 
L 2803 528 
Q 2238 53 1619 53 
Q 991 53 634 515 
Q 278 978 278 1797 
Q 278 2616 717 3123 
Q 1156 3631 1806 3631 
Q 2319 3631 2803 3353 
L 2844 3531 
L 3353 3531 
L 3353 400 
z
M 2803 972 
L 2803 2925 
Q 2338 3141 1934 3141 
Q 1419 3141 1133 2800 
Q 847 2459 847 1825 
Q 847 563 1784 563 
Q 2281 563 2803 972 
z
" transform="scale(0.015625)"/>
       <path id="Meiryo-68" d="M 3450 0 
L 2900 0 
L 2900 1975 
Q 2900 2666 2719 2889 
Q 2538 3113 2122 3113 
Q 1634 3113 1081 2659 
L 1081 0 
L 531 0 
L 531 4919 
L 1081 4919 
L 1081 3109 
Q 1700 3631 2309 3631 
Q 2856 3631 3153 3289 
Q 3450 2947 3450 2300 
L 3450 0 
z
" transform="scale(0.015625)"/>
       <path id="Meiryo-6e" d="M 3450 0 
L 2900 0 
L 2900 1978 
Q 2900 2666 2719 2889 
Q 2538 3113 2122 3113 
Q 1631 3113 1081 2656 
L 1081 0 
L 531 0 
L 531 3531 
L 1081 3531 
L 1081 3106 
Q 1703 3631 2309 3631 
Q 2856 3631 3153 3289 
Q 3450 2947 3450 2300 
L 3450 0 
z
" transform="scale(0.015625)"/>
       <path id="Meiryo-65" d="M 834 2131 
L 2906 2131 
Q 2881 3184 1941 3184 
Q 1466 3184 1172 2903 
Q 878 2622 834 2131 
z
M 2125 -81 
Q 1244 -81 758 395 
Q 272 872 272 1744 
Q 272 2609 737 3120 
Q 1203 3631 1972 3631 
Q 2672 3631 3058 3212 
Q 3444 2794 3444 2019 
L 3444 1716 
L 834 1716 
Q 834 1078 1179 736 
Q 1525 394 2134 394 
Q 2741 394 3347 816 
L 3372 816 
L 3372 219 
Q 2619 -81 2125 -81 
z
" transform="scale(0.015625)"/>
       <path id="Meiryo-301c" d="M 5978 2747 
Q 5769 2269 5528 1997 
Q 5078 1491 4531 1491 
Q 4134 1491 3747 1697 
Q 3531 1809 2994 2203 
Q 2528 2544 2425 2603 
Q 2138 2766 1838 2766 
Q 1591 2766 1338 2559 
Q 1109 2375 947 2088 
Q 834 1888 781 1766 
L 403 1919 
Q 609 2391 850 2663 
Q 1300 3169 1856 3169 
Q 2275 3169 2709 2916 
Q 3053 2681 3397 2444 
Q 3869 2119 3959 2069 
Q 4256 1906 4531 1906 
Q 5022 1906 5422 2578 
Q 5503 2713 5575 2906 
L 5978 2747 
z
" transform="scale(0.015625)"/>
       <path id="Meiryo-48" d="M 4178 0 
L 3597 0 
L 3597 2328 
L 1159 2328 
L 1159 0 
L 578 0 
L 578 4709 
L 1159 4709 
L 1159 2831 
L 3597 2831 
L 3597 4709 
L 4178 4709 
L 4178 0 
z
" transform="scale(0.015625)"/>
       <path id="Meiryo-7a" d="M 3047 0 
L 228 0 
L 228 394 
L 2303 3081 
L 272 3081 
L 272 3531 
L 2994 3531 
L 2994 3153 
L 906 456 
L 3047 456 
L 3047 0 
z
" transform="scale(0.015625)"/>
       <path id="Meiryo-41" d="M 3000 1828 
L 2153 4150 
L 1309 1828 
L 3000 1828 
z
M 3659 0 
L 3175 1344 
L 1131 1344 
L 647 0 
L 56 0 
L 1800 4709 
L 2541 4709 
L 4281 0 
L 3659 0 
z
" transform="scale(0.015625)"/>
       <path id="Meiryo-4d" d="M 4738 0 
L 4156 0 
L 4156 4044 
L 2797 1281 
L 2478 1281 
L 1119 4044 
L 1119 0 
L 578 0 
L 578 4709 
L 1322 4709 
L 2656 2000 
L 3988 4709 
L 4738 4709 
L 4738 0 
z
" transform="scale(0.015625)"/>
       <path id="Meiryo-30a8" d="M 6194 44 
L 191 44 
L 191 500 
L 2919 500 
L 2919 4013 
L 666 4013 
L 666 4453 
L 5734 4453 
L 5734 4013 
L 3481 4013 
L 3481 500 
L 6194 500 
L 6194 44 
z
" transform="scale(0.015625)"/>
       <path id="Meiryo-30cd" d="M 3316 -372 
L 2772 -372 
L 2772 2041 
Q 1719 1475 213 1025 
L 31 1453 
Q 1491 1875 2720 2540 
Q 3950 3206 4538 3922 
L 628 3922 
L 628 4344 
L 2759 4344 
L 2759 5172 
L 3291 5172 
L 3291 4344 
L 5088 4344 
L 5331 4109 
Q 4672 3191 3316 2344 
L 3316 -372 
z
M 6363 1344 
L 6022 941 
Q 5278 1438 3847 2053 
L 4134 2413 
Q 5409 1919 6363 1344 
z
" transform="scale(0.015625)"/>
       <path id="Meiryo-30eb" d="M 6394 2163 
Q 5994 1309 5158 676 
Q 4322 44 3506 -181 
L 3278 31 
L 3278 4897 
L 3803 4897 
L 3803 484 
Q 4319 638 4923 1119 
Q 5528 1600 6003 2438 
L 6394 2163 
z
M 1947 3275 
Q 1947 2538 1881 2073 
Q 1816 1609 1583 1164 
Q 1350 719 997 350 
Q 644 -19 238 -231 
L 6 166 
Q 397 406 728 800 
Q 1059 1194 1237 1731 
Q 1416 2269 1416 3378 
L 1416 4697 
L 1947 4697 
L 1947 3275 
z
" transform="scale(0.015625)"/>
       <path id="Meiryo-30ae" d="M 6169 1844 
L 3519 1588 
L 3694 -322 
L 3144 -372 
L 2975 1534 
L 206 1266 
L 159 1722 
L 2938 1991 
L 2800 3553 
L 428 3359 
L 403 3813 
L 2763 4003 
L 2669 5063 
L 3200 5125 
L 3297 4047 
L 5563 4231 
L 5606 3781 
L 3338 3597 
L 3478 2044 
L 6125 2303 
L 6169 1844 
z
M 6209 4741 
L 5850 4594 
Q 5638 5091 5403 5459 
L 5728 5613 
Q 5981 5222 6209 4741 
z
M 5300 4550 
L 4941 4391 
Q 4716 4900 4488 5266 
L 4825 5419 
Q 5103 4988 5300 4550 
z
" transform="scale(0.015625)"/>
       <path id="Meiryo-30fc" d="M 5756 2069 
L 588 2069 
L 588 2531 
L 5756 2531 
L 5756 2069 
z
" transform="scale(0.015625)"/>
       <path id="Meiryo-2c" d="M 1731 853 
L 850 -1156 
L 431 -1156 
L 981 853 
L 1731 853 
z
" transform="scale(0.015625)"/>
       <path id="Meiryo-5927" d="M 6081 63 
L 5759 -331 
Q 4888 166 4228 1016 
Q 3569 1866 3231 2728 
Q 2928 1697 2211 895 
Q 1494 94 394 -309 
L 213 56 
Q 1238 425 1978 1339 
Q 2719 2253 2850 3259 
L 369 3259 
L 369 3672 
L 2941 3672 
L 2941 5244 
L 3463 5244 
L 3463 3672 
L 6034 3672 
L 6034 3259 
L 3516 3259 
Q 3772 2378 4484 1448 
Q 5197 519 6081 63 
z
" transform="scale(0.015625)"/>
       <path id="Meiryo-3d" d="M 4425 2484 
L 719 2484 
L 719 2947 
L 4425 2947 
L 4425 2484 
z
M 4425 1172 
L 719 1172 
L 719 1634 
L 4425 1634 
L 4425 1172 
z
" transform="scale(0.015625)"/>
       <path id="Meiryo-4e0d" d="M 2966 -397 
L 2966 3372 
Q 2494 2778 1787 2208 
Q 1081 1638 419 1259 
L 144 1588 
Q 1209 2216 2001 3006 
Q 2794 3797 3206 4519 
L 347 4519 
L 347 4903 
L 6053 4903 
L 6053 4519 
L 3778 4519 
Q 3481 4034 3125 3572 
L 3475 3572 
L 3475 -397 
L 2966 -397 
z
M 5922 1163 
Q 5647 1316 4990 1822 
Q 4334 2328 3788 2859 
L 4122 3134 
Q 4525 2753 5183 2254 
Q 5841 1756 6250 1522 
L 5922 1163 
z
" transform="scale(0.015625)"/>
       <path id="Meiryo-5354" d="M 1947 2750 
L 1791 3084 
Q 2969 3409 3300 4384 
L 2119 4384 
L 2119 4756 
L 3409 4756 
Q 3469 5013 3475 5272 
L 3978 5250 
Q 3953 4994 3903 4756 
L 5703 4756 
L 5703 4534 
Q 5703 3991 5645 3647 
Q 5588 3303 5503 3170 
Q 5419 3038 5284 2969 
Q 5150 2900 5003 2887 
Q 4856 2875 4253 2875 
L 4091 2875 
L 4031 3266 
Q 4609 3259 4742 3268 
Q 4875 3278 5001 3361 
Q 5128 3444 5175 3681 
Q 5222 3919 5231 4384 
L 3803 4384 
Q 3391 3131 1947 2750 
z
M 781 -397 
L 781 3594 
L 153 3594 
L 153 3959 
L 781 3959 
L 781 5206 
L 1263 5206 
L 1263 3959 
L 1850 3959 
L 1850 3594 
L 1263 3594 
L 1263 -397 
L 781 -397 
z
M 4781 -338 
L 4734 41 
L 5128 41 
Q 5306 41 5387 89 
Q 5469 138 5519 261 
Q 5569 384 5603 721 
Q 5638 1059 5638 1597 
L 5638 1791 
L 5025 1791 
L 5022 1784 
Q 4931 1003 4670 504 
Q 4409 6 3941 -363 
L 3678 -109 
Q 4491 591 4575 1791 
L 4063 1791 
L 4063 2125 
L 4591 2125 
L 4591 2634 
L 5050 2634 
Q 5056 2350 5047 2125 
L 6081 2125 
L 6081 1725 
Q 6081 950 6001 426 
Q 5922 -97 5756 -212 
Q 5591 -328 5316 -338 
L 4781 -338 
z
M 1700 -381 
L 1431 -134 
Q 2209 622 2278 1759 
L 1753 1759 
L 1753 2091 
L 2291 2091 
L 2291 2175 
L 2288 2616 
L 2738 2616 
Q 2738 2338 2728 2091 
L 3703 2091 
Q 3703 1378 3693 1081 
Q 3684 784 3626 428 
Q 3569 72 3497 -64 
Q 3425 -200 3287 -265 
Q 3150 -331 2941 -338 
L 2472 -338 
L 2425 41 
L 2750 41 
Q 2931 41 3011 89 
Q 3091 138 3142 258 
Q 3194 378 3228 711 
Q 3263 1044 3263 1566 
Q 3263 1659 3259 1759 
L 2709 1759 
Q 2594 363 1700 -381 
z
" transform="scale(0.015625)"/>
       <path id="Meiryo-548c" d="M 391 694 
L 84 941 
Q 438 1284 895 1946 
Q 1353 2609 1522 3081 
L 319 3081 
L 319 3469 
L 1578 3469 
L 1578 4463 
Q 891 4344 475 4303 
L 397 4681 
Q 1903 4847 2766 5153 
L 2975 4781 
Q 2638 4669 2081 4556 
L 2081 3469 
L 3016 3469 
L 3016 3081 
L 2081 3081 
L 2081 2678 
Q 2438 2303 3009 1881 
L 2772 1484 
Q 2453 1734 2081 2138 
L 2081 -397 
L 1578 -397 
L 1578 2247 
Q 953 1206 391 694 
z
M 5444 -6 
L 3881 -6 
L 3881 -325 
L 3388 -325 
L 3388 4788 
L 5938 4788 
L 5938 -331 
L 5444 -331 
L 5444 -6 
z
M 3881 381 
L 5444 381 
L 5444 4416 
L 3881 4416 
L 3881 381 
z
" transform="scale(0.015625)"/>
      </defs>
      <use xlink:href="#Meiryo-72"/>
      <use xlink:href="#Meiryo-6f" transform="translate(41.308594 0)"/>
      <use xlink:href="#Meiryo-75" transform="translate(100.683594 0)"/>
      <use xlink:href="#Meiryo-67" transform="translate(162.5 0)"/>
      <use xlink:href="#Meiryo-68" transform="translate(223.193359 0)"/>
      <use xlink:href="#Meiryo-6e" transform="translate(285.009766 0)"/>
      <use xlink:href="#Meiryo-65" transform="translate(346.826172 0)"/>
      <use xlink:href="#Meiryo-73" transform="translate(404.541016 0)"/>
      <use xlink:href="#Meiryo-73" transform="translate(454.345703 0)"/>
      <use xlink:href="#Meiryo-20" transform="translate(504.150391 0)"/>
      <use xlink:href="#Meiryo-28" transform="translate(538.134766 0)"/>
      <use xlink:href="#Meiryo-31" transform="translate(582.080078 0)"/>
      <use xlink:href="#Meiryo-35" transform="translate(644.189453 0)"/>
      <use xlink:href="#Meiryo-301c" transform="translate(706.298828 0)"/>
      <use xlink:href="#Meiryo-31" transform="translate(806.298828 0)"/>
      <use xlink:href="#Meiryo-35" transform="translate(868.408203 0)"/>
      <use xlink:href="#Meiryo-30" transform="translate(930.517578 0)"/>
      <use xlink:href="#Meiryo-48" transform="translate(992.626953 0)"/>
      <use xlink:href="#Meiryo-7a" transform="translate(1066.943359 0)"/>
      <use xlink:href="#Meiryo-20" transform="translate(1117.529297 0)"/>
      <use xlink:href="#Meiryo-41" transform="translate(1151.513672 0)"/>
      <use xlink:href="#Meiryo-4d" transform="translate(1219.287109 0)"/>
      <use xlink:href="#Meiryo-30a8" transform="translate(1302.34375 0)"/>
      <use xlink:href="#Meiryo-30cd" transform="translate(1402.34375 0)"/>
      <use xlink:href="#Meiryo-30eb" transform="translate(1502.34375 0)"/>
      <use xlink:href="#Meiryo-30ae" transform="translate(1602.34375 0)"/>
      <use xlink:href="#Meiryo-30fc" transform="translate(1702.34375 0)"/>
      <use xlink:href="#Meiryo-2c" transform="translate(1802.34375 0)"/>
      <use xlink:href="#Meiryo-20" transform="translate(1837.255859 0)"/>
      <use xlink:href="#Meiryo-5927" transform="translate(1871.240234 0)"/>
      <use xlink:href="#Meiryo-3d" transform="translate(1971.240234 0)"/>
      <use xlink:href="#Meiryo-4e0d" transform="translate(2051.611328 0)"/>
      <use xlink:href="#Meiryo-5354" transform="translate(2151.611328 0)"/>
      <use xlink:href="#Meiryo-548c" transform="translate(2251.611328 0)"/>
      <use xlink:href="#Meiryo-29" transform="translate(2351.611328 0)"/>
     </g>
    </g>
   </g>
   <g id="line2d_25">
    <path d="M 70.569886 304.904221 
L 104.71783 269.69355 
L 134.597281 93.1461 
L 173.013718 150.127965 
L 198.624675 137.119024 
L 241.309605 166.64903 
L 278.658918 40.131494 
L 326.679464 175.180228 
L 412.049324 57.231207 
" clip-path="url(#p09b6d6b4da)" style="fill: none; stroke: #2b57a8; stroke-width: 1.8; stroke-linecap: square"/>
    <defs>
     <path id="m210acdcef6" d="M 0 3.5 
C 0.928211 3.5 1.81853 3.131218 2.474874 2.474874 
C 3.131218 1.81853 3.5 0.928211 3.5 0 
C 3.5 -0.928211 3.131218 -1.81853 2.474874 -2.474874 
C 1.81853 -3.131218 0.928211 -3.5 0 -3.5 
C -0.928211 -3.5 -1.81853 -3.131218 -2.474874 -2.474874 
C -3.131218 -1.81853 -3.5 -0.928211 -3.5 0 
C -3.5 0.928211 -3.131218 1.81853 -2.474874 2.474874 
C -1.81853 3.131218 -0.928211 3.5 0 3.5 
z
" style="stroke: #2b57a8"/>
    </defs>
    <g clip-path="url(#p09b6d6b4da)">
     <use xlink:href="#m210acdcef6" x="70.569886" y="304.904221" style="fill: #2b57a8; stroke: #2b57a8"/>
     <use xlink:href="#m210acdcef6" x="104.71783" y="269.69355" style="fill: #2b57a8; stroke: #2b57a8"/>
     <use xlink:href="#m210acdcef6" x="134.597281" y="93.1461" style="fill: #2b57a8; stroke: #2b57a8"/>
     <use xlink:href="#m210acdcef6" x="173.013718" y="150.127965" style="fill: #2b57a8; stroke: #2b57a8"/>
     <use xlink:href="#m210acdcef6" x="198.624675" y="137.119024" style="fill: #2b57a8; stroke: #2b57a8"/>
     <use xlink:href="#m210acdcef6" x="241.309605" y="166.64903" style="fill: #2b57a8; stroke: #2b57a8"/>
     <use xlink:href="#m210acdcef6" x="278.658918" y="40.131494" style="fill: #2b57a8; stroke: #2b57a8"/>
     <use xlink:href="#m210acdcef6" x="326.679464" y="175.180228" style="fill: #2b57a8; stroke: #2b57a8"/>
     <use xlink:href="#m210acdcef6" x="412.049324" y="57.231207" style="fill: #2b57a8; stroke: #2b57a8"/>
    </g>
   </g>
   <g id="line2d_26">
    <path d="M 70.569886 318.142857 
L 70.569886 26.892857 
" clip-path="url(#p09b6d6b4da)" style="fill: none; stroke-dasharray: 1.5,2.475; stroke-dashoffset: 0; stroke: #1a7f37; stroke-opacity: 0.5; stroke-width: 1.5"/>
   </g>
   <g id="line2d_27">
    <path d="M 241.309605 318.142857 
L 241.309605 26.892857 
" clip-path="url(#p09b6d6b4da)" style="fill: none; stroke-dasharray: 1.5,2.475; stroke-dashoffset: 0; stroke: #1a7f37; stroke-opacity: 0.5; stroke-width: 1.5"/>
   </g>
   <g id="line2d_28">
    <path d="M 326.679464 318.142857 
L 326.679464 26.892857 
" clip-path="url(#p09b6d6b4da)" style="fill: none; stroke-dasharray: 1.5,2.475; stroke-dashoffset: 0; stroke: #1a7f37; stroke-opacity: 0.5; stroke-width: 1.5"/>
   </g>
   <g id="line2d_29">
    <path d="M 582.789042 318.142857 
L 582.789042 26.892857 
" clip-path="url(#p09b6d6b4da)" style="fill: none; stroke-dasharray: 1.5,2.475; stroke-dashoffset: 0; stroke: #1a7f37; stroke-opacity: 0.5; stroke-width: 1.5"/>
   </g>
   <g id="patch_3">
    <path d="M 44.958929 318.142857 
L 44.958929 26.892857 
" style="fill: none; stroke: #000000; stroke-width: 0.8; stroke-linejoin: miter; stroke-linecap: square"/>
   </g>
   <g id="patch_4">
    <path d="M 608.4 318.142857 
L 608.4 26.892857 
" style="fill: none; stroke: #000000; stroke-width: 0.8; stroke-linejoin: miter; stroke-linecap: square"/>
   </g>
   <g id="patch_5">
    <path d="M 44.958929 318.142857 
L 608.4 318.142857 
" style="fill: none; stroke: #000000; stroke-width: 0.8; stroke-linejoin: miter; stroke-linecap: square"/>
   </g>
   <g id="patch_6">
    <path d="M 44.958929 26.892857 
L 608.4 26.892857 
" style="fill: none; stroke: #000000; stroke-width: 0.8; stroke-linejoin: miter; stroke-linecap: square"/>
   </g>
   <g id="text_15">
    <!-- 1:1 -->
    <g transform="translate(63.046449 296.904221) scale(0.09 -0.09)">
     <defs>
      <path id="Meiryo-3a" d="M 1731 2678 
L 1022 2678 
L 1022 3531 
L 1731 3531 
L 1731 2678 
z
M 1731 0 
L 1022 0 
L 1022 853 
L 1731 853 
L 1731 0 
z
" transform="scale(0.015625)"/>
     </defs>
     <use xlink:href="#Meiryo-31"/>
     <use xlink:href="#Meiryo-3a" transform="translate(62.109375 0)"/>
     <use xlink:href="#Meiryo-31" transform="translate(105.078125 0)"/>
    </g>
   </g>
   <g id="text_16">
    <!-- m2 -->
    <g transform="translate(97.605018 261.69355) scale(0.09 -0.09)">
     <defs>
      <path id="Meiryo-6d" d="M 5084 0 
L 5084 1978 
Q 5084 2550 5004 2742 
Q 4925 2934 4761 3023 
Q 4597 3113 4347 3113 
Q 3919 3113 3338 2641 
Q 3356 2478 3356 2225 
L 3356 0 
L 2806 0 
L 2806 1978 
Q 2806 2566 2726 2752 
Q 2647 2938 2486 3025 
Q 2325 3113 2078 3113 
Q 1631 3113 1081 2656 
L 1081 0 
L 531 0 
L 531 3531 
L 1081 3531 
L 1081 3106 
Q 1709 3631 2269 3631 
Q 2991 3631 3244 3053 
Q 3925 3631 4538 3631 
Q 5634 3631 5634 2300 
L 5634 0 
L 5084 0 
z
" transform="scale(0.015625)"/>
     </defs>
     <use xlink:href="#Meiryo-6d"/>
     <use xlink:href="#Meiryo-32" transform="translate(95.947266 0)"/>
    </g>
   </g>
   <g id="text_17">
    <!-- M2 -->
    <g transform="translate(128.064546 85.1461) scale(0.09 -0.09)">
     <use xlink:href="#Meiryo-4d"/>
     <use xlink:href="#Meiryo-32" transform="translate(83.056641 0)"/>
    </g>
   </g>
   <g id="text_18">
    <!-- m3 -->
    <g transform="translate(165.900905 142.127965) scale(0.09 -0.09)">
     <defs>
      <path id="Meiryo-33" d="M 475 197 
L 475 825 
L 525 825 
Q 1159 406 1838 406 
Q 2338 406 2639 678 
Q 2941 950 2941 1434 
Q 2941 1884 2678 2096 
Q 2416 2309 1828 2309 
L 1553 2309 
L 1553 2791 
L 1766 2791 
Q 2272 2791 2559 3006 
Q 2847 3222 2847 3613 
Q 2847 3944 2595 4123 
Q 2344 4303 1903 4303 
Q 1269 4303 644 3894 
L 609 3894 
L 609 4509 
Q 1241 4806 1919 4806 
Q 2647 4806 3045 4501 
Q 3444 4197 3444 3678 
Q 3444 3297 3178 2997 
Q 2913 2697 2513 2616 
L 2513 2566 
Q 3541 2381 3541 1381 
Q 3541 734 3069 318 
Q 2597 -97 1853 -97 
Q 1144 -97 475 197 
z
" transform="scale(0.015625)"/>
     </defs>
     <use xlink:href="#Meiryo-6d"/>
     <use xlink:href="#Meiryo-33" transform="translate(95.947266 0)"/>
    </g>
   </g>
   <g id="text_19">
    <!-- M3 -->
    <g transform="translate(192.091941 129.119024) scale(0.09 -0.09)">
     <use xlink:href="#Meiryo-4d"/>
     <use xlink:href="#Meiryo-33" transform="translate(83.056641 0)"/>
    </g>
   </g>
   <g id="text_20">
    <!-- P4 -->
    <g transform="translate(235.833667 158.64903) scale(0.09 -0.09)">
     <defs>
      <path id="Meiryo-50" d="M 1159 1778 
L 1159 0 
L 578 0 
L 578 4709 
L 1878 4709 
Q 2788 4709 3223 4326 
Q 3659 3944 3659 3297 
Q 3659 2625 3182 2201 
Q 2706 1778 1850 1778 
L 1159 1778 
z
M 1159 4216 
L 1159 2269 
L 1741 2269 
Q 2456 2269 2754 2545 
Q 3053 2822 3053 3281 
Q 3053 3741 2762 3978 
Q 2472 4216 1834 4216 
L 1159 4216 
z
" transform="scale(0.015625)"/>
     </defs>
     <use xlink:href="#Meiryo-50"/>
     <use xlink:href="#Meiryo-34" transform="translate(59.570312 0)"/>
    </g>
   </g>
   <g id="text_21">
    <!-- TT -->
    <g transform="translate(272.858137 32.131494) scale(0.09 -0.09)">
     <defs>
      <path id="Meiryo-54" d="M 1744 0 
L 1744 4203 
L 72 4203 
L 72 4709 
L 3997 4709 
L 3997 4203 
L 2325 4203 
L 2325 0 
L 1744 0 
z
" transform="scale(0.015625)"/>
     </defs>
     <use xlink:href="#Meiryo-54"/>
     <use xlink:href="#Meiryo-54" transform="translate(65.324219 0)"/>
    </g>
   </g>
   <g id="text_22">
    <!-- P5 -->
    <g transform="translate(321.203527 167.180228) scale(0.09 -0.09)">
     <use xlink:href="#Meiryo-50"/>
     <use xlink:href="#Meiryo-35" transform="translate(59.570312 0)"/>
    </g>
   </g>
   <g id="text_23">
    <!-- M6 -->
    <g transform="translate(405.516589 49.231207) scale(0.09 -0.09)">
     <use xlink:href="#Meiryo-4d"/>
     <use xlink:href="#Meiryo-36" transform="translate(83.056641 0)"/>
    </g>
   </g>
   <g id="text_24">
    <!-- 協和/不協和を測る: 単純な整数比で谷(滑らか)・複雑な比で山(ざらつき) -->
    <g transform="translate(128.818214 20.892857) scale(0.12 -0.12)">
     <defs>
      <path id="Meiryo-3092" d="M 4059 794 
L 3597 794 
L 3597 1819 
Q 3597 2000 3588 2128 
Q 2150 1406 2150 819 
Q 2150 525 2472 351 
Q 2794 178 3828 178 
Q 5056 178 5788 294 
L 5819 -159 
Q 5075 -247 4100 -247 
Q 2597 -247 2140 15 
Q 1684 278 1684 766 
Q 1681 1200 2086 1625 
Q 2491 2050 3494 2544 
Q 3366 2825 3034 2825 
Q 2659 2825 2226 2689 
Q 1794 2553 1153 2006 
L 634 1569 
L 366 1888 
Q 1509 2775 2072 3938 
L 616 3938 
L 616 4344 
L 2244 4344 
Q 2388 4716 2466 5094 
L 2984 5050 
Q 2906 4691 2772 4344 
L 5094 4344 
L 5094 3938 
L 2606 3938 
Q 2431 3578 1997 2988 
L 2044 2963 
Q 2166 3041 2525 3114 
Q 2884 3188 3078 3188 
Q 3684 3188 3906 2734 
L 5747 3444 
L 5953 3022 
Q 5303 2809 4022 2331 
Q 4059 2097 4059 1741 
L 4059 794 
z
" transform="scale(0.015625)"/>
      <path id="Meiryo-6e2c" d="M 5938 172 
Q 5938 -28 5780 -165 
Q 5622 -303 5463 -303 
L 4719 -303 
L 4647 119 
L 5188 119 
Q 5303 119 5386 187 
Q 5469 256 5469 363 
L 5469 5250 
L 5938 5250 
L 5938 172 
z
M 3797 1125 
L 1859 1125 
L 1859 5100 
L 3797 5100 
L 3797 1125 
z
M 3347 3881 
L 3347 4750 
L 2309 4750 
L 2309 3881 
L 3347 3881 
z
M 3347 2725 
L 3347 3547 
L 2309 3547 
L 2309 2725 
L 3347 2725 
z
M 3347 2391 
L 2309 2391 
L 2309 1484 
L 3347 1484 
L 3347 2391 
z
M 1566 4284 
L 1244 3947 
Q 903 4334 384 4781 
L 691 5100 
Q 1225 4666 1566 4284 
z
M 4856 1138 
L 4384 1138 
L 4384 4769 
L 4856 4769 
L 4856 1138 
z
M 1278 2834 
L 950 2491 
Q 622 2850 109 3300 
L 422 3613 
Q 859 3256 1278 2834 
z
M 1513 1916 
Q 1384 1425 1112 778 
Q 841 131 584 -266 
L 200 9 
Q 434 350 704 972 
Q 975 1594 1116 2066 
L 1513 1916 
z
M 4197 -75 
L 3784 -303 
Q 3309 291 3088 722 
L 3484 897 
Q 3719 453 4197 -75 
z
M 2544 722 
Q 2431 528 2129 167 
Q 1828 -194 1650 -344 
L 1309 -88 
Q 1497 75 1759 392 
Q 2022 709 2125 897 
L 2544 722 
z
" transform="scale(0.015625)"/>
      <path id="Meiryo-308b" d="M 4056 228 
Q 5228 509 5228 1434 
Q 5228 2006 4797 2318 
Q 4366 2631 3647 2631 
Q 3153 2631 2683 2506 
Q 2213 2381 1602 1997 
Q 991 1613 750 1409 
L 519 1794 
Q 2422 3022 4238 4378 
L 1075 4366 
L 1075 4781 
L 4891 4781 
L 5109 4463 
L 2906 2938 
L 2931 2900 
Q 3313 3016 3691 3016 
Q 4588 3016 5164 2603 
Q 5741 2191 5741 1463 
Q 5741 609 5034 160 
Q 4328 -288 3141 -288 
Q 1509 -288 1509 609 
Q 1509 963 1846 1203 
Q 2184 1444 2588 1444 
Q 3153 1444 3556 1128 
Q 3959 813 4056 228 
z
M 3597 147 
Q 3416 1044 2622 1044 
Q 2369 1044 2167 919 
Q 1966 794 1966 588 
Q 1966 109 3072 109 
Q 3313 109 3597 147 
z
" transform="scale(0.015625)"/>
      <path id="Meiryo-5358" d="M 3003 4225 
Q 2878 4575 2559 5213 
L 3038 5344 
Q 3234 4975 3488 4363 
L 3003 4225 
z
M 2906 -409 
L 2906 591 
L 263 591 
L 263 994 
L 2906 994 
L 2906 1588 
L 719 1588 
L 719 4088 
L 4575 4088 
Q 4750 4350 5256 5291 
L 5772 5119 
Q 5434 4569 5081 4088 
L 5634 4088 
L 5634 1588 
L 3403 1588 
L 3403 994 
L 6156 994 
L 6156 591 
L 3403 591 
L 3403 -409 
L 2906 -409 
z
M 2906 3006 
L 2906 3738 
L 1203 3738 
L 1203 3006 
L 2906 3006 
z
M 3403 3738 
L 3403 3006 
L 5153 3006 
L 5153 3738 
L 3403 3738 
z
M 2906 1941 
L 2906 2672 
L 1203 2672 
L 1203 1941 
L 2906 1941 
z
M 3403 2672 
L 3403 1941 
L 5153 1941 
L 5153 2672 
L 3403 2672 
z
M 1169 4134 
Q 1000 4506 653 5069 
L 1097 5238 
Q 1503 4581 1641 4297 
L 1169 4134 
z
" transform="scale(0.015625)"/>
      <path id="Meiryo-7d14" d="M 1228 -397 
L 1228 2206 
L 250 2125 
L 209 2516 
L 556 2534 
Q 875 2928 1122 3259 
L 209 4134 
L 491 4416 
L 625 4294 
Q 1019 4834 1256 5341 
L 1672 5191 
Q 1300 4566 888 4047 
Q 1194 3759 1363 3588 
Q 1831 4234 2013 4597 
L 2438 4416 
Q 1819 3484 1019 2556 
L 2081 2616 
Q 1991 2953 1947 3078 
L 2325 3181 
L 2619 2156 
L 2228 2059 
L 2169 2297 
L 1688 2247 
L 1688 -397 
L 1228 -397 
z
M 2853 1275 
L 2853 3463 
L 3306 3463 
L 3306 1888 
L 4088 1888 
L 4088 4156 
Q 3506 4063 2822 3984 
L 2738 4356 
Q 3422 4450 4088 4566 
L 4088 5316 
L 4566 5316 
L 4566 4656 
Q 5347 4809 5706 4931 
L 5922 4553 
Q 5275 4375 4566 4241 
L 4566 1888 
L 5394 1888 
L 5394 3588 
L 5850 3588 
L 5850 1516 
L 4566 1516 
L 4566 363 
Q 4566 200 4670 136 
Q 4775 72 5131 72 
Q 5431 72 5532 108 
Q 5634 144 5682 206 
Q 5731 269 5743 328 
Q 5756 388 5775 623 
Q 5794 859 5794 1034 
L 6197 988 
L 6197 225 
Q 6197 47 6125 -72 
Q 6053 -191 5922 -244 
Q 5791 -297 5461 -309 
Q 5131 -322 5050 -322 
Q 4600 -322 4439 -272 
Q 4278 -222 4183 -92 
Q 4088 38 4088 213 
L 4088 1516 
L 3306 1516 
L 3306 1275 
L 2853 1275 
z
M 2203 525 
Q 2147 803 2031 1694 
L 2438 1753 
Q 2516 991 2619 578 
L 2203 525 
z
M 519 81 
L 138 166 
Q 413 1134 441 1731 
L 856 1700 
Q 828 1353 717 822 
Q 606 291 519 81 
z
" transform="scale(0.015625)"/>
      <path id="Meiryo-306a" d="M 2119 4972 
Q 2097 4481 2041 4056 
L 3431 4056 
L 3431 3641 
L 1978 3641 
Q 1656 1766 653 453 
L 288 722 
Q 1175 1922 1484 3641 
L 463 3641 
L 463 4056 
L 1550 4056 
Q 1613 4513 1625 4978 
L 2119 4972 
z
M 6131 3231 
L 5747 2925 
Q 5169 3656 4147 4428 
L 4428 4738 
Q 5306 4225 6131 3231 
z
M 6119 525 
L 5869 128 
Q 5213 659 4706 906 
L 4706 609 
Q 4706 -309 3356 -309 
Q 2800 -309 2408 -71 
Q 2016 166 2016 584 
Q 2016 1044 2414 1309 
Q 2813 1575 3388 1575 
Q 3834 1575 4213 1500 
L 4213 3194 
L 4706 3194 
L 4706 1353 
Q 5328 1116 6119 525 
z
M 4225 1088 
Q 3809 1197 3388 1197 
Q 3022 1197 2747 1045 
Q 2472 894 2472 628 
Q 2472 97 3419 97 
Q 4225 97 4225 622 
L 4225 1088 
z
" transform="scale(0.015625)"/>
      <path id="Meiryo-6574" d="M 5763 4266 
Q 5622 3525 5019 2981 
Q 5506 2681 6197 2450 
L 5947 2109 
Q 5206 2369 4691 2728 
Q 4047 2306 3266 2150 
L 3128 2469 
Q 3872 2641 4372 2981 
Q 3953 3359 3722 3819 
Q 3559 3588 3447 3463 
L 3147 3644 
Q 3728 4419 3944 5291 
L 4413 5225 
Q 4347 4931 4188 4597 
L 6072 4597 
L 6072 4266 
L 5763 4266 
z
M 4675 3225 
Q 5213 3734 5288 4266 
L 4013 4266 
L 3972 4197 
Q 4172 3644 4675 3225 
z
M 425 2169 
L 238 2431 
Q 881 2744 1388 3253 
L 531 3253 
L 531 4291 
L 1497 4291 
L 1497 4638 
L 366 4638 
L 366 4931 
L 1497 4931 
L 1497 5250 
L 1953 5250 
L 1953 4931 
L 3116 4931 
L 3116 4638 
L 1953 4638 
L 1953 4291 
L 2966 4291 
L 2966 3253 
L 2022 3253 
Q 2641 2781 3003 2638 
L 2800 2338 
Q 2497 2481 1947 2916 
L 1947 2116 
L 1503 2116 
L 1503 2891 
Q 975 2403 425 2169 
z
M 2600 4022 
L 1919 4022 
L 1919 3513 
L 2600 3513 
L 2600 4022 
z
M 1528 4022 
L 888 4022 
L 888 3513 
L 1528 3513 
L 1528 4022 
z
M 1306 88 
L 1306 1119 
L 1784 1119 
L 1784 88 
L 2938 88 
L 2938 1522 
L 491 1522 
L 491 1875 
L 5825 1875 
L 5825 1522 
L 3416 1522 
L 3416 1013 
L 5478 1013 
L 5478 659 
L 3416 659 
L 3416 88 
L 6041 88 
L 6041 -266 
L 306 -266 
L 306 88 
L 1306 88 
z
" transform="scale(0.015625)"/>
      <path id="Meiryo-6570" d="M 4825 931 
Q 4203 97 3278 -403 
L 3056 -81 
Q 4009 500 4566 1353 
Q 4038 2316 3869 3147 
Q 3744 2897 3625 2713 
L 3266 2934 
Q 3550 3397 3792 4086 
Q 4034 4775 4128 5322 
L 4609 5263 
Q 4516 4763 4325 4231 
L 6144 4231 
L 6144 3866 
L 5803 3866 
Q 5731 2459 5097 1350 
Q 5603 559 6256 22 
L 5934 -331 
Q 5269 284 4825 931 
z
M 4822 1800 
Q 5328 2797 5344 3863 
L 4181 3853 
L 4153 3781 
Q 4303 2741 4822 1800 
z
M 322 2634 
L 156 2928 
Q 456 3053 892 3331 
Q 1328 3609 1619 3881 
L 366 3881 
L 366 4206 
L 1738 4206 
L 1738 5231 
L 2194 5231 
L 2194 4206 
L 3488 4206 
L 3488 3881 
L 2222 3881 
Q 2650 3534 3194 3278 
L 2972 2966 
Q 2656 3125 2194 3481 
L 2194 2606 
L 1738 2606 
L 1738 3491 
Q 1031 2925 322 2634 
z
M 3069 4344 
L 2709 4434 
L 2997 5134 
L 3391 5050 
L 3069 4344 
z
M 888 4356 
L 634 5009 
L 1013 5122 
L 1275 4469 
L 888 4356 
z
M 2094 141 
Q 1378 -300 388 -397 
L 294 -69 
Q 1113 50 1675 347 
Q 984 675 688 753 
Q 616 753 616 866 
Q 616 888 628 909 
Q 784 1188 1000 1653 
L 269 1653 
L 269 2006 
L 1156 2006 
Q 1300 2338 1353 2491 
L 1809 2419 
Q 1753 2278 1628 2006 
L 3566 2006 
L 3566 1653 
L 3178 1653 
Q 3000 919 2450 409 
Q 2809 238 3003 134 
L 2744 -219 
Q 2522 -78 2094 141 
z
M 2053 597 
Q 2572 1038 2713 1653 
L 1466 1653 
Q 1219 1138 1131 1000 
Q 1372 919 2053 597 
z
" transform="scale(0.015625)"/>
      <path id="Meiryo-3067" d="M 5781 4066 
L 4216 4066 
Q 3644 3822 3101 3173 
Q 2559 2525 2559 1825 
Q 2559 1284 2846 923 
Q 3134 563 3615 395 
Q 4097 228 4891 228 
Q 5075 228 5269 238 
L 5238 -225 
L 5222 -225 
Q 4644 -225 4262 -204 
Q 3881 -184 3459 -51 
Q 3038 81 2716 353 
Q 2394 625 2237 981 
Q 2081 1338 2081 1788 
Q 2081 2416 2464 3033 
Q 2847 3650 3475 4078 
L 341 4078 
L 341 4494 
L 5781 4494 
L 5781 4066 
z
M 5916 2925 
L 5556 2778 
Q 5347 3263 5109 3641 
L 5441 3803 
Q 5656 3466 5916 2925 
z
M 5006 2734 
L 4647 2572 
Q 4422 3078 4194 3450 
L 4531 3603 
Q 4803 3181 5006 2734 
z
" transform="scale(0.015625)"/>
      <path id="Meiryo-8c37" d="M 5675 3716 
Q 5284 3888 4703 4302 
Q 4122 4716 3822 5034 
L 4238 5250 
Q 4347 5141 4828 4766 
Q 5309 4391 6006 4063 
L 5675 3716 
z
M 575 3703 
L 303 4025 
Q 769 4241 1309 4619 
Q 1850 4997 2066 5231 
L 2516 5022 
Q 2219 4691 1595 4272 
Q 972 3853 575 3703 
z
M 4766 -69 
L 1581 -69 
L 1581 -350 
L 1097 -350 
L 1097 2094 
Q 663 1878 269 1741 
L 100 2091 
Q 878 2356 1681 2936 
Q 2484 3516 2847 4038 
L 3500 4038 
Q 3844 3547 4611 3011 
Q 5378 2475 6263 2169 
L 6000 1759 
Q 5659 1894 5269 2097 
L 5269 -350 
L 4766 -350 
L 4766 -69 
z
M 1122 2103 
L 5256 2103 
Q 3984 2759 3188 3703 
Q 2750 3156 2234 2778 
Q 1719 2400 1122 2103 
z
M 1581 309 
L 4766 309 
L 4766 1731 
L 1581 1731 
L 1581 309 
z
" transform="scale(0.015625)"/>
      <path id="Meiryo-6ed1" d="M 5741 2525 
L 5741 3241 
L 1928 3241 
L 1928 2525 
L 1509 2525 
L 1509 3575 
L 2216 3575 
L 2216 5175 
L 5531 5175 
L 5531 3575 
L 6184 3575 
L 6184 2525 
L 5741 2525 
z
M 2672 3575 
L 3594 3575 
L 3594 4397 
L 5069 4397 
L 5069 4816 
L 2672 4816 
L 2672 3575 
z
M 4013 3575 
L 5069 3575 
L 5069 4116 
L 4013 4116 
L 4013 3575 
z
M 1303 4000 
Q 963 4375 406 4834 
L 728 5147 
Q 1378 4631 1647 4353 
L 1303 4000 
z
M 916 2519 
Q 581 2894 56 3347 
L 369 3666 
Q 953 3184 1256 2875 
L 916 2519 
z
M 4925 709 
L 2784 709 
L 2784 -406 
L 2300 -406 
L 2300 2772 
L 5400 2772 
L 5400 103 
Q 5400 -119 5256 -247 
Q 5113 -375 4913 -375 
L 4200 -375 
L 4156 50 
L 4684 50 
Q 4775 50 4850 108 
Q 4925 166 4925 253 
L 4925 709 
z
M 4925 1916 
L 4925 2413 
L 2784 2413 
L 2784 1916 
L 4925 1916 
z
M 2784 1056 
L 4925 1056 
L 4925 1584 
L 2784 1584 
L 2784 1056 
z
M 550 -284 
L 153 3 
Q 397 347 687 965 
Q 978 1584 1131 2047 
L 1563 1897 
Q 1413 1416 1114 766 
Q 816 116 550 -284 
z
" transform="scale(0.015625)"/>
      <path id="Meiryo-3089" d="M 5178 4225 
L 4934 3816 
Q 4706 3922 4248 4064 
Q 3791 4206 3289 4339 
Q 2788 4472 1747 4653 
L 1888 5050 
Q 3025 4859 3931 4609 
Q 4838 4359 5178 4225 
z
M 1909 -244 
L 1844 184 
Q 3850 209 4547 536 
Q 5244 863 5244 1447 
Q 5244 1963 4880 2242 
Q 4516 2522 3900 2522 
Q 3163 2522 2377 2198 
Q 1591 1875 1178 1375 
L 769 1613 
Q 1175 2656 1222 4153 
L 1728 4141 
Q 1706 3297 1391 2119 
Q 1819 2472 2526 2701 
Q 3234 2931 3847 2931 
Q 4753 2931 5256 2550 
Q 5759 2169 5759 1447 
Q 5759 647 4939 201 
Q 4119 -244 2050 -244 
L 1909 -244 
z
" transform="scale(0.015625)"/>
      <path id="Meiryo-304b" d="M 2197 4494 
Q 2197 4213 2166 3853 
L 3366 3853 
Q 3809 3853 4061 3536 
Q 4313 3219 4316 2706 
Q 4313 1444 4047 617 
Q 3781 -209 3116 -209 
Q 2728 -209 2028 159 
L 2184 556 
Q 2347 478 2650 378 
Q 2953 278 3066 278 
Q 3316 278 3467 539 
Q 3619 800 3720 1300 
Q 3822 1800 3822 2494 
Q 3822 3113 3656 3278 
Q 3491 3444 3213 3444 
L 2125 3444 
Q 2000 2647 1853 2078 
Q 1706 1509 1389 884 
Q 1072 259 622 -244 
L 269 13 
Q 678 494 1079 1351 
Q 1481 2209 1619 3378 
L 397 3378 
L 397 3797 
L 1669 3797 
Q 1691 4016 1691 5056 
L 2197 5056 
L 2197 4494 
z
M 6284 1966 
L 5800 1838 
Q 5372 3403 4556 4275 
L 4922 4525 
Q 5353 4084 5745 3345 
Q 6138 2606 6284 1966 
z
" transform="scale(0.015625)"/>
      <path id="Meiryo-30fb" d="M 2631 2284 
Q 2631 2522 2800 2690 
Q 2969 2859 3206 2859 
Q 3444 2859 3612 2690 
Q 3781 2522 3781 2284 
Q 3781 2047 3612 1878 
Q 3444 1709 3206 1709 
Q 2969 1709 2800 1878 
Q 2631 2047 2631 2284 
z
" transform="scale(0.015625)"/>
      <path id="Meiryo-8907" d="M 2863 1163 
Q 2372 822 2091 694 
L 1881 969 
Q 2216 1138 2684 1486 
Q 3153 1834 3444 2138 
L 2863 2138 
L 2863 3875 
Q 2706 3681 2553 3541 
L 2266 3781 
Q 2553 4106 2834 4554 
Q 3116 5003 3234 5363 
L 3709 5291 
Q 3659 5153 3528 4859 
L 6094 4859 
L 6094 4494 
L 3309 4494 
Q 3156 4259 2994 4044 
L 5722 4044 
L 5722 2138 
L 3966 2138 
Q 3800 1938 3572 1725 
L 5734 1725 
L 5922 1556 
Q 5478 863 4663 394 
Q 5434 119 6269 16 
L 6072 -363 
Q 5066 -213 4256 150 
Q 3328 -278 1981 -403 
L 1850 -63 
Q 3234 116 3797 384 
Q 3225 719 2863 1163 
z
M 3306 3266 
L 5263 3266 
L 5263 3722 
L 3306 3722 
L 3306 3266 
z
M 5263 2959 
L 3306 2959 
L 3306 2456 
L 5263 2456 
L 5263 2959 
z
M 3191 1400 
L 3159 1378 
Q 3569 878 4222 569 
Q 4775 863 5263 1400 
L 3191 1400 
z
M 1013 -403 
L 1013 2322 
Q 647 1953 250 1672 
L 66 1988 
Q 653 2434 1104 3012 
Q 1556 3591 1731 4128 
L 269 4128 
L 269 4494 
L 1041 4494 
L 1041 5316 
L 1491 5316 
L 1491 4494 
L 2188 4494 
L 2294 4363 
Q 2056 3591 1478 2850 
L 1478 2556 
Q 1631 2409 1788 2284 
L 2247 2984 
L 2534 2828 
L 2022 2106 
Q 2203 1972 2313 1894 
L 2125 1575 
Q 1906 1753 1478 2116 
L 1478 -403 
L 1013 -403 
z
" transform="scale(0.015625)"/>
      <path id="Meiryo-96d1" d="M 5219 213 
L 6191 213 
L 6191 -153 
L 3859 -153 
L 3859 -388 
L 3397 -388 
L 3397 3219 
Q 3244 2997 3163 2928 
L 3069 3016 
Q 3000 2928 2894 2895 
Q 2788 2863 2553 2863 
Q 2375 2863 2248 2878 
Q 2122 2894 2048 2975 
Q 1975 3056 1975 3200 
L 1975 4397 
L 1469 4397 
Q 1384 3181 413 2659 
L 191 2928 
Q 1003 3419 1041 4397 
L 363 4397 
L 363 4722 
L 1047 4722 
L 1047 5256 
L 1484 5256 
L 1484 4722 
L 2391 4722 
L 2391 3353 
Q 2391 3194 2534 3181 
L 2641 3181 
Q 2744 3181 2776 3309 
Q 2809 3438 2809 3888 
L 3128 3847 
L 3128 3428 
Q 3609 4231 3853 5297 
L 4325 5206 
Q 4209 4753 3994 4241 
L 4803 4241 
Q 5081 4913 5178 5256 
L 5663 5159 
Q 5628 5081 5238 4241 
L 6147 4241 
L 6147 3881 
L 5219 3881 
L 5219 2934 
L 6016 2934 
L 6016 2575 
L 5219 2575 
L 5219 1634 
L 6034 1634 
L 6034 1269 
L 5219 1269 
L 5219 213 
z
M 3859 3881 
L 3859 2934 
L 4763 2934 
L 4763 3881 
L 3859 3881 
z
M 3859 2575 
L 3859 1634 
L 4763 1634 
L 4763 2575 
L 3859 2575 
z
M 3859 213 
L 4763 213 
L 4763 1269 
L 3859 1269 
L 3859 213 
z
M 322 16 
L 81 297 
Q 409 556 812 1014 
Q 1216 1472 1400 1844 
L 303 1844 
L 303 2209 
L 1453 2209 
L 1453 2738 
L 1928 2738 
L 1928 2209 
L 2959 2209 
L 2959 1844 
L 1928 1844 
L 1928 1663 
Q 2338 1278 2947 903 
L 2756 525 
Q 2278 866 1928 1188 
L 1928 -403 
L 1453 -403 
L 1453 1175 
Q 831 350 322 16 
z
" transform="scale(0.015625)"/>
      <path id="Meiryo-5c71" d="M 563 -328 
L 563 4078 
L 1059 4078 
L 1059 434 
L 2881 434 
L 2881 5075 
L 3384 5075 
L 3384 434 
L 5238 434 
L 5238 4091 
L 5734 4091 
L 5734 -303 
L 5238 -303 
L 5238 63 
L 1059 63 
L 1059 -328 
L 563 -328 
z
" transform="scale(0.015625)"/>
      <path id="Meiryo-3056" d="M 5384 0 
Q 4650 -197 3609 -197 
Q 866 -197 866 1081 
Q 866 1744 1434 2114 
Q 2003 2484 2869 2484 
Q 3581 2484 4322 2350 
Q 4013 2788 3613 3556 
L 563 3556 
L 563 3966 
L 3419 3966 
Q 3231 4422 3106 4978 
L 3591 5050 
Q 3731 4419 3925 3966 
L 5984 3966 
L 5984 3556 
L 4116 3556 
Q 4691 2450 5256 2053 
L 5025 1684 
Q 4281 2088 2894 2088 
Q 2247 2088 1808 1828 
Q 1369 1569 1372 1100 
Q 1372 225 3628 225 
Q 4491 225 5288 422 
L 5384 0 
z
M 6184 4591 
L 5825 4444 
Q 5616 4928 5378 5306 
L 5703 5459 
Q 5953 5069 6184 4591 
z
M 5275 4434 
L 4916 4275 
Q 4691 4781 4463 5153 
L 4800 5306 
Q 5072 4884 5275 4434 
z
" transform="scale(0.015625)"/>
      <path id="Meiryo-3064" d="M 1831 72 
L 1753 513 
Q 3816 569 4687 1055 
Q 5559 1541 5563 2444 
Q 5563 3150 5138 3548 
Q 4713 3947 3981 3950 
Q 3513 3950 2436 3803 
Q 1359 3656 409 3469 
L 341 3931 
Q 3122 4378 3928 4378 
Q 4934 4375 5504 3875 
Q 6075 3375 6075 2456 
Q 6075 1338 5142 736 
Q 4209 134 1831 72 
z
" transform="scale(0.015625)"/>
      <path id="Meiryo-304d" d="M 5184 1538 
L 4841 1191 
Q 4500 1419 4000 1555 
Q 3500 1691 3034 1691 
Q 2022 1691 1676 1480 
Q 1331 1269 1331 897 
Q 1331 572 1731 387 
Q 2131 203 3303 203 
Q 4341 203 5141 334 
L 5153 -116 
Q 4456 -231 3291 -231 
Q 1944 -231 1387 58 
Q 831 347 831 897 
Q 831 1484 1361 1792 
Q 1891 2100 2778 2100 
Q 3734 2100 4450 1831 
Q 4138 2234 3872 2734 
L 634 2734 
L 634 3138 
L 3678 3138 
Q 3506 3525 3394 3884 
L 813 3884 
L 813 4288 
L 3266 4288 
Q 3166 4688 3113 5069 
L 3609 5113 
Q 3700 4553 3769 4288 
L 5575 4288 
L 5575 3884 
L 3881 3884 
Q 3966 3622 4163 3138 
L 5875 3138 
L 5875 2734 
L 4366 2734 
Q 4625 2253 5184 1538 
z
" transform="scale(0.015625)"/>
     </defs>
     <use xlink:href="#Meiryo-5354"/>
     <use xlink:href="#Meiryo-548c" transform="translate(100 0)"/>
     <use xlink:href="#Meiryo-2f" transform="translate(200 0)"/>
     <use xlink:href="#Meiryo-4e0d" transform="translate(244.921875 0)"/>
     <use xlink:href="#Meiryo-5354" transform="translate(344.921875 0)"/>
     <use xlink:href="#Meiryo-548c" transform="translate(444.921875 0)"/>
     <use xlink:href="#Meiryo-3092" transform="translate(544.921875 0)"/>
     <use xlink:href="#Meiryo-6e2c" transform="translate(644.921875 0)"/>
     <use xlink:href="#Meiryo-308b" transform="translate(744.921875 0)"/>
     <use xlink:href="#Meiryo-3a" transform="translate(844.921875 0)"/>
     <use xlink:href="#Meiryo-20" transform="translate(887.890625 0)"/>
     <use xlink:href="#Meiryo-5358" transform="translate(921.875 0)"/>
     <use xlink:href="#Meiryo-7d14" transform="translate(1021.875 0)"/>
     <use xlink:href="#Meiryo-306a" transform="translate(1121.875 0)"/>
     <use xlink:href="#Meiryo-6574" transform="translate(1221.875 0)"/>
     <use xlink:href="#Meiryo-6570" transform="translate(1321.875 0)"/>
     <use xlink:href="#Meiryo-6bd4" transform="translate(1421.875 0)"/>
     <use xlink:href="#Meiryo-3067" transform="translate(1521.875 0)"/>
     <use xlink:href="#Meiryo-8c37" transform="translate(1621.875 0)"/>
     <use xlink:href="#Meiryo-28" transform="translate(1721.875 0)"/>
     <use xlink:href="#Meiryo-6ed1" transform="translate(1765.820312 0)"/>
     <use xlink:href="#Meiryo-3089" transform="translate(1865.820312 0)"/>
     <use xlink:href="#Meiryo-304b" transform="translate(1965.820312 0)"/>
     <use xlink:href="#Meiryo-29" transform="translate(2065.820312 0)"/>
     <use xlink:href="#Meiryo-30fb" transform="translate(2109.765625 0)"/>
     <use xlink:href="#Meiryo-8907" transform="translate(2209.765625 0)"/>
     <use xlink:href="#Meiryo-96d1" transform="translate(2309.765625 0)"/>
     <use xlink:href="#Meiryo-306a" transform="translate(2409.765625 0)"/>
     <use xlink:href="#Meiryo-6bd4" transform="translate(2509.765625 0)"/>
     <use xlink:href="#Meiryo-3067" transform="translate(2609.765625 0)"/>
     <use xlink:href="#Meiryo-5c71" transform="translate(2709.765625 0)"/>
     <use xlink:href="#Meiryo-28" transform="translate(2809.765625 0)"/>
     <use xlink:href="#Meiryo-3056" transform="translate(2853.710938 0)"/>
     <use xlink:href="#Meiryo-3089" transform="translate(2953.710938 0)"/>
     <use xlink:href="#Meiryo-3064" transform="translate(3053.710938 0)"/>
     <use xlink:href="#Meiryo-304d" transform="translate(3153.710938 0)"/>
     <use xlink:href="#Meiryo-29" transform="translate(3253.710938 0)"/>
    </g>
   </g>
  </g>
 </g>
 <defs>
  <clipPath id="p09b6d6b4da">
   <rect x="44.958929" y="26.892857" width="563.441071" height="291.25"/>
  </clipPath>
 </defs>
</svg>
