<?xml version="1.0" encoding="utf-8" standalone="no"?>
<!DOCTYPE svg PUBLIC "-//W3C//DTD SVG 1.1//EN"
  "http://www.w3.org/Graphics/SVG/1.1/DTD/svg11.dtd">
<svg xmlns:xlink="http://www.w3.org/1999/xlink" width="828pt" height="345.6pt" viewBox="0 0 828 345.6" xmlns="http://www.w3.org/2000/svg" version="1.1">
 <metadata>
  <rdf:RDF xmlns:dc="http://purl.org/dc/elements/1.1/" xmlns:cc="http://creativecommons.org/ns#" xmlns:rdf="http://www.w3.org/1999/02/22-rdf-syntax-ns#">
   <cc:Work>
    <dc:type rdf:resource="http://purl.org/dc/dcmitype/StillImage"/>
    <dc:date>2026-07-06T00:21:05.575159</dc:date>
    <dc:format>image/svg+xml</dc:format>
    <dc:creator>
     <cc:Agent>
      <dc:title>Matplotlib v3.10.9, https://matplotlib.org/</dc:title>
     </cc:Agent>
    </dc:creator>
   </cc:Work>
  </rdf:RDF>
 </metadata>
 <defs>
  <style type="text/css">*{stroke-linejoin: round; stroke-linecap: butt}</style>
 </defs>
 <g id="figure_1">
  <g id="patch_1">
   <path d="M 0 345.6 
L 828 345.6 
L 828 0 
L 0 0 
z
" style="fill: #ffffff"/>
  </g>
  <g id="axes_1">
   <g id="patch_2">
    <path d="M 50.857143 304.257143 
L 424.515407 304.257143 
L 424.515407 49.3125 
L 50.857143 49.3125 
z
" style="fill: #ffffff"/>
   </g>
   <g id="FillBetweenPolyCollection_1">
    <defs>
     <path id="mce2040e2e7" d="M 67.841609 -146.19242 
L 67.841609 -132.341751 
L 92.105133 -169.276868 
L 116.368657 -91.713123 
L 140.63218 -54.778006 
L 164.895704 -136.035263 
L 189.159228 -185.89767 
L 213.422751 -96.330012 
L 237.686275 -52.93125 
L 261.949799 -53.854628 
L 310.476846 -124.03135 
L 359.003893 -172.970379 
L 407.530941 -204.365228 
L 407.530941 -268.078305 
L 407.530941 -268.078305 
L 359.003893 -257.921148 
L 310.476846 -178.510647 
L 261.949799 -251.457502 
L 237.686275 -221.909409 
L 213.422751 -233.913322 
L 189.159228 -229.296432 
L 164.895704 -220.986031 
L 140.63218 -209.905496 
L 116.368657 -201.595095 
L 92.105133 -184.974292 
L 67.841609 -146.19242 
z
" style="stroke: #2b57a8; stroke-opacity: 0.12"/>
    </defs>
    <g clip-path="url(#p402adf38c2)">
     <use xlink:href="#mce2040e2e7" x="0" y="345.6" style="fill: #2b57a8; fill-opacity: 0.12; stroke: #2b57a8; stroke-opacity: 0.12"/>
    </g>
   </g>
   <g id="FillBetweenPolyCollection_2">
    <defs>
     <path id="m437d496753" d="M 67.841609 -153.579443 
L 67.841609 -139.728774 
L 92.105133 -184.974292 
L 116.368657 -211.752252 
L 140.63218 -208.05874 
L 164.895704 -209.905496 
L 189.159228 -187.744426 
L 213.422751 -118.491082 
L 237.686275 -53.854628 
L 261.949799 -54.778006 
L 310.476846 -119.41446 
L 359.003893 -183.127536 
L 407.530941 -208.982118 
L 407.530941 -226.526298 
L 407.530941 -226.526298 
L 359.003893 -268.078305 
L 310.476846 -241.300345 
L 261.949799 -284.699107 
L 237.686275 -253.304258 
L 213.422751 -239.453589 
L 189.159228 -239.453589 
L 164.895704 -234.8367 
L 140.63218 -232.989944 
L 116.368657 -240.376967 
L 92.105133 -197.901583 
L 67.841609 -153.579443 
z
" style="stroke: #2b57a8; stroke-opacity: 0.12"/>
    </defs>
    <g clip-path="url(#p402adf38c2)">
     <use xlink:href="#m437d496753" x="0" y="345.6" style="fill: #2b57a8; fill-opacity: 0.12; stroke: #2b57a8; stroke-opacity: 0.12"/>
    </g>
   </g>
   <g id="matplotlib.axis_1">
    <g id="xtick_1">
     <g id="line2d_1">
      <path d="M 104.236895 304.257143 
L 104.236895 49.3125 
" clip-path="url(#p402adf38c2)" style="fill: none; stroke: #b0b0b0; stroke-opacity: 0.3; stroke-width: 0.8; stroke-linecap: square"/>
     </g>
     <g id="line2d_2">
      <defs>
       <path id="m2855d5ea83" d="M 0 0 
L 0 3.5 
" style="stroke: #000000; stroke-width: 0.8"/>
      </defs>
      <g>
       <use xlink:href="#m2855d5ea83" x="104.236895" y="304.257143" style="stroke: #000000; stroke-width: 0.8"/>
      </g>
     </g>
     <g id="text_1">
      <!-- 5000 -->
      <g transform="translate(91.81502 318.94308) scale(0.1 -0.1)">
       <defs>
        <path id="Meiryo-35" d="M 538 178 
L 538 803 
L 588 803 
Q 1197 406 1856 406 
Q 2363 406 2667 695 
Q 2972 984 2972 1494 
Q 2972 2419 1703 2419 
Q 1341 2419 741 2294 
L 741 4709 
L 3538 4709 
L 3538 4203 
L 1303 4203 
L 1303 2869 
Q 1716 2909 1859 2909 
Q 2700 2909 3134 2546 
Q 3569 2184 3569 1491 
Q 3569 791 3098 347 
Q 2628 -97 1869 -97 
Q 1131 -97 538 178 
z
" transform="scale(0.015625)"/>
        <path id="Meiryo-30" d="M 1991 -97 
Q 1159 -97 768 497 
Q 378 1091 378 2350 
Q 378 3609 770 4206 
Q 1163 4803 1991 4803 
Q 2813 4803 3206 4204 
Q 3600 3606 3600 2356 
Q 3600 1094 3209 498 
Q 2819 -97 1991 -97 
z
M 1991 4325 
Q 1456 4325 1215 3901 
Q 975 3478 975 2350 
Q 975 1231 1215 806 
Q 1456 381 1991 381 
Q 2525 381 2764 806 
Q 3003 1231 3003 2356 
Q 3003 3459 2765 3892 
Q 2528 4325 1991 4325 
z
" transform="scale(0.015625)"/>
       </defs>
       <use xlink:href="#Meiryo-35"/>
       <use xlink:href="#Meiryo-30" transform="translate(62.109375 0)"/>
       <use xlink:href="#Meiryo-30" transform="translate(124.21875 0)"/>
       <use xlink:href="#Meiryo-30" transform="translate(186.328125 0)"/>
      </g>
     </g>
    </g>
    <g id="xtick_2">
     <g id="line2d_3">
      <path d="M 164.895704 304.257143 
L 164.895704 49.3125 
" clip-path="url(#p402adf38c2)" style="fill: none; stroke: #b0b0b0; stroke-opacity: 0.3; stroke-width: 0.8; stroke-linecap: square"/>
     </g>
     <g id="line2d_4">
      <g>
       <use xlink:href="#m2855d5ea83" x="164.895704" y="304.257143" style="stroke: #000000; stroke-width: 0.8"/>
      </g>
     </g>
     <g id="text_2">
      <!-- 10000 -->
      <g transform="translate(149.36836 318.94308) scale(0.1 -0.1)">
       <defs>
        <path id="Meiryo-31" d="M 3338 0 
L 831 0 
L 831 431 
L 1813 431 
L 1813 3669 
L 831 3669 
L 831 4050 
Q 1406 4053 1653 4214 
Q 1900 4375 1931 4725 
L 2375 4725 
L 2375 431 
L 3338 431 
L 3338 0 
z
" transform="scale(0.015625)"/>
       </defs>
       <use xlink:href="#Meiryo-31"/>
       <use xlink:href="#Meiryo-30" transform="translate(62.109375 0)"/>
       <use xlink:href="#Meiryo-30" transform="translate(124.21875 0)"/>
       <use xlink:href="#Meiryo-30" transform="translate(186.328125 0)"/>
       <use xlink:href="#Meiryo-30" transform="translate(248.4375 0)"/>
      </g>
     </g>
    </g>
    <g id="xtick_3">
     <g id="line2d_5">
      <path d="M 225.554513 304.257143 
L 225.554513 49.3125 
" clip-path="url(#p402adf38c2)" style="fill: none; stroke: #b0b0b0; stroke-opacity: 0.3; stroke-width: 0.8; stroke-linecap: square"/>
     </g>
     <g id="line2d_6">
      <g>
       <use xlink:href="#m2855d5ea83" x="225.554513" y="304.257143" style="stroke: #000000; stroke-width: 0.8"/>
      </g>
     </g>
     <g id="text_3">
      <!-- 15000 -->
      <g transform="translate(210.02717 318.94308) scale(0.1 -0.1)">
       <use xlink:href="#Meiryo-31"/>
       <use xlink:href="#Meiryo-35" transform="translate(62.109375 0)"/>
       <use xlink:href="#Meiryo-30" transform="translate(124.21875 0)"/>
       <use xlink:href="#Meiryo-30" transform="translate(186.328125 0)"/>
       <use xlink:href="#Meiryo-30" transform="translate(248.4375 0)"/>
      </g>
     </g>
    </g>
    <g id="xtick_4">
     <g id="line2d_7">
      <path d="M 286.213322 304.257143 
L 286.213322 49.3125 
" clip-path="url(#p402adf38c2)" style="fill: none; stroke: #b0b0b0; stroke-opacity: 0.3; stroke-width: 0.8; stroke-linecap: square"/>
     </g>
     <g id="line2d_8">
      <g>
       <use xlink:href="#m2855d5ea83" x="286.213322" y="304.257143" style="stroke: #000000; stroke-width: 0.8"/>
      </g>
     </g>
     <g id="text_4">
      <!-- 20000 -->
      <g transform="translate(270.685979 318.94308) scale(0.1 -0.1)">
       <defs>
        <path id="Meiryo-32" d="M 3606 0 
L 456 0 
L 456 609 
Q 956 1041 1579 1612 
Q 2203 2184 2506 2618 
Q 2809 3053 2809 3488 
Q 2809 3872 2554 4087 
Q 2300 4303 1863 4303 
Q 1222 4303 603 3897 
L 572 3897 
L 572 4506 
Q 1203 4806 1878 4806 
Q 2591 4806 3000 4461 
Q 3409 4116 3409 3519 
Q 3409 3200 3304 2909 
Q 3200 2619 2978 2344 
Q 2756 2069 2447 1759 
Q 2138 1450 1025 503 
L 3606 503 
L 3606 0 
z
" transform="scale(0.015625)"/>
       </defs>
       <use xlink:href="#Meiryo-32"/>
       <use xlink:href="#Meiryo-30" transform="translate(62.109375 0)"/>
       <use xlink:href="#Meiryo-30" transform="translate(124.21875 0)"/>
       <use xlink:href="#Meiryo-30" transform="translate(186.328125 0)"/>
       <use xlink:href="#Meiryo-30" transform="translate(248.4375 0)"/>
      </g>
     </g>
    </g>
    <g id="xtick_5">
     <g id="line2d_9">
      <path d="M 346.872132 304.257143 
L 346.872132 49.3125 
" clip-path="url(#p402adf38c2)" style="fill: none; stroke: #b0b0b0; stroke-opacity: 0.3; stroke-width: 0.8; stroke-linecap: square"/>
     </g>
     <g id="line2d_10">
      <g>
       <use xlink:href="#m2855d5ea83" x="346.872132" y="304.257143" style="stroke: #000000; stroke-width: 0.8"/>
      </g>
     </g>
     <g id="text_5">
      <!-- 25000 -->
      <g transform="translate(331.344788 318.94308) scale(0.1 -0.1)">
       <use xlink:href="#Meiryo-32"/>
       <use xlink:href="#Meiryo-35" transform="translate(62.109375 0)"/>
       <use xlink:href="#Meiryo-30" transform="translate(124.21875 0)"/>
       <use xlink:href="#Meiryo-30" transform="translate(186.328125 0)"/>
       <use xlink:href="#Meiryo-30" transform="translate(248.4375 0)"/>
      </g>
     </g>
    </g>
    <g id="xtick_6">
     <g id="line2d_11">
      <path d="M 407.530941 304.257143 
L 407.530941 49.3125 
" clip-path="url(#p402adf38c2)" style="fill: none; stroke: #b0b0b0; stroke-opacity: 0.3; stroke-width: 0.8; stroke-linecap: square"/>
     </g>
     <g id="line2d_12">
      <g>
       <use xlink:href="#m2855d5ea83" x="407.530941" y="304.257143" style="stroke: #000000; stroke-width: 0.8"/>
      </g>
     </g>
     <g id="text_6">
      <!-- 30000 -->
      <g transform="translate(392.003597 318.94308) scale(0.1 -0.1)">
       <defs>
        <path id="Meiryo-33" d="M 475 197 
L 475 825 
L 525 825 
Q 1159 406 1838 406 
Q 2338 406 2639 678 
Q 2941 950 2941 1434 
Q 2941 1884 2678 2096 
Q 2416 2309 1828 2309 
L 1553 2309 
L 1553 2791 
L 1766 2791 
Q 2272 2791 2559 3006 
Q 2847 3222 2847 3613 
Q 2847 3944 2595 4123 
Q 2344 4303 1903 4303 
Q 1269 4303 644 3894 
L 609 3894 
L 609 4509 
Q 1241 4806 1919 4806 
Q 2647 4806 3045 4501 
Q 3444 4197 3444 3678 
Q 3444 3297 3178 2997 
Q 2913 2697 2513 2616 
L 2513 2566 
Q 3541 2381 3541 1381 
Q 3541 734 3069 318 
Q 2597 -97 1853 -97 
Q 1144 -97 475 197 
z
" transform="scale(0.015625)"/>
       </defs>
       <use xlink:href="#Meiryo-33"/>
       <use xlink:href="#Meiryo-30" transform="translate(62.109375 0)"/>
       <use xlink:href="#Meiryo-30" transform="translate(124.21875 0)"/>
       <use xlink:href="#Meiryo-30" transform="translate(186.328125 0)"/>
       <use xlink:href="#Meiryo-30" transform="translate(248.4375 0)"/>
      </g>
     </g>
    </g>
    <g id="text_7">
     <!-- VACTUAL -->
     <g transform="translate(214.706588 332.664955) scale(0.1 -0.1)">
      <defs>
       <path id="Meiryo-56" d="M 4313 4709 
L 2453 0 
L 1916 0 
L 56 4709 
L 678 4709 
L 2203 794 
L 3722 4709 
L 4313 4709 
z
" transform="scale(0.015625)"/>
       <path id="Meiryo-41" d="M 3000 1828 
L 2153 4150 
L 1309 1828 
L 3000 1828 
z
M 3659 0 
L 3175 1344 
L 1131 1344 
L 647 0 
L 56 0 
L 1800 4709 
L 2541 4709 
L 4281 0 
L 3659 0 
z
" transform="scale(0.015625)"/>
       <path id="Meiryo-43" d="M 2544 -84 
Q 1488 -84 889 553 
Q 291 1191 291 2350 
Q 291 3488 898 4141 
Q 1506 4794 2547 4794 
Q 3294 4794 4103 4372 
L 4103 3688 
L 4059 3688 
Q 3325 4303 2509 4303 
Q 1766 4303 1331 3786 
Q 897 3269 897 2350 
Q 897 1438 1339 923 
Q 1781 409 2516 409 
Q 2913 409 3272 536 
Q 3631 663 4059 1031 
L 4103 1031 
L 4103 344 
Q 3503 59 3170 -12 
Q 2838 -84 2544 -84 
z
" transform="scale(0.015625)"/>
       <path id="Meiryo-54" d="M 1744 0 
L 1744 4203 
L 72 4203 
L 72 4709 
L 3997 4709 
L 3997 4203 
L 2325 4203 
L 2325 0 
L 1744 0 
z
" transform="scale(0.015625)"/>
       <path id="Meiryo-55" d="M 4141 1869 
Q 4141 847 3675 375 
Q 3209 -97 2331 -97 
Q 525 -97 525 1869 
L 525 4709 
L 1106 4709 
L 1106 1816 
Q 1106 1059 1409 726 
Q 1713 394 2331 394 
Q 2941 394 3250 720 
Q 3559 1047 3559 1800 
L 3559 4709 
L 4141 4709 
L 4141 1869 
z
" transform="scale(0.015625)"/>
       <path id="Meiryo-4c" d="M 3513 0 
L 578 0 
L 578 4709 
L 1159 4709 
L 1159 506 
L 3513 506 
L 3513 0 
z
" transform="scale(0.015625)"/>
      </defs>
      <use xlink:href="#Meiryo-56"/>
      <use xlink:href="#Meiryo-41" transform="translate(65.386719 0)"/>
      <use xlink:href="#Meiryo-43" transform="translate(132.785156 0)"/>
      <use xlink:href="#Meiryo-54" transform="translate(200.021484 0)"/>
      <use xlink:href="#Meiryo-55" transform="translate(263.595703 0)"/>
      <use xlink:href="#Meiryo-41" transform="translate(336.121094 0)"/>
      <use xlink:href="#Meiryo-4c" transform="translate(403.894531 0)"/>
     </g>
    </g>
   </g>
   <g id="matplotlib.axis_2">
    <g id="ytick_1">
     <g id="line2d_13">
      <path d="M 50.857143 292.66875 
L 424.515407 292.66875 
" clip-path="url(#p402adf38c2)" style="fill: none; stroke: #b0b0b0; stroke-opacity: 0.3; stroke-width: 0.8; stroke-linecap: square"/>
     </g>
     <g id="line2d_14">
      <defs>
       <path id="m98695a58e6" d="M 0 0 
L -3.5 0 
" style="stroke: #000000; stroke-width: 0.8"/>
      </defs>
      <g>
       <use xlink:href="#m98695a58e6" x="50.857143" y="292.66875" style="stroke: #000000; stroke-width: 0.8"/>
      </g>
     </g>
     <g id="text_8">
      <!-- 0 -->
      <g transform="translate(37.646205 296.511719) scale(0.1 -0.1)">
       <use xlink:href="#Meiryo-30"/>
      </g>
     </g>
    </g>
    <g id="ytick_2">
     <g id="line2d_15">
      <path d="M 50.857143 246.499854 
L 424.515407 246.499854 
" clip-path="url(#p402adf38c2)" style="fill: none; stroke: #b0b0b0; stroke-opacity: 0.3; stroke-width: 0.8; stroke-linecap: square"/>
     </g>
     <g id="line2d_16">
      <g>
       <use xlink:href="#m98695a58e6" x="50.857143" y="246.499854" style="stroke: #000000; stroke-width: 0.8"/>
      </g>
     </g>
     <g id="text_9">
      <!-- 100 -->
      <g transform="translate(25.22433 250.342823) scale(0.1 -0.1)">
       <use xlink:href="#Meiryo-31"/>
       <use xlink:href="#Meiryo-30" transform="translate(62.109375 0)"/>
       <use xlink:href="#Meiryo-30" transform="translate(124.21875 0)"/>
      </g>
     </g>
    </g>
    <g id="ytick_3">
     <g id="line2d_17">
      <path d="M 50.857143 200.330958 
L 424.515407 200.330958 
" clip-path="url(#p402adf38c2)" style="fill: none; stroke: #b0b0b0; stroke-opacity: 0.3; stroke-width: 0.8; stroke-linecap: square"/>
     </g>
     <g id="line2d_18">
      <g>
       <use xlink:href="#m98695a58e6" x="50.857143" y="200.330958" style="stroke: #000000; stroke-width: 0.8"/>
      </g>
     </g>
     <g id="text_10">
      <!-- 200 -->
      <g transform="translate(25.22433 204.173927) scale(0.1 -0.1)">
       <use xlink:href="#Meiryo-32"/>
       <use xlink:href="#Meiryo-30" transform="translate(62.109375 0)"/>
       <use xlink:href="#Meiryo-30" transform="translate(124.21875 0)"/>
      </g>
     </g>
    </g>
    <g id="ytick_4">
     <g id="line2d_19">
      <path d="M 50.857143 154.162062 
L 424.515407 154.162062 
" clip-path="url(#p402adf38c2)" style="fill: none; stroke: #b0b0b0; stroke-opacity: 0.3; stroke-width: 0.8; stroke-linecap: square"/>
     </g>
     <g id="line2d_20">
      <g>
       <use xlink:href="#m98695a58e6" x="50.857143" y="154.162062" style="stroke: #000000; stroke-width: 0.8"/>
      </g>
     </g>
     <g id="text_11">
      <!-- 300 -->
      <g transform="translate(25.22433 158.005031) scale(0.1 -0.1)">
       <use xlink:href="#Meiryo-33"/>
       <use xlink:href="#Meiryo-30" transform="translate(62.109375 0)"/>
       <use xlink:href="#Meiryo-30" transform="translate(124.21875 0)"/>
      </g>
     </g>
    </g>
    <g id="ytick_5">
     <g id="line2d_21">
      <path d="M 50.857143 107.993167 
L 424.515407 107.993167 
" clip-path="url(#p402adf38c2)" style="fill: none; stroke: #b0b0b0; stroke-opacity: 0.3; stroke-width: 0.8; stroke-linecap: square"/>
     </g>
     <g id="line2d_22">
      <g>
       <use xlink:href="#m98695a58e6" x="50.857143" y="107.993167" style="stroke: #000000; stroke-width: 0.8"/>
      </g>
     </g>
     <g id="text_12">
      <!-- 400 -->
      <g transform="translate(25.22433 111.836135) scale(0.1 -0.1)">
       <defs>
        <path id="Meiryo-34" d="M 3713 1356 
L 3022 1356 
L 3022 0 
L 2459 0 
L 2459 1356 
L 194 1356 
L 194 2013 
L 2484 4709 
L 3022 4709 
L 3022 1819 
L 3713 1819 
L 3713 1356 
z
M 2459 1819 
L 2459 4022 
L 588 1819 
L 2459 1819 
z
" transform="scale(0.015625)"/>
       </defs>
       <use xlink:href="#Meiryo-34"/>
       <use xlink:href="#Meiryo-30" transform="translate(62.109375 0)"/>
       <use xlink:href="#Meiryo-30" transform="translate(124.21875 0)"/>
      </g>
     </g>
    </g>
    <g id="ytick_6">
     <g id="line2d_23">
      <path d="M 50.857143 61.824271 
L 424.515407 61.824271 
" clip-path="url(#p402adf38c2)" style="fill: none; stroke: #b0b0b0; stroke-opacity: 0.3; stroke-width: 0.8; stroke-linecap: square"/>
     </g>
     <g id="line2d_24">
      <g>
       <use xlink:href="#m98695a58e6" x="50.857143" y="61.824271" style="stroke: #000000; stroke-width: 0.8"/>
      </g>
     </g>
     <g id="text_13">
      <!-- 500 -->
      <g transform="translate(25.22433 65.66724) scale(0.1 -0.1)">
       <use xlink:href="#Meiryo-35"/>
       <use xlink:href="#Meiryo-30" transform="translate(62.109375 0)"/>
       <use xlink:href="#Meiryo-30" transform="translate(124.21875 0)"/>
      </g>
     </g>
    </g>
    <g id="text_14">
     <!-- SG_RESULT (大=軽負荷) -->
     <g transform="translate(19.188393 235.676228) rotate(-90) scale(0.1 -0.1)">
      <defs>
       <path id="Meiryo-53" d="M 2022 -84 
Q 1228 -84 356 309 
L 356 1019 
L 397 1019 
Q 1116 406 2028 406 
Q 2591 406 2911 636 
Q 3231 866 3231 1247 
Q 3231 1541 3095 1708 
Q 2959 1875 2622 1969 
L 1572 2181 
Q 988 2303 686 2623 
Q 384 2944 384 3456 
Q 384 4038 853 4416 
Q 1322 4794 2075 4794 
Q 2863 4794 3650 4447 
L 3650 3763 
L 3606 3763 
Q 2956 4303 2075 4303 
Q 1588 4303 1289 4087 
Q 991 3872 991 3522 
Q 991 2938 1672 2769 
Q 2066 2697 2548 2589 
Q 3031 2481 3239 2364 
Q 3447 2247 3576 2097 
Q 3706 1947 3770 1756 
Q 3834 1566 3834 1334 
Q 3834 722 3337 319 
Q 2841 -84 2022 -84 
z
" transform="scale(0.015625)"/>
       <path id="Meiryo-47" d="M 4319 350 
Q 3306 -91 2663 -91 
Q 1538 -91 914 546 
Q 291 1184 291 2359 
Q 291 3500 925 4147 
Q 1559 4794 2663 4794 
Q 3478 4794 4316 4366 
L 4316 3681 
L 4272 3681 
Q 3506 4303 2563 4303 
Q 1788 4303 1342 3784 
Q 897 3266 897 2378 
Q 897 1450 1361 926 
Q 1825 403 2634 403 
Q 3228 403 3744 628 
L 3744 1841 
L 2522 1841 
L 2522 2347 
L 4319 2347 
L 4319 350 
z
" transform="scale(0.015625)"/>
       <path id="Meiryo-5f" d="M 3988 -919 
L -13 -919 
L -13 -581 
L 3988 -581 
L 3988 -919 
z
" transform="scale(0.015625)"/>
       <path id="Meiryo-52" d="M 4428 0 
L 3669 0 
L 2119 1894 
L 1159 1894 
L 1159 0 
L 578 0 
L 578 4709 
L 1913 4709 
Q 2853 4709 3258 4356 
Q 3663 4003 3663 3428 
Q 3663 2456 2709 2059 
L 4428 0 
z
M 1159 4216 
L 1159 2372 
L 1844 2372 
Q 2491 2372 2772 2634 
Q 3053 2897 3053 3400 
Q 3053 4216 1950 4216 
L 1159 4216 
z
" transform="scale(0.015625)"/>
       <path id="Meiryo-45" d="M 3644 0 
L 578 0 
L 578 4709 
L 3644 4709 
L 3644 4203 
L 1159 4203 
L 1159 2831 
L 3581 2831 
L 3581 2325 
L 1159 2325 
L 1159 506 
L 3644 506 
L 3644 0 
z
" transform="scale(0.015625)"/>
       <path id="Meiryo-20" transform="scale(0.015625)"/>
       <path id="Meiryo-28" d="M 2397 -1303 
L 1731 -1303 
Q 1094 -563 808 184 
Q 522 931 522 1809 
Q 522 3506 1731 4919 
L 2397 4919 
L 2397 4888 
Q 1775 4341 1401 3523 
Q 1028 2706 1028 1809 
Q 1028 909 1400 95 
Q 1772 -719 2397 -1272 
L 2397 -1303 
z
" transform="scale(0.015625)"/>
       <path id="Meiryo-5927" d="M 6081 63 
L 5759 -331 
Q 4888 166 4228 1016 
Q 3569 1866 3231 2728 
Q 2928 1697 2211 895 
Q 1494 94 394 -309 
L 213 56 
Q 1238 425 1978 1339 
Q 2719 2253 2850 3259 
L 369 3259 
L 369 3672 
L 2941 3672 
L 2941 5244 
L 3463 5244 
L 3463 3672 
L 6034 3672 
L 6034 3259 
L 3516 3259 
Q 3772 2378 4484 1448 
Q 5197 519 6081 63 
z
" transform="scale(0.015625)"/>
       <path id="Meiryo-3d" d="M 4425 2484 
L 719 2484 
L 719 2947 
L 4425 2947 
L 4425 2484 
z
M 4425 1172 
L 719 1172 
L 719 1634 
L 4425 1634 
L 4425 1172 
z
" transform="scale(0.015625)"/>
       <path id="Meiryo-8efd" d="M 256 709 
L 256 1081 
L 1397 1081 
L 1397 1575 
L 456 1575 
L 456 3841 
L 1397 3841 
L 1397 4363 
L 353 4363 
L 353 4722 
L 1397 4722 
L 1397 5278 
L 1869 5278 
L 1869 4722 
L 2878 4722 
L 2878 4363 
L 1869 4363 
L 1869 3841 
L 2794 3841 
L 2794 1575 
L 1869 1575 
L 1869 1081 
L 2878 1081 
L 2878 709 
L 1869 709 
L 1869 -403 
L 1397 -403 
L 1397 709 
L 256 709 
z
M 881 2869 
L 1416 2869 
L 1416 3522 
L 881 3522 
L 881 2869 
z
M 1834 2869 
L 2363 2869 
L 2363 3522 
L 1834 3522 
L 1834 2869 
z
M 2363 2550 
L 1834 2550 
L 1834 1897 
L 2363 1897 
L 2363 2550 
z
M 1416 2550 
L 881 2550 
L 881 1897 
L 1416 1897 
L 1416 2550 
z
M 4569 3097 
Q 4013 2703 3056 2353 
L 2900 2684 
Q 3619 2947 4225 3363 
Q 3600 3897 3297 4450 
L 3663 4625 
Q 4063 4025 4563 3616 
Q 5159 4109 5366 4663 
L 3134 4663 
L 3134 5044 
L 5838 5044 
L 6006 4872 
Q 5716 4063 4909 3366 
Q 5559 2953 6241 2713 
L 5981 2347 
Q 5281 2588 4569 3097 
z
M 2866 -253 
L 2866 128 
L 4269 128 
L 4269 1322 
L 3172 1322 
L 3172 1706 
L 4269 1706 
L 4269 2406 
L 4753 2406 
L 4753 1706 
L 5869 1706 
L 5869 1322 
L 4753 1322 
L 4753 128 
L 6109 128 
L 6109 -253 
L 2866 -253 
z
" transform="scale(0.015625)"/>
       <path id="Meiryo-8ca0" d="M 1053 675 
L 1053 3613 
Q 716 3350 400 3153 
L 144 3456 
Q 647 3775 1259 4340 
Q 1872 4906 2169 5413 
L 2672 5303 
Q 2572 5141 2384 4878 
L 4597 4878 
L 4753 4741 
Q 4513 4378 4066 3878 
L 5641 3878 
L 5641 675 
L 1053 675 
z
M 1384 3878 
L 3544 3878 
Q 3881 4278 4016 4538 
L 2088 4538 
Q 1747 4184 1384 3878 
z
M 1522 2931 
L 5172 2931 
L 5172 3534 
L 1522 3534 
L 1522 2931 
z
M 1522 2006 
L 5172 2006 
L 5172 2600 
L 1522 2600 
L 1522 2006 
z
M 5172 1672 
L 1522 1672 
L 1522 1041 
L 5172 1041 
L 5172 1672 
z
M 406 -397 
L 244 -19 
Q 1506 203 2188 588 
L 2503 244 
Q 2153 53 1548 -130 
Q 944 -313 406 -397 
z
M 5981 -378 
Q 5522 -291 4944 -101 
Q 4366 88 4022 263 
L 4338 581 
Q 5094 216 6234 22 
L 5981 -378 
z
" transform="scale(0.015625)"/>
       <path id="Meiryo-8377" d="M 4463 4416 
L 4463 3997 
L 3972 3997 
L 3972 4416 
L 2347 4416 
L 2347 3984 
L 1863 3984 
L 1863 4416 
L 256 4416 
L 256 4816 
L 1863 4816 
L 1863 5272 
L 2347 5272 
L 2347 4816 
L 3972 4816 
L 3972 5272 
L 4463 5272 
L 4463 4816 
L 6094 4816 
L 6094 4416 
L 4463 4416 
z
M 1016 -416 
L 1016 2000 
Q 666 1481 316 1147 
L 28 1400 
Q 481 1916 911 2639 
Q 1341 3363 1497 3888 
L 1969 3769 
Q 1759 3216 1356 2544 
L 1491 2544 
L 1491 -416 
L 1016 -416 
z
M 5094 -369 
L 4147 -369 
L 4081 75 
L 4919 75 
Q 5159 75 5159 291 
L 5159 3241 
L 2234 3241 
L 2234 3653 
L 6225 3653 
L 6225 3241 
L 5656 3241 
L 5656 134 
Q 5656 -103 5501 -236 
Q 5347 -369 5094 -369 
z
M 2738 741 
L 2738 550 
L 2275 550 
L 2275 2606 
L 4350 2606 
L 4350 741 
L 2738 741 
z
M 3875 2256 
L 2738 2256 
L 2738 1113 
L 3875 1113 
L 3875 2256 
z
" transform="scale(0.015625)"/>
       <path id="Meiryo-29" d="M 1081 -1303 
L 416 -1303 
L 416 -1272 
Q 1044 -713 1414 98 
Q 1784 909 1784 1809 
Q 1784 2706 1412 3520 
Q 1041 4334 416 4888 
L 416 4919 
L 1081 4919 
Q 2291 3506 2291 1809 
Q 2291 934 2008 190 
Q 1725 -553 1081 -1303 
z
" transform="scale(0.015625)"/>
      </defs>
      <use xlink:href="#Meiryo-53"/>
      <use xlink:href="#Meiryo-47" transform="translate(63.476562 0)"/>
      <use xlink:href="#Meiryo-5f" transform="translate(136.279297 0)"/>
      <use xlink:href="#Meiryo-52" transform="translate(198.388672 0)"/>
      <use xlink:href="#Meiryo-45" transform="translate(266.650391 0)"/>
      <use xlink:href="#Meiryo-53" transform="translate(328.417969 0)"/>
      <use xlink:href="#Meiryo-55" transform="translate(391.894531 0)"/>
      <use xlink:href="#Meiryo-4c" transform="translate(464.794922 0)"/>
      <use xlink:href="#Meiryo-54" transform="translate(511.958984 0)"/>
      <use xlink:href="#Meiryo-20" transform="translate(575.533203 0)"/>
      <use xlink:href="#Meiryo-28" transform="translate(609.517578 0)"/>
      <use xlink:href="#Meiryo-5927" transform="translate(653.462891 0)"/>
      <use xlink:href="#Meiryo-3d" transform="translate(753.462891 0)"/>
      <use xlink:href="#Meiryo-8efd" transform="translate(833.833984 0)"/>
      <use xlink:href="#Meiryo-8ca0" transform="translate(933.833984 0)"/>
      <use xlink:href="#Meiryo-8377" transform="translate(1033.833984 0)"/>
      <use xlink:href="#Meiryo-29" transform="translate(1133.833984 0)"/>
     </g>
    </g>
   </g>
   <g id="line2d_25">
    <path d="M 67.841609 206.794604 
L 92.105133 166.165975 
L 116.368657 178.631577 
L 140.63218 182.325089 
L 164.895704 159.240641 
L 189.159228 138.002949 
L 213.422751 163.857531 
L 237.686275 186.018601 
L 261.949799 197.560825 
L 310.476846 192.482246 
L 359.003893 141.234772 
L 407.530941 112.148367 
" clip-path="url(#p402adf38c2)" style="fill: none; stroke: #2b57a8; stroke-width: 1.8; stroke-linecap: square"/>
    <defs>
     <path id="m086085ad03" d="M 0 2 
C 0.530406 2 1.03916 1.789267 1.414214 1.414214 
C 1.789267 1.03916 2 0.530406 2 0 
C 2 -0.530406 1.789267 -1.03916 1.414214 -1.414214 
C 1.03916 -1.789267 0.530406 -2 0 -2 
C -0.530406 -2 -1.03916 -1.789267 -1.414214 -1.414214 
C -1.789267 -1.03916 -2 -0.530406 -2 0 
C -2 0.530406 -1.789267 1.03916 -1.414214 1.414214 
C -1.03916 1.789267 -0.530406 2 0 2 
z
" style="stroke: #2b57a8"/>
    </defs>
    <g clip-path="url(#p402adf38c2)">
     <use xlink:href="#m086085ad03" x="67.841609" y="206.794604" style="fill: #2b57a8; stroke: #2b57a8"/>
     <use xlink:href="#m086085ad03" x="92.105133" y="166.165975" style="fill: #2b57a8; stroke: #2b57a8"/>
     <use xlink:href="#m086085ad03" x="116.368657" y="178.631577" style="fill: #2b57a8; stroke: #2b57a8"/>
     <use xlink:href="#m086085ad03" x="140.63218" y="182.325089" style="fill: #2b57a8; stroke: #2b57a8"/>
     <use xlink:href="#m086085ad03" x="164.895704" y="159.240641" style="fill: #2b57a8; stroke: #2b57a8"/>
     <use xlink:href="#m086085ad03" x="189.159228" y="138.002949" style="fill: #2b57a8; stroke: #2b57a8"/>
     <use xlink:href="#m086085ad03" x="213.422751" y="163.857531" style="fill: #2b57a8; stroke: #2b57a8"/>
     <use xlink:href="#m086085ad03" x="237.686275" y="186.018601" style="fill: #2b57a8; stroke: #2b57a8"/>
     <use xlink:href="#m086085ad03" x="261.949799" y="197.560825" style="fill: #2b57a8; stroke: #2b57a8"/>
     <use xlink:href="#m086085ad03" x="310.476846" y="192.482246" style="fill: #2b57a8; stroke: #2b57a8"/>
     <use xlink:href="#m086085ad03" x="359.003893" y="141.234772" style="fill: #2b57a8; stroke: #2b57a8"/>
     <use xlink:href="#m086085ad03" x="407.530941" y="112.148367" style="fill: #2b57a8; stroke: #2b57a8"/>
    </g>
   </g>
   <g id="line2d_26">
    <path d="M 67.841609 199.869269 
L 92.105133 153.700374 
L 116.368657 119.99708 
L 140.63218 126.922414 
L 164.895704 123.228902 
L 189.159228 121.382146 
L 213.422751 134.309437 
L 237.686275 180.478333 
L 261.949799 220.645272 
L 310.476846 166.627664 
L 359.003893 125.999036 
L 407.530941 128.76917 
" clip-path="url(#p402adf38c2)" style="fill: none; stroke-dasharray: 6.66,2.88; stroke-dashoffset: 0; stroke: #2b57a8; stroke-width: 1.8"/>
    <g clip-path="url(#p402adf38c2)">
     <use xlink:href="#m086085ad03" x="67.841609" y="199.869269" style="fill: #2b57a8; stroke: #2b57a8"/>
     <use xlink:href="#m086085ad03" x="92.105133" y="153.700374" style="fill: #2b57a8; stroke: #2b57a8"/>
     <use xlink:href="#m086085ad03" x="116.368657" y="119.99708" style="fill: #2b57a8; stroke: #2b57a8"/>
     <use xlink:href="#m086085ad03" x="140.63218" y="126.922414" style="fill: #2b57a8; stroke: #2b57a8"/>
     <use xlink:href="#m086085ad03" x="164.895704" y="123.228902" style="fill: #2b57a8; stroke: #2b57a8"/>
     <use xlink:href="#m086085ad03" x="189.159228" y="121.382146" style="fill: #2b57a8; stroke: #2b57a8"/>
     <use xlink:href="#m086085ad03" x="213.422751" y="134.309437" style="fill: #2b57a8; stroke: #2b57a8"/>
     <use xlink:href="#m086085ad03" x="237.686275" y="180.478333" style="fill: #2b57a8; stroke: #2b57a8"/>
     <use xlink:href="#m086085ad03" x="261.949799" y="220.645272" style="fill: #2b57a8; stroke: #2b57a8"/>
     <use xlink:href="#m086085ad03" x="310.476846" y="166.627664" style="fill: #2b57a8; stroke: #2b57a8"/>
     <use xlink:href="#m086085ad03" x="359.003893" y="125.999036" style="fill: #2b57a8; stroke: #2b57a8"/>
     <use xlink:href="#m086085ad03" x="407.530941" y="128.76917" style="fill: #2b57a8; stroke: #2b57a8"/>
    </g>
   </g>
   <g id="patch_3">
    <path d="M 50.857143 304.257143 
L 50.857143 49.3125 
" style="fill: none; stroke: #000000; stroke-width: 0.8; stroke-linejoin: miter; stroke-linecap: square"/>
   </g>
   <g id="patch_4">
    <path d="M 424.515407 304.257143 
L 424.515407 49.3125 
" style="fill: none; stroke: #000000; stroke-width: 0.8; stroke-linejoin: miter; stroke-linecap: square"/>
   </g>
   <g id="patch_5">
    <path d="M 50.857143 304.257143 
L 424.515407 304.257143 
" style="fill: none; stroke: #000000; stroke-width: 0.8; stroke-linejoin: miter; stroke-linecap: square"/>
   </g>
   <g id="patch_6">
    <path d="M 50.857143 49.3125 
L 424.515407 49.3125 
" style="fill: none; stroke: #000000; stroke-width: 0.8; stroke-linejoin: miter; stroke-linecap: square"/>
   </g>
   <g id="text_15">
    <!-- axis0 (昼の主役・古株) -->
    <g transform="translate(178.683306 43.3125) scale(0.11 -0.11)">
     <defs>
      <path id="Meiryo-61" d="M 2663 841 
L 2663 1866 
Q 1497 1813 1164 1608 
Q 831 1403 831 1044 
Q 831 409 1600 409 
Q 2122 409 2663 841 
z
M 2663 0 
L 2663 394 
Q 2222 75 1937 -11 
Q 1653 -97 1359 -97 
Q 888 -97 575 215 
Q 263 528 263 1009 
Q 263 1625 727 1936 
Q 1191 2247 2663 2306 
L 2663 2413 
Q 2663 2781 2444 2957 
Q 2225 3134 1675 3134 
Q 1191 3134 597 2884 
L 572 2884 
L 572 3456 
Q 1156 3616 1697 3616 
Q 2481 3616 2845 3323 
Q 3209 3031 3209 2416 
L 3209 0 
L 2663 0 
z
" transform="scale(0.015625)"/>
      <path id="Meiryo-78" d="M 3428 0 
L 2763 0 
L 1766 1372 
L 744 0 
L 128 0 
L 1472 1753 
L 141 3531 
L 806 3531 
L 1797 2169 
L 2809 3531 
L 3428 3531 
L 2091 1788 
L 3428 0 
z
" transform="scale(0.015625)"/>
      <path id="Meiryo-69" d="M 1122 4238 
L 500 4238 
L 500 4809 
L 1122 4809 
L 1122 4238 
z
M 1088 0 
L 538 0 
L 538 3531 
L 1088 3531 
L 1088 0 
z
" transform="scale(0.015625)"/>
      <path id="Meiryo-73" d="M 1528 -84 
Q 866 -84 284 206 
L 284 844 
L 306 844 
Q 938 375 1559 375 
Q 2431 375 2431 925 
Q 2431 1141 2315 1259 
Q 2200 1378 1834 1463 
Q 1528 1522 1131 1615 
Q 734 1709 517 1945 
Q 300 2181 300 2550 
Q 300 3019 681 3317 
Q 1063 3616 1700 3616 
Q 2356 3616 2853 3359 
L 2853 2753 
L 2831 2753 
Q 2284 3156 1672 3156 
Q 1294 3156 1075 3017 
Q 856 2878 856 2631 
Q 856 2413 973 2297 
Q 1091 2181 1441 2094 
L 2131 1944 
Q 2559 1850 2775 1614 
Q 2991 1378 2991 1003 
Q 2991 519 2594 217 
Q 2197 -84 1528 -84 
z
" transform="scale(0.015625)"/>
      <path id="Meiryo-663c" d="M 1453 631 
L 1453 3109 
L 4569 3109 
Q 4353 3456 4222 3769 
L 1272 3769 
Q 1263 2778 1008 2001 
Q 753 1225 338 747 
L 44 1016 
Q 819 2119 819 3697 
L 819 5122 
L 5619 5122 
L 5619 3769 
L 4691 3769 
Q 4909 3284 5270 2839 
Q 5631 2394 6356 1850 
L 6034 1497 
Q 5447 1934 4947 2572 
L 4947 631 
L 1453 631 
z
M 5141 4775 
L 1284 4775 
L 1284 4122 
L 5141 4122 
L 5141 4775 
z
M 1916 2053 
L 4463 2053 
L 4463 2759 
L 1916 2759 
L 1916 2053 
z
M 4463 1713 
L 1916 1713 
L 1916 975 
L 4463 975 
L 4463 1713 
z
M 381 -266 
L 381 128 
L 6028 128 
L 6028 -266 
L 381 -266 
z
" transform="scale(0.015625)"/>
      <path id="Meiryo-306e" d="M 3338 -128 
L 3216 294 
Q 4222 384 4936 878 
Q 5650 1372 5650 2353 
Q 5650 3228 5073 3706 
Q 4497 4184 3466 4213 
Q 3431 2531 2862 1406 
Q 2294 281 1438 281 
Q 906 281 601 732 
Q 297 1184 297 1834 
Q 297 2906 1222 3761 
Q 2147 4616 3413 4616 
Q 4603 4616 5375 4020 
Q 6147 3425 6147 2394 
Q 6147 1219 5369 597 
Q 4591 -25 3338 -128 
z
M 2975 4172 
Q 2069 4034 1416 3351 
Q 763 2669 763 1809 
Q 763 1353 953 1036 
Q 1144 719 1484 719 
Q 2069 719 2503 1811 
Q 2938 2903 2975 4172 
z
" transform="scale(0.015625)"/>
      <path id="Meiryo-4e3b" d="M 3375 4106 
Q 3072 4447 2350 5066 
L 2725 5372 
Q 3244 4969 3794 4428 
L 3375 4106 
z
M 294 -275 
L 294 138 
L 2888 138 
L 2888 1803 
L 659 1803 
L 659 2200 
L 2888 2200 
L 2888 3663 
L 509 3663 
L 509 4053 
L 5869 4053 
L 5869 3663 
L 3391 3663 
L 3391 2200 
L 5616 2200 
L 5616 1803 
L 3391 1803 
L 3391 138 
L 6091 138 
L 6091 -275 
L 294 -275 
z
" transform="scale(0.015625)"/>
      <path id="Meiryo-5f79" d="M 434 3575 
L 166 3856 
Q 959 4447 1478 5259 
L 1922 5109 
Q 1675 4691 1244 4253 
Q 813 3816 434 3575 
z
M 4513 4756 
L 3288 4756 
L 3288 4584 
Q 3288 3463 2550 2888 
L 2263 3156 
Q 2522 3384 2665 3714 
Q 2809 4044 2809 4584 
L 2809 5100 
L 4997 5100 
L 4997 3653 
Q 4997 3438 5219 3438 
L 5494 3438 
Q 5622 3438 5695 3489 
Q 5769 3541 5789 3652 
Q 5809 3763 5825 4228 
L 6203 4169 
L 6203 4000 
Q 6203 3484 6189 3406 
Q 6175 3328 6101 3243 
Q 6028 3159 5939 3123 
Q 5850 3088 5656 3070 
Q 5463 3053 5331 3053 
Q 4813 3053 4663 3187 
Q 4513 3322 4513 3481 
L 4513 4756 
z
M 1094 -409 
L 1094 2172 
Q 656 1641 350 1381 
L 56 1663 
Q 500 2084 1023 2812 
Q 1547 3541 1713 3900 
L 2163 3756 
Q 1934 3275 1416 2581 
L 1569 2581 
L 1569 -409 
L 1094 -409 
z
M 4534 600 
Q 5141 266 6147 28 
L 5897 -363 
Q 4991 -150 4150 334 
Q 3213 -219 2106 -375 
L 1963 -16 
Q 2941 156 3738 597 
Q 3247 984 2944 1428 
Q 2641 1872 2550 2234 
L 2169 2234 
L 2169 2609 
L 5747 2609 
Q 5675 1478 4534 600 
z
M 4128 838 
Q 4988 1469 5178 2234 
L 3025 2234 
Q 3144 1863 3461 1470 
Q 3778 1078 4128 838 
z
" transform="scale(0.015625)"/>
      <path id="Meiryo-30fb" d="M 2631 2284 
Q 2631 2522 2800 2690 
Q 2969 2859 3206 2859 
Q 3444 2859 3612 2690 
Q 3781 2522 3781 2284 
Q 3781 2047 3612 1878 
Q 3444 1709 3206 1709 
Q 2969 1709 2800 1878 
Q 2631 2047 2631 2284 
z
" transform="scale(0.015625)"/>
      <path id="Meiryo-53e4" d="M 5059 -34 
L 1275 -34 
L 1275 -350 
L 784 -350 
L 784 2413 
L 2881 2413 
L 2881 3772 
L 256 3772 
L 256 4156 
L 2881 4156 
L 2881 5247 
L 3391 5247 
L 3391 4156 
L 6119 4156 
L 6119 3772 
L 3391 3772 
L 3391 2413 
L 5563 2413 
L 5563 -328 
L 5059 -328 
L 5059 -34 
z
M 1275 350 
L 5059 350 
L 5059 2034 
L 1275 2034 
L 1275 350 
z
" transform="scale(0.015625)"/>
      <path id="Meiryo-682a" d="M 1131 2472 
Q 791 1641 334 1047 
L 41 1256 
Q 341 1666 662 2409 
Q 984 3153 1109 3703 
L 241 3703 
L 241 4103 
L 1138 4103 
L 1138 5278 
L 1613 5278 
L 1613 4103 
L 2219 4103 
L 2219 3703 
L 1613 3703 
L 1613 3116 
Q 1956 2631 2331 2322 
L 2063 1975 
Q 1803 2244 1613 2513 
L 1613 -422 
L 1138 -422 
L 1131 2472 
z
M 2184 -9 
L 1947 284 
Q 2456 647 2962 1206 
Q 3469 1766 3822 2384 
L 2366 2384 
L 2366 2772 
L 3931 2772 
L 3931 3841 
L 2944 3841 
Q 2741 3384 2550 3150 
L 2197 3344 
Q 2406 3681 2604 4192 
Q 2803 4703 2869 5122 
L 3353 5056 
Q 3278 4703 3103 4234 
L 3931 4234 
L 3931 5272 
L 4434 5272 
L 4434 4234 
L 5884 4234 
L 5884 3841 
L 4434 3841 
L 4434 2772 
L 6059 2772 
L 6059 2384 
L 4531 2384 
Q 4925 1722 5484 1156 
Q 6044 591 6375 344 
L 6059 -3 
Q 5131 709 4422 1800 
L 4422 -409 
L 3941 -409 
L 3941 1734 
Q 3119 575 2184 -9 
z
" transform="scale(0.015625)"/>
     </defs>
     <use xlink:href="#Meiryo-61"/>
     <use xlink:href="#Meiryo-78" transform="translate(58.007812 0)"/>
     <use xlink:href="#Meiryo-69" transform="translate(113.574219 0)"/>
     <use xlink:href="#Meiryo-73" transform="translate(138.964844 0)"/>
     <use xlink:href="#Meiryo-30" transform="translate(188.769531 0)"/>
     <use xlink:href="#Meiryo-20" transform="translate(250.878906 0)"/>
     <use xlink:href="#Meiryo-28" transform="translate(284.863281 0)"/>
     <use xlink:href="#Meiryo-663c" transform="translate(328.808594 0)"/>
     <use xlink:href="#Meiryo-306e" transform="translate(428.808594 0)"/>
     <use xlink:href="#Meiryo-4e3b" transform="translate(528.808594 0)"/>
     <use xlink:href="#Meiryo-5f79" transform="translate(628.808594 0)"/>
     <use xlink:href="#Meiryo-30fb" transform="translate(728.808594 0)"/>
     <use xlink:href="#Meiryo-53e4" transform="translate(828.808594 0)"/>
     <use xlink:href="#Meiryo-682a" transform="translate(928.808594 0)"/>
     <use xlink:href="#Meiryo-29" transform="translate(1028.808594 0)"/>
    </g>
   </g>
   <g id="legend_1">
    <g id="patch_7">
     <path d="M 57.157143 83.011875 
L 103.957143 83.011875 
Q 105.757143 83.011875 105.757143 81.211875 
L 105.757143 55.6125 
Q 105.757143 53.8125 103.957143 53.8125 
L 57.157143 53.8125 
Q 55.357143 53.8125 55.357143 55.6125 
L 55.357143 81.211875 
Q 55.357143 83.011875 57.157143 83.011875 
z
" style="fill: #ffffff; opacity: 0.8; stroke: #cccccc; stroke-linejoin: miter"/>
    </g>
    <g id="line2d_27">
     <path d="M 58.957143 61.179844 
L 67.957143 61.179844 
L 76.957143 61.179844 
" style="fill: none; stroke: #2b57a8; stroke-width: 1.8; stroke-linecap: square"/>
     <g>
      <use xlink:href="#m086085ad03" x="67.957143" y="61.179844" style="fill: #2b57a8; stroke: #2b57a8"/>
     </g>
    </g>
    <g id="text_16">
     <!-- 正転 -->
     <g transform="translate(84.157143 64.329844) scale(0.09 -0.09)">
      <defs>
       <path id="Meiryo-6b63" d="M 316 -225 
L 316 181 
L 1197 181 
L 1197 3459 
L 1694 3459 
L 1694 181 
L 3153 181 
L 3153 4547 
L 472 4547 
L 472 4941 
L 5950 4941 
L 5950 4547 
L 3650 4547 
L 3650 2734 
L 5603 2734 
L 5603 2341 
L 3650 2341 
L 3650 181 
L 6059 181 
L 6059 -225 
L 316 -225 
z
" transform="scale(0.015625)"/>
       <path id="Meiryo-8ee2" d="M 238 669 
L 238 1028 
L 1438 1028 
L 1438 1569 
L 406 1569 
L 406 3875 
L 1450 3875 
L 1450 4403 
L 275 4403 
L 275 4763 
L 1450 4763 
L 1450 5303 
L 1913 5303 
L 1913 4763 
L 3050 4763 
L 3050 4403 
L 1913 4403 
L 1913 3875 
L 2938 3875 
L 2938 1569 
L 1900 1569 
L 1900 1028 
L 3038 1028 
L 3038 669 
L 1900 669 
L 1900 -403 
L 1438 -403 
L 1438 669 
L 238 669 
z
M 838 2916 
L 1463 2916 
L 1463 3553 
L 838 3553 
L 838 2916 
z
M 1881 2916 
L 2494 2916 
L 2494 3553 
L 1881 3553 
L 1881 2916 
z
M 2494 2594 
L 1881 2594 
L 1881 1903 
L 2494 1903 
L 2494 2594 
z
M 1463 2594 
L 838 2594 
L 838 1903 
L 1463 1903 
L 1463 2594 
z
M 3403 4578 
L 3403 4963 
L 5963 4963 
L 5963 4578 
L 3403 4578 
z
M 3019 -309 
L 2919 88 
Q 3078 97 3303 119 
Q 3691 1066 4125 2750 
L 3225 2750 
L 3225 3138 
L 6091 3138 
L 6091 2750 
L 4638 2750 
Q 4225 1234 3778 169 
Q 4716 278 5419 403 
Q 5150 1063 4903 1616 
L 5334 1753 
Q 5594 1234 6163 -225 
L 5713 -356 
Q 5653 -191 5563 44 
Q 4856 -91 3019 -309 
z
" transform="scale(0.015625)"/>
      </defs>
      <use xlink:href="#Meiryo-6b63"/>
      <use xlink:href="#Meiryo-8ee2" transform="translate(100 0)"/>
     </g>
    </g>
    <g id="line2d_28">
     <path d="M 58.957143 74.429531 
L 67.957143 74.429531 
L 76.957143 74.429531 
" style="fill: none; stroke-dasharray: 6.66,2.88; stroke-dashoffset: 0; stroke: #2b57a8; stroke-width: 1.8"/>
     <g>
      <use xlink:href="#m086085ad03" x="67.957143" y="74.429531" style="fill: #2b57a8; stroke: #2b57a8"/>
     </g>
    </g>
    <g id="text_17">
     <!-- 逆転 -->
     <g transform="translate(84.157143 77.579531) scale(0.09 -0.09)">
      <defs>
       <path id="Meiryo-9006" d="M 4203 1922 
Q 4131 1631 4109 1569 
Q 4050 1406 3962 1259 
Q 3875 1113 3728 959 
Q 3581 806 3342 656 
Q 3103 506 2794 381 
L 2584 713 
Q 3594 1150 3728 1947 
L 2734 1947 
L 2734 1759 
L 2266 1759 
L 2266 3422 
L 2744 3422 
L 2744 2306 
L 3756 2306 
L 3756 2384 
L 3753 2625 
L 3753 3894 
L 1925 3894 
L 1925 4266 
L 3066 4266 
L 2584 5141 
L 3050 5284 
L 3569 4266 
L 4428 4266 
L 4922 5284 
L 5419 5172 
L 4894 4266 
L 6097 4266 
L 6097 3894 
L 4250 3894 
L 4250 2475 
Q 4250 2388 4247 2306 
L 5316 2306 
L 5316 3422 
L 5791 3422 
L 5791 1759 
L 5316 1759 
L 5316 1947 
L 4209 1947 
L 4203 1922 
z
M 1175 3859 
Q 697 4616 419 4938 
L 838 5184 
Q 1256 4688 1600 4103 
L 1175 3859 
z
M 6241 -266 
Q 5238 -275 4506 -275 
Q 3219 -275 2880 -253 
Q 2541 -231 2134 -147 
Q 1550 56 1366 434 
Q 819 -100 306 -344 
L 131 106 
Q 325 191 633 389 
Q 941 588 1066 713 
Q 1056 756 1056 1653 
L 1059 2600 
L 234 2600 
L 234 2984 
L 1559 2984 
L 1559 975 
Q 1559 431 2259 238 
Q 2419 213 2716 159 
Q 2913 116 4016 116 
Q 5563 116 6334 166 
L 6241 -266 
z
" transform="scale(0.015625)"/>
      </defs>
      <use xlink:href="#Meiryo-9006"/>
      <use xlink:href="#Meiryo-8ee2" transform="translate(100 0)"/>
     </g>
    </g>
   </g>
  </g>
  <g id="axes_2">
   <g id="patch_8">
    <path d="M 441.178571 304.257143 
L 814.836836 304.257143 
L 814.836836 49.3125 
L 441.178571 49.3125 
z
" style="fill: #ffffff"/>
   </g>
   <g id="FillBetweenPolyCollection_3">
    <defs>
     <path id="m07d302c8d7" d="M 458.163038 -140.652152 
L 458.163038 -134.188507 
L 482.426562 -171.123623 
L 506.690085 -118.491082 
L 530.953609 -93.559878 
L 555.217133 -145.269042 
L 579.480656 -71.398808 
L 603.74418 -171.123623 
L 628.007704 -53.854628 
L 652.271227 -52.93125 
L 700.798275 -118.491082 
L 749.325322 -190.51456 
L 797.852369 -203.44185 
L 797.852369 -240.376967 
L 797.852369 -240.376967 
L 749.325322 -238.530211 
L 700.798275 -234.8367 
L 652.271227 -194.208071 
L 628.007704 -239.453589 
L 603.74418 -232.066566 
L 579.480656 -224.679543 
L 555.217133 -209.905496 
L 530.953609 -252.38088 
L 506.690085 -183.127536 
L 482.426562 -179.434025 
L 458.163038 -140.652152 
z
" style="stroke: #c2571a; stroke-opacity: 0.12"/>
    </defs>
    <g clip-path="url(#p8ed04bb222)">
     <use xlink:href="#m07d302c8d7" x="0" y="345.6" style="fill: #c2571a; fill-opacity: 0.12; stroke: #c2571a; stroke-opacity: 0.12"/>
    </g>
   </g>
   <g id="FillBetweenPolyCollection_4">
    <defs>
     <path id="m296c8455d7" d="M 458.163038 -147.115798 
L 458.163038 -143.422286 
L 482.426562 -189.591182 
L 506.690085 -220.986031 
L 530.953609 -214.522385 
L 555.217133 -211.752252 
L 579.480656 -189.591182 
L 603.74418 -74.168942 
L 628.007704 -52.93125 
L 652.271227 -53.854628 
L 700.798275 -121.261216 
L 749.325322 -215.445763 
L 797.852369 -218.215897 
L 797.852369 -242.223723 
L 797.852369 -242.223723 
L 749.325322 -226.526298 
L 700.798275 -246.840613 
L 652.271227 -148.039175 
L 628.007704 -240.376967 
L 603.74418 -245.917235 
L 579.480656 -234.8367 
L 555.217133 -230.21981 
L 530.953609 -224.679543 
L 506.690085 -228.373054 
L 482.426562 -193.284693 
L 458.163038 -147.115798 
z
" style="stroke: #c2571a; stroke-opacity: 0.12"/>
    </defs>
    <g clip-path="url(#p8ed04bb222)">
     <use xlink:href="#m296c8455d7" x="0" y="345.6" style="fill: #c2571a; fill-opacity: 0.12; stroke: #c2571a; stroke-opacity: 0.12"/>
    </g>
   </g>
   <g id="matplotlib.axis_3">
    <g id="xtick_7">
     <g id="line2d_29">
      <path d="M 494.558323 304.257143 
L 494.558323 49.3125 
" clip-path="url(#p8ed04bb222)" style="fill: none; stroke: #b0b0b0; stroke-opacity: 0.3; stroke-width: 0.8; stroke-linecap: square"/>
     </g>
     <g id="line2d_30">
      <g>
       <use xlink:href="#m2855d5ea83" x="494.558323" y="304.257143" style="stroke: #000000; stroke-width: 0.8"/>
      </g>
     </g>
     <g id="text_18">
      <!-- 5000 -->
      <g transform="translate(482.136448 318.94308) scale(0.1 -0.1)">
       <use xlink:href="#Meiryo-35"/>
       <use xlink:href="#Meiryo-30" transform="translate(62.109375 0)"/>
       <use xlink:href="#Meiryo-30" transform="translate(124.21875 0)"/>
       <use xlink:href="#Meiryo-30" transform="translate(186.328125 0)"/>
      </g>
     </g>
    </g>
    <g id="xtick_8">
     <g id="line2d_31">
      <path d="M 555.217133 304.257143 
L 555.217133 49.3125 
" clip-path="url(#p8ed04bb222)" style="fill: none; stroke: #b0b0b0; stroke-opacity: 0.3; stroke-width: 0.8; stroke-linecap: square"/>
     </g>
     <g id="line2d_32">
      <g>
       <use xlink:href="#m2855d5ea83" x="555.217133" y="304.257143" style="stroke: #000000; stroke-width: 0.8"/>
      </g>
     </g>
     <g id="text_19">
      <!-- 10000 -->
      <g transform="translate(539.689789 318.94308) scale(0.1 -0.1)">
       <use xlink:href="#Meiryo-31"/>
       <use xlink:href="#Meiryo-30" transform="translate(62.109375 0)"/>
       <use xlink:href="#Meiryo-30" transform="translate(124.21875 0)"/>
       <use xlink:href="#Meiryo-30" transform="translate(186.328125 0)"/>
       <use xlink:href="#Meiryo-30" transform="translate(248.4375 0)"/>
      </g>
     </g>
    </g>
    <g id="xtick_9">
     <g id="line2d_33">
      <path d="M 615.875942 304.257143 
L 615.875942 49.3125 
" clip-path="url(#p8ed04bb222)" style="fill: none; stroke: #b0b0b0; stroke-opacity: 0.3; stroke-width: 0.8; stroke-linecap: square"/>
     </g>
     <g id="line2d_34">
      <g>
       <use xlink:href="#m2855d5ea83" x="615.875942" y="304.257143" style="stroke: #000000; stroke-width: 0.8"/>
      </g>
     </g>
     <g id="text_20">
      <!-- 15000 -->
      <g transform="translate(600.348598 318.94308) scale(0.1 -0.1)">
       <use xlink:href="#Meiryo-31"/>
       <use xlink:href="#Meiryo-35" transform="translate(62.109375 0)"/>
       <use xlink:href="#Meiryo-30" transform="translate(124.21875 0)"/>
       <use xlink:href="#Meiryo-30" transform="translate(186.328125 0)"/>
       <use xlink:href="#Meiryo-30" transform="translate(248.4375 0)"/>
      </g>
     </g>
    </g>
    <g id="xtick_10">
     <g id="line2d_35">
      <path d="M 676.534751 304.257143 
L 676.534751 49.3125 
" clip-path="url(#p8ed04bb222)" style="fill: none; stroke: #b0b0b0; stroke-opacity: 0.3; stroke-width: 0.8; stroke-linecap: square"/>
     </g>
     <g id="line2d_36">
      <g>
       <use xlink:href="#m2855d5ea83" x="676.534751" y="304.257143" style="stroke: #000000; stroke-width: 0.8"/>
      </g>
     </g>
     <g id="text_21">
      <!-- 20000 -->
      <g transform="translate(661.007407 318.94308) scale(0.1 -0.1)">
       <use xlink:href="#Meiryo-32"/>
       <use xlink:href="#Meiryo-30" transform="translate(62.109375 0)"/>
       <use xlink:href="#Meiryo-30" transform="translate(124.21875 0)"/>
       <use xlink:href="#Meiryo-30" transform="translate(186.328125 0)"/>
       <use xlink:href="#Meiryo-30" transform="translate(248.4375 0)"/>
      </g>
     </g>
    </g>
    <g id="xtick_11">
     <g id="line2d_37">
      <path d="M 737.19356 304.257143 
L 737.19356 49.3125 
" clip-path="url(#p8ed04bb222)" style="fill: none; stroke: #b0b0b0; stroke-opacity: 0.3; stroke-width: 0.8; stroke-linecap: square"/>
     </g>
     <g id="line2d_38">
      <g>
       <use xlink:href="#m2855d5ea83" x="737.19356" y="304.257143" style="stroke: #000000; stroke-width: 0.8"/>
      </g>
     </g>
     <g id="text_22">
      <!-- 25000 -->
      <g transform="translate(721.666216 318.94308) scale(0.1 -0.1)">
       <use xlink:href="#Meiryo-32"/>
       <use xlink:href="#Meiryo-35" transform="translate(62.109375 0)"/>
       <use xlink:href="#Meiryo-30" transform="translate(124.21875 0)"/>
       <use xlink:href="#Meiryo-30" transform="translate(186.328125 0)"/>
       <use xlink:href="#Meiryo-30" transform="translate(248.4375 0)"/>
      </g>
     </g>
    </g>
    <g id="xtick_12">
     <g id="line2d_39">
      <path d="M 797.852369 304.257143 
L 797.852369 49.3125 
" clip-path="url(#p8ed04bb222)" style="fill: none; stroke: #b0b0b0; stroke-opacity: 0.3; stroke-width: 0.8; stroke-linecap: square"/>
     </g>
     <g id="line2d_40">
      <g>
       <use xlink:href="#m2855d5ea83" x="797.852369" y="304.257143" style="stroke: #000000; stroke-width: 0.8"/>
      </g>
     </g>
     <g id="text_23">
      <!-- 30000 -->
      <g transform="translate(782.325026 318.94308) scale(0.1 -0.1)">
       <use xlink:href="#Meiryo-33"/>
       <use xlink:href="#Meiryo-30" transform="translate(62.109375 0)"/>
       <use xlink:href="#Meiryo-30" transform="translate(124.21875 0)"/>
       <use xlink:href="#Meiryo-30" transform="translate(186.328125 0)"/>
       <use xlink:href="#Meiryo-30" transform="translate(248.4375 0)"/>
      </g>
     </g>
    </g>
    <g id="text_24">
     <!-- VACTUAL -->
     <g transform="translate(605.028016 332.664955) scale(0.1 -0.1)">
      <use xlink:href="#Meiryo-56"/>
      <use xlink:href="#Meiryo-41" transform="translate(65.386719 0)"/>
      <use xlink:href="#Meiryo-43" transform="translate(132.785156 0)"/>
      <use xlink:href="#Meiryo-54" transform="translate(200.021484 0)"/>
      <use xlink:href="#Meiryo-55" transform="translate(263.595703 0)"/>
      <use xlink:href="#Meiryo-41" transform="translate(336.121094 0)"/>
      <use xlink:href="#Meiryo-4c" transform="translate(403.894531 0)"/>
     </g>
    </g>
   </g>
   <g id="matplotlib.axis_4">
    <g id="ytick_7">
     <g id="line2d_41">
      <path d="M 441.178571 292.66875 
L 814.836836 292.66875 
" clip-path="url(#p8ed04bb222)" style="fill: none; stroke: #b0b0b0; stroke-opacity: 0.3; stroke-width: 0.8; stroke-linecap: square"/>
     </g>
     <g id="line2d_42">
      <g>
       <use xlink:href="#m98695a58e6" x="441.178571" y="292.66875" style="stroke: #000000; stroke-width: 0.8"/>
      </g>
     </g>
    </g>
    <g id="ytick_8">
     <g id="line2d_43">
      <path d="M 441.178571 246.499854 
L 814.836836 246.499854 
" clip-path="url(#p8ed04bb222)" style="fill: none; stroke: #b0b0b0; stroke-opacity: 0.3; stroke-width: 0.8; stroke-linecap: square"/>
     </g>
     <g id="line2d_44">
      <g>
       <use xlink:href="#m98695a58e6" x="441.178571" y="246.499854" style="stroke: #000000; stroke-width: 0.8"/>
      </g>
     </g>
    </g>
    <g id="ytick_9">
     <g id="line2d_45">
      <path d="M 441.178571 200.330958 
L 814.836836 200.330958 
" clip-path="url(#p8ed04bb222)" style="fill: none; stroke: #b0b0b0; stroke-opacity: 0.3; stroke-width: 0.8; stroke-linecap: square"/>
     </g>
     <g id="line2d_46">
      <g>
       <use xlink:href="#m98695a58e6" x="441.178571" y="200.330958" style="stroke: #000000; stroke-width: 0.8"/>
      </g>
     </g>
    </g>
    <g id="ytick_10">
     <g id="line2d_47">
      <path d="M 441.178571 154.162062 
L 814.836836 154.162062 
" clip-path="url(#p8ed04bb222)" style="fill: none; stroke: #b0b0b0; stroke-opacity: 0.3; stroke-width: 0.8; stroke-linecap: square"/>
     </g>
     <g id="line2d_48">
      <g>
       <use xlink:href="#m98695a58e6" x="441.178571" y="154.162062" style="stroke: #000000; stroke-width: 0.8"/>
      </g>
     </g>
    </g>
    <g id="ytick_11">
     <g id="line2d_49">
      <path d="M 441.178571 107.993167 
L 814.836836 107.993167 
" clip-path="url(#p8ed04bb222)" style="fill: none; stroke: #b0b0b0; stroke-opacity: 0.3; stroke-width: 0.8; stroke-linecap: square"/>
     </g>
     <g id="line2d_50">
      <g>
       <use xlink:href="#m98695a58e6" x="441.178571" y="107.993167" style="stroke: #000000; stroke-width: 0.8"/>
      </g>
     </g>
    </g>
    <g id="ytick_12">
     <g id="line2d_51">
      <path d="M 441.178571 61.824271 
L 814.836836 61.824271 
" clip-path="url(#p8ed04bb222)" style="fill: none; stroke: #b0b0b0; stroke-opacity: 0.3; stroke-width: 0.8; stroke-linecap: square"/>
     </g>
     <g id="line2d_52">
      <g>
       <use xlink:href="#m98695a58e6" x="441.178571" y="61.824271" style="stroke: #000000; stroke-width: 0.8"/>
      </g>
     </g>
    </g>
   </g>
   <g id="line2d_53">
    <path d="M 458.163038 207.717982 
L 482.426562 169.859487 
L 506.690085 181.8634 
L 530.953609 162.010775 
L 555.217133 162.010775 
L 579.480656 157.393885 
L 603.74418 132.92437 
L 628.007704 166.165975 
L 652.271227 218.336828 
L 700.798275 191.097179 
L 749.325322 120.458768 
L 797.852369 118.150324 
" clip-path="url(#p8ed04bb222)" style="fill: none; stroke: #c2571a; stroke-width: 1.8; stroke-linecap: square"/>
    <defs>
     <path id="me237d9558c" d="M 0 2 
C 0.530406 2 1.03916 1.789267 1.414214 1.414214 
C 1.789267 1.03916 2 0.530406 2 0 
C 2 -0.530406 1.789267 -1.03916 1.414214 -1.414214 
C 1.03916 -1.789267 0.530406 -2 0 -2 
C -0.530406 -2 -1.03916 -1.789267 -1.414214 -1.414214 
C -1.789267 -1.03916 -2 -0.530406 -2 0 
C -2 0.530406 -1.789267 1.03916 -1.414214 1.414214 
C -1.03916 1.789267 -0.530406 2 0 2 
z
" style="stroke: #c2571a"/>
    </defs>
    <g clip-path="url(#p8ed04bb222)">
     <use xlink:href="#me237d9558c" x="458.163038" y="207.717982" style="fill: #c2571a; stroke: #c2571a"/>
     <use xlink:href="#me237d9558c" x="482.426562" y="169.859487" style="fill: #c2571a; stroke: #c2571a"/>
     <use xlink:href="#me237d9558c" x="506.690085" y="181.8634" style="fill: #c2571a; stroke: #c2571a"/>
     <use xlink:href="#me237d9558c" x="530.953609" y="162.010775" style="fill: #c2571a; stroke: #c2571a"/>
     <use xlink:href="#me237d9558c" x="555.217133" y="162.010775" style="fill: #c2571a; stroke: #c2571a"/>
     <use xlink:href="#me237d9558c" x="579.480656" y="157.393885" style="fill: #c2571a; stroke: #c2571a"/>
     <use xlink:href="#me237d9558c" x="603.74418" y="132.92437" style="fill: #c2571a; stroke: #c2571a"/>
     <use xlink:href="#me237d9558c" x="628.007704" y="166.165975" style="fill: #c2571a; stroke: #c2571a"/>
     <use xlink:href="#me237d9558c" x="652.271227" y="218.336828" style="fill: #c2571a; stroke: #c2571a"/>
     <use xlink:href="#me237d9558c" x="700.798275" y="191.097179" style="fill: #c2571a; stroke: #c2571a"/>
     <use xlink:href="#me237d9558c" x="749.325322" y="120.458768" style="fill: #c2571a; stroke: #c2571a"/>
     <use xlink:href="#me237d9558c" x="797.852369" y="118.150324" style="fill: #c2571a; stroke: #c2571a"/>
    </g>
   </g>
   <g id="line2d_54">
    <path d="M 458.163038 200.792647 
L 482.426562 154.162062 
L 506.690085 120.920457 
L 530.953609 127.845792 
L 555.217133 123.690591 
L 579.480656 128.307481 
L 603.74418 139.388016 
L 628.007704 206.332915 
L 652.271227 255.733633 
L 700.798275 180.478333 
L 749.325322 124.613969 
L 797.852369 115.841879 
" clip-path="url(#p8ed04bb222)" style="fill: none; stroke-dasharray: 6.66,2.88; stroke-dashoffset: 0; stroke: #c2571a; stroke-width: 1.8"/>
    <g clip-path="url(#p8ed04bb222)">
     <use xlink:href="#me237d9558c" x="458.163038" y="200.792647" style="fill: #c2571a; stroke: #c2571a"/>
     <use xlink:href="#me237d9558c" x="482.426562" y="154.162062" style="fill: #c2571a; stroke: #c2571a"/>
     <use xlink:href="#me237d9558c" x="506.690085" y="120.920457" style="fill: #c2571a; stroke: #c2571a"/>
     <use xlink:href="#me237d9558c" x="530.953609" y="127.845792" style="fill: #c2571a; stroke: #c2571a"/>
     <use xlink:href="#me237d9558c" x="555.217133" y="123.690591" style="fill: #c2571a; stroke: #c2571a"/>
     <use xlink:href="#me237d9558c" x="579.480656" y="128.307481" style="fill: #c2571a; stroke: #c2571a"/>
     <use xlink:href="#me237d9558c" x="603.74418" y="139.388016" style="fill: #c2571a; stroke: #c2571a"/>
     <use xlink:href="#me237d9558c" x="628.007704" y="206.332915" style="fill: #c2571a; stroke: #c2571a"/>
     <use xlink:href="#me237d9558c" x="652.271227" y="255.733633" style="fill: #c2571a; stroke: #c2571a"/>
     <use xlink:href="#me237d9558c" x="700.798275" y="180.478333" style="fill: #c2571a; stroke: #c2571a"/>
     <use xlink:href="#me237d9558c" x="749.325322" y="124.613969" style="fill: #c2571a; stroke: #c2571a"/>
     <use xlink:href="#me237d9558c" x="797.852369" y="115.841879" style="fill: #c2571a; stroke: #c2571a"/>
    </g>
   </g>
   <g id="patch_9">
    <path d="M 441.178571 304.257143 
L 441.178571 49.3125 
" style="fill: none; stroke: #000000; stroke-width: 0.8; stroke-linejoin: miter; stroke-linecap: square"/>
   </g>
   <g id="patch_10">
    <path d="M 814.836836 304.257143 
L 814.836836 49.3125 
" style="fill: none; stroke: #000000; stroke-width: 0.8; stroke-linejoin: miter; stroke-linecap: square"/>
   </g>
   <g id="patch_11">
    <path d="M 441.178571 304.257143 
L 814.836836 304.257143 
" style="fill: none; stroke: #000000; stroke-width: 0.8; stroke-linejoin: miter; stroke-linecap: square"/>
   </g>
   <g id="patch_12">
    <path d="M 441.178571 49.3125 
L 814.836836 49.3125 
" style="fill: none; stroke: #000000; stroke-width: 0.8; stroke-linejoin: miter; stroke-linecap: square"/>
   </g>
   <g id="text_25">
    <!-- axis1 (今夜入団・注油済み) -->
    <g transform="translate(558.004735 43.3125) scale(0.11 -0.11)">
     <defs>
      <path id="Meiryo-4eca" d="M 6059 2822 
Q 5353 3119 4536 3717 
Q 3719 4316 3175 4972 
Q 2709 4338 1848 3691 
Q 988 3044 269 2738 
L 66 3091 
Q 703 3366 1583 4031 
Q 2463 4697 2828 5291 
L 3500 5291 
Q 3984 4663 4814 4055 
Q 5644 3447 6341 3175 
L 6059 2822 
z
M 1581 3078 
L 1581 3456 
L 4844 3456 
L 4844 3078 
L 1581 3078 
z
M 3153 -416 
L 2906 -69 
Q 3450 163 4078 709 
Q 4706 1256 4956 1891 
L 719 1891 
L 719 2269 
L 5525 2269 
L 5603 2178 
Q 5363 1313 4617 589 
Q 3872 -134 3153 -416 
z
" transform="scale(0.015625)"/>
      <path id="Meiryo-591c" d="M 316 4325 
L 316 4716 
L 2934 4716 
L 2934 5303 
L 3444 5303 
L 3444 4716 
L 6094 4716 
L 6094 4325 
L 316 4325 
z
M 4491 831 
Q 5234 325 6256 28 
L 6000 -363 
Q 4984 -91 4128 547 
Q 3256 -97 2188 -375 
L 2013 -31 
Q 3063 275 3794 822 
Q 3122 1431 2709 2238 
Q 2484 1931 2234 1681 
L 1928 1916 
Q 2353 2406 2718 3048 
Q 3084 3691 3200 4169 
L 3697 4091 
Q 3628 3847 3484 3534 
L 5669 3534 
Q 5672 3522 5672 3491 
Q 5672 3322 5569 2773 
Q 5466 2225 5191 1728 
Q 4916 1231 4491 831 
z
M 4131 1103 
L 4147 1119 
Q 4419 1391 4567 1589 
Q 4716 1788 4841 2044 
Q 4966 2300 5042 2583 
Q 5119 2866 5147 3175 
L 3300 3175 
Q 3131 2872 2981 2638 
Q 3359 1759 4131 1103 
z
M 4081 1875 
Q 3803 2259 3463 2622 
L 3794 2844 
L 4422 2103 
L 4081 1875 
z
M 1094 -403 
L 1094 2197 
Q 747 1728 328 1334 
L 53 1597 
Q 534 2097 976 2817 
Q 1419 3538 1609 4141 
L 2109 4025 
Q 1863 3378 1406 2659 
L 1581 2659 
L 1581 -403 
L 1094 -403 
z
" transform="scale(0.015625)"/>
      <path id="Meiryo-5165" d="M 497 -328 
L 281 31 
Q 1603 656 2284 1711 
Q 2966 2766 3034 3909 
Q 3031 3944 3031 3994 
L 3031 4600 
L 1328 4600 
L 1328 5013 
L 3553 5013 
Q 3553 4209 3559 4100 
Q 3578 3713 3648 3348 
Q 3719 2984 3911 2526 
Q 4103 2069 4422 1619 
Q 4741 1169 5167 767 
Q 5594 366 6100 50 
L 5747 -341 
Q 3878 963 3319 2759 
Q 2709 691 497 -328 
z
" transform="scale(0.015625)"/>
      <path id="Meiryo-56e3" d="M 5453 -94 
L 909 -94 
L 909 -363 
L 453 -363 
L 453 5069 
L 5916 5069 
L 5916 -363 
L 5453 -363 
L 5453 -94 
z
M 909 272 
L 5453 272 
L 5453 4719 
L 909 4719 
L 909 272 
z
M 3775 663 
L 3019 663 
L 2966 1088 
L 3566 1088 
Q 3659 1088 3740 1150 
Q 3822 1213 3822 1297 
L 3822 3228 
L 1359 3228 
L 1359 3600 
L 3822 3600 
L 3822 4372 
L 4284 4372 
L 4284 3600 
L 5041 3600 
L 5041 3228 
L 4284 3228 
L 4284 1081 
Q 4284 906 4129 784 
Q 3975 663 3775 663 
z
M 2522 1572 
Q 2084 2234 1750 2628 
L 2116 2850 
Q 2516 2394 2919 1819 
L 2522 1572 
z
" transform="scale(0.015625)"/>
      <path id="Meiryo-6ce8" d="M 1725 -253 
L 1725 156 
L 3703 156 
L 3703 1947 
L 2138 1947 
L 2138 2338 
L 3703 2338 
L 3703 3800 
L 2013 3800 
L 2013 4191 
L 4122 4191 
Q 3881 4431 3044 5084 
L 3403 5372 
Q 3816 5084 4506 4497 
L 4163 4191 
L 6047 4191 
L 6047 3800 
L 4200 3800 
L 4200 2338 
L 5850 2338 
L 5850 1947 
L 4200 1947 
L 4200 156 
L 6184 156 
L 6184 -253 
L 1725 -253 
z
M 1509 3950 
Q 925 4478 447 4831 
L 778 5150 
Q 1409 4703 1838 4316 
L 1509 3950 
z
M 1144 2481 
Q 759 2866 125 3331 
L 434 3669 
Q 1059 3228 1466 2866 
L 1144 2481 
z
M 647 -253 
L 250 28 
Q 500 325 834 942 
Q 1169 1559 1366 2044 
L 1784 1894 
Q 1650 1456 1308 809 
Q 966 163 647 -253 
z
" transform="scale(0.015625)"/>
      <path id="Meiryo-6cb9" d="M 1459 4038 
Q 934 4600 559 4900 
L 878 5225 
Q 1409 4800 1806 4403 
L 1459 4038 
z
M 5450 -88 
L 2497 -88 
L 2497 -319 
L 2009 -319 
L 2009 3972 
L 3700 3972 
L 3700 5213 
L 4203 5213 
L 4203 3972 
L 5944 3972 
L 5944 -319 
L 5450 -319 
L 5450 -88 
z
M 5450 2203 
L 5450 3594 
L 4203 3594 
L 4203 2203 
L 5450 2203 
z
M 3700 3594 
L 2497 3594 
L 2497 2203 
L 3700 2203 
L 3700 3594 
z
M 2497 297 
L 3700 297 
L 3700 1825 
L 2497 1825 
L 2497 297 
z
M 4203 297 
L 5450 297 
L 5450 1825 
L 4203 1825 
L 4203 297 
z
M 1022 2563 
Q 584 3028 147 3384 
L 475 3716 
Q 1022 3278 1356 2934 
L 1022 2563 
z
M 650 -213 
L 234 75 
Q 481 409 770 1017 
Q 1059 1625 1231 2125 
L 1663 1969 
Q 1522 1500 1223 848 
Q 925 197 650 -213 
z
" transform="scale(0.015625)"/>
      <path id="Meiryo-6e08" d="M 2122 -409 
L 1756 -200 
Q 2319 528 2319 1747 
L 2319 2566 
Q 2100 2525 1697 2438 
L 1569 2797 
Q 2719 2988 3497 3378 
Q 2794 3822 2306 4441 
L 1769 4441 
L 1769 4819 
L 3625 4819 
L 3625 5328 
L 4119 5328 
L 4119 4819 
L 6053 4819 
L 6053 4441 
L 5475 4441 
Q 5044 3897 4316 3397 
Q 5188 3019 6256 2863 
L 6078 2478 
Q 5753 2528 5431 2606 
L 5431 -344 
L 4944 -344 
L 4944 897 
L 2719 897 
Q 2584 188 2122 -409 
z
M 3894 3603 
Q 4453 3963 4881 4441 
L 2850 4441 
Q 3294 3947 3894 3603 
z
M 2794 2681 
L 2794 2241 
L 4944 2241 
L 4944 2741 
Q 4391 2916 3916 3147 
Q 3403 2856 2794 2681 
z
M 2794 1888 
L 2794 1856 
Q 2794 1519 2769 1256 
L 4944 1256 
L 4944 1888 
L 2794 1888 
z
M 1247 3972 
Q 925 4325 366 4800 
L 681 5100 
Q 1213 4688 1588 4291 
L 1247 3972 
z
M 1019 2478 
Q 653 2878 166 3288 
L 478 3588 
Q 884 3266 1366 2797 
L 1019 2478 
z
M 659 -253 
L 275 34 
Q 516 369 795 966 
Q 1075 1563 1234 2047 
L 1653 1897 
Q 1513 1438 1219 792 
Q 925 147 659 -253 
z
" transform="scale(0.015625)"/>
      <path id="Meiryo-307f" d="M 6269 2069 
L 6116 1606 
Q 5697 1769 5338 1894 
Q 5178 1138 4815 619 
Q 4453 100 3813 -294 
L 3525 31 
Q 4638 784 4875 2050 
Q 3888 2359 3034 2453 
Q 2159 116 1084 116 
Q 741 116 512 373 
Q 284 631 284 997 
Q 284 1397 514 1833 
Q 744 2269 1244 2589 
Q 1744 2909 2378 2913 
Q 2522 2913 2675 2906 
Q 2909 3625 2988 4334 
L 1003 4334 
L 1003 4731 
L 3453 4731 
L 3550 4628 
Q 3431 3659 3178 2863 
Q 4000 2766 4938 2488 
Q 4956 2716 4956 3609 
L 5444 3609 
L 5447 3066 
Q 5447 2631 5413 2341 
Q 5700 2253 6269 2069 
z
M 2534 2491 
Q 2391 2497 2303 2497 
Q 1816 2497 1448 2233 
Q 1081 1969 911 1600 
Q 741 1231 741 984 
Q 741 813 856 688 
Q 972 563 1138 563 
Q 1466 563 1881 1173 
Q 2297 1784 2534 2491 
z
" transform="scale(0.015625)"/>
     </defs>
     <use xlink:href="#Meiryo-61"/>
     <use xlink:href="#Meiryo-78" transform="translate(58.007812 0)"/>
     <use xlink:href="#Meiryo-69" transform="translate(113.574219 0)"/>
     <use xlink:href="#Meiryo-73" transform="translate(138.964844 0)"/>
     <use xlink:href="#Meiryo-31" transform="translate(188.769531 0)"/>
     <use xlink:href="#Meiryo-20" transform="translate(250.878906 0)"/>
     <use xlink:href="#Meiryo-28" transform="translate(284.863281 0)"/>
     <use xlink:href="#Meiryo-4eca" transform="translate(328.808594 0)"/>
     <use xlink:href="#Meiryo-591c" transform="translate(428.808594 0)"/>
     <use xlink:href="#Meiryo-5165" transform="translate(528.808594 0)"/>
     <use xlink:href="#Meiryo-56e3" transform="translate(628.808594 0)"/>
     <use xlink:href="#Meiryo-30fb" transform="translate(728.808594 0)"/>
     <use xlink:href="#Meiryo-6ce8" transform="translate(828.808594 0)"/>
     <use xlink:href="#Meiryo-6cb9" transform="translate(928.808594 0)"/>
     <use xlink:href="#Meiryo-6e08" transform="translate(1028.808594 0)"/>
     <use xlink:href="#Meiryo-307f" transform="translate(1128.808594 0)"/>
     <use xlink:href="#Meiryo-29" transform="translate(1228.808594 0)"/>
    </g>
   </g>
   <g id="legend_2">
    <g id="patch_13">
     <path d="M 761.736836 83.011875 
L 808.536836 83.011875 
Q 810.336836 83.011875 810.336836 81.211875 
L 810.336836 55.6125 
Q 810.336836 53.8125 808.536836 53.8125 
L 761.736836 53.8125 
Q 759.936836 53.8125 759.936836 55.6125 
L 759.936836 81.211875 
Q 759.936836 83.011875 761.736836 83.011875 
z
" style="fill: #ffffff; opacity: 0.8; stroke: #cccccc; stroke-linejoin: miter"/>
    </g>
    <g id="line2d_55">
     <path d="M 763.536836 61.179844 
L 772.536836 61.179844 
L 781.536836 61.179844 
" style="fill: none; stroke: #c2571a; stroke-width: 1.8; stroke-linecap: square"/>
     <g>
      <use xlink:href="#me237d9558c" x="772.536836" y="61.179844" style="fill: #c2571a; stroke: #c2571a"/>
     </g>
    </g>
    <g id="text_26">
     <!-- 正転 -->
     <g transform="translate(788.736836 64.329844) scale(0.09 -0.09)">
      <use xlink:href="#Meiryo-6b63"/>
      <use xlink:href="#Meiryo-8ee2" transform="translate(100 0)"/>
     </g>
    </g>
    <g id="line2d_56">
     <path d="M 763.536836 74.429531 
L 772.536836 74.429531 
L 781.536836 74.429531 
" style="fill: none; stroke-dasharray: 6.66,2.88; stroke-dashoffset: 0; stroke: #c2571a; stroke-width: 1.8"/>
     <g>
      <use xlink:href="#me237d9558c" x="772.536836" y="74.429531" style="fill: #c2571a; stroke: #c2571a"/>
     </g>
    </g>
    <g id="text_27">
     <!-- 逆転 -->
     <g transform="translate(788.736836 77.579531) scale(0.09 -0.09)">
      <use xlink:href="#Meiryo-9006"/>
      <use xlink:href="#Meiryo-8ee2" transform="translate(100 0)"/>
     </g>
    </g>
   </g>
  </g>
  <g id="text_28">
   <!-- 個体差カルテ: 同一条件(16µstep, StealthChop, IRUN=14, 24V)・同夜・無人測定 -->
   <g transform="translate(185.64375 17.04825) scale(0.12 -0.12)">
    <defs>
     <path id="Meiryo-500b" d="M 1003 -400 
L 1003 2963 
Q 669 2313 356 1891 
L 44 2144 
Q 472 2788 850 3702 
Q 1228 4616 1363 5331 
L 1831 5253 
Q 1613 4294 1231 3438 
L 1484 3438 
L 1484 -400 
L 1003 -400 
z
M 5463 -81 
L 2506 -81 
L 2506 -338 
L 2050 -338 
L 2050 5088 
L 5941 5088 
L 5941 -338 
L 5463 -338 
L 5463 -81 
z
M 2506 284 
L 5463 284 
L 5463 4744 
L 2506 4744 
L 2506 284 
z
M 2991 831 
L 2991 2569 
L 3747 2569 
L 3747 3403 
L 2819 3403 
L 2819 3750 
L 3747 3750 
L 3747 4456 
L 4197 4456 
L 4197 3750 
L 5163 3750 
L 5163 3403 
L 4197 3403 
L 4197 2569 
L 4969 2569 
L 4969 831 
L 2991 831 
z
M 3413 1166 
L 4531 1166 
L 4531 2238 
L 3413 2238 
L 3413 1166 
z
" transform="scale(0.015625)"/>
     <path id="Meiryo-4f53" d="M 2200 5219 
Q 2003 4522 1378 3372 
L 1563 3372 
L 1563 -403 
L 1066 -403 
L 1066 2825 
Q 728 2281 366 1869 
L 47 2125 
Q 613 2822 1089 3787 
Q 1566 4753 1706 5303 
L 2200 5219 
z
M 6350 981 
L 6031 628 
Q 5547 1044 5040 1698 
Q 4534 2353 4216 2925 
L 4216 1263 
L 5050 1263 
L 5050 891 
L 4216 891 
L 4216 -356 
L 3747 -356 
L 3747 891 
L 2838 891 
L 2838 1263 
L 3747 1263 
L 3747 2919 
Q 2809 1363 1872 634 
L 1606 922 
Q 2028 1278 2634 2036 
Q 3241 2794 3581 3588 
L 1938 3588 
L 1938 3972 
L 3734 3972 
L 3734 5297 
L 4234 5297 
L 4234 3972 
L 6116 3972 
L 6116 3588 
L 4331 3588 
Q 4463 3275 5042 2429 
Q 5622 1584 6350 981 
z
" transform="scale(0.015625)"/>
     <path id="Meiryo-5dee" d="M 441 -150 
L 184 156 
Q 1256 1038 1625 2291 
L 400 2291 
L 400 2678 
L 2916 2678 
L 2916 3291 
L 794 3291 
L 794 3650 
L 2916 3650 
L 2916 4275 
L 556 4275 
L 556 4634 
L 2028 4634 
L 1725 5250 
L 2197 5353 
L 2538 4634 
L 3850 4634 
L 4213 5359 
L 4716 5238 
L 4322 4634 
L 5872 4634 
L 5872 4275 
L 3409 4275 
L 3409 3650 
L 5597 3650 
L 5597 3291 
L 3409 3291 
L 3409 2678 
L 6022 2678 
L 6022 2291 
L 2116 2291 
Q 1931 1603 1550 1028 
Q 1169 453 441 -150 
z
M 1431 -247 
L 1431 144 
L 3534 144 
L 3534 1275 
L 2059 1275 
L 2059 1653 
L 5716 1653 
L 5716 1275 
L 4031 1275 
L 4031 144 
L 6053 144 
L 6053 -247 
L 1431 -247 
z
" transform="scale(0.015625)"/>
     <path id="Meiryo-30ab" d="M 3041 5125 
L 3041 3934 
L 5778 3934 
L 5778 3694 
Q 5778 2606 5747 2220 
Q 5716 1834 5652 1403 
Q 5588 972 5473 661 
Q 5359 350 5211 178 
Q 5063 6 4828 -84 
Q 4594 -175 4184 -175 
Q 3747 -175 3072 -53 
L 3084 422 
Q 3647 306 4125 306 
Q 4350 306 4554 378 
Q 4759 450 4912 759 
Q 5066 1069 5152 1673 
Q 5238 2278 5238 3088 
L 5234 3488 
L 3003 3488 
Q 2906 2047 2275 1144 
Q 1644 241 622 -300 
L 359 56 
Q 1322 638 1847 1436 
Q 2372 2234 2469 3488 
L 622 3488 
L 622 3934 
L 2491 3934 
L 2491 5125 
L 3041 5125 
z
" transform="scale(0.015625)"/>
     <path id="Meiryo-30eb" d="M 6394 2163 
Q 5994 1309 5158 676 
Q 4322 44 3506 -181 
L 3278 31 
L 3278 4897 
L 3803 4897 
L 3803 484 
Q 4319 638 4923 1119 
Q 5528 1600 6003 2438 
L 6394 2163 
z
M 1947 3275 
Q 1947 2538 1881 2073 
Q 1816 1609 1583 1164 
Q 1350 719 997 350 
Q 644 -19 238 -231 
L 6 166 
Q 397 406 728 800 
Q 1059 1194 1237 1731 
Q 1416 2269 1416 3378 
L 1416 4697 
L 1947 4697 
L 1947 3275 
z
" transform="scale(0.015625)"/>
     <path id="Meiryo-30c6" d="M 5741 4288 
L 641 4288 
L 641 4722 
L 5741 4722 
L 5741 4288 
z
M 3669 2369 
Q 3669 1581 3408 1084 
Q 3147 588 2584 242 
Q 2022 -103 1147 -281 
L 978 159 
Q 1959 369 2534 851 
Q 3109 1334 3109 2253 
L 3109 2578 
L 275 2578 
L 275 3034 
L 6125 3034 
L 6125 2578 
L 3669 2578 
L 3669 2369 
z
" transform="scale(0.015625)"/>
     <path id="Meiryo-3a" d="M 1731 2678 
L 1022 2678 
L 1022 3531 
L 1731 3531 
L 1731 2678 
z
M 1731 0 
L 1022 0 
L 1022 853 
L 1731 853 
L 1731 0 
z
" transform="scale(0.015625)"/>
     <path id="Meiryo-540c" d="M 5166 -322 
L 4244 -322 
L 4188 116 
L 5016 116 
Q 5141 116 5228 191 
Q 5316 266 5316 356 
L 5316 4666 
L 1019 4666 
L 1019 -381 
L 556 -381 
L 556 5031 
L 5791 5031 
L 5791 181 
Q 5791 -25 5611 -173 
Q 5431 -322 5166 -322 
z
M 1509 3641 
L 1509 4019 
L 4781 4019 
L 4781 3641 
L 1509 3641 
z
M 2275 925 
L 2275 606 
L 1803 606 
L 1803 2859 
L 4553 2859 
L 4553 925 
L 2275 925 
z
M 2275 1297 
L 4081 1297 
L 4081 2500 
L 2275 2500 
L 2275 1297 
z
" transform="scale(0.015625)"/>
     <path id="Meiryo-4e00" d="M 381 2606 
L 381 3050 
L 6006 3050 
L 6006 2606 
L 381 2606 
z
" transform="scale(0.015625)"/>
     <path id="Meiryo-6761" d="M 1788 4222 
Q 1181 3678 509 3331 
L 288 3625 
Q 1638 4406 2228 5406 
L 2722 5316 
Q 2597 5091 2434 4878 
L 4891 4878 
L 5075 4703 
Q 4859 4338 4645 4092 
Q 4431 3847 4195 3640 
Q 3959 3434 3688 3253 
Q 4600 2891 6119 2666 
L 5934 2266 
Q 4516 2466 3288 3013 
Q 2194 2444 347 2209 
L 216 2559 
Q 1853 2775 2853 3250 
Q 2203 3659 1788 4222 
z
M 2109 4525 
L 2078 4494 
Q 2500 3888 3253 3459 
Q 3950 3872 4381 4525 
L 2109 4525 
z
M 2938 1200 
Q 2366 731 1623 376 
Q 881 22 244 -128 
L 100 216 
Q 666 359 1375 692 
Q 2084 1025 2694 1550 
L 406 1550 
L 406 1934 
L 2925 1934 
L 2925 2450 
L 3428 2450 
L 3428 1934 
L 6000 1934 
L 6000 1550 
L 3609 1550 
Q 4153 1078 4892 726 
Q 5631 375 6306 209 
L 6066 -181 
Q 4488 278 3416 1216 
L 3416 -391 
L 2938 -391 
L 2938 1200 
z
" transform="scale(0.015625)"/>
     <path id="Meiryo-4ef6" d="M 2031 1844 
L 2031 2228 
L 3950 2228 
L 3950 3803 
L 2903 3803 
Q 2656 3203 2441 2922 
L 2056 3103 
Q 2272 3447 2505 4047 
Q 2738 4647 2822 5100 
L 3297 5022 
Q 3228 4678 3053 4194 
L 3950 4194 
L 3950 5309 
L 4453 5309 
L 4453 4194 
L 6059 4194 
L 6059 3803 
L 4453 3803 
L 4453 2228 
L 6294 2228 
L 6294 1844 
L 4453 1844 
L 4453 -344 
L 3950 -344 
L 3950 1844 
L 2031 1844 
z
M 1078 -391 
L 1078 2847 
Q 722 2263 353 1863 
L 47 2119 
Q 581 2784 1050 3689 
Q 1519 4594 1684 5297 
L 2181 5206 
Q 2013 4559 1416 3450 
L 1575 3450 
L 1575 -391 
L 1078 -391 
z
" transform="scale(0.015625)"/>
     <path id="Meiryo-36" d="M 3222 4722 
L 3222 4169 
L 3184 4169 
Q 2922 4297 2572 4297 
Q 1881 4297 1468 3858 
Q 1056 3419 988 2638 
Q 1578 2991 2138 2991 
Q 2822 2991 3248 2611 
Q 3675 2231 3675 1522 
Q 3675 816 3212 359 
Q 2750 -97 2063 -97 
Q 1266 -97 823 458 
Q 381 1013 381 2066 
Q 381 3363 973 4080 
Q 1566 4797 2666 4797 
Q 2997 4797 3222 4722 
z
M 988 2238 
Q 975 1981 975 1928 
Q 975 1184 1265 779 
Q 1556 375 2069 375 
Q 2541 375 2809 670 
Q 3078 966 3078 1497 
Q 3078 1938 2825 2225 
Q 2572 2513 1984 2513 
Q 1475 2513 988 2238 
z
" transform="scale(0.015625)"/>
     <path id="Meiryo-b5" d="M 3469 0 
L 2925 0 
L 2925 406 
Q 2500 -66 1991 -66 
Q 1750 -66 1550 25 
Q 1350 116 1081 391 
L 1081 -1303 
L 531 -1303 
L 531 3531 
L 1081 3531 
L 1081 828 
Q 1216 669 1473 558 
Q 1731 447 1997 447 
Q 2563 447 2919 847 
L 2919 3531 
L 3469 3531 
L 3469 0 
z
" transform="scale(0.015625)"/>
     <path id="Meiryo-74" d="M 1647 -69 
Q 553 -69 553 1134 
L 553 3081 
L 150 3081 
L 150 3531 
L 556 3531 
L 556 4547 
L 1103 4547 
L 1103 3531 
L 2341 3531 
L 2341 3081 
L 1103 3081 
L 1103 1447 
Q 1103 891 1179 727 
Q 1256 563 1412 486 
Q 1569 409 1813 409 
Q 2044 409 2322 522 
L 2341 522 
L 2341 22 
Q 1969 -69 1647 -69 
z
" transform="scale(0.015625)"/>
     <path id="Meiryo-65" d="M 834 2131 
L 2906 2131 
Q 2881 3184 1941 3184 
Q 1466 3184 1172 2903 
Q 878 2622 834 2131 
z
M 2125 -81 
Q 1244 -81 758 395 
Q 272 872 272 1744 
Q 272 2609 737 3120 
Q 1203 3631 1972 3631 
Q 2672 3631 3058 3212 
Q 3444 2794 3444 2019 
L 3444 1716 
L 834 1716 
Q 834 1078 1179 736 
Q 1525 394 2134 394 
Q 2741 394 3347 816 
L 3372 816 
L 3372 219 
Q 2619 -81 2125 -81 
z
" transform="scale(0.015625)"/>
     <path id="Meiryo-70" d="M 1081 203 
L 1081 -1303 
L 531 -1303 
L 531 3531 
L 1081 3531 
L 1081 3141 
Q 1684 3631 2253 3631 
Q 2878 3631 3247 3145 
Q 3616 2659 3616 1809 
Q 3616 975 3169 453 
Q 2722 -69 2063 -69 
Q 1559 -69 1081 203 
z
M 1081 2694 
L 1081 631 
Q 1550 422 1950 422 
Q 2466 422 2756 780 
Q 3047 1138 3047 1791 
Q 3047 3113 2094 3113 
Q 1588 3113 1081 2694 
z
" transform="scale(0.015625)"/>
     <path id="Meiryo-2c" d="M 1731 853 
L 850 -1156 
L 431 -1156 
L 981 853 
L 1731 853 
z
" transform="scale(0.015625)"/>
     <path id="Meiryo-6c" d="M 1088 0 
L 538 0 
L 538 4919 
L 1088 4919 
L 1088 0 
z
" transform="scale(0.015625)"/>
     <path id="Meiryo-68" d="M 3450 0 
L 2900 0 
L 2900 1975 
Q 2900 2666 2719 2889 
Q 2538 3113 2122 3113 
Q 1634 3113 1081 2659 
L 1081 0 
L 531 0 
L 531 4919 
L 1081 4919 
L 1081 3109 
Q 1700 3631 2309 3631 
Q 2856 3631 3153 3289 
Q 3450 2947 3450 2300 
L 3450 0 
z
" transform="scale(0.015625)"/>
     <path id="Meiryo-6f" d="M 1900 -97 
Q 1147 -97 709 401 
Q 272 900 272 1763 
Q 272 2625 712 3128 
Q 1153 3631 1900 3631 
Q 2647 3631 3087 3131 
Q 3528 2631 3528 1763 
Q 3528 894 3089 398 
Q 2650 -97 1900 -97 
z
M 1900 3163 
Q 1391 3163 1116 2803 
Q 841 2444 841 1763 
Q 841 1091 1116 731 
Q 1391 372 1900 372 
Q 2409 372 2684 731 
Q 2959 1091 2959 1763 
Q 2959 3163 1900 3163 
z
" transform="scale(0.015625)"/>
     <path id="Meiryo-49" d="M 2197 0 
L 381 0 
L 381 434 
L 1000 434 
L 1000 4275 
L 381 4275 
L 381 4709 
L 2197 4709 
L 2197 4275 
L 1581 4275 
L 1581 434 
L 2197 434 
L 2197 0 
z
" transform="scale(0.015625)"/>
     <path id="Meiryo-4e" d="M 4166 0 
L 3491 0 
L 1119 4088 
L 1119 0 
L 578 0 
L 578 4709 
L 1384 4709 
L 3625 847 
L 3625 4709 
L 4166 4709 
L 4166 0 
z
" transform="scale(0.015625)"/>
     <path id="Meiryo-7121" d="M 1041 1647 
L 1041 2791 
L 291 2791 
L 291 3163 
L 1041 3163 
L 1041 4069 
Q 688 3706 375 3500 
L 106 3781 
Q 491 4047 887 4528 
Q 1284 5009 1438 5334 
L 1928 5250 
Q 1819 5025 1516 4625 
L 5950 4625 
L 5950 4253 
L 5356 4253 
L 5356 3163 
L 6166 3163 
L 6166 2791 
L 5356 2791 
L 5356 1647 
L 6009 1647 
L 6009 1263 
L 406 1263 
L 406 1647 
L 1041 1647 
z
M 1516 4253 
L 1516 3163 
L 2313 3163 
L 2313 4253 
L 1516 4253 
z
M 2784 4253 
L 2784 3163 
L 3581 3163 
L 3581 4253 
L 2784 4253 
z
M 4044 3163 
L 4872 3163 
L 4872 4253 
L 4044 4253 
L 4044 3163 
z
M 1516 2791 
L 1516 1647 
L 2313 1647 
L 2313 2791 
L 1516 2791 
z
M 2784 1647 
L 3581 1647 
L 3581 2791 
L 2784 2791 
L 2784 1647 
z
M 4044 1647 
L 4872 1647 
L 4872 2791 
L 4044 2791 
L 4044 1647 
z
M 5669 -297 
Q 5334 359 4906 944 
L 5375 1106 
Q 5656 722 6178 -147 
L 5669 -297 
z
M 3859 -291 
Q 3750 50 3422 916 
L 3894 1022 
Q 4231 250 4375 -181 
L 3859 -291 
z
M 675 -403 
L 225 -213 
Q 397 -22 623 361 
Q 850 744 963 1016 
L 1438 903 
Q 1334 634 1071 184 
Q 809 -266 675 -403 
z
M 2263 -325 
L 1953 897 
L 2438 981 
Q 2609 469 2778 -253 
L 2263 -325 
z
" transform="scale(0.015625)"/>
     <path id="Meiryo-4eba" d="M 3213 2578 
Q 2963 1538 2227 811 
Q 1491 84 522 -303 
L 328 50 
Q 1606 600 2239 1565 
Q 2872 2531 2872 3491 
L 2872 5153 
L 3394 5153 
L 3394 3447 
Q 3503 2756 3942 2023 
Q 4381 1291 5053 791 
Q 5725 291 6144 122 
L 5838 -291 
Q 4797 238 4123 980 
Q 3450 1722 3213 2578 
z
" transform="scale(0.015625)"/>
     <path id="Meiryo-6e2c" d="M 5938 172 
Q 5938 -28 5780 -165 
Q 5622 -303 5463 -303 
L 4719 -303 
L 4647 119 
L 5188 119 
Q 5303 119 5386 187 
Q 5469 256 5469 363 
L 5469 5250 
L 5938 5250 
L 5938 172 
z
M 3797 1125 
L 1859 1125 
L 1859 5100 
L 3797 5100 
L 3797 1125 
z
M 3347 3881 
L 3347 4750 
L 2309 4750 
L 2309 3881 
L 3347 3881 
z
M 3347 2725 
L 3347 3547 
L 2309 3547 
L 2309 2725 
L 3347 2725 
z
M 3347 2391 
L 2309 2391 
L 2309 1484 
L 3347 1484 
L 3347 2391 
z
M 1566 4284 
L 1244 3947 
Q 903 4334 384 4781 
L 691 5100 
Q 1225 4666 1566 4284 
z
M 4856 1138 
L 4384 1138 
L 4384 4769 
L 4856 4769 
L 4856 1138 
z
M 1278 2834 
L 950 2491 
Q 622 2850 109 3300 
L 422 3613 
Q 859 3256 1278 2834 
z
M 1513 1916 
Q 1384 1425 1112 778 
Q 841 131 584 -266 
L 200 9 
Q 434 350 704 972 
Q 975 1594 1116 2066 
L 1513 1916 
z
M 4197 -75 
L 3784 -303 
Q 3309 291 3088 722 
L 3484 897 
Q 3719 453 4197 -75 
z
M 2544 722 
Q 2431 528 2129 167 
Q 1828 -194 1650 -344 
L 1309 -88 
Q 1497 75 1759 392 
Q 2022 709 2125 897 
L 2544 722 
z
" transform="scale(0.015625)"/>
     <path id="Meiryo-5b9a" d="M 5563 3516 
L 5563 4238 
L 850 4238 
L 850 3475 
L 400 3475 
L 400 4625 
L 2978 4625 
L 2978 5322 
L 3481 5322 
L 3481 4625 
L 6028 4625 
L 6028 3516 
L 5563 3516 
z
M 1763 1200 
Q 2163 619 2906 375 
L 2966 356 
L 2966 3266 
L 1256 3266 
L 1256 3644 
L 5125 3644 
L 5125 3266 
L 3463 3266 
L 3463 2103 
L 5497 2103 
L 5497 1731 
L 3463 1731 
L 3463 228 
Q 4028 125 5069 125 
Q 5369 125 6125 141 
L 6019 -266 
L 5494 -266 
Q 4472 -266 4001 -234 
Q 3531 -203 3093 -111 
Q 2656 -19 2250 206 
Q 1844 431 1591 728 
Q 1228 22 509 -384 
L 263 -69 
Q 694 194 945 567 
Q 1197 941 1308 1361 
Q 1419 1781 1419 2516 
L 1419 2625 
L 1894 2625 
Q 1894 1697 1763 1200 
z
" transform="scale(0.015625)"/>
    </defs>
    <use xlink:href="#Meiryo-500b"/>
    <use xlink:href="#Meiryo-4f53" transform="translate(100 0)"/>
    <use xlink:href="#Meiryo-5dee" transform="translate(200 0)"/>
    <use xlink:href="#Meiryo-30ab" transform="translate(300 0)"/>
    <use xlink:href="#Meiryo-30eb" transform="translate(400 0)"/>
    <use xlink:href="#Meiryo-30c6" transform="translate(500 0)"/>
    <use xlink:href="#Meiryo-3a" transform="translate(600 0)"/>
    <use xlink:href="#Meiryo-20" transform="translate(642.96875 0)"/>
    <use xlink:href="#Meiryo-540c" transform="translate(676.953125 0)"/>
    <use xlink:href="#Meiryo-4e00" transform="translate(776.953125 0)"/>
    <use xlink:href="#Meiryo-6761" transform="translate(876.953125 0)"/>
    <use xlink:href="#Meiryo-4ef6" transform="translate(976.953125 0)"/>
    <use xlink:href="#Meiryo-28" transform="translate(1076.953125 0)"/>
    <use xlink:href="#Meiryo-31" transform="translate(1120.898438 0)"/>
    <use xlink:href="#Meiryo-36" transform="translate(1183.007812 0)"/>
    <use xlink:href="#Meiryo-b5" transform="translate(1245.117188 0)"/>
    <use xlink:href="#Meiryo-73" transform="translate(1307.617188 0)"/>
    <use xlink:href="#Meiryo-74" transform="translate(1357.421875 0)"/>
    <use xlink:href="#Meiryo-65" transform="translate(1395.3125 0)"/>
    <use xlink:href="#Meiryo-70" transform="translate(1453.027344 0)"/>
    <use xlink:href="#Meiryo-2c" transform="translate(1512.492188 0)"/>
    <use xlink:href="#Meiryo-20" transform="translate(1547.404297 0)"/>
    <use xlink:href="#Meiryo-53" transform="translate(1581.388672 0)"/>
    <use xlink:href="#Meiryo-74" transform="translate(1644.865234 0)"/>
    <use xlink:href="#Meiryo-65" transform="translate(1682.755859 0)"/>
    <use xlink:href="#Meiryo-61" transform="translate(1740.470703 0)"/>
    <use xlink:href="#Meiryo-6c" transform="translate(1798.478516 0)"/>
    <use xlink:href="#Meiryo-74" transform="translate(1823.869141 0)"/>
    <use xlink:href="#Meiryo-68" transform="translate(1861.759766 0)"/>
    <use xlink:href="#Meiryo-43" transform="translate(1923.576172 0)"/>
    <use xlink:href="#Meiryo-68" transform="translate(1990.8125 0)"/>
    <use xlink:href="#Meiryo-6f" transform="translate(2052.628906 0)"/>
    <use xlink:href="#Meiryo-70" transform="translate(2112.003906 0)"/>
    <use xlink:href="#Meiryo-2c" transform="translate(2171.46875 0)"/>
    <use xlink:href="#Meiryo-20" transform="translate(2206.380859 0)"/>
    <use xlink:href="#Meiryo-49" transform="translate(2240.365234 0)"/>
    <use xlink:href="#Meiryo-52" transform="translate(2280.697266 0)"/>
    <use xlink:href="#Meiryo-55" transform="translate(2348.958984 0)"/>
    <use xlink:href="#Meiryo-4e" transform="translate(2421.859375 0)"/>
    <use xlink:href="#Meiryo-3d" transform="translate(2495.980469 0)"/>
    <use xlink:href="#Meiryo-31" transform="translate(2576.351562 0)"/>
    <use xlink:href="#Meiryo-34" transform="translate(2638.460938 0)"/>
    <use xlink:href="#Meiryo-2c" transform="translate(2700.570312 0)"/>
    <use xlink:href="#Meiryo-20" transform="translate(2735.482422 0)"/>
    <use xlink:href="#Meiryo-32" transform="translate(2769.466797 0)"/>
    <use xlink:href="#Meiryo-34" transform="translate(2831.576172 0)"/>
    <use xlink:href="#Meiryo-56" transform="translate(2893.685547 0)"/>
    <use xlink:href="#Meiryo-29" transform="translate(2961.947266 0)"/>
    <use xlink:href="#Meiryo-30fb" transform="translate(3005.892578 0)"/>
    <use xlink:href="#Meiryo-540c" transform="translate(3105.892578 0)"/>
    <use xlink:href="#Meiryo-591c" transform="translate(3205.892578 0)"/>
    <use xlink:href="#Meiryo-30fb" transform="translate(3305.892578 0)"/>
    <use xlink:href="#Meiryo-7121" transform="translate(3405.892578 0)"/>
    <use xlink:href="#Meiryo-4eba" transform="translate(3505.892578 0)"/>
    <use xlink:href="#Meiryo-6e2c" transform="translate(3605.892578 0)"/>
    <use xlink:href="#Meiryo-5b9a" transform="translate(3705.892578 0)"/>
   </g>
  </g>
 </g>
 <defs>
  <clipPath id="p402adf38c2">
   <rect x="50.857143" y="49.3125" width="373.658264" height="254.944643"/>
  </clipPath>
  <clipPath id="p8ed04bb222">
   <rect x="441.178571" y="49.3125" width="373.658264" height="254.944643"/>
  </clipPath>
 </defs>
</svg>
